<svg xmlns="http://www.w3.org/2000/svg" viewBox="0 0 530 540" role="img" aria-label="Tree: L0-E. grounded."><defs>
            <linearGradient id="skyG" x1="0" y1="0" x2="0" y2="1"><stop offset="0%" stop-color="#2a4a70"/><stop offset="100%" stop-color="#4a7aa0"/></linearGradient>
            <linearGradient id="soilG" x1="0" y1="0" x2="0" y2="1"><stop offset="0%" stop-color="#3a3020"/><stop offset="50%" stop-color="#2e2618"/><stop offset="100%" stop-color="#221c12"/></linearGradient>
        </defs><rect width="530" height="285" fill="url(#skyG)"/><rect y="285" width="530" height="255" fill="url(#soilG)"/><rect x="0" y="283" width="530" height="4" fill="#3a5a2a" opacity="0.4"/><line x1="50" y1="0" x2="50" y2="540" stroke="rgba(255,255,255,0.04)" stroke-width="0.5"/><line x1="100" y1="0" x2="100" y2="540" stroke="rgba(255,255,255,0.04)" stroke-width="0.5"/><line x1="150" y1="0" x2="150" y2="540" stroke="rgba(255,255,255,0.04)" stroke-width="0.5"/><line x1="200" y1="0" x2="200" y2="540" stroke="rgba(255,255,255,0.04)" stroke-width="0.5"/><line x1="250" y1="0" x2="250" y2="540" stroke="rgba(255,255,255,0.04)" stroke-width="0.5"/><line x1="300" y1="0" x2="300" y2="540" stroke="rgba(255,255,255,0.04)" stroke-width="0.5"/><line x1="350" y1="0" x2="350" y2="540" stroke="rgba(255,255,255,0.04)" stroke-width="0.5"/><line x1="400" y1="0" x2="400" y2="540" stroke="rgba(255,255,255,0.04)" stroke-width="0.5"/><line x1="450" y1="0" x2="450" y2="540" stroke="rgba(255,255,255,0.04)" stroke-width="0.5"/><line x1="500" y1="0" x2="500" y2="540" stroke="rgba(255,255,255,0.04)" stroke-width="0.5"/><line x1="0" y1="40" x2="530" y2="40" stroke="rgba(255,255,255,0.04)" stroke-width="0.5"/><line x1="0" y1="90" x2="530" y2="90" stroke="rgba(255,255,255,0.04)" stroke-width="0.5"/><line x1="0" y1="140" x2="530" y2="140" stroke="rgba(255,255,255,0.04)" stroke-width="0.5"/><line x1="0" y1="190" x2="530" y2="190" stroke="rgba(255,255,255,0.04)" stroke-width="0.5"/><line x1="0" y1="240" x2="530" y2="240" stroke="rgba(255,255,255,0.04)" stroke-width="0.5"/><line x1="0" y1="290" x2="530" y2="290" stroke="rgba(255,255,255,0.04)" stroke-width="0.5"/><line x1="0" y1="340" x2="530" y2="340" stroke="rgba(255,255,255,0.04)" stroke-width="0.5"/><line x1="0" y1="390" x2="530" y2="390" stroke="rgba(255,255,255,0.04)" stroke-width="0.5"/><line x1="0" y1="440" x2="530" y2="440" stroke="rgba(255,255,255,0.04)" stroke-width="0.5"/><line x1="0" y1="490" x2="530" y2="490" stroke="rgba(255,255,255,0.04)" stroke-width="0.5"/><path d="M25 285 A240 240 0 0 0 505 285" fill="none" stroke="rgba(255,255,255,0.08)" stroke-width="0.5" stroke-dasharray="3,5"/><path d="M73 285 A192 192 0 0 0 457 285" fill="none" stroke="rgba(255,255,255,0.08)" stroke-width="0.5" stroke-dasharray="3,5"/><path d="M121 285 A144 144 0 0 0 409 285" fill="none" stroke="rgba(255,255,255,0.08)" stroke-width="0.5" stroke-dasharray="3,5"/><path d="M169 285 A96 96 0 0 0 361 285" fill="none" stroke="rgba(255,255,255,0.08)" stroke-width="0.5" stroke-dasharray="3,5"/><path d="M217 285 A48 48 0 0 0 313 285" fill="none" stroke="rgba(255,255,255,0.08)" stroke-width="0.5" stroke-dasharray="3,5"/><path d="M25 285 A240 240 0 0 1 505 285" fill="none" stroke="rgba(255,255,255,0.08)" stroke-width="0.5"/><path d="M73 285 A192 192 0 0 1 457 285" fill="none" stroke="rgba(255,255,255,0.08)" stroke-width="0.5"/><path d="M121 285 A144 144 0 0 1 409 285" fill="none" stroke="rgba(255,255,255,0.08)" stroke-width="0.5"/><path d="M169 285 A96 96 0 0 1 361 285" fill="none" stroke="rgba(255,255,255,0.08)" stroke-width="0.5"/><path d="M217 285 A48 48 0 0 1 313 285" fill="none" stroke="rgba(255,255,255,0.08)" stroke-width="0.5"/><text x="313" y="239" text-anchor="start" fill="#ffffff" font-size="9" letter-spacing="1.5" font-weight="400" font-family="system-ui, -apple-system, sans-serif" opacity="0.6">AI AUTOMATION</text><text x="313" y="261" text-anchor="middle" fill="#ffffff" font-size="12" font-weight="400" font-family="system-ui, -apple-system, sans-serif" opacity="0.5">L1</text><text x="361" y="261" text-anchor="middle" fill="#ffffff" font-size="12" font-weight="400" font-family="system-ui, -apple-system, sans-serif" opacity="0.5">L2</text><text x="409" y="261" text-anchor="middle" fill="#ffffff" font-size="12" font-weight="400" font-family="system-ui, -apple-system, sans-serif" opacity="0.5">L3</text><text x="457" y="261" text-anchor="middle" fill="#ffffff" font-size="12" font-weight="400" font-family="system-ui, -apple-system, sans-serif" opacity="0.5">L4</text><text x="505" y="261" text-anchor="middle" fill="#ffffff" font-size="12" font-weight="400" font-family="system-ui, -apple-system, sans-serif" opacity="0.5">L5</text><line x1="0" y1="285" x2="530" y2="285" stroke="#3a5a2a" stroke-width="1.5" opacity="0.6"/><text x="265" y="355" text-anchor="middle" fill="#e8c547" font-size="13" font-weight="700" font-family="system-ui, -apple-system, sans-serif">L0</text><text x="265" y="371" text-anchor="middle" fill="#ffffff" font-size="9" letter-spacing="2.5" font-family="system-ui, -apple-system, sans-serif" opacity="0.7">FUNDAMENTALS</text><g class="tree-whole"><g class="tree-roots"><line x1="265.0" y1="288.0" x2="265.2" y2="293.0" stroke="#a08858" stroke-width="1.7" stroke-linecap="round" opacity="0.48"/><line x1="265.2" y1="293.0" x2="265.7" y2="298.0" stroke="#a08858" stroke-width="1.7" stroke-linecap="round" opacity="0.48"/><line x1="265.0" y1="288.0" x2="260.1" y2="289.0" stroke="#a08858" stroke-width="1.7" stroke-linecap="round" opacity="0.48"/><line x1="265.0" y1="288.0" x2="270.0" y2="288.1" stroke="#a08858" stroke-width="1.7" stroke-linecap="round" opacity="0.48"/><line x1="265.7" y1="298.0" x2="267.1" y2="302.8" stroke="#a08858" stroke-width="1.6" stroke-linecap="round" opacity="0.47"/><line x1="260.1" y1="289.0" x2="255.6" y2="291.1" stroke="#a08858" stroke-width="1.6" stroke-linecap="round" opacity="0.47"/><line x1="265.2" y1="293.0" x2="270.2" y2="292.6" stroke="#a08858" stroke-width="1.6" stroke-linecap="round" opacity="0.47"/><line x1="270.0" y1="288.1" x2="275.0" y2="287.8" stroke="#a08858" stroke-width="1.6" stroke-linecap="round" opacity="0.47"/><line x1="255.6" y1="291.1" x2="251.1" y2="293.3" stroke="#a08858" stroke-width="1.5" stroke-linecap="round" opacity="0.46"/><line x1="267.1" y1="302.8" x2="268.2" y2="307.6" stroke="#a08858" stroke-width="1.5" stroke-linecap="round" opacity="0.46"/><line x1="270.2" y1="292.6" x2="275.2" y2="292.9" stroke="#a08858" stroke-width="1.5" stroke-linecap="round" opacity="0.46"/><line x1="275.0" y1="287.8" x2="280.0" y2="287.8" stroke="#a08858" stroke-width="1.5" stroke-linecap="round" opacity="0.46"/><line x1="267.1" y1="302.8" x2="272.1" y2="302.3" stroke="#a08858" stroke-width="1.5" stroke-linecap="round" opacity="0.46"/><line x1="251.1" y1="293.3" x2="246.5" y2="295.3" stroke="#a08858" stroke-width="1.4" stroke-linecap="round" opacity="0.45"/><line x1="268.2" y1="307.6" x2="269.5" y2="312.5" stroke="#a08858" stroke-width="1.4" stroke-linecap="round" opacity="0.45"/><line x1="275.2" y1="292.9" x2="280.0" y2="294.4" stroke="#a08858" stroke-width="1.4" stroke-linecap="round" opacity="0.45"/><line x1="272.1" y1="302.3" x2="276.6" y2="304.6" stroke="#a08858" stroke-width="1.4" stroke-linecap="round" opacity="0.45"/><line x1="280.0" y1="287.8" x2="285.0" y2="288.2" stroke="#a08858" stroke-width="1.4" stroke-linecap="round" opacity="0.45"/><line x1="251.1" y1="293.3" x2="246.1" y2="293.5" stroke="#a08858" stroke-width="1.4" stroke-linecap="round" opacity="0.45"/><line x1="265.7" y1="298.0" x2="261.2" y2="300.2" stroke="#a08858" stroke-width="1.4" stroke-linecap="round" opacity="0.45"/><line x1="280.0" y1="294.4" x2="284.5" y2="296.5" stroke="#a08858" stroke-width="1.4" stroke-linecap="round" opacity="0.45"/><line x1="246.5" y1="295.3" x2="241.8" y2="296.9" stroke="#a08858" stroke-width="1.4" stroke-linecap="round" opacity="0.45"/><line x1="268.2" y1="307.6" x2="273.1" y2="308.4" stroke="#a08858" stroke-width="1.4" stroke-linecap="round" opacity="0.45"/><line x1="246.1" y1="293.5" x2="242.8" y2="289.7" stroke="#a08858" stroke-width="1.4" stroke-linecap="round" opacity="0.45"/><line x1="276.6" y1="304.6" x2="280.9" y2="307.2" stroke="#a08858" stroke-width="1.4" stroke-linecap="round" opacity="0.45"/><line x1="285.0" y1="288.2" x2="289.8" y2="289.4" stroke="#a08858" stroke-width="1.4" stroke-linecap="round" opacity="0.45"/><line x1="246.5" y1="295.3" x2="249.0" y2="299.6" stroke="#a08858" stroke-width="1.4" stroke-linecap="round" opacity="0.45"/><line x1="269.5" y1="312.5" x2="264.8" y2="314.2" stroke="#a08858" stroke-width="1.4" stroke-linecap="round" opacity="0.45"/><line x1="261.2" y1="300.2" x2="257.6" y2="303.7" stroke="#a08858" stroke-width="1.3" stroke-linecap="round" opacity="0.44"/><line x1="269.5" y1="312.5" x2="271.9" y2="316.8" stroke="#a08858" stroke-width="1.3" stroke-linecap="round" opacity="0.44"/><line x1="284.5" y1="296.5" x2="289.1" y2="298.5" stroke="#a08858" stroke-width="1.3" stroke-linecap="round" opacity="0.44"/><line x1="273.1" y1="308.4" x2="276.2" y2="312.3" stroke="#a08858" stroke-width="1.3" stroke-linecap="round" opacity="0.44"/><line x1="241.8" y1="296.9" x2="237.2" y2="299.0" stroke="#a08858" stroke-width="1.3" stroke-linecap="round" opacity="0.44"/><line x1="280.9" y1="307.2" x2="285.2" y2="309.7" stroke="#a08858" stroke-width="1.3" stroke-linecap="round" opacity="0.44"/><line x1="264.8" y1="314.2" x2="262.0" y2="318.4" stroke="#a08858" stroke-width="1.3" stroke-linecap="round" opacity="0.44"/><line x1="289.8" y1="289.4" x2="294.8" y2="290.0" stroke="#a08858" stroke-width="1.3" stroke-linecap="round" opacity="0.44"/><line x1="249.0" y1="299.6" x2="246.1" y2="303.7" stroke="#a08858" stroke-width="1.3" stroke-linecap="round" opacity="0.44"/><line x1="242.8" y1="289.7" x2="237.8" y2="289.2" stroke="#a08858" stroke-width="1.3" stroke-linecap="round" opacity="0.44"/><line x1="257.6" y1="303.7" x2="254.6" y2="307.7" stroke="#a08858" stroke-width="1.2" stroke-linecap="round" opacity="0.43"/><line x1="289.1" y1="298.5" x2="293.7" y2="300.5" stroke="#a08858" stroke-width="1.2" stroke-linecap="round" opacity="0.43"/><line x1="237.2" y1="299.0" x2="232.4" y2="300.5" stroke="#a08858" stroke-width="1.2" stroke-linecap="round" opacity="0.43"/><line x1="276.2" y1="312.3" x2="280.7" y2="314.4" stroke="#a08858" stroke-width="1.2" stroke-linecap="round" opacity="0.43"/><line x1="271.9" y1="316.8" x2="268.6" y2="320.5" stroke="#a08858" stroke-width="1.2" stroke-linecap="round" opacity="0.43"/><line x1="246.1" y1="303.7" x2="243.1" y2="307.7" stroke="#a08858" stroke-width="1.2" stroke-linecap="round" opacity="0.43"/><line x1="285.2" y1="309.7" x2="289.3" y2="312.6" stroke="#a08858" stroke-width="1.2" stroke-linecap="round" opacity="0.43"/><line x1="262.0" y1="318.4" x2="258.9" y2="322.3" stroke="#a08858" stroke-width="1.2" stroke-linecap="round" opacity="0.43"/><line x1="294.8" y1="290.0" x2="299.6" y2="291.3" stroke="#a08858" stroke-width="1.2" stroke-linecap="round" opacity="0.43"/><line x1="237.2" y1="299.0" x2="232.5" y2="300.5" stroke="#a08858" stroke-width="1.2" stroke-linecap="round" opacity="0.43"/><line x1="237.8" y1="289.2" x2="232.8" y2="289.2" stroke="#a08858" stroke-width="1.2" stroke-linecap="round" opacity="0.43"/><line x1="254.6" y1="307.7" x2="251.9" y2="311.9" stroke="#a08858" stroke-width="1.1" stroke-linecap="round" opacity="0.42"/><line x1="271.9" y1="316.8" x2="275.3" y2="320.5" stroke="#a08858" stroke-width="1.1" stroke-linecap="round" opacity="0.42"/><line x1="275.3" y1="320.5" x2="278.6" y2="324.3" stroke="#a08858" stroke-width="1.1" stroke-linecap="round" opacity="0.42"/><line x1="280.7" y1="314.4" x2="285.1" y2="316.9" stroke="#a08858" stroke-width="1.1" stroke-linecap="round" opacity="0.42"/><line x1="293.7" y1="300.5" x2="298.3" y2="302.4" stroke="#a08858" stroke-width="1.1" stroke-linecap="round" opacity="0.42"/><line x1="268.6" y1="320.5" x2="268.0" y2="325.5" stroke="#a08858" stroke-width="1.1" stroke-linecap="round" opacity="0.42"/><line x1="289.3" y1="312.6" x2="293.7" y2="314.9" stroke="#a08858" stroke-width="1.1" stroke-linecap="round" opacity="0.42"/><line x1="258.9" y1="322.3" x2="256.0" y2="326.3" stroke="#a08858" stroke-width="1.1" stroke-linecap="round" opacity="0.42"/><line x1="232.8" y1="289.2" x2="228.1" y2="290.7" stroke="#a08858" stroke-width="1.1" stroke-linecap="round" opacity="0.42"/><line x1="243.1" y1="307.7" x2="239.7" y2="311.4" stroke="#a08858" stroke-width="1.1" stroke-linecap="round" opacity="0.42"/><line x1="299.6" y1="291.3" x2="304.4" y2="292.7" stroke="#a08858" stroke-width="1.1" stroke-linecap="round" opacity="0.42"/><line x1="232.5" y1="300.5" x2="233.7" y2="305.4" stroke="#a08858" stroke-width="1.1" stroke-linecap="round" opacity="0.42"/><line x1="232.4" y1="300.5" x2="229.3" y2="296.6" stroke="#a08858" stroke-width="1.1" stroke-linecap="round" opacity="0.42"/><line x1="251.9" y1="311.9" x2="249.5" y2="316.3" stroke="#a08858" stroke-width="1.1" stroke-linecap="round" opacity="0.41"/><line x1="278.6" y1="324.3" x2="282.7" y2="327.1" stroke="#a08858" stroke-width="1.1" stroke-linecap="round" opacity="0.41"/><line x1="232.4" y1="300.5" x2="227.8" y2="302.2" stroke="#a08858" stroke-width="1.1" stroke-linecap="round" opacity="0.41"/><line x1="249.5" y1="316.3" x2="246.2" y2="320.1" stroke="#a08858" stroke-width="1.1" stroke-linecap="round" opacity="0.41"/><line x1="275.3" y1="320.5" x2="272.5" y2="324.7" stroke="#a08858" stroke-width="1.1" stroke-linecap="round" opacity="0.41"/><line x1="246.2" y1="320.1" x2="241.7" y2="322.3" stroke="#a08858" stroke-width="1.1" stroke-linecap="round" opacity="0.41"/><line x1="268.0" y1="325.5" x2="267.0" y2="330.4" stroke="#a08858" stroke-width="1.1" stroke-linecap="round" opacity="0.41"/><line x1="227.8" y1="302.2" x2="223.0" y2="303.7" stroke="#a08858" stroke-width="1.1" stroke-linecap="round" opacity="0.41"/><line x1="298.3" y1="302.4" x2="302.6" y2="304.9" stroke="#a08858" stroke-width="1.1" stroke-linecap="round" opacity="0.41"/><line x1="285.1" y1="316.9" x2="288.4" y2="320.6" stroke="#a08858" stroke-width="1.1" stroke-linecap="round" opacity="0.41"/><line x1="249.5" y1="316.3" x2="245.9" y2="319.8" stroke="#a08858" stroke-width="1.1" stroke-linecap="round" opacity="0.41"/><line x1="293.7" y1="314.9" x2="297.6" y2="318.0" stroke="#a08858" stroke-width="1.1" stroke-linecap="round" opacity="0.41"/><line x1="256.0" y1="326.3" x2="252.2" y2="329.6" stroke="#a08858" stroke-width="1.1" stroke-linecap="round" opacity="0.41"/><line x1="228.1" y1="290.7" x2="223.1" y2="290.8" stroke="#a08858" stroke-width="1.1" stroke-linecap="round" opacity="0.41"/><line x1="239.7" y1="311.4" x2="235.4" y2="314.0" stroke="#a08858" stroke-width="1.1" stroke-linecap="round" opacity="0.41"/><line x1="233.7" y1="305.4" x2="230.5" y2="309.3" stroke="#a08858" stroke-width="1.1" stroke-linecap="round" opacity="0.41"/><line x1="302.6" y1="304.9" x2="306.4" y2="308.2" stroke="#a08858" stroke-width="1.1" stroke-linecap="round" opacity="0.41"/><line x1="304.4" y1="292.7" x2="309.4" y2="293.3" stroke="#a08858" stroke-width="1.1" stroke-linecap="round" opacity="0.41"/><line x1="229.3" y1="296.6" x2="224.3" y2="296.0" stroke="#a08858" stroke-width="1.1" stroke-linecap="round" opacity="0.41"/><line x1="255.6" y1="291.1" x2="258.2" y2="295.4" stroke="#a08858" stroke-width="1.0" stroke-linecap="round" opacity="0.40"/><line x1="257.6" y1="303.7" x2="252.8" y2="302.4" stroke="#a08858" stroke-width="1.0" stroke-linecap="round" opacity="0.40"/><line x1="251.1" y1="293.3" x2="251.0" y2="298.3" stroke="#a08858" stroke-width="1.0" stroke-linecap="round" opacity="0.40"/><line x1="251.9" y1="311.9" x2="255.8" y2="315.0" stroke="#a08858" stroke-width="1.0" stroke-linecap="round" opacity="0.40"/><line x1="280.9" y1="307.2" x2="283.0" y2="302.7" stroke="#a08858" stroke-width="1.0" stroke-linecap="round" opacity="0.40"/><line x1="242.8" y1="289.7" x2="247.5" y2="288.1" stroke="#a08858" stroke-width="1.0" stroke-linecap="round" opacity="0.40"/><line x1="289.1" y1="298.5" x2="286.1" y2="302.5" stroke="#a08858" stroke-width="1.0" stroke-linecap="round" opacity="0.40"/><line x1="282.7" y1="327.1" x2="286.8" y2="324.3" stroke="#a08858" stroke-width="1.0" stroke-linecap="round" opacity="0.40"/><line x1="272.5" y1="324.7" x2="273.8" y2="329.5" stroke="#a08858" stroke-width="1.0" stroke-linecap="round" opacity="0.40"/><line x1="246.1" y1="303.7" x2="241.2" y2="302.7" stroke="#a08858" stroke-width="1.0" stroke-linecap="round" opacity="0.40"/><line x1="293.7" y1="300.5" x2="292.6" y2="305.4" stroke="#a08858" stroke-width="1.0" stroke-linecap="round" opacity="0.40"/><line x1="241.7" y1="322.3" x2="237.0" y2="320.6" stroke="#a08858" stroke-width="1.0" stroke-linecap="round" opacity="0.40"/><line x1="288.4" y1="320.6" x2="293.4" y2="321.1" stroke="#a08858" stroke-width="1.0" stroke-linecap="round" opacity="0.40"/><line x1="223.0" y1="303.7" x2="227.4" y2="306.0" stroke="#a08858" stroke-width="1.0" stroke-linecap="round" opacity="0.40"/><line x1="227.8" y1="302.2" x2="228.1" y2="307.2" stroke="#a08858" stroke-width="1.0" stroke-linecap="round" opacity="0.40"/><line x1="245.9" y1="319.8" x2="242.5" y2="316.2" stroke="#a08858" stroke-width="1.0" stroke-linecap="round" opacity="0.40"/><line x1="246.2" y1="320.1" x2="247.7" y2="324.8" stroke="#a08858" stroke-width="1.0" stroke-linecap="round" opacity="0.40"/><line x1="249.5" y1="316.3" x2="245.2" y2="318.9" stroke="#a08858" stroke-width="1.0" stroke-linecap="round" opacity="0.40"/><line x1="267.0" y1="330.4" x2="262.0" y2="330.7" stroke="#a08858" stroke-width="1.0" stroke-linecap="round" opacity="0.40"/><line x1="230.5" y1="309.3" x2="229.7" y2="314.2" stroke="#a08858" stroke-width="1.0" stroke-linecap="round" opacity="0.40"/><line x1="302.6" y1="304.9" x2="307.6" y2="304.7" stroke="#a08858" stroke-width="1.0" stroke-linecap="round" opacity="0.40"/><line x1="223.1" y1="290.8" x2="219.0" y2="293.7" stroke="#a08858" stroke-width="1.0" stroke-linecap="round" opacity="0.40"/><line x1="304.4" y1="292.7" x2="304.1" y2="297.7" stroke="#a08858" stroke-width="1.0" stroke-linecap="round" opacity="0.40"/><line x1="235.4" y1="314.0" x2="230.8" y2="316.0" stroke="#a08858" stroke-width="1.0" stroke-linecap="round" opacity="0.40"/><line x1="306.4" y1="308.2" x2="302.7" y2="304.8" stroke="#a08858" stroke-width="1.0" stroke-linecap="round" opacity="0.40"/><line x1="224.3" y1="296.0" x2="219.4" y2="296.4" stroke="#a08858" stroke-width="1.0" stroke-linecap="round" opacity="0.40"/><line x1="309.4" y1="293.3" x2="313.7" y2="295.8" stroke="#a08858" stroke-width="1.0" stroke-linecap="round" opacity="0.40"/><line x1="249.5" y1="316.3" x2="251.2" y2="321.0" stroke="#a08858" stroke-width="1.0" stroke-linecap="round" opacity="0.40"/><line x1="252.2" y1="329.6" x2="256.6" y2="332.0" stroke="#a08858" stroke-width="1.0" stroke-linecap="round" opacity="0.40"/><line x1="297.6" y1="318.0" x2="301.5" y2="314.9" stroke="#a08858" stroke-width="1.0" stroke-linecap="round" opacity="0.40"/><line x1="302.6" y1="304.9" x2="299.1" y2="308.4" stroke="#a08858" stroke-width="1.0" stroke-linecap="round" opacity="0.40"/><line x1="309.4" y1="293.3" x2="312.4" y2="289.3" stroke="#a08858" stroke-width="1.0" stroke-linecap="round" opacity="0.40"/></g><g class="tree-ground-leaves"><ellipse cx="244" cy="279" rx="16" ry="10" fill="#c8b43a" opacity="0.59"/><ellipse cx="261" cy="267" rx="18" ry="13" fill="#6a9e3e" opacity="0.56"/><ellipse cx="268" cy="267" rx="16" ry="9" fill="#7aae48" opacity="0.68"/><ellipse cx="259" cy="269" rx="15" ry="11" fill="#3a6e22" opacity="0.55"/><ellipse cx="279" cy="247" rx="12" ry="8" fill="#5a8e34" opacity="0.73"/><ellipse cx="267" cy="246" rx="12" ry="9" fill="#b8c44a" opacity="0.48"/><ellipse cx="256" cy="256" rx="9" ry="6" fill="#7aae48" opacity="0.68"/><ellipse cx="253" cy="268" rx="18" ry="11" fill="#8aba52" opacity="0.59"/><ellipse cx="248" cy="253" rx="12" ry="9" fill="#b8c44a" opacity="0.80"/><ellipse cx="277" cy="281" rx="18" ry="11" fill="#7aae48" opacity="0.57"/><g transform="translate(257,248) rotate(-62)"><path d="M0,0 Q2,3 0,7 Q-2,3 0,0 Z" fill="#d4aa30" opacity="0.83"/></g><g transform="translate(265,248) rotate(-61)"><path d="M0,0 Q3,4 0,9 Q-3,4 0,0 Z" fill="#8aba52" opacity="0.70"/></g><g transform="translate(267,267) rotate(-92)"><path d="M0,0 Q3,4 0,9 Q-3,4 0,0 Z" fill="#9ac45c" opacity="0.83"/></g><g transform="translate(265,258) rotate(-56)"><path d="M0,0 Q3,3 0,8 Q-3,3 0,0 Z" fill="#5a8e34" opacity="0.56"/></g><g transform="translate(264,254) rotate(-120)"><path d="M0,0 Q2,3 0,7 Q-2,3 0,0 Z" fill="#d4aa30" opacity="0.85"/></g><g transform="translate(272,272) rotate(-108)"><path d="M0,0 Q3,4 0,10 Q-3,4 0,0 Z" fill="#9ac45c" opacity="0.89"/></g><g transform="translate(264,263) rotate(-75)"><path d="M0,0 Q3,3 0,8 Q-3,3 0,0 Z" fill="#6a9e3e" opacity="0.90"/></g><g transform="translate(236,278) rotate(-125)"><path d="M0,0 Q3,4 0,11 Q-3,4 0,0 Z" fill="#4a7e2a" opacity="0.62"/></g><g transform="translate(268,279) rotate(-97)"><path d="M0,0 Q3,3 0,8 Q-3,3 0,0 Z" fill="#7aae48" opacity="0.68"/></g><g transform="translate(278,250) rotate(-122)"><path d="M0,0 Q3,5 0,12 Q-3,5 0,0 Z" fill="#c8b43a" opacity="0.86"/></g><g transform="translate(256,257) rotate(-92)"><path d="M0,0 Q3,3 0,9 Q-3,3 0,0 Z" fill="#4a7e2a" opacity="0.51"/></g><g transform="translate(271,263) rotate(-85)"><path d="M0,0 Q4,4 0,10 Q-4,4 0,0 Z" fill="#5a8e34" opacity="0.50"/></g><g transform="translate(268,250) rotate(-75)"><path d="M0,0 Q4,4 0,11 Q-4,4 0,0 Z" fill="#c8b43a" opacity="0.77"/></g><g transform="translate(271,273) rotate(-107)"><path d="M0,0 Q4,5 0,12 Q-4,5 0,0 Z" fill="#b8c44a" opacity="0.87"/></g><g transform="translate(265,265) rotate(-110)"><path d="M0,0 Q4,4 0,9 Q-4,4 0,0 Z" fill="#6a9e3e" opacity="0.78"/></g><g transform="translate(275,264) rotate(-81)"><path d="M0,0 Q2,3 0,7 Q-2,3 0,0 Z" fill="#3a6e22" opacity="0.53"/></g><g transform="translate(244,265) rotate(-110)"><path d="M0,0 Q3,3 0,7 Q-3,3 0,0 Z" fill="#5a8e34" opacity="0.54"/></g><g transform="translate(277,248) rotate(-52)"><path d="M0,0 Q3,3 0,6 Q-3,3 0,0 Z" fill="#8aba52" opacity="0.88"/></g><g transform="translate(288,252) rotate(-110)"><path d="M0,0 Q3,4 0,9 Q-3,4 0,0 Z" fill="#4a7e2a" opacity="0.89"/></g><g transform="translate(268,254) rotate(-67)"><path d="M0,0 Q4,4 0,10 Q-4,4 0,0 Z" fill="#9ac45c" opacity="0.81"/></g><g transform="translate(275,259) rotate(-57)"><path d="M0,0 Q2,2 0,6 Q-2,2 0,0 Z" fill="#b8c44a" opacity="0.74"/></g><g transform="translate(267,258) rotate(-104)"><path d="M0,0 Q4,5 0,12 Q-4,5 0,0 Z" fill="#6a9e3e" opacity="0.78"/></g><g transform="translate(261,264) rotate(-70)"><path d="M0,0 Q3,3 0,8 Q-3,3 0,0 Z" fill="#3a6e22" opacity="0.83"/></g></g></g><text x="18" y="21" text-anchor="start" fill="#ffffff" font-size="9" letter-spacing="1.5" font-weight="400" font-family="system-ui, -apple-system, sans-serif" opacity="0.6">LEADERSHIP</text><circle cx="18" cy="237" r="13" fill="rgba(20,30,50,0.8)" stroke="rgba(200,200,220,0.6)" stroke-width="1"/><text x="18" y="241" text-anchor="middle" fill="#ffffff" font-size="12" font-weight="700" font-family="system-ui, -apple-system, sans-serif">E</text><text x="34" y="241" fill="#ffffff" font-size="11" font-weight="400" font-family="system-ui, -apple-system, sans-serif" opacity="0.5">Explorer</text><circle cx="18" cy="189" r="13" fill="rgba(20,30,50,0.8)" stroke="rgba(200,200,220,0.6)" stroke-width="1"/><text x="18" y="193" text-anchor="middle" fill="#ffffff" font-size="12" font-weight="700" font-family="system-ui, -apple-system, sans-serif">P</text><text x="34" y="193" fill="#ffffff" font-size="11" font-weight="400" font-family="system-ui, -apple-system, sans-serif" opacity="0.5">Practitioner</text><circle cx="18" cy="141" r="13" fill="rgba(20,30,50,0.8)" stroke="rgba(200,200,220,0.6)" stroke-width="1"/><text x="18" y="145" text-anchor="middle" fill="#ffffff" font-size="12" font-weight="700" font-family="system-ui, -apple-system, sans-serif">I</text><text x="34" y="145" fill="#ffffff" font-size="11" font-weight="400" font-family="system-ui, -apple-system, sans-serif" opacity="0.5">Integrator</text><circle cx="18" cy="93" r="13" fill="rgba(20,30,50,0.8)" stroke="rgba(200,200,220,0.6)" stroke-width="1"/><text x="18" y="97" text-anchor="middle" fill="#ffffff" font-size="12" font-weight="700" font-family="system-ui, -apple-system, sans-serif">A</text><text x="34" y="97" fill="#ffffff" font-size="11" font-weight="400" font-family="system-ui, -apple-system, sans-serif" opacity="0.5">Architect</text><circle cx="18" cy="45" r="13" fill="rgba(20,30,50,0.8)" stroke="rgba(200,200,220,0.6)" stroke-width="1"/><text x="18" y="49" text-anchor="middle" fill="#ffffff" font-size="12" font-weight="700" font-family="system-ui, -apple-system, sans-serif">S</text><text x="34" y="49" fill="#ffffff" font-size="11" font-weight="400" font-family="system-ui, -apple-system, sans-serif" opacity="0.5">Steward</text><circle cx="18" cy="333" r="13" fill="rgba(50,40,25,0.9)" stroke="rgba(200,200,220,0.6)" stroke-width="1"/><text x="18" y="337" text-anchor="middle" fill="#ffffff" font-size="12" font-weight="700" font-family="system-ui, -apple-system, sans-serif">E</text><text x="34" y="337" fill="#ffffff" font-size="11" font-weight="700" font-family="system-ui, -apple-system, sans-serif" opacity="1">Explorer</text><circle cx="18" cy="381" r="13" fill="rgba(20,30,50,0.8)" stroke="rgba(200,200,220,0.6)" stroke-width="1"/><text x="18" y="385" text-anchor="middle" fill="#ffffff" font-size="12" font-weight="700" font-family="system-ui, -apple-system, sans-serif">P</text><text x="34" y="385" fill="#ffffff" font-size="11" font-weight="400" font-family="system-ui, -apple-system, sans-serif" opacity="0.5">Practitioner</text><circle cx="18" cy="429" r="13" fill="rgba(20,30,50,0.8)" stroke="rgba(200,200,220,0.6)" stroke-width="1"/><text x="18" y="433" text-anchor="middle" fill="#ffffff" font-size="12" font-weight="700" font-family="system-ui, -apple-system, sans-serif">I</text><text x="34" y="433" fill="#ffffff" font-size="11" font-weight="400" font-family="system-ui, -apple-system, sans-serif" opacity="0.5">Integrator</text><circle cx="18" cy="477" r="13" fill="rgba(20,30,50,0.8)" stroke="rgba(200,200,220,0.6)" stroke-width="1"/><text x="18" y="481" text-anchor="middle" fill="#ffffff" font-size="12" font-weight="700" font-family="system-ui, -apple-system, sans-serif">A</text><text x="34" y="481" fill="#ffffff" font-size="11" font-weight="400" font-family="system-ui, -apple-system, sans-serif" opacity="0.5">Architect</text><circle cx="18" cy="525" r="13" fill="rgba(20,30,50,0.8)" stroke="rgba(200,200,220,0.6)" stroke-width="1"/><text x="18" y="529" text-anchor="middle" fill="#ffffff" font-size="12" font-weight="700" font-family="system-ui, -apple-system, sans-serif">S</text><text x="34" y="529" fill="#ffffff" font-size="11" font-weight="400" font-family="system-ui, -apple-system, sans-serif" opacity="0.5">Steward</text><circle cx="205" cy="14" r="3.5" fill="#6ee7a0"/><text x="265" y="18" text-anchor="middle" fill="#ffffff" font-size="14" font-weight="700" font-family="system-ui, -apple-system, sans-serif"><tspan>L0-E</tspan></text><text x="330" y="18" text-anchor="start" fill="#6ee7a0" font-size="11" font-weight="600" font-family="system-ui, -apple-system, sans-serif">grounded</text></svg>