<svg xmlns="http://www.w3.org/2000/svg" viewBox="0 0 530 540" role="img" aria-label="Tree: L0-E / L1-E. balanced."><defs>
            <linearGradient id="skyG" x1="0" y1="0" x2="0" y2="1"><stop offset="0%" stop-color="#2a4a70"/><stop offset="100%" stop-color="#4a7aa0"/></linearGradient>
            <linearGradient id="soilG" x1="0" y1="0" x2="0" y2="1"><stop offset="0%" stop-color="#3a3020"/><stop offset="50%" stop-color="#2e2618"/><stop offset="100%" stop-color="#221c12"/></linearGradient>
        </defs><rect width="530" height="285" fill="url(#skyG)"/><rect y="285" width="530" height="255" fill="url(#soilG)"/><rect x="0" y="283" width="530" height="4" fill="#3a5a2a" opacity="0.4"/><line x1="50" y1="0" x2="50" y2="540" stroke="rgba(255,255,255,0.04)" stroke-width="0.5"/><line x1="100" y1="0" x2="100" y2="540" stroke="rgba(255,255,255,0.04)" stroke-width="0.5"/><line x1="150" y1="0" x2="150" y2="540" stroke="rgba(255,255,255,0.04)" stroke-width="0.5"/><line x1="200" y1="0" x2="200" y2="540" stroke="rgba(255,255,255,0.04)" stroke-width="0.5"/><line x1="250" y1="0" x2="250" y2="540" stroke="rgba(255,255,255,0.04)" stroke-width="0.5"/><line x1="300" y1="0" x2="300" y2="540" stroke="rgba(255,255,255,0.04)" stroke-width="0.5"/><line x1="350" y1="0" x2="350" y2="540" stroke="rgba(255,255,255,0.04)" stroke-width="0.5"/><line x1="400" y1="0" x2="400" y2="540" stroke="rgba(255,255,255,0.04)" stroke-width="0.5"/><line x1="450" y1="0" x2="450" y2="540" stroke="rgba(255,255,255,0.04)" stroke-width="0.5"/><line x1="500" y1="0" x2="500" y2="540" stroke="rgba(255,255,255,0.04)" stroke-width="0.5"/><line x1="0" y1="40" x2="530" y2="40" stroke="rgba(255,255,255,0.04)" stroke-width="0.5"/><line x1="0" y1="90" x2="530" y2="90" stroke="rgba(255,255,255,0.04)" stroke-width="0.5"/><line x1="0" y1="140" x2="530" y2="140" stroke="rgba(255,255,255,0.04)" stroke-width="0.5"/><line x1="0" y1="190" x2="530" y2="190" stroke="rgba(255,255,255,0.04)" stroke-width="0.5"/><line x1="0" y1="240" x2="530" y2="240" stroke="rgba(255,255,255,0.04)" stroke-width="0.5"/><line x1="0" y1="290" x2="530" y2="290" stroke="rgba(255,255,255,0.04)" stroke-width="0.5"/><line x1="0" y1="340" x2="530" y2="340" stroke="rgba(255,255,255,0.04)" stroke-width="0.5"/><line x1="0" y1="390" x2="530" y2="390" stroke="rgba(255,255,255,0.04)" stroke-width="0.5"/><line x1="0" y1="440" x2="530" y2="440" stroke="rgba(255,255,255,0.04)" stroke-width="0.5"/><line x1="0" y1="490" x2="530" y2="490" stroke="rgba(255,255,255,0.04)" stroke-width="0.5"/><path d="M25 285 A240 240 0 0 0 505 285" fill="none" stroke="rgba(255,255,255,0.08)" stroke-width="0.5" stroke-dasharray="3,5"/><path d="M73 285 A192 192 0 0 0 457 285" fill="none" stroke="rgba(255,255,255,0.08)" stroke-width="0.5" stroke-dasharray="3,5"/><path d="M121 285 A144 144 0 0 0 409 285" fill="none" stroke="rgba(255,255,255,0.08)" stroke-width="0.5" stroke-dasharray="3,5"/><path d="M169 285 A96 96 0 0 0 361 285" fill="none" stroke="rgba(255,255,255,0.08)" stroke-width="0.5" stroke-dasharray="3,5"/><path d="M217 285 A48 48 0 0 0 313 285" fill="none" stroke="rgba(255,255,255,0.08)" stroke-width="0.5" stroke-dasharray="3,5"/><path d="M25 285 A240 240 0 0 1 505 285" fill="none" stroke="rgba(255,255,255,0.08)" stroke-width="0.5"/><path d="M73 285 A192 192 0 0 1 457 285" fill="none" stroke="rgba(255,255,255,0.08)" stroke-width="0.5"/><path d="M121 285 A144 144 0 0 1 409 285" fill="none" stroke="rgba(255,255,255,0.08)" stroke-width="0.5"/><path d="M169 285 A96 96 0 0 1 361 285" fill="none" stroke="rgba(255,255,255,0.08)" stroke-width="0.5"/><path d="M217 285 A48 48 0 0 1 313 285" fill="none" stroke="rgba(255,255,255,0.08)" stroke-width="0.5"/><text x="313" y="191" text-anchor="start" fill="#ffffff" font-size="9" letter-spacing="1.5" font-weight="400" font-family="system-ui, -apple-system, sans-serif" opacity="0.6">AI AUTOMATION</text><text x="313" y="213" text-anchor="middle" fill="#ffffff" font-size="12" font-weight="700" font-family="system-ui, -apple-system, sans-serif" opacity="1">L1</text><text x="361" y="213" text-anchor="middle" fill="#ffffff" font-size="12" font-weight="400" font-family="system-ui, -apple-system, sans-serif" opacity="0.5">L2</text><text x="409" y="213" text-anchor="middle" fill="#ffffff" font-size="12" font-weight="400" font-family="system-ui, -apple-system, sans-serif" opacity="0.5">L3</text><text x="457" y="213" text-anchor="middle" fill="#ffffff" font-size="12" font-weight="400" font-family="system-ui, -apple-system, sans-serif" opacity="0.5">L4</text><text x="505" y="213" text-anchor="middle" fill="#ffffff" font-size="12" font-weight="400" font-family="system-ui, -apple-system, sans-serif" opacity="0.5">L5</text><line x1="0" y1="285" x2="530" y2="285" stroke="#3a5a2a" stroke-width="1.5" opacity="0.6"/><text x="265" y="355" text-anchor="middle" fill="#e8c547" font-size="13" font-weight="700" font-family="system-ui, -apple-system, sans-serif">L0</text><text x="265" y="371" text-anchor="middle" fill="#ffffff" font-size="9" letter-spacing="2.5" font-family="system-ui, -apple-system, sans-serif" opacity="0.7">FUNDAMENTALS</text><g class="tree-whole"><g class="tree-roots"><line x1="265.0" y1="288.0" x2="265.2" y2="293.0" stroke="#a08858" stroke-width="1.7" stroke-linecap="round" opacity="0.48"/><line x1="265.0" y1="288.0" x2="260.8" y2="290.6" stroke="#a08858" stroke-width="1.7" stroke-linecap="round" opacity="0.48"/><line x1="265.0" y1="288.0" x2="270.0" y2="288.6" stroke="#a08858" stroke-width="1.7" stroke-linecap="round" opacity="0.48"/><line x1="265.2" y1="293.0" x2="264.7" y2="298.0" stroke="#a08858" stroke-width="1.6" stroke-linecap="round" opacity="0.47"/><line x1="260.8" y1="290.6" x2="255.9" y2="291.9" stroke="#a08858" stroke-width="1.6" stroke-linecap="round" opacity="0.47"/><line x1="265.2" y1="293.0" x2="270.2" y2="292.8" stroke="#a08858" stroke-width="1.6" stroke-linecap="round" opacity="0.47"/><line x1="270.0" y1="288.6" x2="275.0" y2="288.6" stroke="#a08858" stroke-width="1.6" stroke-linecap="round" opacity="0.47"/><line x1="264.7" y1="298.0" x2="265.3" y2="302.9" stroke="#a08858" stroke-width="1.6" stroke-linecap="round" opacity="0.47"/><line x1="264.7" y1="298.0" x2="264.0" y2="302.9" stroke="#a08858" stroke-width="1.5" stroke-linecap="round" opacity="0.46"/><line x1="255.9" y1="291.9" x2="251.5" y2="294.2" stroke="#a08858" stroke-width="1.5" stroke-linecap="round" opacity="0.46"/><line x1="270.2" y1="292.8" x2="275.0" y2="294.4" stroke="#a08858" stroke-width="1.5" stroke-linecap="round" opacity="0.46"/><line x1="275.0" y1="288.6" x2="280.0" y2="288.8" stroke="#a08858" stroke-width="1.5" stroke-linecap="round" opacity="0.46"/><line x1="265.3" y1="302.9" x2="270.1" y2="304.3" stroke="#a08858" stroke-width="1.5" stroke-linecap="round" opacity="0.46"/><line x1="264.0" y1="302.9" x2="263.2" y2="307.9" stroke="#a08858" stroke-width="1.4" stroke-linecap="round" opacity="0.45"/><line x1="275.0" y1="294.4" x2="279.4" y2="296.8" stroke="#a08858" stroke-width="1.4" stroke-linecap="round" opacity="0.45"/><line x1="251.5" y1="294.2" x2="246.9" y2="296.2" stroke="#a08858" stroke-width="1.4" stroke-linecap="round" opacity="0.45"/><line x1="264.0" y1="302.9" x2="259.3" y2="301.3" stroke="#a08858" stroke-width="1.4" stroke-linecap="round" opacity="0.45"/><line x1="270.1" y1="304.3" x2="273.6" y2="307.8" stroke="#a08858" stroke-width="1.4" stroke-linecap="round" opacity="0.45"/><line x1="280.0" y1="288.8" x2="284.9" y2="289.3" stroke="#a08858" stroke-width="1.4" stroke-linecap="round" opacity="0.45"/><line x1="251.5" y1="294.2" x2="248.6" y2="290.1" stroke="#a08858" stroke-width="1.4" stroke-linecap="round" opacity="0.45"/><line x1="263.2" y1="307.9" x2="261.1" y2="312.4" stroke="#a08858" stroke-width="1.4" stroke-linecap="round" opacity="0.45"/><line x1="279.4" y1="296.8" x2="283.3" y2="299.9" stroke="#a08858" stroke-width="1.4" stroke-linecap="round" opacity="0.45"/><line x1="246.9" y1="296.2" x2="242.3" y2="298.2" stroke="#a08858" stroke-width="1.4" stroke-linecap="round" opacity="0.45"/><line x1="259.3" y1="301.3" x2="255.5" y2="304.5" stroke="#a08858" stroke-width="1.4" stroke-linecap="round" opacity="0.45"/><line x1="273.6" y1="307.8" x2="276.2" y2="312.1" stroke="#a08858" stroke-width="1.4" stroke-linecap="round" opacity="0.45"/><line x1="248.6" y1="290.1" x2="243.6" y2="290.4" stroke="#a08858" stroke-width="1.4" stroke-linecap="round" opacity="0.45"/><line x1="284.9" y1="289.3" x2="289.9" y2="290.2" stroke="#a08858" stroke-width="1.4" stroke-linecap="round" opacity="0.45"/><line x1="263.2" y1="307.9" x2="258.2" y2="308.0" stroke="#a08858" stroke-width="1.3" stroke-linecap="round" opacity="0.44"/><line x1="283.3" y1="299.9" x2="287.5" y2="302.5" stroke="#a08858" stroke-width="1.3" stroke-linecap="round" opacity="0.44"/><line x1="242.3" y1="298.2" x2="237.6" y2="299.9" stroke="#a08858" stroke-width="1.3" stroke-linecap="round" opacity="0.44"/><line x1="255.5" y1="304.5" x2="250.9" y2="306.5" stroke="#a08858" stroke-width="1.3" stroke-linecap="round" opacity="0.44"/><line x1="261.1" y1="312.4" x2="264.5" y2="316.1" stroke="#a08858" stroke-width="1.3" stroke-linecap="round" opacity="0.44"/><line x1="246.9" y1="296.2" x2="247.3" y2="301.2" stroke="#a08858" stroke-width="1.3" stroke-linecap="round" opacity="0.44"/><line x1="276.2" y1="312.1" x2="278.8" y2="316.4" stroke="#a08858" stroke-width="1.3" stroke-linecap="round" opacity="0.44"/><line x1="289.9" y1="290.2" x2="294.7" y2="291.6" stroke="#a08858" stroke-width="1.3" stroke-linecap="round" opacity="0.44"/><line x1="243.6" y1="290.4" x2="238.6" y2="290.4" stroke="#a08858" stroke-width="1.3" stroke-linecap="round" opacity="0.44"/><line x1="261.1" y1="312.4" x2="258.5" y2="316.7" stroke="#a08858" stroke-width="1.2" stroke-linecap="round" opacity="0.43"/><line x1="258.2" y1="308.0" x2="253.7" y2="310.2" stroke="#a08858" stroke-width="1.2" stroke-linecap="round" opacity="0.43"/><line x1="287.5" y1="302.5" x2="291.5" y2="305.6" stroke="#a08858" stroke-width="1.2" stroke-linecap="round" opacity="0.43"/><line x1="237.6" y1="299.9" x2="232.8" y2="301.1" stroke="#a08858" stroke-width="1.2" stroke-linecap="round" opacity="0.43"/><line x1="264.5" y1="316.1" x2="267.6" y2="320.0" stroke="#a08858" stroke-width="1.2" stroke-linecap="round" opacity="0.43"/><line x1="250.9" y1="306.5" x2="246.8" y2="309.3" stroke="#a08858" stroke-width="1.2" stroke-linecap="round" opacity="0.43"/><line x1="247.3" y1="301.2" x2="244.8" y2="305.6" stroke="#a08858" stroke-width="1.2" stroke-linecap="round" opacity="0.43"/><line x1="283.3" y1="299.9" x2="287.1" y2="303.1" stroke="#a08858" stroke-width="1.2" stroke-linecap="round" opacity="0.43"/><line x1="278.8" y1="316.4" x2="281.8" y2="320.4" stroke="#a08858" stroke-width="1.2" stroke-linecap="round" opacity="0.43"/><line x1="294.7" y1="291.6" x2="299.2" y2="293.6" stroke="#a08858" stroke-width="1.2" stroke-linecap="round" opacity="0.43"/><line x1="238.6" y1="290.4" x2="233.6" y2="290.7" stroke="#a08858" stroke-width="1.2" stroke-linecap="round" opacity="0.43"/><line x1="258.5" y1="316.7" x2="254.8" y2="320.1" stroke="#a08858" stroke-width="1.1" stroke-linecap="round" opacity="0.42"/><line x1="254.8" y1="320.1" x2="251.0" y2="323.4" stroke="#a08858" stroke-width="1.1" stroke-linecap="round" opacity="0.42"/><line x1="253.7" y1="310.2" x2="250.4" y2="314.0" stroke="#a08858" stroke-width="1.1" stroke-linecap="round" opacity="0.42"/><line x1="291.5" y1="305.6" x2="295.2" y2="308.9" stroke="#a08858" stroke-width="1.1" stroke-linecap="round" opacity="0.42"/><line x1="246.8" y1="309.3" x2="242.7" y2="312.2" stroke="#a08858" stroke-width="1.1" stroke-linecap="round" opacity="0.42"/><line x1="267.6" y1="320.0" x2="271.1" y2="323.6" stroke="#a08858" stroke-width="1.1" stroke-linecap="round" opacity="0.42"/><line x1="232.8" y1="301.1" x2="228.3" y2="303.4" stroke="#a08858" stroke-width="1.1" stroke-linecap="round" opacity="0.42"/><line x1="244.8" y1="305.6" x2="240.3" y2="307.6" stroke="#a08858" stroke-width="1.1" stroke-linecap="round" opacity="0.42"/><line x1="287.1" y1="303.1" x2="284.5" y2="307.4" stroke="#a08858" stroke-width="1.1" stroke-linecap="round" opacity="0.42"/><line x1="299.2" y1="293.6" x2="303.9" y2="295.3" stroke="#a08858" stroke-width="1.1" stroke-linecap="round" opacity="0.42"/><line x1="295.2" y1="308.9" x2="299.4" y2="311.6" stroke="#a08858" stroke-width="1.1" stroke-linecap="round" opacity="0.42"/><line x1="233.6" y1="290.7" x2="228.6" y2="291.0" stroke="#a08858" stroke-width="1.1" stroke-linecap="round" opacity="0.42"/><line x1="281.8" y1="320.4" x2="286.3" y2="322.5" stroke="#a08858" stroke-width="1.1" stroke-linecap="round" opacity="0.42"/><line x1="271.1" y1="323.6" x2="274.7" y2="327.0" stroke="#a08858" stroke-width="1.1" stroke-linecap="round" opacity="0.42"/><line x1="291.5" y1="305.6" x2="295.6" y2="302.6" stroke="#a08858" stroke-width="1.1" stroke-linecap="round" opacity="0.42"/><line x1="273.6" y1="307.8" x2="276.2" y2="303.5" stroke="#a08858" stroke-width="1.1" stroke-linecap="round" opacity="0.41"/><line x1="251.0" y1="323.4" x2="247.4" y2="326.8" stroke="#a08858" stroke-width="1.1" stroke-linecap="round" opacity="0.41"/><line x1="287.5" y1="302.5" x2="289.3" y2="297.9" stroke="#a08858" stroke-width="1.1" stroke-linecap="round" opacity="0.41"/><line x1="250.4" y1="314.0" x2="246.2" y2="316.7" stroke="#a08858" stroke-width="1.1" stroke-linecap="round" opacity="0.41"/><line x1="254.8" y1="320.1" x2="257.1" y2="324.6" stroke="#a08858" stroke-width="1.1" stroke-linecap="round" opacity="0.41"/><line x1="242.7" y1="312.2" x2="238.6" y2="315.0" stroke="#a08858" stroke-width="1.1" stroke-linecap="round" opacity="0.41"/><line x1="228.3" y1="303.4" x2="223.5" y2="304.6" stroke="#a08858" stroke-width="1.1" stroke-linecap="round" opacity="0.41"/><line x1="284.5" y1="307.4" x2="285.7" y2="312.2" stroke="#a08858" stroke-width="1.1" stroke-linecap="round" opacity="0.41"/><line x1="240.3" y1="307.6" x2="236.2" y2="310.6" stroke="#a08858" stroke-width="1.1" stroke-linecap="round" opacity="0.41"/><line x1="232.8" y1="301.1" x2="230.1" y2="296.9" stroke="#a08858" stroke-width="1.1" stroke-linecap="round" opacity="0.41"/><line x1="303.9" y1="295.3" x2="308.9" y2="295.1" stroke="#a08858" stroke-width="1.1" stroke-linecap="round" opacity="0.41"/><line x1="299.4" y1="311.6" x2="304.1" y2="309.8" stroke="#a08858" stroke-width="1.1" stroke-linecap="round" opacity="0.41"/><line x1="286.3" y1="322.5" x2="291.2" y2="321.8" stroke="#a08858" stroke-width="1.1" stroke-linecap="round" opacity="0.41"/><line x1="274.7" y1="327.0" x2="278.7" y2="330.0" stroke="#a08858" stroke-width="1.1" stroke-linecap="round" opacity="0.41"/><line x1="228.6" y1="291.0" x2="223.6" y2="291.7" stroke="#a08858" stroke-width="1.1" stroke-linecap="round" opacity="0.41"/><line x1="295.2" y1="308.9" x2="293.0" y2="313.4" stroke="#a08858" stroke-width="1.1" stroke-linecap="round" opacity="0.41"/><line x1="271.1" y1="323.6" x2="268.4" y2="327.8" stroke="#a08858" stroke-width="1.1" stroke-linecap="round" opacity="0.41"/><line x1="295.6" y1="302.6" x2="300.4" y2="303.8" stroke="#a08858" stroke-width="1.1" stroke-linecap="round" opacity="0.41"/><line x1="264.7" y1="298.0" x2="259.8" y2="298.8" stroke="#a08858" stroke-width="1.0" stroke-linecap="round" opacity="0.40"/><line x1="275.0" y1="294.4" x2="271.6" y2="298.1" stroke="#a08858" stroke-width="1.0" stroke-linecap="round" opacity="0.40"/><line x1="255.5" y1="304.5" x2="252.9" y2="300.3" stroke="#a08858" stroke-width="1.0" stroke-linecap="round" opacity="0.40"/><line x1="242.3" y1="298.2" x2="238.9" y2="294.5" stroke="#a08858" stroke-width="1.0" stroke-linecap="round" opacity="0.40"/><line x1="284.9" y1="289.3" x2="284.5" y2="294.2" stroke="#a08858" stroke-width="1.0" stroke-linecap="round" opacity="0.40"/><line x1="276.2" y1="312.1" x2="275.4" y2="307.2" stroke="#a08858" stroke-width="1.0" stroke-linecap="round" opacity="0.40"/><line x1="289.9" y1="290.2" x2="290.0" y2="295.2" stroke="#a08858" stroke-width="1.0" stroke-linecap="round" opacity="0.40"/><line x1="276.2" y1="303.5" x2="280.4" y2="306.2" stroke="#a08858" stroke-width="1.0" stroke-linecap="round" opacity="0.40"/><line x1="276.2" y1="312.1" x2="271.2" y2="311.9" stroke="#a08858" stroke-width="1.0" stroke-linecap="round" opacity="0.40"/><line x1="247.4" y1="326.8" x2="242.7" y2="324.9" stroke="#a08858" stroke-width="1.0" stroke-linecap="round" opacity="0.40"/><line x1="278.8" y1="316.4" x2="275.6" y2="320.3" stroke="#a08858" stroke-width="1.0" stroke-linecap="round" opacity="0.40"/><line x1="246.2" y1="316.7" x2="242.1" y2="319.5" stroke="#a08858" stroke-width="1.0" stroke-linecap="round" opacity="0.40"/><line x1="289.3" y1="297.9" x2="294.3" y2="298.4" stroke="#a08858" stroke-width="1.0" stroke-linecap="round" opacity="0.40"/><line x1="257.1" y1="324.6" x2="255.9" y2="329.4" stroke="#a08858" stroke-width="1.0" stroke-linecap="round" opacity="0.40"/><line x1="267.6" y1="320.0" x2="272.2" y2="318.1" stroke="#a08858" stroke-width="1.0" stroke-linecap="round" opacity="0.40"/><line x1="223.5" y1="304.6" x2="222.4" y2="299.8" stroke="#a08858" stroke-width="1.0" stroke-linecap="round" opacity="0.40"/><line x1="238.6" y1="315.0" x2="234.1" y2="317.4" stroke="#a08858" stroke-width="1.0" stroke-linecap="round" opacity="0.40"/><line x1="230.1" y1="296.9" x2="225.1" y2="297.4" stroke="#a08858" stroke-width="1.0" stroke-linecap="round" opacity="0.40"/><line x1="236.2" y1="310.6" x2="231.5" y2="312.3" stroke="#a08858" stroke-width="1.0" stroke-linecap="round" opacity="0.40"/><line x1="285.7" y1="312.2" x2="289.1" y2="316.0" stroke="#a08858" stroke-width="1.0" stroke-linecap="round" opacity="0.40"/><line x1="299.2" y1="293.6" x2="302.2" y2="289.5" stroke="#a08858" stroke-width="1.0" stroke-linecap="round" opacity="0.40"/><line x1="291.2" y1="321.8" x2="295.8" y2="319.8" stroke="#a08858" stroke-width="1.0" stroke-linecap="round" opacity="0.40"/><line x1="300.4" y1="303.8" x2="305.4" y2="303.8" stroke="#a08858" stroke-width="1.0" stroke-linecap="round" opacity="0.40"/><line x1="308.9" y1="295.1" x2="310.9" y2="290.5" stroke="#a08858" stroke-width="1.0" stroke-linecap="round" opacity="0.40"/><line x1="223.6" y1="291.7" x2="218.9" y2="290.1" stroke="#a08858" stroke-width="1.0" stroke-linecap="round" opacity="0.40"/><line x1="299.4" y1="311.6" x2="298.3" y2="316.5" stroke="#a08858" stroke-width="1.0" stroke-linecap="round" opacity="0.40"/><line x1="304.1" y1="309.8" x2="306.8" y2="305.6" stroke="#a08858" stroke-width="1.0" stroke-linecap="round" opacity="0.40"/><line x1="278.7" y1="330.0" x2="282.6" y2="326.8" stroke="#a08858" stroke-width="1.0" stroke-linecap="round" opacity="0.40"/><line x1="223.5" y1="304.6" x2="226.0" y2="309.0" stroke="#a08858" stroke-width="1.0" stroke-linecap="round" opacity="0.40"/><line x1="293.0" y1="313.4" x2="296.3" y2="317.1" stroke="#a08858" stroke-width="1.0" stroke-linecap="round" opacity="0.40"/><line x1="268.4" y1="327.8" x2="271.5" y2="331.7" stroke="#a08858" stroke-width="1.0" stroke-linecap="round" opacity="0.40"/></g><g class="tree-canopy"><g class="tree-leaves"><circle cx="252.1" cy="260.0" r="3.0" fill="#7aae48" opacity="0.59"/><circle cx="246.3" cy="255.4" r="1.3" fill="#6a9e3e" opacity="0.71"/><circle cx="244.3" cy="253.1" r="4.6" fill="#d4aa30" opacity="0.81"/><circle cx="281.7" cy="263.5" r="4.2" fill="#3a6e22" opacity="0.40"/><circle cx="281.9" cy="261.3" r="3.3" fill="#4a7e2a" opacity="0.44"/><circle cx="255.7" cy="253.5" r="6.1" fill="#5a8e34" opacity="0.25"/><circle cx="260.7" cy="260.7" r="2.2" fill="#9ac45c" opacity="0.47"/><circle cx="252.6" cy="253.5" r="2.1" fill="#4a7e2a" opacity="0.56"/><circle cx="252.1" cy="260.5" r="3.5" fill="#d4aa30" opacity="0.46"/><circle cx="257.4" cy="254.1" r="1.5" fill="#5a8e34" opacity="0.53"/><circle cx="262.7" cy="262.2" r="1.8" fill="#c8b43a" opacity="0.79"/><circle cx="269.0" cy="255.9" r="1.3" fill="#5a8e34" opacity="0.80"/><circle cx="242.7" cy="252.7" r="2.4" fill="#3a6e22" opacity="0.25"/><circle cx="246.9" cy="256.3" r="3.6" fill="#c8b43a" opacity="0.29"/><circle cx="240.7" cy="259.4" r="3.0" fill="#4a7e2a" opacity="0.71"/><circle cx="235.2" cy="268.1" r="6.3" fill="#8aba52" opacity="0.69"/><circle cx="237.4" cy="266.7" r="3.9" fill="#b8c44a" opacity="0.68"/><circle cx="246.1" cy="243.0" r="2.3" fill="#6a9e3e" opacity="0.52"/><circle cx="290.4" cy="269.2" r="3.6" fill="#7aae48" opacity="0.32"/><circle cx="281.0" cy="255.1" r="3.5" fill="#7aae48" opacity="0.75"/><circle cx="245.3" cy="260.4" r="7.1" fill="#3a6e22" opacity="0.60"/><circle cx="238.9" cy="256.8" r="2.2" fill="#9ac45c" opacity="0.49"/><circle cx="281.8" cy="260.2" r="6.4" fill="#d4aa30" opacity="0.80"/><circle cx="280.1" cy="254.1" r="2.5" fill="#6a9e3e" opacity="0.29"/><circle cx="272.1" cy="254.8" r="1.5" fill="#4a7e2a" opacity="0.62"/><circle cx="278.0" cy="254.2" r="2.9" fill="#3a6e22" opacity="0.54"/><circle cx="274.7" cy="254.1" r="2.2" fill="#b8c44a" opacity="0.81"/><circle cx="279.1" cy="258.8" r="2.6" fill="#5a8e34" opacity="0.69"/><circle cx="294.8" cy="254.3" r="3.3" fill="#9ac45c" opacity="0.55"/><circle cx="290.5" cy="254.1" r="2.2" fill="#3a6e22" opacity="0.56"/><circle cx="289.8" cy="248.4" r="3.2" fill="#9ac45c" opacity="0.71"/><circle cx="236.0" cy="243.0" r="4.8" fill="#9ac45c" opacity="0.64"/><circle cx="240.0" cy="246.9" r="2.2" fill="#7aae48" opacity="0.62"/><circle cx="279.1" cy="238.4" r="5.9" fill="#4a7e2a" opacity="0.82"/><circle cx="262.2" cy="240.6" r="1.9" fill="#3a6e22" opacity="0.78"/><circle cx="292.0" cy="268.4" r="4.1" fill="#5a8e34" opacity="0.55"/><circle cx="291.2" cy="272.4" r="1.3" fill="#8aba52" opacity="0.42"/><circle cx="289.8" cy="274.7" r="3.5" fill="#d4aa30" opacity="0.56"/><circle cx="260.2" cy="241.7" r="1.6" fill="#4a7e2a" opacity="0.48"/><circle cx="265.8" cy="240.0" r="7.2" fill="#6a9e3e" opacity="0.69"/><circle cx="270.4" cy="244.3" r="1.9" fill="#8aba52" opacity="0.27"/><circle cx="263.7" cy="237.9" r="3.3" fill="#5a8e34" opacity="0.56"/><circle cx="275.2" cy="238.3" r="3.9" fill="#9ac45c" opacity="0.65"/><circle cx="274.8" cy="236.0" r="3.2" fill="#8aba52" opacity="0.56"/><circle cx="263.6" cy="241.0" r="2.7" fill="#5a8e34" opacity="0.82"/><circle cx="271.2" cy="237.7" r="2.8" fill="#8aba52" opacity="0.45"/><circle cx="274.0" cy="237.2" r="5.6" fill="#7aae48" opacity="0.73"/><circle cx="244.6" cy="254.0" r="3.8" fill="#9ac45c" opacity="0.81"/><circle cx="248.6" cy="251.3" r="3.9" fill="#b8c44a" opacity="0.53"/><circle cx="241.1" cy="257.1" r="2.9" fill="#8aba52" opacity="0.44"/><circle cx="242.8" cy="260.4" r="2.7" fill="#9ac45c" opacity="0.38"/><circle cx="245.2" cy="258.5" r="4.0" fill="#7aae48" opacity="0.69"/><circle cx="255.1" cy="249.8" r="7.3" fill="#6a9e3e" opacity="0.52"/><circle cx="248.3" cy="251.8" r="3.1" fill="#c8b43a" opacity="0.59"/><circle cx="255.2" cy="250.7" r="3.8" fill="#4a7e2a" opacity="0.84"/><circle cx="242.4" cy="262.6" r="6.4" fill="#3a6e22" opacity="0.51"/><circle cx="240.1" cy="262.9" r="2.0" fill="#b8c44a" opacity="0.81"/><circle cx="238.1" cy="260.7" r="2.9" fill="#d4aa30" opacity="0.60"/><circle cx="254.1" cy="240.9" r="2.4" fill="#5a8e34" opacity="0.70"/><circle cx="250.4" cy="239.5" r="2.5" fill="#3a6e22" opacity="0.26"/><circle cx="244.0" cy="241.9" r="2.1" fill="#8aba52" opacity="0.81"/><circle cx="303.6" cy="265.8" r="1.8" fill="#6a9e3e" opacity="0.73"/><circle cx="300.7" cy="272.2" r="3.0" fill="#3a6e22" opacity="0.35"/><circle cx="289.8" cy="257.4" r="2.4" fill="#c8b43a" opacity="0.27"/><circle cx="289.8" cy="249.8" r="5.2" fill="#6a9e3e" opacity="0.55"/><circle cx="298.0" cy="253.1" r="2.5" fill="#7aae48" opacity="0.45"/><circle cx="297.8" cy="250.6" r="1.6" fill="#8aba52" opacity="0.50"/><circle cx="298.2" cy="249.0" r="3.9" fill="#9ac45c" opacity="0.28"/><circle cx="299.2" cy="248.1" r="6.5" fill="#4a7e2a" opacity="0.58"/><circle cx="257.5" cy="232.8" r="2.9" fill="#9ac45c" opacity="0.65"/><circle cx="262.9" cy="233.5" r="2.0" fill="#6a9e3e" opacity="0.84"/><circle cx="268.2" cy="237.0" r="3.7" fill="#6a9e3e" opacity="0.33"/><circle cx="267.2" cy="242.2" r="3.3" fill="#3a6e22" opacity="0.69"/><circle cx="258.3" cy="240.1" r="1.4" fill="#5a8e34" opacity="0.65"/><circle cx="268.3" cy="237.8" r="2.4" fill="#7aae48" opacity="0.48"/><circle cx="263.6" cy="233.3" r="1.3" fill="#5a8e34" opacity="0.82"/><circle cx="277.4" cy="251.0" r="3.7" fill="#8aba52" opacity="0.40"/><circle cx="288.1" cy="253.0" r="2.9" fill="#9ac45c" opacity="0.68"/><circle cx="282.4" cy="256.3" r="2.1" fill="#5a8e34" opacity="0.84"/><circle cx="280.7" cy="249.1" r="5.7" fill="#c8b43a" opacity="0.35"/><circle cx="280.1" cy="248.6" r="2.9" fill="#4a7e2a" opacity="0.42"/><circle cx="279.9" cy="251.0" r="3.7" fill="#3a6e22" opacity="0.48"/><circle cx="286.8" cy="255.0" r="3.5" fill="#8aba52" opacity="0.56"/><circle cx="248.4" cy="239.1" r="3.7" fill="#d4aa30" opacity="0.44"/><circle cx="248.9" cy="243.3" r="3.4" fill="#4a7e2a" opacity="0.82"/><circle cx="246.5" cy="238.6" r="3.6" fill="#5a8e34" opacity="0.47"/><circle cx="248.0" cy="238.5" r="2.0" fill="#9ac45c" opacity="0.83"/><circle cx="239.6" cy="247.3" r="5.0" fill="#8aba52" opacity="0.70"/><circle cx="245.8" cy="243.2" r="1.2" fill="#d4aa30" opacity="0.72"/><circle cx="249.8" cy="244.0" r="2.4" fill="#5a8e34" opacity="0.36"/><circle cx="254.6" cy="231.2" r="1.8" fill="#d4aa30" opacity="0.27"/><circle cx="253.4" cy="238.9" r="2.9" fill="#b8c44a" opacity="0.63"/><circle cx="260.5" cy="241.3" r="4.1" fill="#3a6e22" opacity="0.65"/><circle cx="257.7" cy="240.4" r="3.4" fill="#8aba52" opacity="0.53"/><circle cx="229.7" cy="274.4" r="2.2" fill="#7aae48" opacity="0.59"/><circle cx="241.0" cy="274.1" r="3.8" fill="#c8b43a" opacity="0.31"/><circle cx="233.0" cy="268.2" r="2.4" fill="#4a7e2a" opacity="0.80"/><circle cx="234.8" cy="270.8" r="1.6" fill="#b8c44a" opacity="0.45"/><circle cx="283.0" cy="242.2" r="3.9" fill="#5a8e34" opacity="0.69"/><circle cx="291.1" cy="245.0" r="1.2" fill="#d4aa30" opacity="0.79"/><circle cx="289.8" cy="238.7" r="3.0" fill="#6a9e3e" opacity="0.74"/><circle cx="285.7" cy="237.4" r="3.8" fill="#6a9e3e" opacity="0.71"/><circle cx="290.2" cy="238.9" r="3.8" fill="#c8b43a" opacity="0.70"/><circle cx="297.2" cy="247.1" r="3.7" fill="#8aba52" opacity="0.56"/><circle cx="287.2" cy="243.7" r="2.9" fill="#4a7e2a" opacity="0.65"/><circle cx="296.1" cy="242.6" r="3.8" fill="#6a9e3e" opacity="0.33"/><circle cx="294.4" cy="245.5" r="4.3" fill="#d4aa30" opacity="0.67"/><circle cx="289.2" cy="247.6" r="7.4" fill="#4a7e2a" opacity="0.55"/><circle cx="286.7" cy="250.2" r="1.9" fill="#c8b43a" opacity="0.82"/><circle cx="287.7" cy="247.6" r="3.8" fill="#8aba52" opacity="0.76"/><circle cx="228.4" cy="250.2" r="5.2" fill="#5a8e34" opacity="0.73"/><circle cx="228.3" cy="247.7" r="4.6" fill="#5a8e34" opacity="0.36"/><circle cx="228.5" cy="251.0" r="3.3" fill="#c8b43a" opacity="0.54"/><circle cx="295.8" cy="254.8" r="2.9" fill="#3a6e22" opacity="0.65"/><circle cx="293.8" cy="257.1" r="1.3" fill="#6a9e3e" opacity="0.68"/><circle cx="300.1" cy="260.4" r="1.7" fill="#9ac45c" opacity="0.81"/><circle cx="287.4" cy="263.0" r="3.8" fill="#3a6e22" opacity="0.50"/><circle cx="231.9" cy="257.1" r="6.6" fill="#8aba52" opacity="0.72"/><circle cx="226.3" cy="261.1" r="6.7" fill="#b8c44a" opacity="0.52"/><circle cx="225.3" cy="254.5" r="2.1" fill="#d4aa30" opacity="0.34"/><circle cx="237.0" cy="258.5" r="6.3" fill="#7aae48" opacity="0.48"/><circle cx="228.3" cy="254.5" r="3.7" fill="#7aae48" opacity="0.83"/><circle cx="229.6" cy="254.0" r="2.4" fill="#8aba52" opacity="0.75"/><circle cx="232.2" cy="257.9" r="1.4" fill="#7aae48" opacity="0.60"/><circle cx="227.9" cy="263.5" r="3.0" fill="#b8c44a" opacity="0.56"/><circle cx="227.4" cy="264.9" r="1.6" fill="#8aba52" opacity="0.58"/><circle cx="226.0" cy="255.6" r="3.3" fill="#6a9e3e" opacity="0.36"/><circle cx="291.7" cy="261.9" r="6.8" fill="#8aba52" opacity="0.55"/><circle cx="288.8" cy="260.2" r="4.0" fill="#7aae48" opacity="0.50"/><circle cx="295.2" cy="255.2" r="2.8" fill="#3a6e22" opacity="0.50"/><circle cx="298.8" cy="257.3" r="3.6" fill="#9ac45c" opacity="0.57"/><circle cx="295.5" cy="261.0" r="1.9" fill="#4a7e2a" opacity="0.50"/><circle cx="290.8" cy="263.7" r="3.9" fill="#3a6e22" opacity="0.60"/><circle cx="299.8" cy="265.4" r="3.6" fill="#8aba52" opacity="0.66"/><circle cx="234.0" cy="269.3" r="2.7" fill="#8aba52" opacity="0.53"/><circle cx="228.3" cy="269.4" r="2.9" fill="#4a7e2a" opacity="0.70"/><circle cx="231.5" cy="271.4" r="7.2" fill="#3a6e22" opacity="0.52"/><circle cx="228.8" cy="267.2" r="2.0" fill="#9ac45c" opacity="0.71"/><circle cx="228.3" cy="271.8" r="2.4" fill="#7aae48" opacity="0.62"/><circle cx="235.0" cy="268.1" r="1.9" fill="#9ac45c" opacity="0.53"/><circle cx="223.0" cy="275.7" r="2.1" fill="#c8b43a" opacity="0.27"/><circle cx="247.7" cy="235.8" r="3.2" fill="#9ac45c" opacity="0.54"/><circle cx="245.4" cy="244.1" r="6.9" fill="#c8b43a" opacity="0.78"/><circle cx="251.7" cy="238.9" r="2.1" fill="#b8c44a" opacity="0.37"/><circle cx="256.2" cy="239.2" r="5.0" fill="#3a6e22" opacity="0.73"/><circle cx="306.1" cy="273.8" r="7.5" fill="#3a6e22" opacity="0.50"/><circle cx="313.3" cy="271.7" r="2.1" fill="#c8b43a" opacity="0.67"/><circle cx="308.5" cy="273.9" r="3.4" fill="#5a8e34" opacity="0.28"/><circle cx="304.0" cy="258.5" r="3.8" fill="#7aae48" opacity="0.28"/><circle cx="302.7" cy="259.4" r="3.7" fill="#d4aa30" opacity="0.69"/><circle cx="299.2" cy="257.9" r="6.4" fill="#9ac45c" opacity="0.70"/><circle cx="296.4" cy="258.1" r="6.9" fill="#4a7e2a" opacity="0.68"/><circle cx="302.0" cy="261.1" r="4.0" fill="#6a9e3e" opacity="0.29"/><circle cx="304.3" cy="263.1" r="3.2" fill="#3a6e22" opacity="0.31"/><circle cx="301.0" cy="263.2" r="2.7" fill="#b8c44a" opacity="0.51"/><circle cx="212.6" cy="268.0" r="4.6" fill="#8aba52" opacity="0.73"/><circle cx="225.3" cy="271.2" r="2.6" fill="#4a7e2a" opacity="0.38"/><circle cx="217.8" cy="273.7" r="2.7" fill="#d4aa30" opacity="0.84"/><circle cx="225.2" cy="271.9" r="2.7" fill="#6a9e3e" opacity="0.35"/></g><line x1="265.0" y1="285.0" x2="265.0" y2="282.9" stroke="#5a4228" stroke-width="2.1" stroke-linecap="round" opacity="0.54"/><line x1="265.0" y1="282.9" x2="265.0" y2="280.8" stroke="#5a4228" stroke-width="2.1" stroke-linecap="round" opacity="0.53"/><line x1="265.0" y1="280.8" x2="265.0" y2="278.7" stroke="#5a4228" stroke-width="2.0" stroke-linecap="round" opacity="0.52"/><line x1="265.0" y1="278.7" x2="265.0" y2="276.6" stroke="#5a4228" stroke-width="1.9" stroke-linecap="round" opacity="0.51"/><line x1="265.0" y1="276.6" x2="265.0" y2="274.5" stroke="#5a4228" stroke-width="1.8" stroke-linecap="round" opacity="0.50"/><line x1="265.0" y1="274.5" x2="265.0" y2="272.4" stroke="#5a4228" stroke-width="1.8" stroke-linecap="round" opacity="0.49"/><line x1="265.0" y1="272.4" x2="265.0" y2="270.3" stroke="#5a4228" stroke-width="1.7" stroke-linecap="round" opacity="0.48"/><line x1="265.0" y1="272.4" x2="260.6" y2="270.1" stroke="#5a4228" stroke-width="1.7" stroke-linecap="round" opacity="0.48"/><line x1="260.6" y1="270.1" x2="255.6" y2="269.4" stroke="#5a4228" stroke-width="1.6" stroke-linecap="round" opacity="0.47"/><line x1="265.0" y1="272.4" x2="270.0" y2="272.4" stroke="#5a4228" stroke-width="1.6" stroke-linecap="round" opacity="0.47"/><line x1="265.0" y1="270.3" x2="270.0" y2="270.0" stroke="#5a4228" stroke-width="1.6" stroke-linecap="round" opacity="0.47"/><line x1="265.0" y1="270.3" x2="265.0" y2="268.2" stroke="#5a4228" stroke-width="1.5" stroke-linecap="round" opacity="0.46"/><line x1="265.0" y1="268.2" x2="265.0" y2="263.2" stroke="#5a4228" stroke-width="1.5" stroke-linecap="round" opacity="0.46"/><line x1="265.0" y1="270.3" x2="261.5" y2="266.7" stroke="#5a4228" stroke-width="1.5" stroke-linecap="round" opacity="0.46"/><line x1="255.6" y1="269.4" x2="250.7" y2="268.5" stroke="#5a4228" stroke-width="1.5" stroke-linecap="round" opacity="0.46"/><line x1="270.0" y1="272.4" x2="275.0" y2="272.4" stroke="#5a4228" stroke-width="1.5" stroke-linecap="round" opacity="0.46"/><line x1="270.0" y1="270.0" x2="275.0" y2="269.9" stroke="#5a4228" stroke-width="1.5" stroke-linecap="round" opacity="0.46"/><line x1="265.0" y1="263.2" x2="267.1" y2="258.7" stroke="#5a4228" stroke-width="1.4" stroke-linecap="round" opacity="0.45"/><line x1="261.5" y1="266.7" x2="257.5" y2="263.7" stroke="#5a4228" stroke-width="1.4" stroke-linecap="round" opacity="0.45"/><line x1="265.0" y1="268.2" x2="270.0" y2="268.2" stroke="#5a4228" stroke-width="1.4" stroke-linecap="round" opacity="0.45"/><line x1="250.7" y1="268.5" x2="245.7" y2="268.3" stroke="#5a4228" stroke-width="1.4" stroke-linecap="round" opacity="0.45"/><line x1="275.0" y1="272.4" x2="280.0" y2="272.3" stroke="#5a4228" stroke-width="1.4" stroke-linecap="round" opacity="0.45"/><line x1="275.0" y1="269.9" x2="280.0" y2="269.7" stroke="#5a4228" stroke-width="1.4" stroke-linecap="round" opacity="0.45"/><line x1="257.5" y1="263.7" x2="254.1" y2="260.1" stroke="#5a4228" stroke-width="1.4" stroke-linecap="round" opacity="0.45"/><line x1="270.0" y1="268.2" x2="274.9" y2="267.0" stroke="#5a4228" stroke-width="1.4" stroke-linecap="round" opacity="0.45"/><line x1="267.1" y1="258.7" x2="268.9" y2="254.0" stroke="#5a4228" stroke-width="1.4" stroke-linecap="round" opacity="0.45"/><line x1="280.0" y1="269.7" x2="284.9" y2="269.0" stroke="#5a4228" stroke-width="1.4" stroke-linecap="round" opacity="0.45"/><line x1="245.7" y1="268.3" x2="240.9" y2="266.9" stroke="#5a4228" stroke-width="1.4" stroke-linecap="round" opacity="0.45"/><line x1="280.0" y1="272.3" x2="285.0" y2="272.0" stroke="#5a4228" stroke-width="1.4" stroke-linecap="round" opacity="0.45"/><line x1="254.1" y1="260.1" x2="250.5" y2="256.6" stroke="#5a4228" stroke-width="1.3" stroke-linecap="round" opacity="0.44"/><line x1="274.9" y1="267.0" x2="279.0" y2="264.3" stroke="#5a4228" stroke-width="1.3" stroke-linecap="round" opacity="0.44"/><line x1="268.9" y1="254.0" x2="271.0" y2="249.4" stroke="#5a4228" stroke-width="1.3" stroke-linecap="round" opacity="0.44"/><line x1="267.1" y1="258.7" x2="262.6" y2="256.6" stroke="#5a4228" stroke-width="1.3" stroke-linecap="round" opacity="0.44"/><line x1="268.9" y1="254.0" x2="273.9" y2="254.0" stroke="#5a4228" stroke-width="1.3" stroke-linecap="round" opacity="0.44"/><line x1="240.9" y1="266.9" x2="236.1" y2="265.7" stroke="#5a4228" stroke-width="1.3" stroke-linecap="round" opacity="0.44"/><line x1="284.9" y1="269.0" x2="289.9" y2="268.1" stroke="#5a4228" stroke-width="1.3" stroke-linecap="round" opacity="0.44"/><line x1="285.0" y1="272.0" x2="290.0" y2="272.3" stroke="#5a4228" stroke-width="1.3" stroke-linecap="round" opacity="0.44"/><line x1="250.5" y1="256.6" x2="246.5" y2="253.6" stroke="#5a4228" stroke-width="1.2" stroke-linecap="round" opacity="0.43"/><line x1="279.0" y1="264.3" x2="283.3" y2="261.6" stroke="#5a4228" stroke-width="1.2" stroke-linecap="round" opacity="0.43"/><line x1="271.0" y1="249.4" x2="272.8" y2="244.8" stroke="#5a4228" stroke-width="1.2" stroke-linecap="round" opacity="0.43"/><line x1="262.6" y1="256.6" x2="260.9" y2="251.9" stroke="#5a4228" stroke-width="1.2" stroke-linecap="round" opacity="0.43"/><line x1="246.5" y1="253.6" x2="242.6" y2="250.5" stroke="#5a4228" stroke-width="1.2" stroke-linecap="round" opacity="0.43"/><line x1="273.9" y1="254.0" x2="278.8" y2="253.1" stroke="#5a4228" stroke-width="1.2" stroke-linecap="round" opacity="0.43"/><line x1="245.7" y1="268.3" x2="245.1" y2="263.3" stroke="#5a4228" stroke-width="1.2" stroke-linecap="round" opacity="0.43"/><line x1="236.1" y1="265.7" x2="231.1" y2="265.8" stroke="#5a4228" stroke-width="1.2" stroke-linecap="round" opacity="0.43"/><line x1="289.9" y1="268.1" x2="294.7" y2="267.0" stroke="#5a4228" stroke-width="1.2" stroke-linecap="round" opacity="0.43"/><line x1="290.0" y1="272.3" x2="295.0" y2="272.5" stroke="#5a4228" stroke-width="1.2" stroke-linecap="round" opacity="0.43"/><line x1="283.3" y1="261.6" x2="287.5" y2="259.0" stroke="#5a4228" stroke-width="1.1" stroke-linecap="round" opacity="0.42"/><line x1="260.9" y1="251.9" x2="259.0" y2="247.3" stroke="#5a4228" stroke-width="1.1" stroke-linecap="round" opacity="0.42"/><line x1="272.8" y1="244.8" x2="276.2" y2="241.1" stroke="#5a4228" stroke-width="1.1" stroke-linecap="round" opacity="0.42"/><line x1="271.0" y1="249.4" x2="266.8" y2="246.8" stroke="#5a4228" stroke-width="1.1" stroke-linecap="round" opacity="0.42"/><line x1="242.6" y1="250.5" x2="237.9" y2="248.8" stroke="#5a4228" stroke-width="1.1" stroke-linecap="round" opacity="0.42"/><line x1="278.8" y1="253.1" x2="283.1" y2="250.5" stroke="#5a4228" stroke-width="1.1" stroke-linecap="round" opacity="0.42"/><line x1="246.5" y1="253.6" x2="249.5" y2="249.6" stroke="#5a4228" stroke-width="1.1" stroke-linecap="round" opacity="0.42"/><line x1="245.1" y1="263.3" x2="241.3" y2="260.1" stroke="#5a4228" stroke-width="1.1" stroke-linecap="round" opacity="0.42"/><line x1="231.1" y1="265.8" x2="226.1" y2="265.9" stroke="#5a4228" stroke-width="1.1" stroke-linecap="round" opacity="0.42"/><line x1="294.7" y1="267.0" x2="299.4" y2="265.1" stroke="#5a4228" stroke-width="1.1" stroke-linecap="round" opacity="0.42"/><line x1="295.0" y1="272.5" x2="300.0" y2="272.2" stroke="#5a4228" stroke-width="1.1" stroke-linecap="round" opacity="0.42"/><line x1="274.9" y1="267.0" x2="273.3" y2="262.3" stroke="#5a4228" stroke-width="1.1" stroke-linecap="round" opacity="0.41"/><line x1="250.5" y1="256.6" x2="246.8" y2="260.0" stroke="#5a4228" stroke-width="1.1" stroke-linecap="round" opacity="0.41"/><line x1="287.5" y1="259.0" x2="291.1" y2="255.5" stroke="#5a4228" stroke-width="1.1" stroke-linecap="round" opacity="0.41"/><line x1="276.2" y1="241.1" x2="281.1" y2="242.3" stroke="#5a4228" stroke-width="1.1" stroke-linecap="round" opacity="0.41"/><line x1="259.0" y1="247.3" x2="256.9" y2="242.7" stroke="#5a4228" stroke-width="1.1" stroke-linecap="round" opacity="0.41"/><line x1="266.8" y1="246.8" x2="265.9" y2="241.9" stroke="#5a4228" stroke-width="1.1" stroke-linecap="round" opacity="0.41"/><line x1="240.9" y1="266.9" x2="240.7" y2="271.9" stroke="#5a4228" stroke-width="1.1" stroke-linecap="round" opacity="0.41"/><line x1="241.3" y1="260.1" x2="236.6" y2="258.3" stroke="#5a4228" stroke-width="1.1" stroke-linecap="round" opacity="0.41"/><line x1="249.5" y1="249.6" x2="247.2" y2="245.1" stroke="#5a4228" stroke-width="1.1" stroke-linecap="round" opacity="0.41"/><line x1="237.9" y1="248.8" x2="233.5" y2="251.3" stroke="#5a4228" stroke-width="1.1" stroke-linecap="round" opacity="0.41"/><line x1="236.1" y1="265.7" x2="234.4" y2="270.4" stroke="#5a4228" stroke-width="1.1" stroke-linecap="round" opacity="0.41"/><line x1="283.1" y1="250.5" x2="287.8" y2="248.6" stroke="#5a4228" stroke-width="1.1" stroke-linecap="round" opacity="0.41"/><line x1="226.1" y1="265.9" x2="222.0" y2="268.9" stroke="#5a4228" stroke-width="1.1" stroke-linecap="round" opacity="0.41"/><line x1="299.4" y1="265.1" x2="304.3" y2="264.5" stroke="#5a4228" stroke-width="1.1" stroke-linecap="round" opacity="0.41"/><line x1="300.0" y1="272.2" x2="304.9" y2="271.3" stroke="#5a4228" stroke-width="1.1" stroke-linecap="round" opacity="0.41"/><line x1="257.5" y1="263.7" x2="258.9" y2="258.9" stroke="#5a4228" stroke-width="1.0" stroke-linecap="round" opacity="0.40"/><line x1="279.0" y1="264.3" x2="278.6" y2="259.3" stroke="#5a4228" stroke-width="1.0" stroke-linecap="round" opacity="0.40"/><line x1="273.3" y1="262.3" x2="277.0" y2="258.9" stroke="#5a4228" stroke-width="1.0" stroke-linecap="round" opacity="0.40"/><line x1="272.8" y1="244.8" x2="270.1" y2="240.6" stroke="#5a4228" stroke-width="1.0" stroke-linecap="round" opacity="0.40"/><line x1="246.8" y1="260.0" x2="242.2" y2="258.1" stroke="#5a4228" stroke-width="1.0" stroke-linecap="round" opacity="0.40"/><line x1="250.5" y1="256.6" x2="254.5" y2="253.6" stroke="#5a4228" stroke-width="1.0" stroke-linecap="round" opacity="0.40"/><line x1="291.1" y1="255.5" x2="296.0" y2="254.7" stroke="#5a4228" stroke-width="1.0" stroke-linecap="round" opacity="0.40"/><line x1="265.9" y1="241.9" x2="261.4" y2="239.7" stroke="#5a4228" stroke-width="1.0" stroke-linecap="round" opacity="0.40"/><line x1="287.5" y1="259.0" x2="283.9" y2="255.6" stroke="#5a4228" stroke-width="1.0" stroke-linecap="round" opacity="0.40"/><line x1="242.6" y1="250.5" x2="243.8" y2="245.6" stroke="#5a4228" stroke-width="1.0" stroke-linecap="round" opacity="0.40"/><line x1="256.9" y1="242.7" x2="258.5" y2="238.0" stroke="#5a4228" stroke-width="1.0" stroke-linecap="round" opacity="0.40"/><line x1="240.7" y1="271.9" x2="235.8" y2="272.8" stroke="#5a4228" stroke-width="1.0" stroke-linecap="round" opacity="0.40"/><line x1="281.1" y1="242.3" x2="286.0" y2="243.0" stroke="#5a4228" stroke-width="1.0" stroke-linecap="round" opacity="0.40"/><line x1="287.8" y1="248.6" x2="292.7" y2="248.0" stroke="#5a4228" stroke-width="1.0" stroke-linecap="round" opacity="0.40"/><line x1="233.5" y1="251.3" x2="229.2" y2="253.8" stroke="#5a4228" stroke-width="1.0" stroke-linecap="round" opacity="0.40"/><line x1="291.1" y1="255.5" x2="293.7" y2="259.8" stroke="#5a4228" stroke-width="1.0" stroke-linecap="round" opacity="0.40"/><line x1="236.6" y1="258.3" x2="231.6" y2="258.0" stroke="#5a4228" stroke-width="1.0" stroke-linecap="round" opacity="0.40"/><line x1="231.1" y1="265.8" x2="227.7" y2="262.0" stroke="#5a4228" stroke-width="1.0" stroke-linecap="round" opacity="0.40"/><line x1="294.7" y1="267.0" x2="293.3" y2="262.2" stroke="#5a4228" stroke-width="1.0" stroke-linecap="round" opacity="0.40"/><line x1="234.4" y1="270.4" x2="229.8" y2="272.5" stroke="#5a4228" stroke-width="1.0" stroke-linecap="round" opacity="0.40"/><line x1="247.2" y1="245.1" x2="249.7" y2="240.8" stroke="#5a4228" stroke-width="1.0" stroke-linecap="round" opacity="0.40"/><line x1="304.9" y1="271.3" x2="309.8" y2="270.4" stroke="#5a4228" stroke-width="1.0" stroke-linecap="round" opacity="0.40"/><line x1="304.3" y1="264.5" x2="302.4" y2="259.9" stroke="#5a4228" stroke-width="1.0" stroke-linecap="round" opacity="0.40"/><line x1="222.0" y1="268.9" x2="219.1" y2="272.9" stroke="#5a4228" stroke-width="1.0" stroke-linecap="round" opacity="0.40"/><path d="M257.72 292 C259.904 287.1 258.84 285 259.4 285 C259.96 279.96 262.9 273.24 263.6 268.2 L266.4 268.2 C267.1 273.24 270.04 279.96 270.6 285 C271.16 285 270.096 287.1 272.28 292 Z" fill="#5a4228" opacity="0.92"/><path d="M264.16 285 C264.328 279.96 264.72 273.24 264.86 268.2 L265.14 268.2 C265.28 273.24 265.672 279.96 265.84 285 Z" fill="#a89060" opacity="0.15"/></g></g><text x="18" y="21" text-anchor="start" fill="#ffffff" font-size="9" letter-spacing="1.5" font-weight="400" font-family="system-ui, -apple-system, sans-serif" opacity="0.6">LEADERSHIP</text><circle cx="18" cy="237" r="13" fill="rgba(20,30,50,0.8)" stroke="rgba(200,200,220,0.6)" stroke-width="1"/><text x="18" y="241" text-anchor="middle" fill="#ffffff" font-size="12" font-weight="700" font-family="system-ui, -apple-system, sans-serif">E</text><text x="34" y="241" fill="#ffffff" font-size="11" font-weight="700" font-family="system-ui, -apple-system, sans-serif" opacity="1">Explorer</text><circle cx="18" cy="189" r="13" fill="rgba(20,30,50,0.8)" stroke="rgba(200,200,220,0.6)" stroke-width="1"/><text x="18" y="193" text-anchor="middle" fill="#ffffff" font-size="12" font-weight="700" font-family="system-ui, -apple-system, sans-serif">P</text><text x="34" y="193" fill="#ffffff" font-size="11" font-weight="400" font-family="system-ui, -apple-system, sans-serif" opacity="0.5">Practitioner</text><circle cx="18" cy="141" r="13" fill="rgba(20,30,50,0.8)" stroke="rgba(200,200,220,0.6)" stroke-width="1"/><text x="18" y="145" text-anchor="middle" fill="#ffffff" font-size="12" font-weight="700" font-family="system-ui, -apple-system, sans-serif">I</text><text x="34" y="145" fill="#ffffff" font-size="11" font-weight="400" font-family="system-ui, -apple-system, sans-serif" opacity="0.5">Integrator</text><circle cx="18" cy="93" r="13" fill="rgba(20,30,50,0.8)" stroke="rgba(200,200,220,0.6)" stroke-width="1"/><text x="18" y="97" text-anchor="middle" fill="#ffffff" font-size="12" font-weight="700" font-family="system-ui, -apple-system, sans-serif">A</text><text x="34" y="97" fill="#ffffff" font-size="11" font-weight="400" font-family="system-ui, -apple-system, sans-serif" opacity="0.5">Architect</text><circle cx="18" cy="45" r="13" fill="rgba(20,30,50,0.8)" stroke="rgba(200,200,220,0.6)" stroke-width="1"/><text x="18" y="49" text-anchor="middle" fill="#ffffff" font-size="12" font-weight="700" font-family="system-ui, -apple-system, sans-serif">S</text><text x="34" y="49" fill="#ffffff" font-size="11" font-weight="400" font-family="system-ui, -apple-system, sans-serif" opacity="0.5">Steward</text><circle cx="18" cy="333" r="13" fill="rgba(50,40,25,0.9)" stroke="rgba(200,200,220,0.6)" stroke-width="1"/><text x="18" y="337" text-anchor="middle" fill="#ffffff" font-size="12" font-weight="700" font-family="system-ui, -apple-system, sans-serif">E</text><text x="34" y="337" fill="#ffffff" font-size="11" font-weight="700" font-family="system-ui, -apple-system, sans-serif" opacity="1">Explorer</text><circle cx="18" cy="381" r="13" fill="rgba(20,30,50,0.8)" stroke="rgba(200,200,220,0.6)" stroke-width="1"/><text x="18" y="385" text-anchor="middle" fill="#ffffff" font-size="12" font-weight="700" font-family="system-ui, -apple-system, sans-serif">P</text><text x="34" y="385" fill="#ffffff" font-size="11" font-weight="400" font-family="system-ui, -apple-system, sans-serif" opacity="0.5">Practitioner</text><circle cx="18" cy="429" r="13" fill="rgba(20,30,50,0.8)" stroke="rgba(200,200,220,0.6)" stroke-width="1"/><text x="18" y="433" text-anchor="middle" fill="#ffffff" font-size="12" font-weight="700" font-family="system-ui, -apple-system, sans-serif">I</text><text x="34" y="433" fill="#ffffff" font-size="11" font-weight="400" font-family="system-ui, -apple-system, sans-serif" opacity="0.5">Integrator</text><circle cx="18" cy="477" r="13" fill="rgba(20,30,50,0.8)" stroke="rgba(200,200,220,0.6)" stroke-width="1"/><text x="18" y="481" text-anchor="middle" fill="#ffffff" font-size="12" font-weight="700" font-family="system-ui, -apple-system, sans-serif">A</text><text x="34" y="481" fill="#ffffff" font-size="11" font-weight="400" font-family="system-ui, -apple-system, sans-serif" opacity="0.5">Architect</text><circle cx="18" cy="525" r="13" fill="rgba(20,30,50,0.8)" stroke="rgba(200,200,220,0.6)" stroke-width="1"/><text x="18" y="529" text-anchor="middle" fill="#ffffff" font-size="12" font-weight="700" font-family="system-ui, -apple-system, sans-serif">S</text><text x="34" y="529" fill="#ffffff" font-size="11" font-weight="400" font-family="system-ui, -apple-system, sans-serif" opacity="0.5">Steward</text><circle cx="205" cy="14" r="3.5" fill="#6ee7a0"/><text x="265" y="18" text-anchor="middle" fill="#ffffff" font-size="14" font-weight="700" font-family="system-ui, -apple-system, sans-serif"><tspan>L0-E</tspan><tspan fill="#ccccdd"> / </tspan><tspan>L1-E</tspan></text><text x="330" y="18" text-anchor="start" fill="#6ee7a0" font-size="11" font-weight="600" font-family="system-ui, -apple-system, sans-serif">balanced</text></svg>