<svg xmlns="http://www.w3.org/2000/svg" viewBox="0 0 530 540"><path d="M251 289 Q253.8 238.5 260.5 130 L269.5 130 Q276.2 238.5 279 289 Z" fill="#5a4228" opacity="0.9"/><ellipse cx="299" cy="106" rx="53" ry="48" fill="#d4aa30" opacity="0.69"/><ellipse cx="277" cy="99" rx="68" ry="45" fill="#3a6e22" opacity="0.72"/><ellipse cx="305" cy="73" rx="80" ry="54" fill="#c8b43a" opacity="0.55"/><ellipse cx="241" cy="118" rx="87" ry="57" fill="#5a8e34" opacity="0.78"/><ellipse cx="265" cy="91" rx="42" ry="33" fill="#6a9e3e" opacity="0.4"/><g class="mini-roots"><line x1="265" y1="287" x2="263.8409807061967" y2="323.80242242906354" stroke="#7a6030" stroke-width="6.4" stroke-linecap="round" opacity="0.85"/><path d="M265 287 Q270 295 297 304" fill="none" stroke="#7a6030" stroke-width="5.3" stroke-linecap="round" opacity="0.75"/><path d="M265 287 Q263 300 283 314" fill="none" stroke="#7a6030" stroke-width="7.0" stroke-linecap="round" opacity="0.75"/><path d="M265 287 Q256 304 254 322" fill="none" stroke="#7a6030" stroke-width="5.1" stroke-linecap="round" opacity="0.75"/><path d="M265 287 Q254 295 239 304" fill="none" stroke="#7a6030" stroke-width="4.0" stroke-linecap="round" opacity="0.75"/></g></svg>