<svg xmlns="http://www.w3.org/2000/svg" viewBox="0 0 530 540"><path d="M253 289 Q255.4 246 261 155 L269 155 Q274.6 246 277 289 Z" fill="#5a4228" opacity="0.9"/><ellipse cx="289" cy="119" rx="98" ry="74" fill="#b8c44a" opacity="0.73"/><ellipse cx="259" cy="98" rx="59" ry="52" fill="#9ac45c" opacity="0.79"/><ellipse cx="242" cy="141" rx="100" ry="83" fill="#5a8e34" opacity="0.76"/><ellipse cx="296" cy="136" rx="64" ry="46" fill="#d4aa30" opacity="0.70"/><ellipse cx="265" cy="122.6" rx="42" ry="27" fill="#6a9e3e" opacity="0.4"/><g class="mini-roots"><line x1="265" y1="287" x2="268.8499457984464" y2="327.69533705613355" stroke="#7a6030" stroke-width="6.4" stroke-linecap="round" opacity="0.85"/><path d="M265 287 Q274 297 294 308" fill="none" stroke="#7a6030" stroke-width="4.1" stroke-linecap="round" opacity="0.75"/><path d="M265 287 Q272 292 261 299" fill="none" stroke="#7a6030" stroke-width="6.7" stroke-linecap="round" opacity="0.75"/><path d="M265 287 Q255 299 265 313" fill="none" stroke="#7a6030" stroke-width="5.2" stroke-linecap="round" opacity="0.75"/><path d="M265 287 Q249 295 236 304" fill="none" stroke="#7a6030" stroke-width="7.0" stroke-linecap="round" opacity="0.75"/></g></svg>