<svg xmlns="http://www.w3.org/2000/svg" viewBox="0 0 530 540"><path d="M257 289 Q258.6 261 262 205 L268 205 Q271.4 261 273 289 Z" fill="#5a4228" opacity="0.9"/><ellipse cx="241" cy="173" rx="45" ry="44" fill="#8aba52" opacity="0.70"/><ellipse cx="263" cy="201" rx="48" ry="36" fill="#6a9e3e" opacity="0.82"/><ellipse cx="282" cy="192" rx="61" ry="42" fill="#7aae48" opacity="0.69"/><ellipse cx="299" cy="185" rx="60" ry="53" fill="#b8c44a" opacity="0.57"/><ellipse cx="251" cy="183" rx="82" ry="52" fill="#7aae48" opacity="0.58"/><ellipse cx="265" cy="185.8" rx="35" ry="16" fill="#5a8e34" opacity="0.4"/><g class="mini-roots"><line x1="265" y1="287" x2="267.29885610858855" y2="325.26532622960644" stroke="#7a6030" stroke-width="6.4" stroke-linecap="round" opacity="0.85"/><path d="M265 287 Q265 290 281 296" fill="none" stroke="#7a6030" stroke-width="4.9" stroke-linecap="round" opacity="0.75"/><path d="M265 287 Q269 297 270 309" fill="none" stroke="#7a6030" stroke-width="6.7" stroke-linecap="round" opacity="0.75"/><path d="M265 287 Q258 307 260 328" fill="none" stroke="#7a6030" stroke-width="3.4" stroke-linecap="round" opacity="0.75"/><path d="M265 287 Q261 293 248 301" fill="none" stroke="#7a6030" stroke-width="6.5" stroke-linecap="round" opacity="0.75"/></g></svg>