<svg xmlns="http://www.w3.org/2000/svg" viewBox="0 0 530 540"><path d="M257 289 Q258.6 261 262 205 L268 205 Q271.4 261 273 289 Z" fill="#5a4228" opacity="0.9"/><ellipse cx="246" cy="200" rx="46" ry="38" fill="#b8c44a" opacity="0.58"/><ellipse cx="241" cy="173" rx="35" ry="28" fill="#7aae48" opacity="0.82"/><ellipse cx="282" cy="188" rx="53" ry="37" fill="#3a6e22" opacity="0.85"/><ellipse cx="284" cy="190" rx="66" ry="41" fill="#4a7e2a" opacity="0.80"/><ellipse cx="269" cy="191" rx="69" ry="60" fill="#7aae48" opacity="0.63"/><ellipse cx="265" cy="185.8" rx="28" ry="16" fill="#5a8e34" opacity="0.4"/><g class="mini-roots"><line x1="265" y1="287" x2="266.52312710020834" y2="319.2720260384828" stroke="#7a6030" stroke-width="6.4" stroke-linecap="round" opacity="0.85"/><path d="M265 287 Q270 293 278 301" fill="none" stroke="#7a6030" stroke-width="6.6" stroke-linecap="round" opacity="0.75"/><path d="M265 287 Q270 302 281 318" fill="none" stroke="#7a6030" stroke-width="4.7" stroke-linecap="round" opacity="0.75"/><path d="M265 287 Q262 307 254 329" fill="none" stroke="#7a6030" stroke-width="4.6" stroke-linecap="round" opacity="0.75"/><path d="M265 287 Q257 291 238 298" fill="none" stroke="#7a6030" stroke-width="5.8" stroke-linecap="round" opacity="0.75"/></g></svg>