<svg xmlns="http://www.w3.org/2000/svg" viewBox="0 0 530 540"><path d="M251 289 Q253.8 238.5 260.5 130 L269.5 130 Q276.2 238.5 279 289 Z" fill="#5a4228" opacity="0.9"/><ellipse cx="263" cy="99" rx="45" ry="44" fill="#9ac45c" opacity="0.79"/><ellipse cx="248" cy="90" rx="32" ry="20" fill="#8aba52" opacity="0.76"/><ellipse cx="262" cy="65" rx="44" ry="41" fill="#7aae48" opacity="0.67"/><ellipse cx="262" cy="100" rx="47" ry="43" fill="#3a6e22" opacity="0.61"/><ellipse cx="279" cy="76" rx="34" ry="20" fill="#4a7e2a" opacity="0.82"/><ellipse cx="265" cy="91" rx="20" ry="33" fill="#5a8e34" opacity="0.4"/><g class="mini-roots"><line x1="265" y1="287" x2="266.70525754136276" y2="321.09528586086594" stroke="#7a6030" stroke-width="6.4" stroke-linecap="round" opacity="0.85"/><path d="M265 287 Q264 290 282 294" fill="none" stroke="#7a6030" stroke-width="5.4" stroke-linecap="round" opacity="0.75"/><path d="M265 287 Q269 302 279 319" fill="none" stroke="#7a6030" stroke-width="5.9" stroke-linecap="round" opacity="0.75"/><path d="M265 287 Q260 297 248 308" fill="none" stroke="#7a6030" stroke-width="5.4" stroke-linecap="round" opacity="0.75"/><path d="M265 287 Q258 296 239 307" fill="none" stroke="#7a6030" stroke-width="4.7" stroke-linecap="round" opacity="0.75"/></g></svg>