<svg xmlns="http://www.w3.org/2000/svg" viewBox="0 0 530 540"><path d="M253 289 Q255.4 246 261 155 L269 155 Q274.6 246 277 289 Z" fill="#5a4228" opacity="0.9"/><ellipse cx="268" cy="145" rx="49" ry="35" fill="#c8b43a" opacity="0.75"/><ellipse cx="257" cy="98" rx="36" ry="29" fill="#d4aa30" opacity="0.69"/><ellipse cx="252" cy="123" rx="35" ry="27" fill="#3a6e22" opacity="0.76"/><ellipse cx="276" cy="139" rx="33" ry="28" fill="#5a8e34" opacity="0.69"/><ellipse cx="276" cy="96" rx="43" ry="40" fill="#7aae48" opacity="0.64"/><ellipse cx="265" cy="122.6" rx="20" ry="27" fill="#4a7e2a" opacity="0.4"/><g class="mini-roots"><line x1="265" y1="287" x2="267.27494566434757" y2="328.11327987756266" stroke="#7a6030" stroke-width="6.4" stroke-linecap="round" opacity="0.85"/><path d="M265 287 Q272 298 291 311" fill="none" stroke="#7a6030" stroke-width="6.7" stroke-linecap="round" opacity="0.75"/><path d="M265 287 Q272 296 275 306" fill="none" stroke="#7a6030" stroke-width="6.4" stroke-linecap="round" opacity="0.75"/><path d="M265 287 Q264 298 247 311" fill="none" stroke="#7a6030" stroke-width="6.9" stroke-linecap="round" opacity="0.75"/><path d="M265 287 Q254 292 237 299" fill="none" stroke="#7a6030" stroke-width="6.4" stroke-linecap="round" opacity="0.75"/></g></svg>