<svg xmlns="http://www.w3.org/2000/svg" viewBox="0 0 530 540"><g transform="translate(257,280) rotate(75)"><path d="M0,0 Q3,4 0,10 Q-3,4 0,0 Z" fill="#3a6e22" opacity="0.63"/><line x1="0" y1="0" x2="0" y2="10" stroke="rgba(60,90,30,0.3)" stroke-width="0.5"/></g><g transform="translate(265,283) rotate(349)"><path d="M0,0 Q4,5 0,13 Q-4,5 0,0 Z" fill="#b8c44a" opacity="0.88"/><line x1="0" y1="0" x2="0" y2="13" stroke="rgba(60,90,30,0.3)" stroke-width="0.5"/></g><g transform="translate(264,282) rotate(269)"><path d="M0,0 Q3,3 0,8 Q-3,3 0,0 Z" fill="#9ac45c" opacity="0.76"/><line x1="0" y1="0" x2="0" y2="8" stroke="rgba(60,90,30,0.3)" stroke-width="0.5"/></g><g transform="translate(270,281) rotate(115)"><path d="M0,0 Q2,3 0,7 Q-2,3 0,0 Z" fill="#7aae48" opacity="0.85"/><line x1="0" y1="0" x2="0" y2="7" stroke="rgba(60,90,30,0.3)" stroke-width="0.5"/></g><g transform="translate(260,283) rotate(336)"><path d="M0,0 Q4,4 0,10 Q-4,4 0,0 Z" fill="#d4aa30" opacity="0.63"/><line x1="0" y1="0" x2="0" y2="10" stroke="rgba(60,90,30,0.3)" stroke-width="0.5"/></g><g transform="translate(265,283) rotate(352)"><path d="M0,0 Q2,3 0,7 Q-2,3 0,0 Z" fill="#3a6e22" opacity="0.63"/><line x1="0" y1="0" x2="0" y2="7" stroke="rgba(60,90,30,0.3)" stroke-width="0.5"/></g><g transform="translate(264,282) rotate(294)"><path d="M0,0 Q4,4 0,10 Q-4,4 0,0 Z" fill="#6a9e3e" opacity="0.84"/><line x1="0" y1="0" x2="0" y2="10" stroke="rgba(60,90,30,0.3)" stroke-width="0.5"/></g><g transform="translate(261,285) rotate(288)"><path d="M0,0 Q3,3 0,7 Q-3,3 0,0 Z" fill="#b8c44a" opacity="0.71"/><line x1="0" y1="0" x2="0" y2="7" stroke="rgba(60,90,30,0.3)" stroke-width="0.5"/></g></svg>