<svg xmlns="http://www.w3.org/2000/svg" viewBox="0 0 530 540"><path d="M253 289 Q255.4 246 261 155 L269 155 Q274.6 246 277 289 Z" fill="#5a4228" opacity="0.9"/><ellipse cx="259" cy="124" rx="56" ry="40" fill="#5a8e34" opacity="0.80"/><ellipse cx="265" cy="108" rx="46" ry="35" fill="#5a8e34" opacity="0.67"/><ellipse cx="255" cy="114" rx="61" ry="48" fill="#6a9e3e" opacity="0.73"/><ellipse cx="267" cy="147" rx="62" ry="57" fill="#9ac45c" opacity="0.65"/><ellipse cx="261" cy="101" rx="60" ry="42" fill="#3a6e22" opacity="0.59"/><ellipse cx="265" cy="122.6" rx="28" ry="27" fill="#4a7e2a" opacity="0.4"/><g class="mini-roots"><line x1="265" y1="287" x2="267.66250334617797" y2="318.9080140718762" stroke="#7a6030" stroke-width="6.4" stroke-linecap="round" opacity="0.85"/><path d="M265 287 Q265 290 282 295" fill="none" stroke="#7a6030" stroke-width="4.9" stroke-linecap="round" opacity="0.75"/><path d="M265 287 Q264 305 283 325" fill="none" stroke="#7a6030" stroke-width="5.7" stroke-linecap="round" opacity="0.75"/><path d="M265 287 Q260 294 262 304" fill="none" stroke="#7a6030" stroke-width="3.4" stroke-linecap="round" opacity="0.75"/><path d="M265 287 Q253 293 247 301" fill="none" stroke="#7a6030" stroke-width="5.0" stroke-linecap="round" opacity="0.75"/></g></svg>