<svg xmlns="http://www.w3.org/2000/svg" viewBox="0 0 530 540"><path d="M251 289 Q253.8 238.5 260.5 130 L269.5 130 Q276.2 238.5 279 289 Z" fill="#5a4228" opacity="0.9"/><ellipse cx="279" cy="103" rx="40" ry="30" fill="#c8b43a" opacity="0.67"/><ellipse cx="272" cy="96" rx="47" ry="45" fill="#6a9e3e" opacity="0.70"/><ellipse cx="292" cy="82" rx="58" ry="40" fill="#d4aa30" opacity="0.80"/><ellipse cx="251" cy="106" rx="39" ry="32" fill="#c8b43a" opacity="0.58"/><ellipse cx="265" cy="91" rx="28" ry="33" fill="#6a9e3e" opacity="0.4"/><g class="mini-roots"><line x1="265" y1="287" x2="262.59160725846493" y2="318.79351846808265" stroke="#7a6030" stroke-width="6.4" stroke-linecap="round" opacity="0.85"/><path d="M265 287 Q277 297 293 309" fill="none" stroke="#7a6030" stroke-width="3.3" stroke-linecap="round" opacity="0.75"/><path d="M265 287 Q276 303 277 321" fill="none" stroke="#7a6030" stroke-width="3.8" stroke-linecap="round" opacity="0.75"/><path d="M265 287 Q269 297 258 310" fill="none" stroke="#7a6030" stroke-width="4.6" stroke-linecap="round" opacity="0.75"/><path d="M265 287 Q245 297 226 308" fill="none" stroke="#7a6030" stroke-width="5.4" stroke-linecap="round" opacity="0.75"/></g></svg>