<svg xmlns="http://www.w3.org/2000/svg" viewBox="0 0 530 540"><path d="M257 289 Q258.6 261 262 205 L268 205 Q271.4 261 273 289 Z" fill="#5a4228" opacity="0.9"/><ellipse cx="263" cy="202" rx="44" ry="27" fill="#3a6e22" opacity="0.77"/><ellipse cx="270" cy="176" rx="28" ry="21" fill="#5a8e34" opacity="0.76"/><ellipse cx="259" cy="196" rx="37" ry="33" fill="#9ac45c" opacity="0.69"/><ellipse cx="273" cy="193" rx="31" ry="28" fill="#d4aa30" opacity="0.77"/><ellipse cx="265" cy="185.8" rx="20" ry="16" fill="#5a8e34" opacity="0.4"/><g class="mini-roots"><line x1="265" y1="287" x2="267.9130491311257" y2="324.1601382452809" stroke="#7a6030" stroke-width="6.4" stroke-linecap="round" opacity="0.85"/><path d="M265 287 Q273 294 292 302" fill="none" stroke="#7a6030" stroke-width="4.4" stroke-linecap="round" opacity="0.75"/><path d="M265 287 Q264 301 283 316" fill="none" stroke="#7a6030" stroke-width="3.7" stroke-linecap="round" opacity="0.75"/><path d="M265 287 Q263 302 255 319" fill="none" stroke="#7a6030" stroke-width="5.2" stroke-linecap="round" opacity="0.75"/><path d="M265 287 Q257 298 237 311" fill="none" stroke="#7a6030" stroke-width="5.6" stroke-linecap="round" opacity="0.75"/></g></svg>