<svg xmlns="http://www.w3.org/2000/svg" viewBox="0 0 530 540"><path d="M255 289 Q257 253.5 261.5 180 L268.5 180 Q273 253.5 275 289 Z" fill="#5a4228" opacity="0.9"/><ellipse cx="273" cy="142" rx="27" ry="24" fill="#4a7e2a" opacity="0.70"/><ellipse cx="266" cy="159" rx="41" ry="40" fill="#6a9e3e" opacity="0.61"/><ellipse cx="283" cy="171" rx="50" ry="31" fill="#b8c44a" opacity="0.55"/><ellipse cx="249" cy="174" rx="44" ry="36" fill="#8aba52" opacity="0.76"/><ellipse cx="273" cy="164" rx="27" ry="23" fill="#b8c44a" opacity="0.77"/><ellipse cx="265" cy="154.2" rx="20" ry="22" fill="#4a7e2a" opacity="0.4"/><g class="mini-roots"><line x1="265" y1="287" x2="267.8446337873324" y2="320.73127389425935" stroke="#7a6030" stroke-width="6.4" stroke-linecap="round" opacity="0.85"/><path d="M265 287 Q270 296 293 308" fill="none" stroke="#7a6030" stroke-width="3.7" stroke-linecap="round" opacity="0.75"/><path d="M265 287 Q264 305 281 325" fill="none" stroke="#7a6030" stroke-width="6.9" stroke-linecap="round" opacity="0.75"/><path d="M265 287 Q268 300 246 315" fill="none" stroke="#7a6030" stroke-width="4.2" stroke-linecap="round" opacity="0.75"/><path d="M265 287 Q254 298 227 311" fill="none" stroke="#7a6030" stroke-width="3.9" stroke-linecap="round" opacity="0.75"/></g></svg>