<svg xmlns="http://www.w3.org/2000/svg" viewBox="0 0 530 540"><path d="M255 289 Q257 253.5 261.5 180 L268.5 180 Q273 253.5 275 289 Z" fill="#5a4228" opacity="0.9"/><ellipse cx="251" cy="170" rx="67" ry="67" fill="#8aba52" opacity="0.62"/><ellipse cx="289" cy="155" rx="54" ry="50" fill="#b8c44a" opacity="0.83"/><ellipse cx="268" cy="157" rx="90" ry="56" fill="#7aae48" opacity="0.73"/><ellipse cx="263" cy="150" rx="64" ry="54" fill="#6a9e3e" opacity="0.77"/><ellipse cx="265" cy="154.2" rx="42" ry="22" fill="#4a7e2a" opacity="0.4"/><g class="mini-roots"><line x1="265" y1="287" x2="264.14108910930395" y2="324.8117483167964" stroke="#7a6030" stroke-width="6.4" stroke-linecap="round" opacity="0.85"/><path d="M265 287 Q273 290 269 294" fill="none" stroke="#7a6030" stroke-width="3.1" stroke-linecap="round" opacity="0.75"/><path d="M265 287 Q269 300 280 314" fill="none" stroke="#7a6030" stroke-width="3.8" stroke-linecap="round" opacity="0.75"/><path d="M265 287 Q253 305 255 326" fill="none" stroke="#7a6030" stroke-width="4.9" stroke-linecap="round" opacity="0.75"/><path d="M265 287 Q251 294 245 302" fill="none" stroke="#7a6030" stroke-width="4.4" stroke-linecap="round" opacity="0.75"/></g></svg>