<svg xmlns="http://www.w3.org/2000/svg" viewBox="0 0 530 540"><path d="M259 289 Q260.2 268.5 262.5 230 L267.5 230 Q269.8 268.5 271 289 Z" fill="#5a4228" opacity="0.9"/><ellipse cx="269" cy="223" rx="32" ry="21" fill="#3a6e22" opacity="0.69"/><ellipse cx="276" cy="222" rx="17" ry="16" fill="#8aba52" opacity="0.77"/><ellipse cx="256" cy="221" rx="29" ry="24" fill="#9ac45c" opacity="0.73"/><ellipse cx="257" cy="221" rx="17" ry="15" fill="#8aba52" opacity="0.67"/><ellipse cx="262" cy="208" rx="23" ry="17" fill="#d4aa30" opacity="0.73"/><ellipse cx="265" cy="217.4" rx="13" ry="11" fill="#5a8e34" opacity="0.4"/><g class="mini-roots"><line x1="265" y1="287" x2="265.59740539481743" y2="317.3287365579646" stroke="#7a6030" stroke-width="6.4" stroke-linecap="round" opacity="0.85"/><path d="M265 287 Q281 295 301 305" fill="none" stroke="#7a6030" stroke-width="3.9" stroke-linecap="round" opacity="0.75"/><path d="M265 287 Q269 306 288 327" fill="none" stroke="#7a6030" stroke-width="6.5" stroke-linecap="round" opacity="0.75"/><path d="M265 287 Q263 302 263 319" fill="none" stroke="#7a6030" stroke-width="3.0" stroke-linecap="round" opacity="0.75"/><path d="M265 287 Q252 297 228 309" fill="none" stroke="#7a6030" stroke-width="4.0" stroke-linecap="round" opacity="0.75"/></g></svg>