<svg xmlns="http://www.w3.org/2000/svg" viewBox="0 0 530 540"><path d="M259 289 Q260.2 268.5 262.5 230 L267.5 230 Q269.8 268.5 271 289 Z" fill="#5a4228" opacity="0.9"/><ellipse cx="258" cy="222" rx="40" ry="34" fill="#b8c44a" opacity="0.81"/><ellipse cx="261" cy="220" rx="50" ry="47" fill="#b8c44a" opacity="0.83"/><ellipse cx="269" cy="216" rx="47" ry="29" fill="#3a6e22" opacity="0.59"/><ellipse cx="259" cy="219" rx="45" ry="44" fill="#b8c44a" opacity="0.70"/><ellipse cx="265" cy="217.4" rx="20" ry="11" fill="#5a8e34" opacity="0.4"/><g class="mini-roots"><line x1="265" y1="287" x2="264.92201422337536" y2="328.0530528723509" stroke="#7a6030" stroke-width="6.4" stroke-linecap="round" opacity="0.85"/><path d="M265 287 Q277 296 289 307" fill="none" stroke="#7a6030" stroke-width="3.2" stroke-linecap="round" opacity="0.75"/><path d="M265 287 Q273 293 261 301" fill="none" stroke="#7a6030" stroke-width="3.4" stroke-linecap="round" opacity="0.75"/><path d="M265 287 Q263 297 266 310" fill="none" stroke="#7a6030" stroke-width="5.3" stroke-linecap="round" opacity="0.75"/><path d="M265 287 Q251 298 234 311" fill="none" stroke="#7a6030" stroke-width="4.4" stroke-linecap="round" opacity="0.75"/></g></svg>