<svg xmlns="http://www.w3.org/2000/svg" viewBox="0 0 530 540"><path d="M255 289 Q257 253.5 261.5 180 L268.5 180 Q273 253.5 275 289 Z" fill="#5a4228" opacity="0.9"/><ellipse cx="252" cy="143" rx="51" ry="50" fill="#3a6e22" opacity="0.84"/><ellipse cx="253" cy="161" rx="40" ry="40" fill="#c8b43a" opacity="0.75"/><ellipse cx="269" cy="174" rx="40" ry="37" fill="#b8c44a" opacity="0.64"/><ellipse cx="248" cy="167" rx="47" ry="45" fill="#7aae48" opacity="0.57"/><ellipse cx="265" cy="149" rx="47" ry="37" fill="#b8c44a" opacity="0.76"/><ellipse cx="265" cy="154.2" rx="28" ry="22" fill="#4a7e2a" opacity="0.4"/><g class="mini-roots"><line x1="265" y1="287" x2="267.09281522319316" y2="326.29002005517947" stroke="#7a6030" stroke-width="6.4" stroke-linecap="round" opacity="0.85"/><path d="M265 287 Q268 292 280 298" fill="none" stroke="#7a6030" stroke-width="3.7" stroke-linecap="round" opacity="0.75"/><path d="M265 287 Q273 295 277 305" fill="none" stroke="#7a6030" stroke-width="5.2" stroke-linecap="round" opacity="0.75"/><path d="M265 287 Q256 293 263 301" fill="none" stroke="#7a6030" stroke-width="6.1" stroke-linecap="round" opacity="0.75"/><path d="M265 287 Q257 297 229 309" fill="none" stroke="#7a6030" stroke-width="3.3" stroke-linecap="round" opacity="0.75"/></g></svg>