<svg xmlns="http://www.w3.org/2000/svg" viewBox="0 0 530 540"><path d="M251 289 Q253.8 238.5 260.5 130 L269.5 130 Q276.2 238.5 279 289 Z" fill="#5a4228" opacity="0.9"/><ellipse cx="275" cy="86" rx="26" ry="21" fill="#9ac45c" opacity="0.79"/><ellipse cx="264" cy="97" rx="30" ry="28" fill="#5a8e34" opacity="0.58"/><ellipse cx="255" cy="68" rx="20" ry="17" fill="#4a7e2a" opacity="0.57"/><ellipse cx="263" cy="88" rx="24" ry="24" fill="#c8b43a" opacity="0.76"/><ellipse cx="252" cy="110" rx="26" ry="23" fill="#9ac45c" opacity="0.70"/><ellipse cx="265" cy="91" rx="13" ry="33" fill="#5a8e34" opacity="0.4"/><g class="mini-roots"><line x1="265" y1="287" x2="267.11672566743414" y2="323.44206640722325" stroke="#7a6030" stroke-width="6.4" stroke-linecap="round" opacity="0.85"/><path d="M265 287 Q271 294 297 303" fill="none" stroke="#7a6030" stroke-width="6.1" stroke-linecap="round" opacity="0.75"/><path d="M265 287 Q269 297 271 309" fill="none" stroke="#7a6030" stroke-width="5.4" stroke-linecap="round" opacity="0.75"/><path d="M265 287 Q265 301 257 317" fill="none" stroke="#7a6030" stroke-width="6.8" stroke-linecap="round" opacity="0.75"/><path d="M265 287 Q249 298 221 312" fill="none" stroke="#7a6030" stroke-width="3.3" stroke-linecap="round" opacity="0.75"/></g></svg>