<svg xmlns="http://www.w3.org/2000/svg" viewBox="0 0 530 540"><path d="M259 289 Q260.2 268.5 262.5 230 L267.5 230 Q269.8 268.5 271 289 Z" fill="#5a4228" opacity="0.9"/><ellipse cx="249" cy="215" rx="52" ry="36" fill="#b8c44a" opacity="0.66"/><ellipse cx="278" cy="218" rx="55" ry="51" fill="#c8b43a" opacity="0.75"/><ellipse cx="265" cy="209" rx="44" ry="42" fill="#4a7e2a" opacity="0.78"/><ellipse cx="253" cy="220" rx="79" ry="65" fill="#3a6e22" opacity="0.65"/><ellipse cx="245" cy="210" rx="55" ry="52" fill="#b8c44a" opacity="0.71"/><ellipse cx="265" cy="217.4" rx="35" ry="11" fill="#5a8e34" opacity="0.4"/><g class="mini-roots"><line x1="265" y1="287" x2="267.86854423157337" y2="317.88332024630313" stroke="#7a6030" stroke-width="6.4" stroke-linecap="round" opacity="0.85"/><path d="M265 287 Q274 299 309 312" fill="none" stroke="#7a6030" stroke-width="6.2" stroke-linecap="round" opacity="0.75"/><path d="M265 287 Q275 307 276 328" fill="none" stroke="#7a6030" stroke-width="7.2" stroke-linecap="round" opacity="0.75"/><path d="M265 287 Q267 292 270 299" fill="none" stroke="#7a6030" stroke-width="4.9" stroke-linecap="round" opacity="0.75"/><path d="M265 287 Q246 299 219 313" fill="none" stroke="#7a6030" stroke-width="4.0" stroke-linecap="round" opacity="0.75"/></g></svg>