<svg xmlns="http://www.w3.org/2000/svg" viewBox="0 0 530 540"><path d="M257 289 Q258.6 261 262 205 L268 205 Q271.4 261 273 289 Z" fill="#5a4228" opacity="0.9"/><ellipse cx="252" cy="201" rx="29" ry="18" fill="#3a6e22" opacity="0.75"/><ellipse cx="275" cy="177" rx="32" ry="28" fill="#d4aa30" opacity="0.80"/><ellipse cx="266" cy="182" rx="31" ry="19" fill="#8aba52" opacity="0.81"/><ellipse cx="270" cy="179" rx="17" ry="16" fill="#d4aa30" opacity="0.78"/><ellipse cx="265" cy="185.8" rx="13" ry="16" fill="#4a7e2a" opacity="0.4"/><g class="mini-roots"><line x1="265" y1="287" x2="266.75976691663254" y2="347.42796545104494" stroke="#7a6030" stroke-width="8.8" stroke-linecap="round" opacity="0.85"/><path d="M265 287 Q275 300 316 316" fill="none" stroke="#7a6030" stroke-width="4.3" stroke-linecap="round" opacity="0.75"/><path d="M265 287 Q269 306 286 327" fill="none" stroke="#7a6030" stroke-width="3.2" stroke-linecap="round" opacity="0.75"/><path d="M265 287 Q262 308 282 331" fill="none" stroke="#7a6030" stroke-width="7.1" stroke-linecap="round" opacity="0.75"/><path d="M265 287 Q268 310 259 335" fill="none" stroke="#7a6030" stroke-width="3.7" stroke-linecap="round" opacity="0.75"/><path d="M265 287 Q259 296 247 308" fill="none" stroke="#7a6030" stroke-width="4.2" stroke-linecap="round" opacity="0.75"/><path d="M265 287 Q243 307 205 329" fill="none" stroke="#7a6030" stroke-width="7.3" stroke-linecap="round" opacity="0.75"/></g></svg>