<svg xmlns="http://www.w3.org/2000/svg" viewBox="0 0 530 540"><path d="M257 289 Q258.6 261 262 205 L268 205 Q271.4 261 273 289 Z" fill="#5a4228" opacity="0.9"/><ellipse cx="305" cy="191" rx="70" ry="65" fill="#9ac45c" opacity="0.85"/><ellipse cx="280" cy="177" rx="78" ry="59" fill="#4a7e2a" opacity="0.66"/><ellipse cx="281" cy="180" rx="83" ry="65" fill="#c8b43a" opacity="0.83"/><ellipse cx="300" cy="197" rx="97" ry="79" fill="#9ac45c" opacity="0.77"/><ellipse cx="281" cy="197" rx="101" ry="91" fill="#6a9e3e" opacity="0.75"/><ellipse cx="265" cy="185.8" rx="42" ry="16" fill="#5a8e34" opacity="0.4"/><g class="mini-roots"><line x1="265" y1="287" x2="267.8218069667098" y2="346.20993884392544" stroke="#7a6030" stroke-width="8.8" stroke-linecap="round" opacity="0.85"/><path d="M265 287 Q285 304 318 322" fill="none" stroke="#7a6030" stroke-width="6.7" stroke-linecap="round" opacity="0.75"/><path d="M265 287 Q277 310 295 334" fill="none" stroke="#7a6030" stroke-width="5.1" stroke-linecap="round" opacity="0.75"/><path d="M265 287 Q271 316 273 347" fill="none" stroke="#7a6030" stroke-width="5.1" stroke-linecap="round" opacity="0.75"/><path d="M265 287 Q269 308 260 330" fill="none" stroke="#7a6030" stroke-width="6.5" stroke-linecap="round" opacity="0.75"/><path d="M265 287 Q260 304 238 323" fill="none" stroke="#7a6030" stroke-width="3.0" stroke-linecap="round" opacity="0.75"/><path d="M265 287 Q244 300 221 315" fill="none" stroke="#7a6030" stroke-width="5.0" stroke-linecap="round" opacity="0.75"/></g></svg>