<svg xmlns="http://www.w3.org/2000/svg" viewBox="0 0 530 540"><path d="M255 289 Q257 253.5 261.5 180 L268.5 180 Q273 253.5 275 289 Z" fill="#5a4228" opacity="0.9"/><ellipse cx="253" cy="164" rx="51" ry="33" fill="#3a6e22" opacity="0.67"/><ellipse cx="253" cy="165" rx="48" ry="31" fill="#6a9e3e" opacity="0.81"/><ellipse cx="259" cy="144" rx="31" ry="29" fill="#8aba52" opacity="0.56"/><ellipse cx="265" cy="154.2" rx="20" ry="22" fill="#3a6e22" opacity="0.4"/><g class="mini-roots"><line x1="265" y1="287" x2="268.23489439824357" y2="335.833546703697" stroke="#7a6030" stroke-width="8.8" stroke-linecap="round" opacity="0.85"/><path d="M265 287 Q279 301 308 317" fill="none" stroke="#7a6030" stroke-width="6.1" stroke-linecap="round" opacity="0.75"/><path d="M265 287 Q276 296 280 308" fill="none" stroke="#7a6030" stroke-width="4.2" stroke-linecap="round" opacity="0.75"/><path d="M265 287 Q270 320 272 356" fill="none" stroke="#7a6030" stroke-width="3.5" stroke-linecap="round" opacity="0.75"/><path d="M265 287 Q254 319 257 353" fill="none" stroke="#7a6030" stroke-width="3.5" stroke-linecap="round" opacity="0.75"/><path d="M265 287 Q264 300 249 315" fill="none" stroke="#7a6030" stroke-width="4.0" stroke-linecap="round" opacity="0.75"/><path d="M265 287 Q243 299 232 312" fill="none" stroke="#7a6030" stroke-width="3.5" stroke-linecap="round" opacity="0.75"/></g></svg>