<svg xmlns="http://www.w3.org/2000/svg" viewBox="0 0 530 540"><path d="M253 289 Q255.4 246 261 155 L269 155 Q274.6 246 277 289 Z" fill="#5a4228" opacity="0.9"/><ellipse cx="259" cy="122" rx="42" ry="29" fill="#3a6e22" opacity="0.60"/><ellipse cx="266" cy="110" rx="63" ry="50" fill="#b8c44a" opacity="0.83"/><ellipse cx="245" cy="102" rx="53" ry="45" fill="#7aae48" opacity="0.60"/><ellipse cx="275" cy="105" rx="60" ry="48" fill="#4a7e2a" opacity="0.58"/><ellipse cx="247" cy="118" rx="60" ry="47" fill="#7aae48" opacity="0.81"/><ellipse cx="265" cy="122.6" rx="28" ry="27" fill="#3a6e22" opacity="0.4"/><g class="mini-roots"><line x1="265" y1="287" x2="267.7978965224688" y2="350.71919878652284" stroke="#7a6030" stroke-width="8.8" stroke-linecap="round" opacity="0.85"/><path d="M265 287 Q281 300 297 315" fill="none" stroke="#7a6030" stroke-width="3.6" stroke-linecap="round" opacity="0.75"/><path d="M265 287 Q280 307 299 330" fill="none" stroke="#7a6030" stroke-width="4.9" stroke-linecap="round" opacity="0.75"/><path d="M265 287 Q273 302 268 319" fill="none" stroke="#7a6030" stroke-width="4.2" stroke-linecap="round" opacity="0.75"/><path d="M265 287 Q261 305 266 324" fill="none" stroke="#7a6030" stroke-width="6.4" stroke-linecap="round" opacity="0.75"/><path d="M265 287 Q256 313 222 341" fill="none" stroke="#7a6030" stroke-width="7.8" stroke-linecap="round" opacity="0.75"/><path d="M265 287 Q240 307 200 328" fill="none" stroke="#7a6030" stroke-width="7.6" stroke-linecap="round" opacity="0.75"/></g></svg>