<svg xmlns="http://www.w3.org/2000/svg" viewBox="0 0 530 540"><path d="M255 289 Q257 253.5 261.5 180 L268.5 180 Q273 253.5 275 289 Z" fill="#5a4228" opacity="0.9"/><ellipse cx="279" cy="164" rx="54" ry="42" fill="#4a7e2a" opacity="0.57"/><ellipse cx="272" cy="155" rx="65" ry="60" fill="#d4aa30" opacity="0.85"/><ellipse cx="247" cy="158" rx="66" ry="41" fill="#d4aa30" opacity="0.63"/><ellipse cx="265" cy="154.2" rx="28" ry="22" fill="#3a6e22" opacity="0.4"/><g class="mini-roots"><line x1="265" y1="287" x2="262.4088536134962" y2="342.2437445845659" stroke="#7a6030" stroke-width="8.8" stroke-linecap="round" opacity="0.85"/><path d="M265 287 Q293 305 316 324" fill="none" stroke="#7a6030" stroke-width="5.2" stroke-linecap="round" opacity="0.75"/><path d="M265 287 Q273 295 279 306" fill="none" stroke="#7a6030" stroke-width="4.1" stroke-linecap="round" opacity="0.75"/><path d="M265 287 Q264 310 267 334" fill="none" stroke="#7a6030" stroke-width="5.3" stroke-linecap="round" opacity="0.75"/><path d="M265 287 Q257 299 268 313" fill="none" stroke="#7a6030" stroke-width="4.3" stroke-linecap="round" opacity="0.75"/><path d="M265 287 Q258 313 235 341" fill="none" stroke="#7a6030" stroke-width="4.4" stroke-linecap="round" opacity="0.75"/><path d="M265 287 Q263 294 251 302" fill="none" stroke="#7a6030" stroke-width="8.0" stroke-linecap="round" opacity="0.75"/></g></svg>