<svg xmlns="http://www.w3.org/2000/svg" viewBox="0 0 530 540"><path d="M255 289 Q257 253.5 261.5 180 L268.5 180 Q273 253.5 275 289 Z" fill="#5a4228" opacity="0.9"/><ellipse cx="295" cy="149" rx="63" ry="49" fill="#7aae48" opacity="0.59"/><ellipse cx="262" cy="161" rx="70" ry="68" fill="#9ac45c" opacity="0.73"/><ellipse cx="301" cy="172" rx="103" ry="96" fill="#5a8e34" opacity="0.74"/><ellipse cx="271" cy="162" rx="74" ry="64" fill="#6a9e3e" opacity="0.69"/><ellipse cx="288" cy="137" rx="81" ry="80" fill="#3a6e22" opacity="0.63"/><ellipse cx="265" cy="154.2" rx="42" ry="22" fill="#5a8e34" opacity="0.4"/><g class="mini-roots"><line x1="265" y1="287" x2="267.252118843725" y2="335.0981149841557" stroke="#7a6030" stroke-width="8.8" stroke-linecap="round" opacity="0.85"/><path d="M265 287 Q289 306 318 327" fill="none" stroke="#7a6030" stroke-width="5.1" stroke-linecap="round" opacity="0.75"/><path d="M265 287 Q266 296 278 307" fill="none" stroke="#7a6030" stroke-width="4.5" stroke-linecap="round" opacity="0.75"/><path d="M265 287 Q266 313 272 341" fill="none" stroke="#7a6030" stroke-width="3.2" stroke-linecap="round" opacity="0.75"/><path d="M265 287 Q260 318 250 352" fill="none" stroke="#7a6030" stroke-width="4.3" stroke-linecap="round" opacity="0.75"/><path d="M265 287 Q257 305 232 325" fill="none" stroke="#7a6030" stroke-width="7.3" stroke-linecap="round" opacity="0.75"/><path d="M265 287 Q257 298 221 310" fill="none" stroke="#7a6030" stroke-width="7.9" stroke-linecap="round" opacity="0.75"/></g></svg>