<svg xmlns="http://www.w3.org/2000/svg" viewBox="0 0 530 540"><path d="M259 289 Q260.2 268.5 262.5 230 L267.5 230 Q269.8 268.5 271 289 Z" fill="#5a4228" opacity="0.9"/><ellipse cx="264" cy="225" rx="60" ry="42" fill="#6a9e3e" opacity="0.74"/><ellipse cx="282" cy="220" rx="50" ry="32" fill="#d4aa30" opacity="0.71"/><ellipse cx="256" cy="211" rx="46" ry="31" fill="#6a9e3e" opacity="0.65"/><ellipse cx="270" cy="224" rx="59" ry="57" fill="#4a7e2a" opacity="0.59"/><ellipse cx="287" cy="216" rx="53" ry="32" fill="#d4aa30" opacity="0.65"/><ellipse cx="265" cy="217.4" rx="28" ry="11" fill="#4a7e2a" opacity="0.4"/><g class="mini-roots"><line x1="265" y1="287" x2="268.74752867210077" y2="349.28681385474596" stroke="#7a6030" stroke-width="8.8" stroke-linecap="round" opacity="0.85"/><path d="M265 287 Q288 301 312 317" fill="none" stroke="#7a6030" stroke-width="4.9" stroke-linecap="round" opacity="0.75"/><path d="M265 287 Q276 304 283 322" fill="none" stroke="#7a6030" stroke-width="8.2" stroke-linecap="round" opacity="0.75"/><path d="M265 287 Q269 298 261 312" fill="none" stroke="#7a6030" stroke-width="7.2" stroke-linecap="round" opacity="0.75"/><path d="M265 287 Q266 318 250 351" fill="none" stroke="#7a6030" stroke-width="3.4" stroke-linecap="round" opacity="0.75"/><path d="M265 287 Q263 298 246 310" fill="none" stroke="#7a6030" stroke-width="6.0" stroke-linecap="round" opacity="0.75"/><path d="M265 287 Q249 302 212 319" fill="none" stroke="#7a6030" stroke-width="8.0" stroke-linecap="round" opacity="0.75"/></g></svg>