<svg xmlns="http://www.w3.org/2000/svg" viewBox="0 0 530 540"><path d="M257 289 Q258.6 261 262 205 L268 205 Q271.4 261 273 289 Z" fill="#5a4228" opacity="0.9"/><ellipse cx="283" cy="185" rx="46" ry="38" fill="#4a7e2a" opacity="0.80"/><ellipse cx="283" cy="171" rx="46" ry="32" fill="#5a8e34" opacity="0.56"/><ellipse cx="284" cy="184" rx="31" ry="30" fill="#c8b43a" opacity="0.68"/><ellipse cx="269" cy="184" rx="26" ry="23" fill="#d4aa30" opacity="0.55"/><ellipse cx="281" cy="182" rx="44" ry="35" fill="#5a8e34" opacity="0.69"/><ellipse cx="265" cy="185.8" rx="20" ry="16" fill="#5a8e34" opacity="0.4"/><g class="mini-roots"><line x1="265" y1="287" x2="265.644142659681" y2="349.8424844294984" stroke="#7a6030" stroke-width="8.8" stroke-linecap="round" opacity="0.85"/><path d="M265 287 Q285 304 311 322" fill="none" stroke="#7a6030" stroke-width="4.5" stroke-linecap="round" opacity="0.75"/><path d="M265 287 Q275 298 288 311" fill="none" stroke="#7a6030" stroke-width="5.3" stroke-linecap="round" opacity="0.75"/><path d="M265 287 Q275 320 280 354" fill="none" stroke="#7a6030" stroke-width="3.3" stroke-linecap="round" opacity="0.75"/><path d="M265 287 Q267 305 262 326" fill="none" stroke="#7a6030" stroke-width="7.4" stroke-linecap="round" opacity="0.75"/><path d="M265 287 Q262 304 240 324" fill="none" stroke="#7a6030" stroke-width="5.6" stroke-linecap="round" opacity="0.75"/><path d="M265 287 Q251 299 234 313" fill="none" stroke="#7a6030" stroke-width="5.7" stroke-linecap="round" opacity="0.75"/></g></svg>