<svg xmlns="http://www.w3.org/2000/svg" viewBox="0 0 530 540"><path d="M251 289 Q253.8 238.5 260.5 130 L269.5 130 Q276.2 238.5 279 289 Z" fill="#5a4228" opacity="0.9"/><ellipse cx="252" cy="70" rx="37" ry="35" fill="#b8c44a" opacity="0.64"/><ellipse cx="254" cy="105" rx="57" ry="35" fill="#5a8e34" opacity="0.60"/><ellipse cx="258" cy="105" rx="66" ry="40" fill="#c8b43a" opacity="0.81"/><ellipse cx="256" cy="59" rx="45" ry="38" fill="#c8b43a" opacity="0.80"/><ellipse cx="251" cy="103" rx="47" ry="41" fill="#4a7e2a" opacity="0.69"/><ellipse cx="265" cy="91" rx="28" ry="33" fill="#4a7e2a" opacity="0.4"/><g class="mini-roots"><line x1="265" y1="287" x2="267.228208399484" y2="339.60737492675304" stroke="#7a6030" stroke-width="8.8" stroke-linecap="round" opacity="0.85"/><path d="M265 287 Q284 302 318 320" fill="none" stroke="#7a6030" stroke-width="7.4" stroke-linecap="round" opacity="0.75"/><path d="M265 287 Q280 316 310 348" fill="none" stroke="#7a6030" stroke-width="4.2" stroke-linecap="round" opacity="0.75"/><path d="M265 287 Q268 299 267 314" fill="none" stroke="#7a6030" stroke-width="7.7" stroke-linecap="round" opacity="0.75"/><path d="M265 287 Q267 315 256 345" fill="none" stroke="#7a6030" stroke-width="4.2" stroke-linecap="round" opacity="0.75"/><path d="M265 287 Q253 314 236 344" fill="none" stroke="#7a6030" stroke-width="6.7" stroke-linecap="round" opacity="0.75"/><path d="M265 287 Q237 304 219 324" fill="none" stroke="#7a6030" stroke-width="5.0" stroke-linecap="round" opacity="0.75"/></g></svg>