<svg xmlns="http://www.w3.org/2000/svg" viewBox="0 0 530 540"><g transform="translate(270,282) rotate(269)"><path d="M0,0 Q2,2 0,6 Q-2,2 0,0 Z" fill="#4a7e2a" opacity="0.67"/><line x1="0" y1="0" x2="0" y2="6" stroke="rgba(60,90,30,0.3)" stroke-width="0.5"/></g><g transform="translate(264,282) rotate(11)"><path d="M0,0 Q4,5 0,12 Q-4,5 0,0 Z" fill="#4a7e2a" opacity="0.75"/><line x1="0" y1="0" x2="0" y2="12" stroke="rgba(60,90,30,0.3)" stroke-width="0.5"/></g><g transform="translate(271,286) rotate(261)"><path d="M0,0 Q4,4 0,11 Q-4,4 0,0 Z" fill="#8aba52" opacity="0.66"/><line x1="0" y1="0" x2="0" y2="11" stroke="rgba(60,90,30,0.3)" stroke-width="0.5"/></g><g transform="translate(263,280) rotate(280)"><path d="M0,0 Q3,3 0,8 Q-3,3 0,0 Z" fill="#3a6e22" opacity="0.80"/><line x1="0" y1="0" x2="0" y2="8" stroke="rgba(60,90,30,0.3)" stroke-width="0.5"/></g><g transform="translate(258,283) rotate(80)"><path d="M0,0 Q4,4 0,9 Q-4,4 0,0 Z" fill="#6a9e3e" opacity="0.58"/><line x1="0" y1="0" x2="0" y2="9" stroke="rgba(60,90,30,0.3)" stroke-width="0.5"/></g><g transform="translate(259,286) rotate(261)"><path d="M0,0 Q3,3 0,7 Q-3,3 0,0 Z" fill="#3a6e22" opacity="0.67"/><line x1="0" y1="0" x2="0" y2="7" stroke="rgba(60,90,30,0.3)" stroke-width="0.5"/></g><g transform="translate(260,282) rotate(131)"><path d="M0,0 Q5,6 0,14 Q-5,6 0,0 Z" fill="#d4aa30" opacity="0.81"/><line x1="0" y1="0" x2="0" y2="14" stroke="rgba(60,90,30,0.3)" stroke-width="0.5"/></g><g transform="translate(253,283) rotate(319)"><path d="M0,0 Q4,5 0,13 Q-4,5 0,0 Z" fill="#4a7e2a" opacity="0.72"/><line x1="0" y1="0" x2="0" y2="13" stroke="rgba(60,90,30,0.3)" stroke-width="0.5"/></g><g transform="translate(264,278) rotate(215)"><path d="M0,0 Q2,3 0,6 Q-2,3 0,0 Z" fill="#d4aa30" opacity="0.59"/><line x1="0" y1="0" x2="0" y2="6" stroke="rgba(60,90,30,0.3)" stroke-width="0.5"/></g><g transform="translate(266,282) rotate(246)"><path d="M0,0 Q4,4 0,11 Q-4,4 0,0 Z" fill="#b8c44a" opacity="0.60"/><line x1="0" y1="0" x2="0" y2="11" stroke="rgba(60,90,30,0.3)" stroke-width="0.5"/></g><g transform="translate(256,281) rotate(355)"><path d="M0,0 Q5,5 0,12 Q-5,5 0,0 Z" fill="#9ac45c" opacity="0.69"/><line x1="0" y1="0" x2="0" y2="12" stroke="rgba(60,90,30,0.3)" stroke-width="0.5"/></g></svg>