<svg xmlns="http://www.w3.org/2000/svg" viewBox="0 0 530 540"><path d="M259 289 Q260.2 268.5 262.5 230 L267.5 230 Q269.8 268.5 271 289 Z" fill="#5a4228" opacity="0.9"/><ellipse cx="278" cy="211" rx="42" ry="28" fill="#d4aa30" opacity="0.84"/><ellipse cx="274" cy="217" rx="42" ry="38" fill="#c8b43a" opacity="0.63"/><ellipse cx="253" cy="208" rx="41" ry="29" fill="#5a8e34" opacity="0.59"/><ellipse cx="255" cy="213" rx="40" ry="38" fill="#b8c44a" opacity="0.78"/><ellipse cx="284" cy="220" rx="34" ry="30" fill="#d4aa30" opacity="0.56"/><ellipse cx="265" cy="217.4" rx="20" ry="11" fill="#6a9e3e" opacity="0.4"/><g class="mini-roots"><line x1="265" y1="287" x2="265.0744545366962" y2="338.7306605697287" stroke="#7a6030" stroke-width="8.8" stroke-linecap="round" opacity="0.85"/><path d="M265 287 Q288 306 332 327" fill="none" stroke="#7a6030" stroke-width="8.3" stroke-linecap="round" opacity="0.75"/><path d="M265 287 Q275 307 300 328" fill="none" stroke="#7a6030" stroke-width="4.6" stroke-linecap="round" opacity="0.75"/><path d="M265 287 Q270 317 279 349" fill="none" stroke="#7a6030" stroke-width="6.8" stroke-linecap="round" opacity="0.75"/><path d="M265 287 Q258 316 252 347" fill="none" stroke="#7a6030" stroke-width="5.2" stroke-linecap="round" opacity="0.75"/><path d="M265 287 Q260 306 234 326" fill="none" stroke="#7a6030" stroke-width="4.5" stroke-linecap="round" opacity="0.75"/><path d="M265 287 Q248 297 233 309" fill="none" stroke="#7a6030" stroke-width="3.2" stroke-linecap="round" opacity="0.75"/></g></svg>