<svg xmlns="http://www.w3.org/2000/svg" viewBox="0 0 530 540"><path d="M251 289 Q253.8 238.5 260.5 130 L269.5 130 Q276.2 238.5 279 289 Z" fill="#5a4228" opacity="0.9"/><ellipse cx="256" cy="73" rx="58" ry="41" fill="#4a7e2a" opacity="0.72"/><ellipse cx="305" cy="90" rx="105" ry="64" fill="#4a7e2a" opacity="0.82"/><ellipse cx="272" cy="115" rx="67" ry="51" fill="#3a6e22" opacity="0.85"/><ellipse cx="233" cy="100" rx="78" ry="49" fill="#5a8e34" opacity="0.56"/><ellipse cx="229" cy="81" rx="63" ry="53" fill="#7aae48" opacity="0.73"/><ellipse cx="265" cy="91" rx="42" ry="33" fill="#4a7e2a" opacity="0.4"/><g class="mini-roots"><line x1="265" y1="287" x2="263.8872574022446" y2="348.32553273538383" stroke="#7a6030" stroke-width="8.8" stroke-linecap="round" opacity="0.85"/><path d="M265 287 Q284 304 313 322" fill="none" stroke="#7a6030" stroke-width="4.1" stroke-linecap="round" opacity="0.75"/><path d="M265 287 Q269 298 282 311" fill="none" stroke="#7a6030" stroke-width="8.2" stroke-linecap="round" opacity="0.75"/><path d="M265 287 Q266 311 279 336" fill="none" stroke="#7a6030" stroke-width="6.6" stroke-linecap="round" opacity="0.75"/><path d="M265 287 Q260 305 253 325" fill="none" stroke="#7a6030" stroke-width="6.1" stroke-linecap="round" opacity="0.75"/><path d="M265 287 Q257 304 237 323" fill="none" stroke="#7a6030" stroke-width="6.3" stroke-linecap="round" opacity="0.75"/><path d="M265 287 Q247 306 209 327" fill="none" stroke="#7a6030" stroke-width="3.2" stroke-linecap="round" opacity="0.75"/></g></svg>