<svg xmlns="http://www.w3.org/2000/svg" viewBox="0 0 530 540"><path d="M251 289 Q253.8 238.5 260.5 130 L269.5 130 Q276.2 238.5 279 289 Z" fill="#5a4228" opacity="0.9"/><ellipse cx="284" cy="67" rx="43" ry="33" fill="#7aae48" opacity="0.76"/><ellipse cx="276" cy="99" rx="40" ry="26" fill="#7aae48" opacity="0.66"/><ellipse cx="278" cy="89" rx="50" ry="42" fill="#5a8e34" opacity="0.67"/><ellipse cx="265" cy="118" rx="26" ry="25" fill="#3a6e22" opacity="0.83"/><ellipse cx="265" cy="91" rx="20" ry="33" fill="#4a7e2a" opacity="0.4"/><g class="mini-roots"><line x1="265" y1="287" x2="264.80171990944154" y2="344.74432289532587" stroke="#7a6030" stroke-width="8.8" stroke-linecap="round" opacity="0.85"/><path d="M265 287 Q285 306 315 328" fill="none" stroke="#7a6030" stroke-width="4.4" stroke-linecap="round" opacity="0.75"/><path d="M265 287 Q272 300 277 314" fill="none" stroke="#7a6030" stroke-width="4.6" stroke-linecap="round" opacity="0.75"/><path d="M265 287 Q274 301 262 316" fill="none" stroke="#7a6030" stroke-width="3.9" stroke-linecap="round" opacity="0.75"/><path d="M265 287 Q259 314 249 342" fill="none" stroke="#7a6030" stroke-width="5.0" stroke-linecap="round" opacity="0.75"/><path d="M265 287 Q256 311 225 336" fill="none" stroke="#7a6030" stroke-width="5.2" stroke-linecap="round" opacity="0.75"/><path d="M265 287 Q249 304 207 323" fill="none" stroke="#7a6030" stroke-width="6.8" stroke-linecap="round" opacity="0.75"/></g></svg>