<svg xmlns="http://www.w3.org/2000/svg" viewBox="0 0 530 540"><path d="M251 289 Q253.8 238.5 260.5 130 L269.5 130 Q276.2 238.5 279 289 Z" fill="#5a4228" opacity="0.9"/><ellipse cx="261" cy="118" rx="28" ry="17" fill="#b8c44a" opacity="0.83"/><ellipse cx="272" cy="89" rx="25" ry="23" fill="#6a9e3e" opacity="0.68"/><ellipse cx="271" cy="110" rx="32" ry="31" fill="#6a9e3e" opacity="0.56"/><ellipse cx="265" cy="91" rx="13" ry="33" fill="#4a7e2a" opacity="0.4"/><g class="mini-roots"><line x1="265" y1="287" x2="263.23614326968607" y2="334.70945278802395" stroke="#7a6030" stroke-width="8.8" stroke-linecap="round" opacity="0.85"/><path d="M265 287 Q287 305 330 325" fill="none" stroke="#7a6030" stroke-width="7.7" stroke-linecap="round" opacity="0.75"/><path d="M265 287 Q277 305 296 325" fill="none" stroke="#7a6030" stroke-width="5.2" stroke-linecap="round" opacity="0.75"/><path d="M265 287 Q263 304 282 324" fill="none" stroke="#7a6030" stroke-width="6.8" stroke-linecap="round" opacity="0.75"/><path d="M265 287 Q257 305 256 325" fill="none" stroke="#7a6030" stroke-width="7.5" stroke-linecap="round" opacity="0.75"/><path d="M265 287 Q253 315 226 345" fill="none" stroke="#7a6030" stroke-width="4.7" stroke-linecap="round" opacity="0.75"/><path d="M265 287 Q250 302 227 318" fill="none" stroke="#7a6030" stroke-width="3.5" stroke-linecap="round" opacity="0.75"/></g></svg>