<svg xmlns="http://www.w3.org/2000/svg" viewBox="0 0 530 540"><path d="M253 289 Q255.4 246 261 155 L269 155 Q274.6 246 277 289 Z" fill="#5a4228" opacity="0.9"/><ellipse cx="272" cy="116" rx="24" ry="17" fill="#7aae48" opacity="0.83"/><ellipse cx="264" cy="101" rx="27" ry="24" fill="#3a6e22" opacity="0.65"/><ellipse cx="253" cy="128" rx="27" ry="25" fill="#5a8e34" opacity="0.63"/><ellipse cx="252" cy="148" rx="19" ry="12" fill="#7aae48" opacity="0.63"/><ellipse cx="263" cy="111" rx="33" ry="32" fill="#9ac45c" opacity="0.58"/><ellipse cx="265" cy="122.6" rx="13" ry="27" fill="#4a7e2a" opacity="0.4"/><g class="mini-roots"><line x1="265" y1="287" x2="268.153930104875" y2="342.68424993757355" stroke="#7a6030" stroke-width="8.8" stroke-linecap="round" opacity="0.85"/><path d="M265 287 Q286 300 313 314" fill="none" stroke="#7a6030" stroke-width="5.5" stroke-linecap="round" opacity="0.75"/><path d="M265 287 Q279 310 298 336" fill="none" stroke="#7a6030" stroke-width="7.3" stroke-linecap="round" opacity="0.75"/><path d="M265 287 Q270 308 265 331" fill="none" stroke="#7a6030" stroke-width="4.4" stroke-linecap="round" opacity="0.75"/><path d="M265 287 Q269 299 256 314" fill="none" stroke="#7a6030" stroke-width="6.5" stroke-linecap="round" opacity="0.75"/><path d="M265 287 Q256 308 244 331" fill="none" stroke="#7a6030" stroke-width="4.2" stroke-linecap="round" opacity="0.75"/><path d="M265 287 Q241 307 210 328" fill="none" stroke="#7a6030" stroke-width="8.0" stroke-linecap="round" opacity="0.75"/></g></svg>