<svg xmlns="http://www.w3.org/2000/svg" viewBox="0 0 530 540"><path d="M253 289 Q255.4 246 261 155 L269 155 Q274.6 246 277 289 Z" fill="#5a4228" opacity="0.9"/><ellipse cx="248" cy="119" rx="47" ry="43" fill="#b8c44a" opacity="0.71"/><ellipse cx="285" cy="106" rx="44" ry="37" fill="#d4aa30" opacity="0.59"/><ellipse cx="268" cy="142" rx="41" ry="28" fill="#c8b43a" opacity="0.77"/><ellipse cx="265" cy="122.6" rx="20" ry="27" fill="#7aae48" opacity="0.4"/><g class="mini-roots"><line x1="265" y1="287" x2="264.6716832572928" y2="332.2420815313431" stroke="#7a6030" stroke-width="8.8" stroke-linecap="round" opacity="0.85"/><path d="M265 287 Q282 303 309 322" fill="none" stroke="#7a6030" stroke-width="4.6" stroke-linecap="round" opacity="0.75"/><path d="M265 287 Q275 302 292 320" fill="none" stroke="#7a6030" stroke-width="7.6" stroke-linecap="round" opacity="0.75"/><path d="M265 287 Q267 309 278 333" fill="none" stroke="#7a6030" stroke-width="4.0" stroke-linecap="round" opacity="0.75"/><path d="M265 287 Q258 297 260 309" fill="none" stroke="#7a6030" stroke-width="7.2" stroke-linecap="round" opacity="0.75"/><path d="M265 287 Q255 309 238 333" fill="none" stroke="#7a6030" stroke-width="3.4" stroke-linecap="round" opacity="0.75"/><path d="M265 287 Q255 297 236 309" fill="none" stroke="#7a6030" stroke-width="7.0" stroke-linecap="round" opacity="0.75"/></g></svg>