<svg xmlns="http://www.w3.org/2000/svg" viewBox="0 0 530 540"><path d="M255 289 Q257 253.5 261.5 180 L268.5 180 Q273 253.5 275 289 Z" fill="#5a4228" opacity="0.9"/><ellipse cx="276" cy="162" rx="27" ry="23" fill="#b8c44a" opacity="0.79"/><ellipse cx="269" cy="161" rx="29" ry="20" fill="#8aba52" opacity="0.57"/><ellipse cx="273" cy="176" rx="21" ry="16" fill="#d4aa30" opacity="0.72"/><ellipse cx="261" cy="138" rx="27" ry="25" fill="#b8c44a" opacity="0.71"/><ellipse cx="261" cy="133" rx="22" ry="20" fill="#d4aa30" opacity="0.71"/><ellipse cx="265" cy="154.2" rx="13" ry="22" fill="#3a6e22" opacity="0.4"/><g class="mini-roots"><line x1="265" y1="287" x2="268.7236182278598" y2="330.99607379734334" stroke="#7a6030" stroke-width="8.8" stroke-linecap="round" opacity="0.85"/><path d="M265 287 Q283 297 292 310" fill="none" stroke="#7a6030" stroke-width="7.1" stroke-linecap="round" opacity="0.75"/><path d="M265 287 Q279 301 287 318" fill="none" stroke="#7a6030" stroke-width="8.0" stroke-linecap="round" opacity="0.75"/><path d="M265 287 Q275 311 266 337" fill="none" stroke="#7a6030" stroke-width="6.3" stroke-linecap="round" opacity="0.75"/><path d="M265 287 Q258 315 256 345" fill="none" stroke="#7a6030" stroke-width="3.3" stroke-linecap="round" opacity="0.75"/><path d="M265 287 Q259 307 230 328" fill="none" stroke="#7a6030" stroke-width="5.3" stroke-linecap="round" opacity="0.75"/><path d="M265 287 Q261 293 233 301" fill="none" stroke="#7a6030" stroke-width="5.1" stroke-linecap="round" opacity="0.75"/></g></svg>