<svg xmlns="http://www.w3.org/2000/svg" viewBox="0 0 530 540"><path d="M251 289 Q253.8 238.5 260.5 130 L269.5 130 Q276.2 238.5 279 289 Z" fill="#5a4228" opacity="0.9"/><ellipse cx="270" cy="74" rx="63" ry="46" fill="#3a6e22" opacity="0.82"/><ellipse cx="289" cy="110" rx="77" ry="73" fill="#3a6e22" opacity="0.84"/><ellipse cx="295" cy="122" rx="80" ry="63" fill="#6a9e3e" opacity="0.65"/><ellipse cx="243" cy="65" rx="70" ry="52" fill="#b8c44a" opacity="0.78"/><ellipse cx="265" cy="91" rx="35" ry="33" fill="#3a6e22" opacity="0.4"/><g class="mini-roots"><line x1="265" y1="287" x2="262.8318353415615" y2="347.9943488267224" stroke="#7a6030" stroke-width="8.8" stroke-linecap="round" opacity="0.85"/><path d="M265 287 Q277 299 310 313" fill="none" stroke="#7a6030" stroke-width="3.2" stroke-linecap="round" opacity="0.75"/><path d="M265 287 Q271 307 287 330" fill="none" stroke="#7a6030" stroke-width="4.4" stroke-linecap="round" opacity="0.75"/><path d="M265 287 Q268 305 281 326" fill="none" stroke="#7a6030" stroke-width="7.2" stroke-linecap="round" opacity="0.75"/><path d="M265 287 Q258 319 242 353" fill="none" stroke="#7a6030" stroke-width="5.8" stroke-linecap="round" opacity="0.75"/><path d="M265 287 Q252 316 222 348" fill="none" stroke="#7a6030" stroke-width="6.7" stroke-linecap="round" opacity="0.75"/><path d="M265 287 Q250 299 228 312" fill="none" stroke="#7a6030" stroke-width="4.3" stroke-linecap="round" opacity="0.75"/></g></svg>