<svg xmlns="http://www.w3.org/2000/svg" viewBox="0 0 530 540"><path d="M253 289 Q255.4 246 261 155 L269 155 Q274.6 246 277 289 Z" fill="#5a4228" opacity="0.9"/><ellipse cx="245" cy="146" rx="102" ry="99" fill="#c8b43a" opacity="0.77"/><ellipse cx="287" cy="145" rx="96" ry="79" fill="#b8c44a" opacity="0.59"/><ellipse cx="293" cy="121" rx="87" ry="80" fill="#6a9e3e" opacity="0.75"/><ellipse cx="265" cy="122.6" rx="42" ry="27" fill="#6a9e3e" opacity="0.4"/><g class="mini-roots"><line x1="265" y1="287" x2="261.28283398239074" y2="341.51507146289345" stroke="#7a6030" stroke-width="8.8" stroke-linecap="round" opacity="0.85"/><path d="M265 287 Q271 295 297 305" fill="none" stroke="#7a6030" stroke-width="8.1" stroke-linecap="round" opacity="0.75"/><path d="M265 287 Q272 309 301 332" fill="none" stroke="#7a6030" stroke-width="7.5" stroke-linecap="round" opacity="0.75"/><path d="M265 287 Q264 301 267 316" fill="none" stroke="#7a6030" stroke-width="4.9" stroke-linecap="round" opacity="0.75"/><path d="M265 287 Q259 320 242 356" fill="none" stroke="#7a6030" stroke-width="7.9" stroke-linecap="round" opacity="0.75"/><path d="M265 287 Q248 307 238 328" fill="none" stroke="#7a6030" stroke-width="7.6" stroke-linecap="round" opacity="0.75"/><path d="M265 287 Q243 299 231 313" fill="none" stroke="#7a6030" stroke-width="4.7" stroke-linecap="round" opacity="0.75"/></g></svg>