<svg xmlns="http://www.w3.org/2000/svg" viewBox="0 0 530 540"><path d="M255 289 Q257 253.5 261.5 180 L268.5 180 Q273 253.5 275 289 Z" fill="#5a4228" opacity="0.9"/><ellipse cx="262" cy="162" rx="51" ry="31" fill="#c8b43a" opacity="0.69"/><ellipse cx="236" cy="152" rx="77" ry="76" fill="#4a7e2a" opacity="0.61"/><ellipse cx="273" cy="147" rx="86" ry="73" fill="#6a9e3e" opacity="0.80"/><ellipse cx="249" cy="151" rx="82" ry="52" fill="#8aba52" opacity="0.68"/><ellipse cx="265" cy="154.2" rx="35" ry="22" fill="#3a6e22" opacity="0.4"/><g class="mini-roots"><line x1="265" y1="287" x2="263.6487982397195" y2="352.52681317754406" stroke="#7a6030" stroke-width="8.8" stroke-linecap="round" opacity="0.85"/><path d="M265 287 Q285 304 310 323" fill="none" stroke="#7a6030" stroke-width="7.3" stroke-linecap="round" opacity="0.75"/><path d="M265 287 Q287 317 307 348" fill="none" stroke="#7a6030" stroke-width="6.8" stroke-linecap="round" opacity="0.75"/><path d="M265 287 Q275 305 280 324" fill="none" stroke="#7a6030" stroke-width="7.3" stroke-linecap="round" opacity="0.75"/><path d="M265 287 Q260 313 249 341" fill="none" stroke="#7a6030" stroke-width="7.7" stroke-linecap="round" opacity="0.75"/><path d="M265 287 Q253 302 248 319" fill="none" stroke="#7a6030" stroke-width="7.5" stroke-linecap="round" opacity="0.75"/><path d="M265 287 Q243 299 220 313" fill="none" stroke="#7a6030" stroke-width="7.0" stroke-linecap="round" opacity="0.75"/></g></svg>