<svg xmlns="http://www.w3.org/2000/svg" viewBox="0 0 530 540"><path d="M257 289 Q258.6 261 262 205 L268 205 Q271.4 261 273 289 Z" fill="#5a4228" opacity="0.9"/><ellipse cx="272" cy="184" rx="49" ry="31" fill="#c8b43a" opacity="0.62"/><ellipse cx="260" cy="201" rx="59" ry="44" fill="#7aae48" opacity="0.62"/><ellipse cx="260" cy="176" rx="45" ry="35" fill="#5a8e34" opacity="0.84"/><ellipse cx="265" cy="185.8" rx="28" ry="16" fill="#6a9e3e" opacity="0.4"/><g class="mini-roots"><line x1="265" y1="287" x2="266.8456424725455" y2="338.65227941221195" stroke="#7a6030" stroke-width="8.8" stroke-linecap="round" opacity="0.85"/><path d="M265 287 Q282 307 317 329" fill="none" stroke="#7a6030" stroke-width="3.7" stroke-linecap="round" opacity="0.75"/><path d="M265 287 Q272 301 291 318" fill="none" stroke="#7a6030" stroke-width="7.5" stroke-linecap="round" opacity="0.75"/><path d="M265 287 Q261 298 274 312" fill="none" stroke="#7a6030" stroke-width="5.9" stroke-linecap="round" opacity="0.75"/><path d="M265 287 Q257 303 261 321" fill="none" stroke="#7a6030" stroke-width="8.1" stroke-linecap="round" opacity="0.75"/><path d="M265 287 Q260 299 252 313" fill="none" stroke="#7a6030" stroke-width="3.8" stroke-linecap="round" opacity="0.75"/><path d="M265 287 Q260 292 255 299" fill="none" stroke="#7a6030" stroke-width="6.1" stroke-linecap="round" opacity="0.75"/></g></svg>