<svg xmlns="http://www.w3.org/2000/svg" viewBox="0 0 530 540"><path d="M253 289 Q255.4 246 261 155 L269 155 Q274.6 246 277 289 Z" fill="#5a4228" opacity="0.9"/><ellipse cx="270" cy="148" rx="58" ry="43" fill="#4a7e2a" opacity="0.65"/><ellipse cx="251" cy="96" rx="84" ry="65" fill="#8aba52" opacity="0.83"/><ellipse cx="257" cy="135" rx="69" ry="48" fill="#d4aa30" opacity="0.59"/><ellipse cx="273" cy="127" rx="58" ry="56" fill="#c8b43a" opacity="0.76"/><ellipse cx="265" cy="122.6" rx="35" ry="27" fill="#3a6e22" opacity="0.4"/><g class="mini-roots"><line x1="265" y1="287" x2="266.63983314746986" y2="346.36303168468316" stroke="#7a6030" stroke-width="8.8" stroke-linecap="round" opacity="0.85"/><path d="M265 287 Q280 301 310 317" fill="none" stroke="#7a6030" stroke-width="3.4" stroke-linecap="round" opacity="0.75"/><path d="M265 287 Q271 305 289 325" fill="none" stroke="#7a6030" stroke-width="7.1" stroke-linecap="round" opacity="0.75"/><path d="M265 287 Q263 312 275 340" fill="none" stroke="#7a6030" stroke-width="7.1" stroke-linecap="round" opacity="0.75"/><path d="M265 287 Q265 313 251 341" fill="none" stroke="#7a6030" stroke-width="3.8" stroke-linecap="round" opacity="0.75"/><path d="M265 287 Q259 302 240 319" fill="none" stroke="#7a6030" stroke-width="3.8" stroke-linecap="round" opacity="0.75"/><path d="M265 287 Q240 304 205 323" fill="none" stroke="#7a6030" stroke-width="4.0" stroke-linecap="round" opacity="0.75"/></g></svg>