<svg xmlns="http://www.w3.org/2000/svg" viewBox="0 0 530 540"><path d="M259 289 Q260.2 268.5 262.5 230 L267.5 230 Q269.8 268.5 271 289 Z" fill="#5a4228" opacity="0.9"/><ellipse cx="231" cy="227" rx="78" ry="52" fill="#d4aa30" opacity="0.81"/><ellipse cx="298" cy="223" rx="87" ry="82" fill="#8aba52" opacity="0.59"/><ellipse cx="261" cy="222" rx="63" ry="40" fill="#8aba52" opacity="0.62"/><ellipse cx="244" cy="228" rx="68" ry="51" fill="#d4aa30" opacity="0.84"/><ellipse cx="275" cy="219" rx="68" ry="56" fill="#9ac45c" opacity="0.58"/><ellipse cx="265" cy="217.4" rx="42" ry="11" fill="#4a7e2a" opacity="0.4"/><g class="mini-roots"><line x1="265" y1="287" x2="268.3914950896946" y2="334.52176270369523" stroke="#7a6030" stroke-width="8.8" stroke-linecap="round" opacity="0.85"/><path d="M265 287 Q282 301 317 317" fill="none" stroke="#7a6030" stroke-width="8.4" stroke-linecap="round" opacity="0.75"/><path d="M265 287 Q277 301 283 316" fill="none" stroke="#7a6030" stroke-width="5.8" stroke-linecap="round" opacity="0.75"/><path d="M265 287 Q277 318 274 352" fill="none" stroke="#7a6030" stroke-width="7.0" stroke-linecap="round" opacity="0.75"/><path d="M265 287 Q262 297 251 309" fill="none" stroke="#7a6030" stroke-width="3.3" stroke-linecap="round" opacity="0.75"/><path d="M265 287 Q263 303 245 320" fill="none" stroke="#7a6030" stroke-width="4.2" stroke-linecap="round" opacity="0.75"/><path d="M265 287 Q247 302 222 319" fill="none" stroke="#7a6030" stroke-width="7.6" stroke-linecap="round" opacity="0.75"/></g></svg>