<svg xmlns="http://www.w3.org/2000/svg" viewBox="0 0 530 540"><path d="M259 289 Q260.2 268.5 262.5 230 L267.5 230 Q269.8 268.5 271 289 Z" fill="#5a4228" opacity="0.9"/><ellipse cx="255" cy="212" rx="17" ry="14" fill="#4a7e2a" opacity="0.72"/><ellipse cx="259" cy="219" rx="29" ry="25" fill="#9ac45c" opacity="0.57"/><ellipse cx="272" cy="214" rx="26" ry="23" fill="#b8c44a" opacity="0.72"/><ellipse cx="254" cy="215" rx="31" ry="26" fill="#8aba52" opacity="0.75"/><ellipse cx="265" cy="217.4" rx="13" ry="11" fill="#7aae48" opacity="0.4"/><g class="mini-roots"><line x1="265" y1="287" x2="262.7119015723988" y2="346.9294150603606" stroke="#7a6030" stroke-width="8.8" stroke-linecap="round" opacity="0.85"/><path d="M265 287 Q282 299 303 314" fill="none" stroke="#7a6030" stroke-width="7.7" stroke-linecap="round" opacity="0.75"/><path d="M265 287 Q273 307 291 328" fill="none" stroke="#7a6030" stroke-width="8.3" stroke-linecap="round" opacity="0.75"/><path d="M265 287 Q270 310 274 335" fill="none" stroke="#7a6030" stroke-width="7.2" stroke-linecap="round" opacity="0.75"/><path d="M265 287 Q255 322 255 358" fill="none" stroke="#7a6030" stroke-width="5.9" stroke-linecap="round" opacity="0.75"/><path d="M265 287 Q263 300 243 315" fill="none" stroke="#7a6030" stroke-width="6.3" stroke-linecap="round" opacity="0.75"/><path d="M265 287 Q247 296 228 306" fill="none" stroke="#7a6030" stroke-width="6.4" stroke-linecap="round" opacity="0.75"/></g></svg>