<svg xmlns="http://www.w3.org/2000/svg" viewBox="0 0 530 540"><path d="M259 289 Q260.2 268.5 262.5 230 L267.5 230 Q269.8 268.5 271 289 Z" fill="#5a4228" opacity="0.9"/><ellipse cx="285" cy="226" rx="48" ry="43" fill="#9ac45c" opacity="0.62"/><ellipse cx="255" cy="221" rx="68" ry="67" fill="#b8c44a" opacity="0.65"/><ellipse cx="292" cy="216" rx="55" ry="47" fill="#d4aa30" opacity="0.79"/><ellipse cx="265" cy="217.4" rx="35" ry="11" fill="#5a8e34" opacity="0.4"/><g class="mini-roots"><line x1="265" y1="287" x2="261.06218405443343" y2="351.09925490715506" stroke="#7a6030" stroke-width="8.8" stroke-linecap="round" opacity="0.85"/><path d="M265 287 Q287 302 302 318" fill="none" stroke="#7a6030" stroke-width="3.2" stroke-linecap="round" opacity="0.75"/><path d="M265 287 Q280 306 297 327" fill="none" stroke="#7a6030" stroke-width="5.2" stroke-linecap="round" opacity="0.75"/><path d="M265 287 Q269 315 286 345" fill="none" stroke="#7a6030" stroke-width="5.0" stroke-linecap="round" opacity="0.75"/><path d="M265 287 Q258 299 255 313" fill="none" stroke="#7a6030" stroke-width="6.6" stroke-linecap="round" opacity="0.75"/><path d="M265 287 Q259 302 240 319" fill="none" stroke="#7a6030" stroke-width="4.3" stroke-linecap="round" opacity="0.75"/><path d="M265 287 Q245 307 208 329" fill="none" stroke="#7a6030" stroke-width="4.4" stroke-linecap="round" opacity="0.75"/></g></svg>