<svg xmlns="http://www.w3.org/2000/svg" viewBox="0 0 530 540"><path d="M259 289 Q260.2 268.5 262.5 230 L267.5 230 Q269.8 268.5 271 289 Z" fill="#5a4228" opacity="0.9"/><ellipse cx="275" cy="217" rx="74" ry="63" fill="#c8b43a" opacity="0.77"/><ellipse cx="270" cy="226" rx="103" ry="102" fill="#7aae48" opacity="0.79"/><ellipse cx="294" cy="208" rx="75" ry="71" fill="#6a9e3e" opacity="0.63"/><ellipse cx="252" cy="213" rx="78" ry="61" fill="#d4aa30" opacity="0.76"/><ellipse cx="265" cy="217.4" rx="42" ry="11" fill="#3a6e22" opacity="0.4"/><g class="mini-roots"><line x1="265" y1="287" x2="264.5734996588777" y2="375.90909363055096" stroke="#7a6030" stroke-width="11.2" stroke-linecap="round" opacity="0.85"/><path d="M265 287 Q282 304 314 324" fill="none" stroke="#7a6030" stroke-width="7.9" stroke-linecap="round" opacity="0.75"/><path d="M265 287 Q295 322 330 360" fill="none" stroke="#7a6030" stroke-width="6.4" stroke-linecap="round" opacity="0.75"/><path d="M265 287 Q277 309 289 332" fill="none" stroke="#7a6030" stroke-width="6.6" stroke-linecap="round" opacity="0.75"/><path d="M265 287 Q269 316 279 347" fill="none" stroke="#7a6030" stroke-width="7.3" stroke-linecap="round" opacity="0.75"/><path d="M265 287 Q258 336 251 387" fill="none" stroke="#7a6030" stroke-width="9.6" stroke-linecap="round" opacity="0.75"/><path d="M265 287 Q261 303 249 322" fill="none" stroke="#7a6030" stroke-width="4.9" stroke-linecap="round" opacity="0.75"/><path d="M265 287 Q246 321 202 358" fill="none" stroke="#7a6030" stroke-width="8.8" stroke-linecap="round" opacity="0.75"/><path d="M265 287 Q257 299 218 313" fill="none" stroke="#7a6030" stroke-width="6.3" stroke-linecap="round" opacity="0.75"/></g></svg>