<svg xmlns="http://www.w3.org/2000/svg" viewBox="0 0 530 540"><path d="M251 289 Q253.8 238.5 260.5 130 L269.5 130 Q276.2 238.5 279 289 Z" fill="#5a4228" opacity="0.9"/><ellipse cx="281" cy="103" rx="69" ry="50" fill="#9ac45c" opacity="0.61"/><ellipse cx="291" cy="114" rx="68" ry="45" fill="#5a8e34" opacity="0.80"/><ellipse cx="280" cy="64" rx="40" ry="37" fill="#9ac45c" opacity="0.82"/><ellipse cx="261" cy="77" rx="51" ry="46" fill="#c8b43a" opacity="0.73"/><ellipse cx="265" cy="91" rx="28" ry="33" fill="#6a9e3e" opacity="0.4"/><g class="mini-roots"><line x1="265" y1="287" x2="265.0419479925381" y2="348.53889234230803" stroke="#7a6030" stroke-width="11.2" stroke-linecap="round" opacity="0.85"/><path d="M265 287 Q285 308 330 330" fill="none" stroke="#7a6030" stroke-width="4.4" stroke-linecap="round" opacity="0.75"/><path d="M265 287 Q278 300 296 316" fill="none" stroke="#7a6030" stroke-width="5.4" stroke-linecap="round" opacity="0.75"/><path d="M265 287 Q272 305 280 326" fill="none" stroke="#7a6030" stroke-width="6.7" stroke-linecap="round" opacity="0.75"/><path d="M265 287 Q272 328 268 371" fill="none" stroke="#7a6030" stroke-width="5.1" stroke-linecap="round" opacity="0.75"/><path d="M265 287 Q264 302 254 319" fill="none" stroke="#7a6030" stroke-width="7.0" stroke-linecap="round" opacity="0.75"/><path d="M265 287 Q246 323 242 362" fill="none" stroke="#7a6030" stroke-width="8.6" stroke-linecap="round" opacity="0.75"/><path d="M265 287 Q252 302 236 318" fill="none" stroke="#7a6030" stroke-width="7.2" stroke-linecap="round" opacity="0.75"/><path d="M265 287 Q242 303 207 321" fill="none" stroke="#7a6030" stroke-width="9.2" stroke-linecap="round" opacity="0.75"/></g></svg>