<svg xmlns="http://www.w3.org/2000/svg" viewBox="0 0 530 540"><path d="M255 289 Q257 253.5 261.5 180 L268.5 180 Q273 253.5 275 289 Z" fill="#5a4228" opacity="0.9"/><ellipse cx="250" cy="143" rx="56" ry="34" fill="#5a8e34" opacity="0.61"/><ellipse cx="290" cy="149" rx="55" ry="48" fill="#d4aa30" opacity="0.64"/><ellipse cx="281" cy="143" rx="58" ry="41" fill="#4a7e2a" opacity="0.63"/><ellipse cx="238" cy="143" rx="69" ry="62" fill="#7aae48" opacity="0.73"/><ellipse cx="265" cy="154.2" rx="28" ry="22" fill="#5a8e34" opacity="0.4"/><g class="mini-roots"><line x1="265" y1="287" x2="261.43868558874294" y2="368.86901355826717" stroke="#7a6030" stroke-width="11.2" stroke-linecap="round" opacity="0.85"/><path d="M265 287 Q291 308 323 330" fill="none" stroke="#7a6030" stroke-width="7.1" stroke-linecap="round" opacity="0.75"/><path d="M265 287 Q278 310 314 335" fill="none" stroke="#7a6030" stroke-width="6.9" stroke-linecap="round" opacity="0.75"/><path d="M265 287 Q268 316 290 347" fill="none" stroke="#7a6030" stroke-width="3.1" stroke-linecap="round" opacity="0.75"/><path d="M265 287 Q264 327 270 370" fill="none" stroke="#7a6030" stroke-width="3.5" stroke-linecap="round" opacity="0.75"/><path d="M265 287 Q261 310 266 335" fill="none" stroke="#7a6030" stroke-width="9.0" stroke-linecap="round" opacity="0.75"/><path d="M265 287 Q258 305 251 325" fill="none" stroke="#7a6030" stroke-width="3.9" stroke-linecap="round" opacity="0.75"/><path d="M265 287 Q235 322 198 358" fill="none" stroke="#7a6030" stroke-width="7.1" stroke-linecap="round" opacity="0.75"/><path d="M265 287 Q235 314 189 343" fill="none" stroke="#7a6030" stroke-width="3.9" stroke-linecap="round" opacity="0.75"/></g></svg>