<svg xmlns="http://www.w3.org/2000/svg" viewBox="0 0 530 540"><g transform="translate(249,283) rotate(103)"><path d="M0,0 Q4,5 0,11 Q-4,5 0,0 Z" fill="#6a9e3e" opacity="0.70"/><line x1="0" y1="0" x2="0" y2="11" stroke="rgba(60,90,30,0.3)" stroke-width="0.5"/></g><g transform="translate(282,279) rotate(33)"><path d="M0,0 Q5,4 0,10 Q-5,4 0,0 Z" fill="#7aae48" opacity="0.61"/><line x1="0" y1="0" x2="0" y2="10" stroke="rgba(60,90,30,0.3)" stroke-width="0.5"/></g><g transform="translate(271,278) rotate(253)"><path d="M0,0 Q6,6 0,14 Q-6,6 0,0 Z" fill="#7aae48" opacity="0.57"/><line x1="0" y1="0" x2="0" y2="14" stroke="rgba(60,90,30,0.3)" stroke-width="0.5"/></g><g transform="translate(257,281) rotate(86)"><path d="M0,0 Q3,3 0,8 Q-3,3 0,0 Z" fill="#b8c44a" opacity="0.75"/><line x1="0" y1="0" x2="0" y2="8" stroke="rgba(60,90,30,0.3)" stroke-width="0.5"/></g><g transform="translate(257,282) rotate(183)"><path d="M0,0 Q3,3 0,8 Q-3,3 0,0 Z" fill="#c8b43a" opacity="0.88"/><line x1="0" y1="0" x2="0" y2="8" stroke="rgba(60,90,30,0.3)" stroke-width="0.5"/></g><g transform="translate(258,283) rotate(170)"><path d="M0,0 Q2,3 0,6 Q-2,3 0,0 Z" fill="#3a6e22" opacity="0.71"/><line x1="0" y1="0" x2="0" y2="6" stroke="rgba(60,90,30,0.3)" stroke-width="0.5"/></g><g transform="translate(254,282) rotate(329)"><path d="M0,0 Q3,3 0,8 Q-3,3 0,0 Z" fill="#9ac45c" opacity="0.78"/><line x1="0" y1="0" x2="0" y2="8" stroke="rgba(60,90,30,0.3)" stroke-width="0.5"/></g><g transform="translate(252,280) rotate(350)"><path d="M0,0 Q3,4 0,10 Q-3,4 0,0 Z" fill="#9ac45c" opacity="0.74"/><line x1="0" y1="0" x2="0" y2="10" stroke="rgba(60,90,30,0.3)" stroke-width="0.5"/></g><g transform="translate(270,288) rotate(334)"><path d="M0,0 Q5,5 0,12 Q-5,5 0,0 Z" fill="#5a8e34" opacity="0.83"/><line x1="0" y1="0" x2="0" y2="12" stroke="rgba(60,90,30,0.3)" stroke-width="0.5"/></g><g transform="translate(255,281) rotate(125)"><path d="M0,0 Q5,6 0,14 Q-5,6 0,0 Z" fill="#3a6e22" opacity="0.71"/><line x1="0" y1="0" x2="0" y2="14" stroke="rgba(60,90,30,0.3)" stroke-width="0.5"/></g><g transform="translate(255,277) rotate(245)"><path d="M0,0 Q2,3 0,8 Q-2,3 0,0 Z" fill="#3a6e22" opacity="0.88"/><line x1="0" y1="0" x2="0" y2="8" stroke="rgba(60,90,30,0.3)" stroke-width="0.5"/></g><g transform="translate(269,284) rotate(63)"><path d="M0,0 Q6,6 0,15 Q-6,6 0,0 Z" fill="#8aba52" opacity="0.62"/><line x1="0" y1="0" x2="0" y2="15" stroke="rgba(60,90,30,0.3)" stroke-width="0.5"/></g><g transform="translate(270,282) rotate(247)"><path d="M0,0 Q6,6 0,16 Q-6,6 0,0 Z" fill="#7aae48" opacity="0.57"/><line x1="0" y1="0" x2="0" y2="16" stroke="rgba(60,90,30,0.3)" stroke-width="0.5"/></g><g transform="translate(253,280) rotate(346)"><path d="M0,0 Q3,3 0,9 Q-3,3 0,0 Z" fill="#c8b43a" opacity="0.76"/><line x1="0" y1="0" x2="0" y2="9" stroke="rgba(60,90,30,0.3)" stroke-width="0.5"/></g></svg>