<svg xmlns="http://www.w3.org/2000/svg" viewBox="0 0 530 540"><path d="M257 289 Q258.6 261 262 205 L268 205 Q271.4 261 273 289 Z" fill="#5a4228" opacity="0.9"/><ellipse cx="265" cy="175" rx="66" ry="47" fill="#8aba52" opacity="0.82"/><ellipse cx="252" cy="181" rx="94" ry="76" fill="#3a6e22" opacity="0.56"/><ellipse cx="230" cy="191" rx="95" ry="66" fill="#b8c44a" opacity="0.84"/><ellipse cx="223" cy="173" rx="55" ry="46" fill="#9ac45c" opacity="0.69"/><ellipse cx="265" cy="185.8" rx="42" ry="16" fill="#4a7e2a" opacity="0.4"/><g class="mini-roots"><line x1="265" y1="287" x2="261.5824647511274" y2="353.1437419892027" stroke="#7a6030" stroke-width="11.2" stroke-linecap="round" opacity="0.85"/><path d="M265 287 Q289 309 338 333" fill="none" stroke="#7a6030" stroke-width="6.0" stroke-linecap="round" opacity="0.75"/><path d="M265 287 Q282 308 311 332" fill="none" stroke="#7a6030" stroke-width="5.9" stroke-linecap="round" opacity="0.75"/><path d="M265 287 Q283 332 297 380" fill="none" stroke="#7a6030" stroke-width="6.8" stroke-linecap="round" opacity="0.75"/><path d="M265 287 Q264 316 277 348" fill="none" stroke="#7a6030" stroke-width="5.5" stroke-linecap="round" opacity="0.75"/><path d="M265 287 Q267 336 259 387" fill="none" stroke="#7a6030" stroke-width="7.5" stroke-linecap="round" opacity="0.75"/><path d="M265 287 Q250 326 230 367" fill="none" stroke="#7a6030" stroke-width="8.6" stroke-linecap="round" opacity="0.75"/><path d="M265 287 Q243 315 209 344" fill="none" stroke="#7a6030" stroke-width="7.8" stroke-linecap="round" opacity="0.75"/><path d="M265 287 Q239 313 177 342" fill="none" stroke="#7a6030" stroke-width="3.9" stroke-linecap="round" opacity="0.75"/></g></svg>