<svg xmlns="http://www.w3.org/2000/svg" viewBox="0 0 530 540"><path d="M253 289 Q255.4 246 261 155 L269 155 Q274.6 246 277 289 Z" fill="#5a4228" opacity="0.9"/><ellipse cx="286" cy="118" rx="54" ry="42" fill="#d4aa30" opacity="0.80"/><ellipse cx="230" cy="138" rx="81" ry="62" fill="#b8c44a" opacity="0.69"/><ellipse cx="260" cy="102" rx="74" ry="45" fill="#8aba52" opacity="0.75"/><ellipse cx="280" cy="106" rx="97" ry="63" fill="#d4aa30" opacity="0.56"/><ellipse cx="265" cy="122.6" rx="42" ry="27" fill="#6a9e3e" opacity="0.4"/><g class="mini-roots"><line x1="265" y1="287" x2="266.3996050643733" y2="355.98696129349383" stroke="#7a6030" stroke-width="11.2" stroke-linecap="round" opacity="0.85"/><path d="M265 287 Q296 313 353 342" fill="none" stroke="#7a6030" stroke-width="3.9" stroke-linecap="round" opacity="0.75"/><path d="M265 287 Q291 314 316 342" fill="none" stroke="#7a6030" stroke-width="7.6" stroke-linecap="round" opacity="0.75"/><path d="M265 287 Q278 320 287 354" fill="none" stroke="#7a6030" stroke-width="5.4" stroke-linecap="round" opacity="0.75"/><path d="M265 287 Q269 320 275 355" fill="none" stroke="#7a6030" stroke-width="4.3" stroke-linecap="round" opacity="0.75"/><path d="M265 287 Q268 301 257 316" fill="none" stroke="#7a6030" stroke-width="9.3" stroke-linecap="round" opacity="0.75"/><path d="M265 287 Q243 328 226 372" fill="none" stroke="#7a6030" stroke-width="3.4" stroke-linecap="round" opacity="0.75"/><path d="M265 287 Q243 321 201 358" fill="none" stroke="#7a6030" stroke-width="6.7" stroke-linecap="round" opacity="0.75"/><path d="M265 287 Q235 310 187 335" fill="none" stroke="#7a6030" stroke-width="6.9" stroke-linecap="round" opacity="0.75"/></g></svg>