<svg xmlns="http://www.w3.org/2000/svg" viewBox="0 0 530 540"><path d="M255 289 Q257 253.5 261.5 180 L268.5 180 Q273 253.5 275 289 Z" fill="#5a4228" opacity="0.9"/><ellipse cx="295" cy="140" rx="55" ry="45" fill="#d4aa30" opacity="0.72"/><ellipse cx="259" cy="146" rx="64" ry="60" fill="#4a7e2a" opacity="0.70"/><ellipse cx="246" cy="175" rx="76" ry="71" fill="#8aba52" opacity="0.79"/><ellipse cx="265" cy="154.2" rx="35" ry="22" fill="#3a6e22" opacity="0.4"/><g class="mini-roots"><line x1="265" y1="287" x2="266.5948111627227" y2="351.72106977827895" stroke="#7a6030" stroke-width="11.2" stroke-linecap="round" opacity="0.85"/><path d="M265 287 Q299 316 353 346" fill="none" stroke="#7a6030" stroke-width="6.5" stroke-linecap="round" opacity="0.75"/><path d="M265 287 Q287 315 320 345" fill="none" stroke="#7a6030" stroke-width="4.2" stroke-linecap="round" opacity="0.75"/><path d="M265 287 Q275 331 300 377" fill="none" stroke="#7a6030" stroke-width="6.8" stroke-linecap="round" opacity="0.75"/><path d="M265 287 Q271 316 282 348" fill="none" stroke="#7a6030" stroke-width="3.1" stroke-linecap="round" opacity="0.75"/><path d="M265 287 Q269 317 259 350" fill="none" stroke="#7a6030" stroke-width="7.9" stroke-linecap="round" opacity="0.75"/><path d="M265 287 Q261 309 247 333" fill="none" stroke="#7a6030" stroke-width="7.2" stroke-linecap="round" opacity="0.75"/><path d="M265 287 Q257 306 229 326" fill="none" stroke="#7a6030" stroke-width="9.1" stroke-linecap="round" opacity="0.75"/><path d="M265 287 Q246 295 232 305" fill="none" stroke="#7a6030" stroke-width="7.2" stroke-linecap="round" opacity="0.75"/></g></svg>