<svg xmlns="http://www.w3.org/2000/svg" viewBox="0 0 530 540"><path d="M259 289 Q260.2 268.5 262.5 230 L267.5 230 Q269.8 268.5 271 289 Z" fill="#5a4228" opacity="0.9"/><ellipse cx="268" cy="222" rx="18" ry="12" fill="#5a8e34" opacity="0.76"/><ellipse cx="267" cy="216" rx="24" ry="19" fill="#b8c44a" opacity="0.67"/><ellipse cx="262" cy="227" rx="22" ry="21" fill="#d4aa30" opacity="0.72"/><ellipse cx="278" cy="209" rx="28" ry="22" fill="#8aba52" opacity="0.83"/><ellipse cx="260" cy="215" rx="18" ry="14" fill="#c8b43a" opacity="0.62"/><ellipse cx="265" cy="217.4" rx="13" ry="11" fill="#6a9e3e" opacity="0.4"/><g class="mini-roots"><line x1="265" y1="287" x2="264.1954700961688" y2="373.00193147696643" stroke="#7a6030" stroke-width="11.2" stroke-linecap="round" opacity="0.85"/><path d="M265 287 Q285 300 299 315" fill="none" stroke="#7a6030" stroke-width="5.5" stroke-linecap="round" opacity="0.75"/><path d="M265 287 Q277 299 297 313" fill="none" stroke="#7a6030" stroke-width="5.1" stroke-linecap="round" opacity="0.75"/><path d="M265 287 Q279 324 299 363" fill="none" stroke="#7a6030" stroke-width="5.5" stroke-linecap="round" opacity="0.75"/><path d="M265 287 Q274 333 271 381" fill="none" stroke="#7a6030" stroke-width="6.8" stroke-linecap="round" opacity="0.75"/><path d="M265 287 Q264 301 263 317" fill="none" stroke="#7a6030" stroke-width="7.7" stroke-linecap="round" opacity="0.75"/><path d="M265 287 Q248 325 236 365" fill="none" stroke="#7a6030" stroke-width="3.3" stroke-linecap="round" opacity="0.75"/><path d="M265 287 Q251 304 235 323" fill="none" stroke="#7a6030" stroke-width="8.0" stroke-linecap="round" opacity="0.75"/><path d="M265 287 Q241 309 204 332" fill="none" stroke="#7a6030" stroke-width="6.3" stroke-linecap="round" opacity="0.75"/></g></svg>