<svg xmlns="http://www.w3.org/2000/svg" viewBox="0 0 530 540"><path d="M257 289 Q258.6 261 262 205 L268 205 Q271.4 261 273 289 Z" fill="#5a4228" opacity="0.9"/><ellipse cx="287" cy="198" rx="49" ry="33" fill="#b8c44a" opacity="0.77"/><ellipse cx="244" cy="193" rx="57" ry="42" fill="#b8c44a" opacity="0.78"/><ellipse cx="263" cy="188" rx="49" ry="33" fill="#c8b43a" opacity="0.70"/><ellipse cx="265" cy="185.8" rx="35" ry="16" fill="#7aae48" opacity="0.4"/><g class="mini-roots"><line x1="265" y1="287" x2="263.0316000217719" y2="378.00643322663683" stroke="#7a6030" stroke-width="11.2" stroke-linecap="round" opacity="0.85"/><path d="M265 287 Q280 297 297 309" fill="none" stroke="#7a6030" stroke-width="4.7" stroke-linecap="round" opacity="0.75"/><path d="M265 287 Q288 322 316 360" fill="none" stroke="#7a6030" stroke-width="8.3" stroke-linecap="round" opacity="0.75"/><path d="M265 287 Q269 317 298 348" fill="none" stroke="#7a6030" stroke-width="7.4" stroke-linecap="round" opacity="0.75"/><path d="M265 287 Q273 322 277 359" fill="none" stroke="#7a6030" stroke-width="7.7" stroke-linecap="round" opacity="0.75"/><path d="M265 287 Q263 332 256 378" fill="none" stroke="#7a6030" stroke-width="7.1" stroke-linecap="round" opacity="0.75"/><path d="M265 287 Q257 306 250 326" fill="none" stroke="#7a6030" stroke-width="4.9" stroke-linecap="round" opacity="0.75"/><path d="M265 287 Q243 317 204 350" fill="none" stroke="#7a6030" stroke-width="6.4" stroke-linecap="round" opacity="0.75"/><path d="M265 287 Q258 296 224 308" fill="none" stroke="#7a6030" stroke-width="5.8" stroke-linecap="round" opacity="0.75"/></g></svg>