<svg xmlns="http://www.w3.org/2000/svg" viewBox="0 0 530 540"><path d="M251 289 Q253.8 238.5 260.5 130 L269.5 130 Q276.2 238.5 279 289 Z" fill="#5a4228" opacity="0.9"/><ellipse cx="236" cy="107" rx="59" ry="54" fill="#d4aa30" opacity="0.79"/><ellipse cx="266" cy="119" rx="46" ry="28" fill="#3a6e22" opacity="0.74"/><ellipse cx="253" cy="81" rx="47" ry="33" fill="#4a7e2a" opacity="0.65"/><ellipse cx="265" cy="91" rx="35" ry="33" fill="#4a7e2a" opacity="0.4"/><g class="mini-roots"><line x1="265" y1="287" x2="267.2671299531437" y2="359.3007819246039" stroke="#7a6030" stroke-width="11.2" stroke-linecap="round" opacity="0.85"/><path d="M265 287 Q288 304 317 323" fill="none" stroke="#7a6030" stroke-width="8.0" stroke-linecap="round" opacity="0.75"/><path d="M265 287 Q269 300 287 316" fill="none" stroke="#7a6030" stroke-width="5.5" stroke-linecap="round" opacity="0.75"/><path d="M265 287 Q275 300 274 316" fill="none" stroke="#7a6030" stroke-width="4.0" stroke-linecap="round" opacity="0.75"/><path d="M265 287 Q273 313 278 341" fill="none" stroke="#7a6030" stroke-width="3.3" stroke-linecap="round" opacity="0.75"/><path d="M265 287 Q261 312 265 338" fill="none" stroke="#7a6030" stroke-width="7.9" stroke-linecap="round" opacity="0.75"/><path d="M265 287 Q253 331 229 378" fill="none" stroke="#7a6030" stroke-width="4.1" stroke-linecap="round" opacity="0.75"/><path d="M265 287 Q237 319 211 354" fill="none" stroke="#7a6030" stroke-width="3.3" stroke-linecap="round" opacity="0.75"/><path d="M265 287 Q237 307 210 329" fill="none" stroke="#7a6030" stroke-width="9.0" stroke-linecap="round" opacity="0.75"/></g></svg>