<svg xmlns="http://www.w3.org/2000/svg" viewBox="0 0 530 540"><path d="M259 289 Q260.2 268.5 262.5 230 L267.5 230 Q269.8 268.5 271 289 Z" fill="#5a4228" opacity="0.9"/><ellipse cx="292" cy="220" rx="46" ry="33" fill="#b8c44a" opacity="0.69"/><ellipse cx="266" cy="212" rx="43" ry="39" fill="#4a7e2a" opacity="0.79"/><ellipse cx="252" cy="216" rx="50" ry="30" fill="#c8b43a" opacity="0.74"/><ellipse cx="255" cy="226" rx="38" ry="23" fill="#c8b43a" opacity="0.59"/><ellipse cx="269" cy="212" rx="45" ry="28" fill="#3a6e22" opacity="0.69"/><ellipse cx="265" cy="217.4" rx="28" ry="11" fill="#6a9e3e" opacity="0.4"/><g class="mini-roots"><line x1="265" y1="287" x2="264.55150367857493" y2="362.0067383152464" stroke="#7a6030" stroke-width="11.2" stroke-linecap="round" opacity="0.85"/><path d="M265 287 Q275 300 314 315" fill="none" stroke="#7a6030" stroke-width="7.9" stroke-linecap="round" opacity="0.75"/><path d="M265 287 Q276 303 299 321" fill="none" stroke="#7a6030" stroke-width="8.1" stroke-linecap="round" opacity="0.75"/><path d="M265 287 Q278 332 301 379" fill="none" stroke="#7a6030" stroke-width="5.7" stroke-linecap="round" opacity="0.75"/><path d="M265 287 Q265 326 277 367" fill="none" stroke="#7a6030" stroke-width="6.9" stroke-linecap="round" opacity="0.75"/><path d="M265 287 Q258 328 251 372" fill="none" stroke="#7a6030" stroke-width="3.3" stroke-linecap="round" opacity="0.75"/><path d="M265 287 Q250 325 226 365" fill="none" stroke="#7a6030" stroke-width="3.8" stroke-linecap="round" opacity="0.75"/><path d="M265 287 Q248 314 217 343" fill="none" stroke="#7a6030" stroke-width="5.6" stroke-linecap="round" opacity="0.75"/><path d="M265 287 Q247 307 210 329" fill="none" stroke="#7a6030" stroke-width="9.1" stroke-linecap="round" opacity="0.75"/></g></svg>