<svg xmlns="http://www.w3.org/2000/svg" viewBox="0 0 530 540"><path d="M251 289 Q253.8 238.5 260.5 130 L269.5 130 Q276.2 238.5 279 289 Z" fill="#5a4228" opacity="0.9"/><ellipse cx="264" cy="100" rx="41" ry="39" fill="#6a9e3e" opacity="0.73"/><ellipse cx="262" cy="108" rx="47" ry="34" fill="#7aae48" opacity="0.56"/><ellipse cx="253" cy="112" rx="31" ry="23" fill="#3a6e22" opacity="0.68"/><ellipse cx="269" cy="71" rx="31" ry="30" fill="#3a6e22" opacity="0.75"/><ellipse cx="282" cy="121" rx="42" ry="39" fill="#6a9e3e" opacity="0.63"/><ellipse cx="265" cy="91" rx="20" ry="33" fill="#3a6e22" opacity="0.4"/><g class="mini-roots"><line x1="265" y1="287" x2="268.1071928400114" y2="376.4501170971664" stroke="#7a6030" stroke-width="11.2" stroke-linecap="round" opacity="0.85"/><path d="M265 287 Q279 301 311 317" fill="none" stroke="#7a6030" stroke-width="5.6" stroke-linecap="round" opacity="0.75"/><path d="M265 287 Q277 310 308 334" fill="none" stroke="#7a6030" stroke-width="4.4" stroke-linecap="round" opacity="0.75"/><path d="M265 287 Q272 306 281 326" fill="none" stroke="#7a6030" stroke-width="4.3" stroke-linecap="round" opacity="0.75"/><path d="M265 287 Q270 321 283 358" fill="none" stroke="#7a6030" stroke-width="3.4" stroke-linecap="round" opacity="0.75"/><path d="M265 287 Q255 313 258 342" fill="none" stroke="#7a6030" stroke-width="4.6" stroke-linecap="round" opacity="0.75"/><path d="M265 287 Q263 312 245 339" fill="none" stroke="#7a6030" stroke-width="5.4" stroke-linecap="round" opacity="0.75"/><path d="M265 287 Q238 319 208 354" fill="none" stroke="#7a6030" stroke-width="3.8" stroke-linecap="round" opacity="0.75"/><path d="M265 287 Q239 311 186 337" fill="none" stroke="#7a6030" stroke-width="9.1" stroke-linecap="round" opacity="0.75"/></g></svg>