<svg xmlns="http://www.w3.org/2000/svg" viewBox="0 0 530 540"><path d="M257 289 Q258.6 261 262 205 L268 205 Q271.4 261 273 289 Z" fill="#5a4228" opacity="0.9"/><ellipse cx="262" cy="201" rx="48" ry="31" fill="#5a8e34" opacity="0.83"/><ellipse cx="256" cy="199" rx="39" ry="25" fill="#6a9e3e" opacity="0.66"/><ellipse cx="268" cy="173" rx="51" ry="33" fill="#3a6e22" opacity="0.67"/><ellipse cx="265" cy="185.8" rx="20" ry="16" fill="#5a8e34" opacity="0.4"/><g class="mini-roots"><line x1="265" y1="287" x2="267.72083079382816" y2="352.7182014184623" stroke="#7a6030" stroke-width="11.2" stroke-linecap="round" opacity="0.85"/><path d="M265 287 Q288 308 323 330" fill="none" stroke="#7a6030" stroke-width="9.6" stroke-linecap="round" opacity="0.75"/><path d="M265 287 Q269 298 288 311" fill="none" stroke="#7a6030" stroke-width="6.7" stroke-linecap="round" opacity="0.75"/><path d="M265 287 Q281 309 278 333" fill="none" stroke="#7a6030" stroke-width="7.3" stroke-linecap="round" opacity="0.75"/><path d="M265 287 Q267 323 281 360" fill="none" stroke="#7a6030" stroke-width="5.4" stroke-linecap="round" opacity="0.75"/><path d="M265 287 Q266 327 261 369" fill="none" stroke="#7a6030" stroke-width="4.1" stroke-linecap="round" opacity="0.75"/><path d="M265 287 Q253 331 234 378" fill="none" stroke="#7a6030" stroke-width="4.6" stroke-linecap="round" opacity="0.75"/><path d="M265 287 Q247 323 208 361" fill="none" stroke="#7a6030" stroke-width="6.2" stroke-linecap="round" opacity="0.75"/><path d="M265 287 Q241 301 215 318" fill="none" stroke="#7a6030" stroke-width="3.6" stroke-linecap="round" opacity="0.75"/></g></svg>