<svg xmlns="http://www.w3.org/2000/svg" viewBox="0 0 530 540"><path d="M253 289 Q255.4 246 261 155 L269 155 Q274.6 246 277 289 Z" fill="#5a4228" opacity="0.9"/><ellipse cx="234" cy="121" rx="61" ry="59" fill="#5a8e34" opacity="0.68"/><ellipse cx="274" cy="142" rx="71" ry="51" fill="#8aba52" opacity="0.63"/><ellipse cx="299" cy="116" rx="59" ry="46" fill="#4a7e2a" opacity="0.58"/><ellipse cx="265" cy="122.6" rx="35" ry="27" fill="#5a8e34" opacity="0.4"/><g class="mini-roots"><line x1="265" y1="287" x2="262.1580223036735" y2="356.6357063299211" stroke="#7a6030" stroke-width="11.2" stroke-linecap="round" opacity="0.85"/><path d="M265 287 Q295 313 350 340" fill="none" stroke="#7a6030" stroke-width="8.4" stroke-linecap="round" opacity="0.75"/><path d="M265 287 Q272 307 303 329" fill="none" stroke="#7a6030" stroke-width="6.6" stroke-linecap="round" opacity="0.75"/><path d="M265 287 Q269 312 293 338" fill="none" stroke="#7a6030" stroke-width="6.1" stroke-linecap="round" opacity="0.75"/><path d="M265 287 Q270 311 266 337" fill="none" stroke="#7a6030" stroke-width="5.1" stroke-linecap="round" opacity="0.75"/><path d="M265 287 Q260 303 263 321" fill="none" stroke="#7a6030" stroke-width="8.7" stroke-linecap="round" opacity="0.75"/><path d="M265 287 Q249 312 244 340" fill="none" stroke="#7a6030" stroke-width="9.5" stroke-linecap="round" opacity="0.75"/><path d="M265 287 Q238 323 209 360" fill="none" stroke="#7a6030" stroke-width="5.1" stroke-linecap="round" opacity="0.75"/><path d="M265 287 Q226 315 181 346" fill="none" stroke="#7a6030" stroke-width="8.5" stroke-linecap="round" opacity="0.75"/></g></svg>