<svg xmlns="http://www.w3.org/2000/svg" viewBox="0 0 530 540"><path d="M253 289 Q255.4 246 261 155 L269 155 Q274.6 246 277 289 Z" fill="#5a4228" opacity="0.9"/><ellipse cx="269" cy="146" rx="45" ry="31" fill="#9ac45c" opacity="0.68"/><ellipse cx="271" cy="113" rx="26" ry="23" fill="#c8b43a" opacity="0.79"/><ellipse cx="284" cy="108" rx="47" ry="47" fill="#9ac45c" opacity="0.77"/><ellipse cx="283" cy="114" rx="42" ry="39" fill="#5a8e34" opacity="0.83"/><ellipse cx="279" cy="133" rx="26" ry="22" fill="#9ac45c" opacity="0.76"/><ellipse cx="265" cy="122.6" rx="20" ry="27" fill="#3a6e22" opacity="0.4"/><g class="mini-roots"><line x1="265" y1="287" x2="268.6768809629962" y2="360.45577080000925" stroke="#7a6030" stroke-width="11.2" stroke-linecap="round" opacity="0.85"/><path d="M265 287 Q275 298 308 310" fill="none" stroke="#7a6030" stroke-width="7.6" stroke-linecap="round" opacity="0.75"/><path d="M265 287 Q274 298 289 312" fill="none" stroke="#7a6030" stroke-width="5.1" stroke-linecap="round" opacity="0.75"/><path d="M265 287 Q278 309 284 333" fill="none" stroke="#7a6030" stroke-width="6.7" stroke-linecap="round" opacity="0.75"/><path d="M265 287 Q260 307 265 329" fill="none" stroke="#7a6030" stroke-width="6.1" stroke-linecap="round" opacity="0.75"/><path d="M265 287 Q257 312 263 338" fill="none" stroke="#7a6030" stroke-width="6.0" stroke-linecap="round" opacity="0.75"/><path d="M265 287 Q252 317 247 349" fill="none" stroke="#7a6030" stroke-width="8.5" stroke-linecap="round" opacity="0.75"/><path d="M265 287 Q244 320 209 355" fill="none" stroke="#7a6030" stroke-width="4.5" stroke-linecap="round" opacity="0.75"/><path d="M265 287 Q245 309 205 333" fill="none" stroke="#7a6030" stroke-width="7.5" stroke-linecap="round" opacity="0.75"/></g></svg>