<svg xmlns="http://www.w3.org/2000/svg" viewBox="0 0 530 540"><path d="M259 289 Q260.2 268.5 262.5 230 L267.5 230 Q269.8 268.5 271 289 Z" fill="#5a4228" opacity="0.9"/><ellipse cx="257" cy="221" rx="44" ry="39" fill="#3a6e22" opacity="0.57"/><ellipse cx="247" cy="214" rx="35" ry="29" fill="#d4aa30" opacity="0.73"/><ellipse cx="278" cy="222" rx="35" ry="28" fill="#7aae48" opacity="0.58"/><ellipse cx="265" cy="217.4" rx="20" ry="11" fill="#3a6e22" opacity="0.4"/><g class="mini-roots"><line x1="265" y1="287" x2="264.1576196528774" y2="347.8035648668201" stroke="#7a6030" stroke-width="11.2" stroke-linecap="round" opacity="0.85"/><path d="M265 287 Q292 311 326 336" fill="none" stroke="#7a6030" stroke-width="7.7" stroke-linecap="round" opacity="0.75"/><path d="M265 287 Q284 306 304 326" fill="none" stroke="#7a6030" stroke-width="4.2" stroke-linecap="round" opacity="0.75"/><path d="M265 287 Q286 328 305 371" fill="none" stroke="#7a6030" stroke-width="7.9" stroke-linecap="round" opacity="0.75"/><path d="M265 287 Q268 328 277 372" fill="none" stroke="#7a6030" stroke-width="3.4" stroke-linecap="round" opacity="0.75"/><path d="M265 287 Q264 305 267 326" fill="none" stroke="#7a6030" stroke-width="3.3" stroke-linecap="round" opacity="0.75"/><path d="M265 287 Q249 328 236 371" fill="none" stroke="#7a6030" stroke-width="8.9" stroke-linecap="round" opacity="0.75"/><path d="M265 287 Q252 306 228 327" fill="none" stroke="#7a6030" stroke-width="3.5" stroke-linecap="round" opacity="0.75"/><path d="M265 287 Q252 303 207 320" fill="none" stroke="#7a6030" stroke-width="8.8" stroke-linecap="round" opacity="0.75"/></g></svg>