<svg xmlns="http://www.w3.org/2000/svg" viewBox="0 0 530 540"><path d="M257 289 Q258.6 261 262 205 L268 205 Q271.4 261 273 289 Z" fill="#5a4228" opacity="0.9"/><ellipse cx="244" cy="200" rx="51" ry="44" fill="#d4aa30" opacity="0.65"/><ellipse cx="278" cy="196" rx="49" ry="34" fill="#8aba52" opacity="0.72"/><ellipse cx="239" cy="197" rx="36" ry="31" fill="#7aae48" opacity="0.84"/><ellipse cx="274" cy="172" rx="53" ry="51" fill="#4a7e2a" opacity="0.66"/><ellipse cx="265" cy="200" rx="58" ry="54" fill="#6a9e3e" opacity="0.82"/><ellipse cx="265" cy="185.8" rx="28" ry="16" fill="#6a9e3e" opacity="0.4"/><g class="mini-roots"><line x1="265" y1="287" x2="265.12119180155975" y2="377.21239201808925" stroke="#7a6030" stroke-width="11.2" stroke-linecap="round" opacity="0.85"/><path d="M265 287 Q271 296 291 308" fill="none" stroke="#7a6030" stroke-width="3.3" stroke-linecap="round" opacity="0.75"/><path d="M265 287 Q292 320 326 355" fill="none" stroke="#7a6030" stroke-width="8.9" stroke-linecap="round" opacity="0.75"/><path d="M265 287 Q272 302 275 318" fill="none" stroke="#7a6030" stroke-width="8.0" stroke-linecap="round" opacity="0.75"/><path d="M265 287 Q271 311 279 338" fill="none" stroke="#7a6030" stroke-width="3.0" stroke-linecap="round" opacity="0.75"/><path d="M265 287 Q260 326 256 368" fill="none" stroke="#7a6030" stroke-width="4.7" stroke-linecap="round" opacity="0.75"/><path d="M265 287 Q254 330 229 374" fill="none" stroke="#7a6030" stroke-width="6.9" stroke-linecap="round" opacity="0.75"/><path d="M265 287 Q240 315 218 345" fill="none" stroke="#7a6030" stroke-width="6.3" stroke-linecap="round" opacity="0.75"/><path d="M265 287 Q238 305 209 325" fill="none" stroke="#7a6030" stroke-width="7.5" stroke-linecap="round" opacity="0.75"/></g></svg>