<svg xmlns="http://www.w3.org/2000/svg" viewBox="0 0 530 540"><path d="M253 289 Q255.4 246 261 155 L269 155 Q274.6 246 277 289 Z" fill="#5a4228" opacity="0.9"/><ellipse cx="260" cy="143" rx="23" ry="21" fill="#6a9e3e" opacity="0.80"/><ellipse cx="255" cy="109" rx="32" ry="30" fill="#3a6e22" opacity="0.85"/><ellipse cx="263" cy="148" rx="31" ry="26" fill="#3a6e22" opacity="0.64"/><ellipse cx="265" cy="122.6" rx="13" ry="27" fill="#3a6e22" opacity="0.4"/><g class="mini-roots"><line x1="265" y1="287" x2="263.7964949360101" y2="355.34776618850776" stroke="#7a6030" stroke-width="11.2" stroke-linecap="round" opacity="0.85"/><path d="M265 287 Q284 296 285 307" fill="none" stroke="#7a6030" stroke-width="5.8" stroke-linecap="round" opacity="0.75"/><path d="M265 287 Q287 315 321 345" fill="none" stroke="#7a6030" stroke-width="3.8" stroke-linecap="round" opacity="0.75"/><path d="M265 287 Q273 310 281 334" fill="none" stroke="#7a6030" stroke-width="3.5" stroke-linecap="round" opacity="0.75"/><path d="M265 287 Q275 324 271 363" fill="none" stroke="#7a6030" stroke-width="5.5" stroke-linecap="round" opacity="0.75"/><path d="M265 287 Q262 304 261 323" fill="none" stroke="#7a6030" stroke-width="3.4" stroke-linecap="round" opacity="0.75"/><path d="M265 287 Q258 313 247 341" fill="none" stroke="#7a6030" stroke-width="3.5" stroke-linecap="round" opacity="0.75"/><path d="M265 287 Q251 314 217 342" fill="none" stroke="#7a6030" stroke-width="9.5" stroke-linecap="round" opacity="0.75"/><path d="M265 287 Q240 309 192 333" fill="none" stroke="#7a6030" stroke-width="7.1" stroke-linecap="round" opacity="0.75"/></g></svg>