<svg xmlns="http://www.w3.org/2000/svg" viewBox="0 0 530 540"><path d="M251 289 Q253.8 238.5 260.5 130 L269.5 130 Q276.2 238.5 279 289 Z" fill="#5a4228" opacity="0.9"/><ellipse cx="296" cy="105" rx="62" ry="58" fill="#5a8e34" opacity="0.76"/><ellipse cx="249" cy="81" rx="89" ry="85" fill="#5a8e34" opacity="0.62"/><ellipse cx="239" cy="92" rx="54" ry="46" fill="#5a8e34" opacity="0.84"/><ellipse cx="225" cy="82" rx="68" ry="67" fill="#5a8e34" opacity="0.64"/><ellipse cx="265" cy="91" rx="42" ry="33" fill="#5a8e34" opacity="0.4"/><g class="mini-roots"><line x1="265" y1="287" x2="261.3906399721236" y2="347.5523129348421" stroke="#7a6030" stroke-width="11.2" stroke-linecap="round" opacity="0.85"/><path d="M265 287 Q290 309 329 333" fill="none" stroke="#7a6030" stroke-width="5.8" stroke-linecap="round" opacity="0.75"/><path d="M265 287 Q271 299 290 313" fill="none" stroke="#7a6030" stroke-width="8.1" stroke-linecap="round" opacity="0.75"/><path d="M265 287 Q283 329 308 374" fill="none" stroke="#7a6030" stroke-width="5.2" stroke-linecap="round" opacity="0.75"/><path d="M265 287 Q274 319 276 354" fill="none" stroke="#7a6030" stroke-width="6.2" stroke-linecap="round" opacity="0.75"/><path d="M265 287 Q259 301 269 316" fill="none" stroke="#7a6030" stroke-width="4.8" stroke-linecap="round" opacity="0.75"/><path d="M265 287 Q254 306 244 327" fill="none" stroke="#7a6030" stroke-width="6.3" stroke-linecap="round" opacity="0.75"/><path d="M265 287 Q249 300 239 314" fill="none" stroke="#7a6030" stroke-width="7.7" stroke-linecap="round" opacity="0.75"/><path d="M265 287 Q253 296 228 306" fill="none" stroke="#7a6030" stroke-width="9.3" stroke-linecap="round" opacity="0.75"/></g></svg>