<svg xmlns="http://www.w3.org/2000/svg" viewBox="0 0 530 540"><path d="M255 289 Q257 253.5 261.5 180 L268.5 180 Q273 253.5 275 289 Z" fill="#5a4228" opacity="0.9"/><ellipse cx="274" cy="143" rx="49" ry="41" fill="#d4aa30" opacity="0.64"/><ellipse cx="280" cy="171" rx="30" ry="21" fill="#5a8e34" opacity="0.71"/><ellipse cx="275" cy="159" rx="37" ry="31" fill="#6a9e3e" opacity="0.57"/><ellipse cx="256" cy="155" rx="28" ry="24" fill="#8aba52" opacity="0.60"/><ellipse cx="276" cy="151" rx="35" ry="27" fill="#d4aa30" opacity="0.58"/><ellipse cx="265" cy="154.2" rx="20" ry="22" fill="#7aae48" opacity="0.4"/><g class="mini-roots"><line x1="265" y1="287" x2="261.24656908598104" y2="375.6614245028521" stroke="#7a6030" stroke-width="11.2" stroke-linecap="round" opacity="0.85"/><path d="M265 287 Q271 294 284 304" fill="none" stroke="#7a6030" stroke-width="9.6" stroke-linecap="round" opacity="0.75"/><path d="M265 287 Q289 315 317 346" fill="none" stroke="#7a6030" stroke-width="5.9" stroke-linecap="round" opacity="0.75"/><path d="M265 287 Q268 312 286 340" fill="none" stroke="#7a6030" stroke-width="9.0" stroke-linecap="round" opacity="0.75"/><path d="M265 287 Q269 328 278 371" fill="none" stroke="#7a6030" stroke-width="8.8" stroke-linecap="round" opacity="0.75"/><path d="M265 287 Q260 310 268 334" fill="none" stroke="#7a6030" stroke-width="7.4" stroke-linecap="round" opacity="0.75"/><path d="M265 287 Q256 322 230 358" fill="none" stroke="#7a6030" stroke-width="5.0" stroke-linecap="round" opacity="0.75"/><path d="M265 287 Q236 321 210 357" fill="none" stroke="#7a6030" stroke-width="5.2" stroke-linecap="round" opacity="0.75"/><path d="M265 287 Q236 307 204 329" fill="none" stroke="#7a6030" stroke-width="5.8" stroke-linecap="round" opacity="0.75"/></g></svg>