<svg xmlns="http://www.w3.org/2000/svg" viewBox="0 0 530 540"><path d="M259 289 Q260.2 268.5 262.5 230 L267.5 230 Q269.8 268.5 271 289 Z" fill="#5a4228" opacity="0.9"/><ellipse cx="252" cy="216" rx="45" ry="30" fill="#8aba52" opacity="0.59"/><ellipse cx="232" cy="224" rx="80" ry="52" fill="#9ac45c" opacity="0.85"/><ellipse cx="250" cy="224" rx="65" ry="50" fill="#b8c44a" opacity="0.79"/><ellipse cx="266" cy="211" rx="52" ry="46" fill="#3a6e22" opacity="0.79"/><ellipse cx="251" cy="225" rx="68" ry="61" fill="#c8b43a" opacity="0.82"/><ellipse cx="265" cy="217.4" rx="35" ry="11" fill="#4a7e2a" opacity="0.4"/><g class="mini-roots"><line x1="265" y1="287" x2="261.270479530222" y2="369.4908582656136" stroke="#7a6030" stroke-width="11.2" stroke-linecap="round" opacity="0.85"/><path d="M265 287 Q277 299 308 314" fill="none" stroke="#7a6030" stroke-width="6.8" stroke-linecap="round" opacity="0.75"/><path d="M265 287 Q287 318 315 351" fill="none" stroke="#7a6030" stroke-width="6.3" stroke-linecap="round" opacity="0.75"/><path d="M265 287 Q286 330 301 375" fill="none" stroke="#7a6030" stroke-width="3.5" stroke-linecap="round" opacity="0.75"/><path d="M265 287 Q263 332 274 380" fill="none" stroke="#7a6030" stroke-width="8.9" stroke-linecap="round" opacity="0.75"/><path d="M265 287 Q257 331 247 377" fill="none" stroke="#7a6030" stroke-width="8.2" stroke-linecap="round" opacity="0.75"/><path d="M265 287 Q258 307 245 330" fill="none" stroke="#7a6030" stroke-width="8.5" stroke-linecap="round" opacity="0.75"/><path d="M265 287 Q248 318 205 350" fill="none" stroke="#7a6030" stroke-width="8.3" stroke-linecap="round" opacity="0.75"/><path d="M265 287 Q244 304 217 322" fill="none" stroke="#7a6030" stroke-width="8.6" stroke-linecap="round" opacity="0.75"/></g></svg>