<svg xmlns="http://www.w3.org/2000/svg" viewBox="0 0 530 540"><path d="M255 289 Q257 253.5 261.5 180 L268.5 180 Q273 253.5 275 289 Z" fill="#5a4228" opacity="0.9"/><ellipse cx="254" cy="170" rx="58" ry="56" fill="#5a8e34" opacity="0.56"/><ellipse cx="234" cy="166" rx="85" ry="53" fill="#9ac45c" opacity="0.63"/><ellipse cx="250" cy="145" rx="63" ry="53" fill="#3a6e22" opacity="0.75"/><ellipse cx="278" cy="174" rx="84" ry="75" fill="#6a9e3e" opacity="0.61"/><ellipse cx="265" cy="154.2" rx="42" ry="22" fill="#4a7e2a" opacity="0.4"/><g class="mini-roots"><line x1="265" y1="287" x2="266.59142984337706" y2="361.5783903478544" stroke="#7a6030" stroke-width="11.2" stroke-linecap="round" opacity="0.85"/><path d="M265 287 Q295 313 342 342" fill="none" stroke="#7a6030" stroke-width="4.1" stroke-linecap="round" opacity="0.75"/><path d="M265 287 Q286 323 317 361" fill="none" stroke="#7a6030" stroke-width="5.4" stroke-linecap="round" opacity="0.75"/><path d="M265 287 Q278 322 296 360" fill="none" stroke="#7a6030" stroke-width="7.0" stroke-linecap="round" opacity="0.75"/><path d="M265 287 Q274 317 276 348" fill="none" stroke="#7a6030" stroke-width="3.6" stroke-linecap="round" opacity="0.75"/><path d="M265 287 Q260 336 247 387" fill="none" stroke="#7a6030" stroke-width="5.4" stroke-linecap="round" opacity="0.75"/><path d="M265 287 Q250 315 241 345" fill="none" stroke="#7a6030" stroke-width="5.6" stroke-linecap="round" opacity="0.75"/><path d="M265 287 Q256 308 237 331" fill="none" stroke="#7a6030" stroke-width="6.9" stroke-linecap="round" opacity="0.75"/><path d="M265 287 Q245 307 215 328" fill="none" stroke="#7a6030" stroke-width="8.1" stroke-linecap="round" opacity="0.75"/></g></svg>