<svg xmlns="http://www.w3.org/2000/svg" viewBox="0 0 530 540"><path d="M255 289 Q257 253.5 261.5 180 L268.5 180 Q273 253.5 275 289 Z" fill="#5a4228" opacity="0.9"/><ellipse cx="263" cy="140" rx="25" ry="17" fill="#9ac45c" opacity="0.76"/><ellipse cx="261" cy="167" rx="18" ry="13" fill="#7aae48" opacity="0.77"/><ellipse cx="257" cy="148" rx="25" ry="17" fill="#b8c44a" opacity="0.73"/><ellipse cx="265" cy="154.2" rx="13" ry="22" fill="#5a8e34" opacity="0.4"/><g class="mini-roots"><line x1="265" y1="287" x2="267.3597060769609" y2="360.2624027401499" stroke="#7a6030" stroke-width="11.2" stroke-linecap="round" opacity="0.85"/><path d="M265 287 Q304 314 341 344" fill="none" stroke="#7a6030" stroke-width="7.7" stroke-linecap="round" opacity="0.75"/><path d="M265 287 Q272 307 304 330" fill="none" stroke="#7a6030" stroke-width="6.3" stroke-linecap="round" opacity="0.75"/><path d="M265 287 Q279 324 303 363" fill="none" stroke="#7a6030" stroke-width="9.5" stroke-linecap="round" opacity="0.75"/><path d="M265 287 Q274 319 276 352" fill="none" stroke="#7a6030" stroke-width="7.4" stroke-linecap="round" opacity="0.75"/><path d="M265 287 Q264 326 255 367" fill="none" stroke="#7a6030" stroke-width="4.1" stroke-linecap="round" opacity="0.75"/><path d="M265 287 Q261 316 244 348" fill="none" stroke="#7a6030" stroke-width="5.8" stroke-linecap="round" opacity="0.75"/><path d="M265 287 Q250 302 243 319" fill="none" stroke="#7a6030" stroke-width="5.6" stroke-linecap="round" opacity="0.75"/><path d="M265 287 Q243 308 200 331" fill="none" stroke="#7a6030" stroke-width="8.5" stroke-linecap="round" opacity="0.75"/></g></svg>