<svg xmlns="http://www.w3.org/2000/svg" viewBox="0 0 530 540"><path d="M251 289 Q253.8 238.5 260.5 130 L269.5 130 Q276.2 238.5 279 289 Z" fill="#5a4228" opacity="0.9"/><ellipse cx="274" cy="86" rx="29" ry="24" fill="#c8b43a" opacity="0.56"/><ellipse cx="255" cy="80" rx="21" ry="17" fill="#6a9e3e" opacity="0.78"/><ellipse cx="261" cy="87" rx="28" ry="18" fill="#8aba52" opacity="0.56"/><ellipse cx="258" cy="117" rx="18" ry="16" fill="#c8b43a" opacity="0.62"/><ellipse cx="265" cy="91" rx="13" ry="33" fill="#7aae48" opacity="0.4"/><g class="mini-roots"><line x1="265" y1="287" x2="262.9881674395819" y2="350.70851156381354" stroke="#7a6030" stroke-width="11.2" stroke-linecap="round" opacity="0.85"/><path d="M265 287 Q301 313 335 341" fill="none" stroke="#7a6030" stroke-width="6.8" stroke-linecap="round" opacity="0.75"/><path d="M265 287 Q284 304 289 323" fill="none" stroke="#7a6030" stroke-width="6.9" stroke-linecap="round" opacity="0.75"/><path d="M265 287 Q264 300 278 314" fill="none" stroke="#7a6030" stroke-width="3.4" stroke-linecap="round" opacity="0.75"/><path d="M265 287 Q265 316 277 347" fill="none" stroke="#7a6030" stroke-width="8.5" stroke-linecap="round" opacity="0.75"/><path d="M265 287 Q261 309 249 332" fill="none" stroke="#7a6030" stroke-width="7.4" stroke-linecap="round" opacity="0.75"/><path d="M265 287 Q251 330 221 375" fill="none" stroke="#7a6030" stroke-width="7.5" stroke-linecap="round" opacity="0.75"/><path d="M265 287 Q257 300 244 314" fill="none" stroke="#7a6030" stroke-width="6.8" stroke-linecap="round" opacity="0.75"/><path d="M265 287 Q246 296 236 307" fill="none" stroke="#7a6030" stroke-width="9.4" stroke-linecap="round" opacity="0.75"/></g></svg>