<svg xmlns="http://www.w3.org/2000/svg" viewBox="0 0 530 540"><path d="M255 289 Q257 253.5 261.5 180 L268.5 180 Q273 253.5 275 289 Z" fill="#5a4228" opacity="0.9"/><ellipse cx="277" cy="162" rx="24" ry="20" fill="#8aba52" opacity="0.73"/><ellipse cx="252" cy="173" rx="23" ry="18" fill="#7aae48" opacity="0.67"/><ellipse cx="267" cy="164" rx="29" ry="28" fill="#8aba52" opacity="0.74"/><ellipse cx="266" cy="162" rx="33" ry="20" fill="#b8c44a" opacity="0.85"/><ellipse cx="264" cy="163" rx="27" ry="23" fill="#3a6e22" opacity="0.83"/><ellipse cx="265" cy="154.2" rx="13" ry="22" fill="#7aae48" opacity="0.4"/><g class="mini-roots"><line x1="265" y1="287" x2="262.12555352650844" y2="381.6971840001164" stroke="#7a6030" stroke-width="13.6" stroke-linecap="round" opacity="0.85"/><path d="M265 287 Q304 314 355 343" fill="none" stroke="#7a6030" stroke-width="7.5" stroke-linecap="round" opacity="0.75"/><path d="M265 287 Q280 303 299 322" fill="none" stroke="#7a6030" stroke-width="6.3" stroke-linecap="round" opacity="0.75"/><path d="M265 287 Q274 320 305 356" fill="none" stroke="#7a6030" stroke-width="4.9" stroke-linecap="round" opacity="0.75"/><path d="M265 287 Q271 331 302 377" fill="none" stroke="#7a6030" stroke-width="8.6" stroke-linecap="round" opacity="0.75"/><path d="M265 287 Q272 338 279 392" fill="none" stroke="#7a6030" stroke-width="4.8" stroke-linecap="round" opacity="0.75"/><path d="M265 287 Q265 316 250 346" fill="none" stroke="#7a6030" stroke-width="5.3" stroke-linecap="round" opacity="0.75"/><path d="M265 287 Q258 306 257 327" fill="none" stroke="#7a6030" stroke-width="9.0" stroke-linecap="round" opacity="0.75"/><path d="M265 287 Q243 337 207 388" fill="none" stroke="#7a6030" stroke-width="4.5" stroke-linecap="round" opacity="0.75"/><path d="M265 287 Q250 300 235 315" fill="none" stroke="#7a6030" stroke-width="8.8" stroke-linecap="round" opacity="0.75"/><path d="M265 287 Q237 310 193 335" fill="none" stroke="#7a6030" stroke-width="10.4" stroke-linecap="round" opacity="0.75"/></g></svg>