<svg xmlns="http://www.w3.org/2000/svg" viewBox="0 0 530 540"><path d="M253 289 Q255.4 246 261 155 L269 155 Q274.6 246 277 289 Z" fill="#5a4228" opacity="0.9"/><ellipse cx="261" cy="122" rx="36" ry="24" fill="#c8b43a" opacity="0.83"/><ellipse cx="285" cy="125" rx="49" ry="44" fill="#8aba52" opacity="0.63"/><ellipse cx="288" cy="141" rx="35" ry="24" fill="#3a6e22" opacity="0.62"/><ellipse cx="265" cy="122.6" rx="28" ry="27" fill="#7aae48" opacity="0.4"/><g class="mini-roots"><line x1="265" y1="287" x2="261.9551527728118" y2="392.7781595767374" stroke="#7a6030" stroke-width="13.6" stroke-linecap="round" opacity="0.85"/><path d="M265 287 Q294 314 347 344" fill="none" stroke="#7a6030" stroke-width="4.3" stroke-linecap="round" opacity="0.75"/><path d="M265 287 Q279 304 295 322" fill="none" stroke="#7a6030" stroke-width="3.3" stroke-linecap="round" opacity="0.75"/><path d="M265 287 Q271 313 293 340" fill="none" stroke="#7a6030" stroke-width="10.3" stroke-linecap="round" opacity="0.75"/><path d="M265 287 Q281 340 309 395" fill="none" stroke="#7a6030" stroke-width="10.2" stroke-linecap="round" opacity="0.75"/><path d="M265 287 Q268 322 278 359" fill="none" stroke="#7a6030" stroke-width="9.6" stroke-linecap="round" opacity="0.75"/><path d="M265 287 Q270 310 264 335" fill="none" stroke="#7a6030" stroke-width="9.6" stroke-linecap="round" opacity="0.75"/><path d="M265 287 Q253 314 239 342" fill="none" stroke="#7a6030" stroke-width="5.2" stroke-linecap="round" opacity="0.75"/><path d="M265 287 Q260 303 247 321" fill="none" stroke="#7a6030" stroke-width="8.4" stroke-linecap="round" opacity="0.75"/><path d="M265 287 Q248 303 228 321" fill="none" stroke="#7a6030" stroke-width="8.9" stroke-linecap="round" opacity="0.75"/><path d="M265 287 Q235 314 189 343" fill="none" stroke="#7a6030" stroke-width="3.3" stroke-linecap="round" opacity="0.75"/></g></svg>