<svg xmlns="http://www.w3.org/2000/svg" viewBox="0 0 530 540"><path d="M253 289 Q255.4 246 261 155 L269 155 Q274.6 246 277 289 Z" fill="#5a4228" opacity="0.9"/><ellipse cx="242" cy="145" rx="58" ry="58" fill="#3a6e22" opacity="0.83"/><ellipse cx="258" cy="130" rx="65" ry="47" fill="#c8b43a" opacity="0.79"/><ellipse cx="227" cy="136" rx="62" ry="43" fill="#b8c44a" opacity="0.74"/><ellipse cx="273" cy="145" rx="88" ry="54" fill="#d4aa30" opacity="0.64"/><ellipse cx="229" cy="146" rx="80" ry="79" fill="#3a6e22" opacity="0.79"/><ellipse cx="265" cy="122.6" rx="42" ry="27" fill="#6a9e3e" opacity="0.4"/><g class="mini-roots"><line x1="265" y1="287" x2="261.9156339806112" y2="398.4777016950202" stroke="#7a6030" stroke-width="13.6" stroke-linecap="round" opacity="0.85"/><path d="M265 287 Q293 314 338 343" fill="none" stroke="#7a6030" stroke-width="3.6" stroke-linecap="round" opacity="0.75"/><path d="M265 287 Q291 325 337 364" fill="none" stroke="#7a6030" stroke-width="5.6" stroke-linecap="round" opacity="0.75"/><path d="M265 287 Q289 324 307 364" fill="none" stroke="#7a6030" stroke-width="8.4" stroke-linecap="round" opacity="0.75"/><path d="M265 287 Q275 341 307 397" fill="none" stroke="#7a6030" stroke-width="7.0" stroke-linecap="round" opacity="0.75"/><path d="M265 287 Q270 318 274 350" fill="none" stroke="#7a6030" stroke-width="7.7" stroke-linecap="round" opacity="0.75"/><path d="M265 287 Q264 333 249 381" fill="none" stroke="#7a6030" stroke-width="8.1" stroke-linecap="round" opacity="0.75"/><path d="M265 287 Q256 327 228 370" fill="none" stroke="#7a6030" stroke-width="8.6" stroke-linecap="round" opacity="0.75"/><path d="M265 287 Q235 339 197 393" fill="none" stroke="#7a6030" stroke-width="3.6" stroke-linecap="round" opacity="0.75"/><path d="M265 287 Q238 315 207 345" fill="none" stroke="#7a6030" stroke-width="7.4" stroke-linecap="round" opacity="0.75"/><path d="M265 287 Q231 316 175 348" fill="none" stroke="#7a6030" stroke-width="5.2" stroke-linecap="round" opacity="0.75"/></g></svg>