<svg xmlns="http://www.w3.org/2000/svg" viewBox="0 0 530 540"><path d="M253 289 Q255.4 246 261 155 L269 155 Q274.6 246 277 289 Z" fill="#5a4228" opacity="0.9"/><ellipse cx="273" cy="116" rx="22" ry="15" fill="#5a8e34" opacity="0.77"/><ellipse cx="273" cy="116" rx="20" ry="12" fill="#d4aa30" opacity="0.75"/><ellipse cx="273" cy="113" rx="19" ry="14" fill="#c8b43a" opacity="0.64"/><ellipse cx="257" cy="124" rx="25" ry="17" fill="#7aae48" opacity="0.77"/><ellipse cx="266" cy="148" rx="21" ry="20" fill="#b8c44a" opacity="0.70"/><ellipse cx="265" cy="122.6" rx="13" ry="27" fill="#7aae48" opacity="0.4"/><g class="mini-roots"><line x1="265" y1="287" x2="261.5558654035236" y2="401.99770045420047" stroke="#7a6030" stroke-width="13.6" stroke-linecap="round" opacity="0.85"/><path d="M265 287 Q309 318 361 352" fill="none" stroke="#7a6030" stroke-width="5.2" stroke-linecap="round" opacity="0.75"/><path d="M265 287 Q285 317 324 349" fill="none" stroke="#7a6030" stroke-width="5.4" stroke-linecap="round" opacity="0.75"/><path d="M265 287 Q283 316 301 347" fill="none" stroke="#7a6030" stroke-width="9.9" stroke-linecap="round" opacity="0.75"/><path d="M265 287 Q272 305 278 325" fill="none" stroke="#7a6030" stroke-width="5.4" stroke-linecap="round" opacity="0.75"/><path d="M265 287 Q270 341 275 397" fill="none" stroke="#7a6030" stroke-width="3.2" stroke-linecap="round" opacity="0.75"/><path d="M265 287 Q260 309 265 333" fill="none" stroke="#7a6030" stroke-width="9.5" stroke-linecap="round" opacity="0.75"/><path d="M265 287 Q266 305 255 324" fill="none" stroke="#7a6030" stroke-width="8.2" stroke-linecap="round" opacity="0.75"/><path d="M265 287 Q237 341 209 396" fill="none" stroke="#7a6030" stroke-width="6.4" stroke-linecap="round" opacity="0.75"/><path d="M265 287 Q237 318 212 351" fill="none" stroke="#7a6030" stroke-width="4.1" stroke-linecap="round" opacity="0.75"/><path d="M265 287 Q232 311 196 336" fill="none" stroke="#7a6030" stroke-width="6.1" stroke-linecap="round" opacity="0.75"/></g></svg>