<svg xmlns="http://www.w3.org/2000/svg" viewBox="0 0 530 540"><path d="M257 289 Q258.6 261 262 205 L268 205 Q271.4 261 273 289 Z" fill="#5a4228" opacity="0.9"/><ellipse cx="253" cy="201" rx="26" ry="26" fill="#b8c44a" opacity="0.68"/><ellipse cx="258" cy="186" rx="25" ry="25" fill="#c8b43a" opacity="0.60"/><ellipse cx="261" cy="173" rx="23" ry="19" fill="#4a7e2a" opacity="0.83"/><ellipse cx="275" cy="197" rx="23" ry="22" fill="#d4aa30" opacity="0.62"/><ellipse cx="262" cy="183" rx="17" ry="13" fill="#6a9e3e" opacity="0.65"/><ellipse cx="265" cy="185.8" rx="13" ry="16" fill="#6a9e3e" opacity="0.4"/><g class="mini-roots"><line x1="265" y1="287" x2="262.6952416494932" y2="400.9966675460323" stroke="#7a6030" stroke-width="13.6" stroke-linecap="round" opacity="0.85"/><path d="M265 287 Q299 310 329 335" fill="none" stroke="#7a6030" stroke-width="9.9" stroke-linecap="round" opacity="0.75"/><path d="M265 287 Q299 324 336 363" fill="none" stroke="#7a6030" stroke-width="7.2" stroke-linecap="round" opacity="0.75"/><path d="M265 287 Q281 324 310 364" fill="none" stroke="#7a6030" stroke-width="7.6" stroke-linecap="round" opacity="0.75"/><path d="M265 287 Q273 313 276 341" fill="none" stroke="#7a6030" stroke-width="4.0" stroke-linecap="round" opacity="0.75"/><path d="M265 287 Q274 336 283 387" fill="none" stroke="#7a6030" stroke-width="6.5" stroke-linecap="round" opacity="0.75"/><path d="M265 287 Q255 322 255 360" fill="none" stroke="#7a6030" stroke-width="9.0" stroke-linecap="round" opacity="0.75"/><path d="M265 287 Q264 307 258 330" fill="none" stroke="#7a6030" stroke-width="9.8" stroke-linecap="round" opacity="0.75"/><path d="M265 287 Q248 333 204 381" fill="none" stroke="#7a6030" stroke-width="10.3" stroke-linecap="round" opacity="0.75"/><path d="M265 287 Q238 316 217 347" fill="none" stroke="#7a6030" stroke-width="5.7" stroke-linecap="round" opacity="0.75"/><path d="M265 287 Q241 310 189 334" fill="none" stroke="#7a6030" stroke-width="6.9" stroke-linecap="round" opacity="0.75"/></g></svg>