<svg xmlns="http://www.w3.org/2000/svg" viewBox="0 0 530 540"><path d="M255 289 Q257 253.5 261.5 180 L268.5 180 Q273 253.5 275 289 Z" fill="#5a4228" opacity="0.9"/><ellipse cx="277" cy="164" rx="59" ry="49" fill="#6a9e3e" opacity="0.64"/><ellipse cx="253" cy="143" rx="44" ry="36" fill="#3a6e22" opacity="0.74"/><ellipse cx="259" cy="170" rx="49" ry="39" fill="#6a9e3e" opacity="0.62"/><ellipse cx="265" cy="154.2" rx="28" ry="22" fill="#7aae48" opacity="0.4"/><g class="mini-roots"><line x1="265" y1="287" x2="267.46999948400537" y2="402.04892166939044" stroke="#7a6030" stroke-width="13.6" stroke-linecap="round" opacity="0.85"/><path d="M265 287 Q303 315 354 344" fill="none" stroke="#7a6030" stroke-width="6.2" stroke-linecap="round" opacity="0.75"/><path d="M265 287 Q285 311 317 338" fill="none" stroke="#7a6030" stroke-width="10.0" stroke-linecap="round" opacity="0.75"/><path d="M265 287 Q283 308 296 330" fill="none" stroke="#7a6030" stroke-width="8.4" stroke-linecap="round" opacity="0.75"/><path d="M265 287 Q286 339 292 394" fill="none" stroke="#7a6030" stroke-width="6.3" stroke-linecap="round" opacity="0.75"/><path d="M265 287 Q266 351 284 416" fill="none" stroke="#7a6030" stroke-width="8.9" stroke-linecap="round" opacity="0.75"/><path d="M265 287 Q268 315 260 345" fill="none" stroke="#7a6030" stroke-width="5.4" stroke-linecap="round" opacity="0.75"/><path d="M265 287 Q251 323 232 362" fill="none" stroke="#7a6030" stroke-width="3.6" stroke-linecap="round" opacity="0.75"/><path d="M265 287 Q250 325 221 365" fill="none" stroke="#7a6030" stroke-width="3.5" stroke-linecap="round" opacity="0.75"/><path d="M265 287 Q238 316 207 347" fill="none" stroke="#7a6030" stroke-width="3.9" stroke-linecap="round" opacity="0.75"/><path d="M265 287 Q254 300 233 316" fill="none" stroke="#7a6030" stroke-width="10.7" stroke-linecap="round" opacity="0.75"/></g></svg>