<svg xmlns="http://www.w3.org/2000/svg" viewBox="0 0 530 540"><path d="M251 289 Q253.8 238.5 260.5 130 L269.5 130 Q276.2 238.5 279 289 Z" fill="#5a4228" opacity="0.9"/><ellipse cx="285" cy="68" rx="39" ry="29" fill="#5a8e34" opacity="0.69"/><ellipse cx="249" cy="117" rx="29" ry="23" fill="#6a9e3e" opacity="0.76"/><ellipse cx="269" cy="71" rx="37" ry="25" fill="#c8b43a" opacity="0.69"/><ellipse cx="273" cy="89" rx="35" ry="22" fill="#3a6e22" opacity="0.67"/><ellipse cx="265" cy="91" rx="20" ry="33" fill="#5a8e34" opacity="0.4"/><g class="mini-roots"><line x1="265" y1="287" x2="267.25206064351465" y2="376.479796971511" stroke="#7a6030" stroke-width="13.6" stroke-linecap="round" opacity="0.85"/><path d="M265 287 Q295 318 356 352" fill="none" stroke="#7a6030" stroke-width="6.0" stroke-linecap="round" opacity="0.75"/><path d="M265 287 Q289 322 331 359" fill="none" stroke="#7a6030" stroke-width="6.7" stroke-linecap="round" opacity="0.75"/><path d="M265 287 Q272 302 292 319" fill="none" stroke="#7a6030" stroke-width="5.6" stroke-linecap="round" opacity="0.75"/><path d="M265 287 Q270 333 289 382" fill="none" stroke="#7a6030" stroke-width="3.9" stroke-linecap="round" opacity="0.75"/><path d="M265 287 Q265 309 261 334" fill="none" stroke="#7a6030" stroke-width="7.1" stroke-linecap="round" opacity="0.75"/><path d="M265 287 Q262 350 250 416" fill="none" stroke="#7a6030" stroke-width="6.6" stroke-linecap="round" opacity="0.75"/><path d="M265 287 Q248 338 240 391" fill="none" stroke="#7a6030" stroke-width="10.4" stroke-linecap="round" opacity="0.75"/><path d="M265 287 Q257 310 232 336" fill="none" stroke="#7a6030" stroke-width="10.0" stroke-linecap="round" opacity="0.75"/><path d="M265 287 Q252 302 226 319" fill="none" stroke="#7a6030" stroke-width="9.5" stroke-linecap="round" opacity="0.75"/><path d="M265 287 Q237 316 178 348" fill="none" stroke="#7a6030" stroke-width="6.5" stroke-linecap="round" opacity="0.75"/></g></svg>