<svg xmlns="http://www.w3.org/2000/svg" viewBox="0 0 530 540"><path d="M251 289 Q253.8 238.5 260.5 130 L269.5 130 Q276.2 238.5 279 289 Z" fill="#5a4228" opacity="0.9"/><ellipse cx="253" cy="72" rx="66" ry="49" fill="#6a9e3e" opacity="0.79"/><ellipse cx="276" cy="72" rx="74" ry="66" fill="#5a8e34" opacity="0.72"/><ellipse cx="290" cy="68" rx="94" ry="89" fill="#7aae48" opacity="0.83"/><ellipse cx="301" cy="64" rx="58" ry="56" fill="#5a8e34" opacity="0.71"/><ellipse cx="307" cy="101" rx="100" ry="90" fill="#6a9e3e" opacity="0.62"/><ellipse cx="265" cy="91" rx="42" ry="33" fill="#5a8e34" opacity="0.4"/><g class="mini-roots"><line x1="265" y1="287" x2="262.485322103596" y2="378.17718524093607" stroke="#7a6030" stroke-width="13.6" stroke-linecap="round" opacity="0.85"/><path d="M265 287 Q288 310 332 334" fill="none" stroke="#7a6030" stroke-width="6.0" stroke-linecap="round" opacity="0.75"/><path d="M265 287 Q285 311 312 337" fill="none" stroke="#7a6030" stroke-width="6.6" stroke-linecap="round" opacity="0.75"/><path d="M265 287 Q281 329 311 372" fill="none" stroke="#7a6030" stroke-width="3.3" stroke-linecap="round" opacity="0.75"/><path d="M265 287 Q277 323 282 361" fill="none" stroke="#7a6030" stroke-width="10.1" stroke-linecap="round" opacity="0.75"/><path d="M265 287 Q272 315 278 345" fill="none" stroke="#7a6030" stroke-width="9.3" stroke-linecap="round" opacity="0.75"/><path d="M265 287 Q254 340 254 394" fill="none" stroke="#7a6030" stroke-width="4.0" stroke-linecap="round" opacity="0.75"/><path d="M265 287 Q247 329 230 373" fill="none" stroke="#7a6030" stroke-width="9.4" stroke-linecap="round" opacity="0.75"/><path d="M265 287 Q241 335 215 385" fill="none" stroke="#7a6030" stroke-width="9.4" stroke-linecap="round" opacity="0.75"/><path d="M265 287 Q226 331 189 377" fill="none" stroke="#7a6030" stroke-width="4.2" stroke-linecap="round" opacity="0.75"/><path d="M265 287 Q236 316 171 347" fill="none" stroke="#7a6030" stroke-width="9.5" stroke-linecap="round" opacity="0.75"/></g></svg>