<svg xmlns="http://www.w3.org/2000/svg" viewBox="0 0 530 540"><path d="M259 289 Q260.2 268.5 262.5 230 L267.5 230 Q269.8 268.5 271 289 Z" fill="#5a4228" opacity="0.9"/><ellipse cx="276" cy="211" rx="46" ry="33" fill="#4a7e2a" opacity="0.60"/><ellipse cx="260" cy="211" rx="27" ry="21" fill="#d4aa30" opacity="0.83"/><ellipse cx="262" cy="214" rx="29" ry="25" fill="#8aba52" opacity="0.57"/><ellipse cx="247" cy="222" rx="31" ry="27" fill="#b8c44a" opacity="0.64"/><ellipse cx="281" cy="227" rx="26" ry="25" fill="#c8b43a" opacity="0.75"/><ellipse cx="265" cy="217.4" rx="20" ry="11" fill="#7aae48" opacity="0.4"/><g class="mini-roots"><line x1="265" y1="287" x2="263.6725192380475" y2="401.11240726900866" stroke="#7a6030" stroke-width="13.6" stroke-linecap="round" opacity="0.85"/><path d="M265 287 Q294 314 336 342" fill="none" stroke="#7a6030" stroke-width="4.2" stroke-linecap="round" opacity="0.75"/><path d="M265 287 Q297 325 344 365" fill="none" stroke="#7a6030" stroke-width="9.2" stroke-linecap="round" opacity="0.75"/><path d="M265 287 Q287 338 321 392" fill="none" stroke="#7a6030" stroke-width="3.6" stroke-linecap="round" opacity="0.75"/><path d="M265 287 Q282 342 297 398" fill="none" stroke="#7a6030" stroke-width="8.9" stroke-linecap="round" opacity="0.75"/><path d="M265 287 Q260 318 277 352" fill="none" stroke="#7a6030" stroke-width="6.7" stroke-linecap="round" opacity="0.75"/><path d="M265 287 Q262 313 259 342" fill="none" stroke="#7a6030" stroke-width="4.0" stroke-linecap="round" opacity="0.75"/><path d="M265 287 Q253 321 238 357" fill="none" stroke="#7a6030" stroke-width="10.5" stroke-linecap="round" opacity="0.75"/><path d="M265 287 Q251 315 233 345" fill="none" stroke="#7a6030" stroke-width="4.3" stroke-linecap="round" opacity="0.75"/><path d="M265 287 Q247 307 216 329" fill="none" stroke="#7a6030" stroke-width="9.8" stroke-linecap="round" opacity="0.75"/><path d="M265 287 Q246 306 198 327" fill="none" stroke="#7a6030" stroke-width="8.4" stroke-linecap="round" opacity="0.75"/></g></svg>