<svg xmlns="http://www.w3.org/2000/svg" viewBox="0 0 530 540"><g transform="translate(270,281) rotate(297)"><path d="M0,0 Q7,8 0,19 Q-7,8 0,0 Z" fill="#7aae48" opacity="0.74"/><line x1="0" y1="0" x2="0" y2="19" stroke="rgba(60,90,30,0.3)" stroke-width="0.5"/></g><g transform="translate(266,288) rotate(55)"><path d="M0,0 Q3,3 0,7 Q-3,3 0,0 Z" fill="#b8c44a" opacity="0.82"/><line x1="0" y1="0" x2="0" y2="7" stroke="rgba(60,90,30,0.3)" stroke-width="0.5"/></g><g transform="translate(255,283) rotate(245)"><path d="M0,0 Q6,7 0,19 Q-6,7 0,0 Z" fill="#6a9e3e" opacity="0.82"/><line x1="0" y1="0" x2="0" y2="19" stroke="rgba(60,90,30,0.3)" stroke-width="0.5"/></g><g transform="translate(260,284) rotate(252)"><path d="M0,0 Q4,3 0,8 Q-4,3 0,0 Z" fill="#6a9e3e" opacity="0.69"/><line x1="0" y1="0" x2="0" y2="8" stroke="rgba(60,90,30,0.3)" stroke-width="0.5"/></g><g transform="translate(258,280) rotate(287)"><path d="M0,0 Q3,2 0,6 Q-3,2 0,0 Z" fill="#5a8e34" opacity="0.83"/><line x1="0" y1="0" x2="0" y2="6" stroke="rgba(60,90,30,0.3)" stroke-width="0.5"/></g><g transform="translate(239,282) rotate(79)"><path d="M0,0 Q6,7 0,18 Q-6,7 0,0 Z" fill="#3a6e22" opacity="0.75"/><line x1="0" y1="0" x2="0" y2="18" stroke="rgba(60,90,30,0.3)" stroke-width="0.5"/></g><g transform="translate(249,280) rotate(166)"><path d="M0,0 Q4,5 0,12 Q-4,5 0,0 Z" fill="#6a9e3e" opacity="0.74"/><line x1="0" y1="0" x2="0" y2="12" stroke="rgba(60,90,30,0.3)" stroke-width="0.5"/></g><g transform="translate(260,278) rotate(21)"><path d="M0,0 Q8,7 0,18 Q-8,7 0,0 Z" fill="#3a6e22" opacity="0.76"/><line x1="0" y1="0" x2="0" y2="18" stroke="rgba(60,90,30,0.3)" stroke-width="0.5"/></g><g transform="translate(252,275) rotate(92)"><path d="M0,0 Q6,8 0,19 Q-6,8 0,0 Z" fill="#8aba52" opacity="0.72"/><line x1="0" y1="0" x2="0" y2="19" stroke="rgba(60,90,30,0.3)" stroke-width="0.5"/></g><g transform="translate(289,281) rotate(5)"><path d="M0,0 Q7,8 0,19 Q-7,8 0,0 Z" fill="#6a9e3e" opacity="0.82"/><line x1="0" y1="0" x2="0" y2="19" stroke="rgba(60,90,30,0.3)" stroke-width="0.5"/></g><g transform="translate(265,280) rotate(135)"><path d="M0,0 Q6,6 0,14 Q-6,6 0,0 Z" fill="#7aae48" opacity="0.73"/><line x1="0" y1="0" x2="0" y2="14" stroke="rgba(60,90,30,0.3)" stroke-width="0.5"/></g><g transform="translate(268,282) rotate(291)"><path d="M0,0 Q4,4 0,11 Q-4,4 0,0 Z" fill="#b8c44a" opacity="0.55"/><line x1="0" y1="0" x2="0" y2="11" stroke="rgba(60,90,30,0.3)" stroke-width="0.5"/></g><g transform="translate(268,279) rotate(57)"><path d="M0,0 Q7,6 0,15 Q-7,6 0,0 Z" fill="#8aba52" opacity="0.78"/><line x1="0" y1="0" x2="0" y2="15" stroke="rgba(60,90,30,0.3)" stroke-width="0.5"/></g><g transform="translate(283,281) rotate(59)"><path d="M0,0 Q3,3 0,7 Q-3,3 0,0 Z" fill="#b8c44a" opacity="0.63"/><line x1="0" y1="0" x2="0" y2="7" stroke="rgba(60,90,30,0.3)" stroke-width="0.5"/></g><g transform="translate(262,283) rotate(309)"><path d="M0,0 Q2,3 0,7 Q-2,3 0,0 Z" fill="#b8c44a" opacity="0.70"/><line x1="0" y1="0" x2="0" y2="7" stroke="rgba(60,90,30,0.3)" stroke-width="0.5"/></g><g transform="translate(287,285) rotate(99)"><path d="M0,0 Q3,4 0,11 Q-3,4 0,0 Z" fill="#4a7e2a" opacity="0.82"/><line x1="0" y1="0" x2="0" y2="11" stroke="rgba(60,90,30,0.3)" stroke-width="0.5"/></g><g transform="translate(272,283) rotate(30)"><path d="M0,0 Q3,4 0,9 Q-3,4 0,0 Z" fill="#8aba52" opacity="0.87"/><line x1="0" y1="0" x2="0" y2="9" stroke="rgba(60,90,30,0.3)" stroke-width="0.5"/></g></svg>