<svg xmlns="http://www.w3.org/2000/svg" viewBox="0 0 530 540"><path d="M255 289 Q257 253.5 261.5 180 L268.5 180 Q273 253.5 275 289 Z" fill="#5a4228" opacity="0.9"/><ellipse cx="259" cy="162" rx="58" ry="37" fill="#3a6e22" opacity="0.75"/><ellipse cx="282" cy="140" rx="51" ry="45" fill="#5a8e34" opacity="0.80"/><ellipse cx="288" cy="159" rx="65" ry="40" fill="#b8c44a" opacity="0.78"/><ellipse cx="236" cy="170" rx="66" ry="64" fill="#8aba52" opacity="0.84"/><ellipse cx="265" cy="154.2" rx="35" ry="22" fill="#3a6e22" opacity="0.4"/><g class="mini-roots"><line x1="265" y1="287" x2="261.1984575056464" y2="374.97007094452624" stroke="#7a6030" stroke-width="13.6" stroke-linecap="round" opacity="0.85"/><path d="M265 287 Q309 322 372 359" fill="none" stroke="#7a6030" stroke-width="8.2" stroke-linecap="round" opacity="0.75"/><path d="M265 287 Q283 319 322 353" fill="none" stroke="#7a6030" stroke-width="7.1" stroke-linecap="round" opacity="0.75"/><path d="M265 287 Q282 322 299 358" fill="none" stroke="#7a6030" stroke-width="7.8" stroke-linecap="round" opacity="0.75"/><path d="M265 287 Q282 332 292 379" fill="none" stroke="#7a6030" stroke-width="3.9" stroke-linecap="round" opacity="0.75"/><path d="M265 287 Q272 348 285 411" fill="none" stroke="#7a6030" stroke-width="8.6" stroke-linecap="round" opacity="0.75"/><path d="M265 287 Q258 317 267 348" fill="none" stroke="#7a6030" stroke-width="10.8" stroke-linecap="round" opacity="0.75"/><path d="M265 287 Q244 347 224 410" fill="none" stroke="#7a6030" stroke-width="3.8" stroke-linecap="round" opacity="0.75"/><path d="M265 287 Q250 327 222 370" fill="none" stroke="#7a6030" stroke-width="5.1" stroke-linecap="round" opacity="0.75"/><path d="M265 287 Q237 316 201 347" fill="none" stroke="#7a6030" stroke-width="7.0" stroke-linecap="round" opacity="0.75"/><path d="M265 287 Q248 298 227 310" fill="none" stroke="#7a6030" stroke-width="5.1" stroke-linecap="round" opacity="0.75"/></g></svg>