<svg xmlns="http://www.w3.org/2000/svg" viewBox="0 0 530 540"><path d="M255 289 Q257 253.5 261.5 180 L268.5 180 Q273 253.5 275 289 Z" fill="#5a4228" opacity="0.9"/><ellipse cx="232" cy="159" rx="103" ry="88" fill="#c8b43a" opacity="0.57"/><ellipse cx="240" cy="136" rx="57" ry="52" fill="#7aae48" opacity="0.56"/><ellipse cx="247" cy="148" rx="82" ry="69" fill="#4a7e2a" opacity="0.65"/><ellipse cx="244" cy="166" rx="64" ry="43" fill="#9ac45c" opacity="0.57"/><ellipse cx="236" cy="141" rx="60" ry="40" fill="#b8c44a" opacity="0.66"/><ellipse cx="265" cy="154.2" rx="42" ry="22" fill="#6a9e3e" opacity="0.4"/><g class="mini-roots"><line x1="265" y1="287" x2="261.34594585762636" y2="379.1782181491043" stroke="#7a6030" stroke-width="13.6" stroke-linecap="round" opacity="0.85"/><path d="M265 287 Q299 318 364 351" fill="none" stroke="#7a6030" stroke-width="9.1" stroke-linecap="round" opacity="0.75"/><path d="M265 287 Q272 304 300 323" fill="none" stroke="#7a6030" stroke-width="4.7" stroke-linecap="round" opacity="0.75"/><path d="M265 287 Q283 320 302 356" fill="none" stroke="#7a6030" stroke-width="5.6" stroke-linecap="round" opacity="0.75"/><path d="M265 287 Q276 315 283 345" fill="none" stroke="#7a6030" stroke-width="3.8" stroke-linecap="round" opacity="0.75"/><path d="M265 287 Q268 320 270 355" fill="none" stroke="#7a6030" stroke-width="6.1" stroke-linecap="round" opacity="0.75"/><path d="M265 287 Q259 327 264 368" fill="none" stroke="#7a6030" stroke-width="4.5" stroke-linecap="round" opacity="0.75"/><path d="M265 287 Q249 326 247 367" fill="none" stroke="#7a6030" stroke-width="7.8" stroke-linecap="round" opacity="0.75"/><path d="M265 287 Q263 303 246 321" fill="none" stroke="#7a6030" stroke-width="5.5" stroke-linecap="round" opacity="0.75"/><path d="M265 287 Q225 333 184 381" fill="none" stroke="#7a6030" stroke-width="10.5" stroke-linecap="round" opacity="0.75"/><path d="M265 287 Q227 317 179 349" fill="none" stroke="#7a6030" stroke-width="8.7" stroke-linecap="round" opacity="0.75"/></g></svg>