<svg xmlns="http://www.w3.org/2000/svg" viewBox="0 0 530 540"><path d="M251 289 Q253.8 238.5 260.5 130 L269.5 130 Q276.2 238.5 279 289 Z" fill="#5a4228" opacity="0.9"/><ellipse cx="254" cy="71" rx="66" ry="60" fill="#8aba52" opacity="0.58"/><ellipse cx="273" cy="123" rx="43" ry="31" fill="#4a7e2a" opacity="0.70"/><ellipse cx="246" cy="87" rx="48" ry="40" fill="#7aae48" opacity="0.82"/><ellipse cx="265" cy="91" rx="28" ry="33" fill="#5a8e34" opacity="0.4"/><g class="mini-roots"><line x1="265" y1="287" x2="266.391941631861" y2="386.54035164580694" stroke="#7a6030" stroke-width="13.6" stroke-linecap="round" opacity="0.85"/><path d="M265 287 Q299 318 353 351" fill="none" stroke="#7a6030" stroke-width="9.9" stroke-linecap="round" opacity="0.75"/><path d="M265 287 Q282 313 316 341" fill="none" stroke="#7a6030" stroke-width="8.1" stroke-linecap="round" opacity="0.75"/><path d="M265 287 Q295 335 330 386" fill="none" stroke="#7a6030" stroke-width="3.2" stroke-linecap="round" opacity="0.75"/><path d="M265 287 Q283 347 307 409" fill="none" stroke="#7a6030" stroke-width="7.9" stroke-linecap="round" opacity="0.75"/><path d="M265 287 Q265 340 282 396" fill="none" stroke="#7a6030" stroke-width="8.7" stroke-linecap="round" opacity="0.75"/><path d="M265 287 Q266 306 265 326" fill="none" stroke="#7a6030" stroke-width="6.9" stroke-linecap="round" opacity="0.75"/><path d="M265 287 Q256 332 241 378" fill="none" stroke="#7a6030" stroke-width="9.9" stroke-linecap="round" opacity="0.75"/><path d="M265 287 Q256 305 240 325" fill="none" stroke="#7a6030" stroke-width="6.8" stroke-linecap="round" opacity="0.75"/><path d="M265 287 Q236 332 189 380" fill="none" stroke="#7a6030" stroke-width="5.2" stroke-linecap="round" opacity="0.75"/><path d="M265 287 Q229 313 189 342" fill="none" stroke="#7a6030" stroke-width="10.2" stroke-linecap="round" opacity="0.75"/></g></svg>