<svg xmlns="http://www.w3.org/2000/svg" viewBox="0 0 530 540"><path d="M253 289 Q255.4 246 261 155 L269 155 Q274.6 246 277 289 Z" fill="#5a4228" opacity="0.9"/><ellipse cx="267" cy="148" rx="65" ry="51" fill="#6a9e3e" opacity="0.71"/><ellipse cx="297" cy="135" rx="59" ry="39" fill="#9ac45c" opacity="0.73"/><ellipse cx="272" cy="96" rx="48" ry="42" fill="#6a9e3e" opacity="0.58"/><ellipse cx="260" cy="97" rx="85" ry="78" fill="#c8b43a" opacity="0.61"/><ellipse cx="265" cy="122.6" rx="35" ry="27" fill="#7aae48" opacity="0.4"/><g class="mini-roots"><line x1="265" y1="287" x2="264.1894924133967" y2="364.26455572008365" stroke="#7a6030" stroke-width="13.6" stroke-linecap="round" opacity="0.85"/><path d="M265 287 Q301 316 345 348" fill="none" stroke="#7a6030" stroke-width="10.5" stroke-linecap="round" opacity="0.75"/><path d="M265 287 Q275 301 287 317" fill="none" stroke="#7a6030" stroke-width="7.6" stroke-linecap="round" opacity="0.75"/><path d="M265 287 Q289 333 324 382" fill="none" stroke="#7a6030" stroke-width="7.6" stroke-linecap="round" opacity="0.75"/><path d="M265 287 Q272 332 294 378" fill="none" stroke="#7a6030" stroke-width="6.1" stroke-linecap="round" opacity="0.75"/><path d="M265 287 Q278 348 277 411" fill="none" stroke="#7a6030" stroke-width="3.2" stroke-linecap="round" opacity="0.75"/><path d="M265 287 Q260 332 263 378" fill="none" stroke="#7a6030" stroke-width="6.5" stroke-linecap="round" opacity="0.75"/><path d="M265 287 Q259 314 249 342" fill="none" stroke="#7a6030" stroke-width="5.0" stroke-linecap="round" opacity="0.75"/><path d="M265 287 Q245 340 208 396" fill="none" stroke="#7a6030" stroke-width="8.0" stroke-linecap="round" opacity="0.75"/><path d="M265 287 Q245 320 212 354" fill="none" stroke="#7a6030" stroke-width="10.6" stroke-linecap="round" opacity="0.75"/><path d="M265 287 Q238 315 188 346" fill="none" stroke="#7a6030" stroke-width="7.1" stroke-linecap="round" opacity="0.75"/></g></svg>