<svg xmlns="http://www.w3.org/2000/svg" viewBox="0 0 530 540"><path d="M255 289 Q257 253.5 261.5 180 L268.5 180 Q273 253.5 275 289 Z" fill="#5a4228" opacity="0.9"/><ellipse cx="254" cy="164" rx="47" ry="29" fill="#b8c44a" opacity="0.61"/><ellipse cx="267" cy="134" rx="38" ry="28" fill="#5a8e34" opacity="0.61"/><ellipse cx="250" cy="175" rx="43" ry="33" fill="#4a7e2a" opacity="0.57"/><ellipse cx="260" cy="166" rx="32" ry="29" fill="#8aba52" opacity="0.82"/><ellipse cx="265" cy="154.2" rx="20" ry="22" fill="#4a7e2a" opacity="0.4"/><g class="mini-roots"><line x1="265" y1="287" x2="265.2341304590153" y2="394.6687665226258" stroke="#7a6030" stroke-width="13.6" stroke-linecap="round" opacity="0.85"/><path d="M265 287 Q294 307 321 329" fill="none" stroke="#7a6030" stroke-width="10.5" stroke-linecap="round" opacity="0.75"/><path d="M265 287 Q297 321 323 357" fill="none" stroke="#7a6030" stroke-width="7.8" stroke-linecap="round" opacity="0.75"/><path d="M265 287 Q287 326 303 366" fill="none" stroke="#7a6030" stroke-width="5.1" stroke-linecap="round" opacity="0.75"/><path d="M265 287 Q281 332 293 380" fill="none" stroke="#7a6030" stroke-width="8.4" stroke-linecap="round" opacity="0.75"/><path d="M265 287 Q263 309 264 333" fill="none" stroke="#7a6030" stroke-width="4.3" stroke-linecap="round" opacity="0.75"/><path d="M265 287 Q254 334 252 384" fill="none" stroke="#7a6030" stroke-width="5.8" stroke-linecap="round" opacity="0.75"/><path d="M265 287 Q254 315 241 344" fill="none" stroke="#7a6030" stroke-width="4.9" stroke-linecap="round" opacity="0.75"/><path d="M265 287 Q248 336 204 387" fill="none" stroke="#7a6030" stroke-width="7.8" stroke-linecap="round" opacity="0.75"/><path d="M265 287 Q254 309 229 334" fill="none" stroke="#7a6030" stroke-width="8.9" stroke-linecap="round" opacity="0.75"/><path d="M265 287 Q246 297 229 310" fill="none" stroke="#7a6030" stroke-width="10.6" stroke-linecap="round" opacity="0.75"/></g></svg>