<svg xmlns="http://www.w3.org/2000/svg" viewBox="0 0 530 540"><path d="M251 289 Q253.8 238.5 260.5 130 L269.5 130 Q276.2 238.5 279 289 Z" fill="#5a4228" opacity="0.9"/><ellipse cx="272" cy="75" rx="56" ry="39" fill="#c8b43a" opacity="0.76"/><ellipse cx="243" cy="63" rx="59" ry="39" fill="#d4aa30" opacity="0.64"/><ellipse cx="280" cy="104" rx="58" ry="36" fill="#3a6e22" opacity="0.66"/><ellipse cx="256" cy="101" rx="86" ry="70" fill="#b8c44a" opacity="0.62"/><ellipse cx="265" cy="91" rx="35" ry="33" fill="#3a6e22" opacity="0.4"/><g class="mini-roots"><line x1="265" y1="287" x2="265.28217607563465" y2="382.1245788523576" stroke="#7a6030" stroke-width="13.6" stroke-linecap="round" opacity="0.85"/><path d="M265 287 Q280 305 315 325" fill="none" stroke="#7a6030" stroke-width="4.2" stroke-linecap="round" opacity="0.75"/><path d="M265 287 Q307 334 353 383" fill="none" stroke="#7a6030" stroke-width="6.4" stroke-linecap="round" opacity="0.75"/><path d="M265 287 Q269 310 298 335" fill="none" stroke="#7a6030" stroke-width="10.4" stroke-linecap="round" opacity="0.75"/><path d="M265 287 Q287 342 310 399" fill="none" stroke="#7a6030" stroke-width="5.2" stroke-linecap="round" opacity="0.75"/><path d="M265 287 Q266 321 267 358" fill="none" stroke="#7a6030" stroke-width="9.3" stroke-linecap="round" opacity="0.75"/><path d="M265 287 Q258 334 259 382" fill="none" stroke="#7a6030" stroke-width="10.6" stroke-linecap="round" opacity="0.75"/><path d="M265 287 Q256 305 261 324" fill="none" stroke="#7a6030" stroke-width="4.1" stroke-linecap="round" opacity="0.75"/><path d="M265 287 Q238 330 221 375" fill="none" stroke="#7a6030" stroke-width="9.2" stroke-linecap="round" opacity="0.75"/><path d="M265 287 Q244 304 224 323" fill="none" stroke="#7a6030" stroke-width="7.4" stroke-linecap="round" opacity="0.75"/><path d="M265 287 Q235 314 180 343" fill="none" stroke="#7a6030" stroke-width="4.6" stroke-linecap="round" opacity="0.75"/></g></svg>