<svg xmlns="http://www.w3.org/2000/svg" viewBox="0 0 530 540"><path d="M251 289 Q253.8 238.5 260.5 130 L269.5 130 Q276.2 238.5 279 289 Z" fill="#5a4228" opacity="0.9"/><ellipse cx="260" cy="118" rx="30" ry="20" fill="#3a6e22" opacity="0.59"/><ellipse cx="263" cy="71" rx="32" ry="25" fill="#7aae48" opacity="0.58"/><ellipse cx="277" cy="63" rx="24" ry="18" fill="#b8c44a" opacity="0.85"/><ellipse cx="265" cy="91" rx="13" ry="33" fill="#3a6e22" opacity="0.4"/><g class="mini-roots"><line x1="265" y1="287" x2="268.29728914019523" y2="388.9630464438177" stroke="#7a6030" stroke-width="13.6" stroke-linecap="round" opacity="0.85"/><path d="M265 287 Q297 315 349 346" fill="none" stroke="#7a6030" stroke-width="9.7" stroke-linecap="round" opacity="0.75"/><path d="M265 287 Q295 326 348 367" fill="none" stroke="#7a6030" stroke-width="3.7" stroke-linecap="round" opacity="0.75"/><path d="M265 287 Q283 339 329 394" fill="none" stroke="#7a6030" stroke-width="10.5" stroke-linecap="round" opacity="0.75"/><path d="M265 287 Q278 306 280 326" fill="none" stroke="#7a6030" stroke-width="3.1" stroke-linecap="round" opacity="0.75"/><path d="M265 287 Q274 309 269 333" fill="none" stroke="#7a6030" stroke-width="9.3" stroke-linecap="round" opacity="0.75"/><path d="M265 287 Q262 339 254 393" fill="none" stroke="#7a6030" stroke-width="6.6" stroke-linecap="round" opacity="0.75"/><path d="M265 287 Q258 329 243 372" fill="none" stroke="#7a6030" stroke-width="3.7" stroke-linecap="round" opacity="0.75"/><path d="M265 287 Q257 309 245 332" fill="none" stroke="#7a6030" stroke-width="4.4" stroke-linecap="round" opacity="0.75"/><path d="M265 287 Q247 301 236 318" fill="none" stroke="#7a6030" stroke-width="8.0" stroke-linecap="round" opacity="0.75"/><path d="M265 287 Q252 297 231 309" fill="none" stroke="#7a6030" stroke-width="6.5" stroke-linecap="round" opacity="0.75"/></g></svg>