<svg xmlns="http://www.w3.org/2000/svg" viewBox="0 0 530 540"><path d="M259 289 Q260.2 268.5 262.5 230 L267.5 230 Q269.8 268.5 271 289 Z" fill="#5a4228" opacity="0.9"/><ellipse cx="288" cy="226" rx="85" ry="73" fill="#7aae48" opacity="0.56"/><ellipse cx="279" cy="227" rx="50" ry="35" fill="#9ac45c" opacity="0.75"/><ellipse cx="278" cy="211" rx="76" ry="51" fill="#8aba52" opacity="0.80"/><ellipse cx="272" cy="216" rx="60" ry="55" fill="#3a6e22" opacity="0.71"/><ellipse cx="265" cy="217.4" rx="35" ry="11" fill="#7aae48" opacity="0.4"/><g class="mini-roots"><line x1="265" y1="287" x2="266.7836123098543" y2="371.6188986065886" stroke="#7a6030" stroke-width="13.6" stroke-linecap="round" opacity="0.85"/><path d="M265 287 Q291 314 337 343" fill="none" stroke="#7a6030" stroke-width="10.2" stroke-linecap="round" opacity="0.75"/><path d="M265 287 Q286 314 315 343" fill="none" stroke="#7a6030" stroke-width="7.8" stroke-linecap="round" opacity="0.75"/><path d="M265 287 Q278 306 282 327" fill="none" stroke="#7a6030" stroke-width="5.5" stroke-linecap="round" opacity="0.75"/><path d="M265 287 Q280 319 294 352" fill="none" stroke="#7a6030" stroke-width="6.5" stroke-linecap="round" opacity="0.75"/><path d="M265 287 Q263 307 266 329" fill="none" stroke="#7a6030" stroke-width="10.2" stroke-linecap="round" opacity="0.75"/><path d="M265 287 Q257 323 266 361" fill="none" stroke="#7a6030" stroke-width="10.0" stroke-linecap="round" opacity="0.75"/><path d="M265 287 Q259 325 245 365" fill="none" stroke="#7a6030" stroke-width="4.5" stroke-linecap="round" opacity="0.75"/><path d="M265 287 Q256 302 240 320" fill="none" stroke="#7a6030" stroke-width="6.5" stroke-linecap="round" opacity="0.75"/><path d="M265 287 Q234 325 197 366" fill="none" stroke="#7a6030" stroke-width="6.3" stroke-linecap="round" opacity="0.75"/><path d="M265 287 Q250 304 215 322" fill="none" stroke="#7a6030" stroke-width="5.0" stroke-linecap="round" opacity="0.75"/></g></svg>