<svg xmlns="http://www.w3.org/2000/svg" viewBox="0 0 530 540"><path d="M259 289 Q260.2 268.5 262.5 230 L267.5 230 Q269.8 268.5 271 289 Z" fill="#5a4228" opacity="0.9"/><ellipse cx="234" cy="227" rx="70" ry="45" fill="#b8c44a" opacity="0.74"/><ellipse cx="243" cy="208" rx="66" ry="42" fill="#7aae48" opacity="0.69"/><ellipse cx="243" cy="216" rx="88" ry="76" fill="#4a7e2a" opacity="0.64"/><ellipse cx="260" cy="218" rx="88" ry="72" fill="#d4aa30" opacity="0.68"/><ellipse cx="282" cy="212" rx="84" ry="64" fill="#c8b43a" opacity="0.69"/><ellipse cx="265" cy="217.4" rx="42" ry="11" fill="#3a6e22" opacity="0.4"/><g class="mini-roots"><line x1="265" y1="287" x2="261.79343038834327" y2="387.82074894272756" stroke="#7a6030" stroke-width="13.6" stroke-linecap="round" opacity="0.85"/><path d="M265 287 Q307 321 368 357" fill="none" stroke="#7a6030" stroke-width="9.3" stroke-linecap="round" opacity="0.75"/><path d="M265 287 Q278 302 295 320" fill="none" stroke="#7a6030" stroke-width="3.1" stroke-linecap="round" opacity="0.75"/><path d="M265 287 Q280 332 323 379" fill="none" stroke="#7a6030" stroke-width="5.9" stroke-linecap="round" opacity="0.75"/><path d="M265 287 Q276 345 298 405" fill="none" stroke="#7a6030" stroke-width="8.5" stroke-linecap="round" opacity="0.75"/><path d="M265 287 Q273 330 266 375" fill="none" stroke="#7a6030" stroke-width="3.2" stroke-linecap="round" opacity="0.75"/><path d="M265 287 Q259 342 258 399" fill="none" stroke="#7a6030" stroke-width="8.9" stroke-linecap="round" opacity="0.75"/><path d="M265 287 Q258 328 232 372" fill="none" stroke="#7a6030" stroke-width="7.7" stroke-linecap="round" opacity="0.75"/><path d="M265 287 Q244 334 213 382" fill="none" stroke="#7a6030" stroke-width="4.4" stroke-linecap="round" opacity="0.75"/><path d="M265 287 Q235 333 175 381" fill="none" stroke="#7a6030" stroke-width="4.9" stroke-linecap="round" opacity="0.75"/><path d="M265 287 Q242 303 225 320" fill="none" stroke="#7a6030" stroke-width="5.9" stroke-linecap="round" opacity="0.75"/></g></svg>