<svg xmlns="http://www.w3.org/2000/svg" viewBox="0 0 530 540"><path d="M257 289 Q258.6 261 262 205 L268 205 Q271.4 261 273 289 Z" fill="#5a4228" opacity="0.9"/><ellipse cx="281" cy="185" rx="50" ry="43" fill="#6a9e3e" opacity="0.56"/><ellipse cx="269" cy="194" rx="31" ry="31" fill="#7aae48" opacity="0.76"/><ellipse cx="252" cy="193" rx="45" ry="32" fill="#5a8e34" opacity="0.67"/><ellipse cx="261" cy="198" rx="42" ry="35" fill="#d4aa30" opacity="0.71"/><ellipse cx="265" cy="185.8" rx="20" ry="16" fill="#7aae48" opacity="0.4"/><g class="mini-roots"><line x1="265" y1="287" x2="264.237538030016" y2="391.32036804981544" stroke="#7a6030" stroke-width="13.6" stroke-linecap="round" opacity="0.85"/><path d="M265 287 Q302 315 338 344" fill="none" stroke="#7a6030" stroke-width="4.1" stroke-linecap="round" opacity="0.75"/><path d="M265 287 Q285 314 317 343" fill="none" stroke="#7a6030" stroke-width="6.2" stroke-linecap="round" opacity="0.75"/><path d="M265 287 Q286 317 299 350" fill="none" stroke="#7a6030" stroke-width="5.1" stroke-linecap="round" opacity="0.75"/><path d="M265 287 Q279 341 292 398" fill="none" stroke="#7a6030" stroke-width="10.7" stroke-linecap="round" opacity="0.75"/><path d="M265 287 Q262 314 270 343" fill="none" stroke="#7a6030" stroke-width="8.2" stroke-linecap="round" opacity="0.75"/><path d="M265 287 Q264 331 250 377" fill="none" stroke="#7a6030" stroke-width="3.6" stroke-linecap="round" opacity="0.75"/><path d="M265 287 Q250 348 221 410" fill="none" stroke="#7a6030" stroke-width="4.2" stroke-linecap="round" opacity="0.75"/><path d="M265 287 Q236 335 206 384" fill="none" stroke="#7a6030" stroke-width="9.3" stroke-linecap="round" opacity="0.75"/><path d="M265 287 Q250 314 207 343" fill="none" stroke="#7a6030" stroke-width="9.1" stroke-linecap="round" opacity="0.75"/><path d="M265 287 Q243 305 214 324" fill="none" stroke="#7a6030" stroke-width="8.9" stroke-linecap="round" opacity="0.75"/></g></svg>