<svg xmlns="http://www.w3.org/2000/svg" viewBox="0 0 530 540"><path d="M257 289 Q258.6 261 262 205 L268 205 Q271.4 261 273 289 Z" fill="#5a4228" opacity="0.9"/><ellipse cx="270" cy="183" rx="54" ry="36" fill="#4a7e2a" opacity="0.68"/><ellipse cx="241" cy="192" rx="39" ry="25" fill="#9ac45c" opacity="0.82"/><ellipse cx="272" cy="185" rx="63" ry="59" fill="#9ac45c" opacity="0.83"/><ellipse cx="265" cy="185.8" rx="28" ry="16" fill="#5a8e34" opacity="0.4"/><g class="mini-roots"><line x1="265" y1="287" x2="263.9067883430546" y2="395.81111373846005" stroke="#7a6030" stroke-width="13.6" stroke-linecap="round" opacity="0.85"/><path d="M265 287 Q309 318 359 352" fill="none" stroke="#7a6030" stroke-width="4.0" stroke-linecap="round" opacity="0.75"/><path d="M265 287 Q287 321 338 357" fill="none" stroke="#7a6030" stroke-width="7.1" stroke-linecap="round" opacity="0.75"/><path d="M265 287 Q292 331 312 376" fill="none" stroke="#7a6030" stroke-width="9.1" stroke-linecap="round" opacity="0.75"/><path d="M265 287 Q288 346 310 407" fill="none" stroke="#7a6030" stroke-width="4.0" stroke-linecap="round" opacity="0.75"/><path d="M265 287 Q274 323 278 361" fill="none" stroke="#7a6030" stroke-width="8.0" stroke-linecap="round" opacity="0.75"/><path d="M265 287 Q263 310 261 336" fill="none" stroke="#7a6030" stroke-width="10.4" stroke-linecap="round" opacity="0.75"/><path d="M265 287 Q255 341 233 398" fill="none" stroke="#7a6030" stroke-width="8.2" stroke-linecap="round" opacity="0.75"/><path d="M265 287 Q246 327 214 369" fill="none" stroke="#7a6030" stroke-width="9.6" stroke-linecap="round" opacity="0.75"/><path d="M265 287 Q252 311 209 337" fill="none" stroke="#7a6030" stroke-width="8.0" stroke-linecap="round" opacity="0.75"/><path d="M265 287 Q248 300 233 314" fill="none" stroke="#7a6030" stroke-width="9.8" stroke-linecap="round" opacity="0.75"/></g></svg>