<svg xmlns="http://www.w3.org/2000/svg" viewBox="0 0 530 540"><path d="M257 289 Q258.6 261 262 205 L268 205 Q271.4 261 273 289 Z" fill="#5a4228" opacity="0.9"/><ellipse cx="224" cy="192" rx="62" ry="55" fill="#7aae48" opacity="0.79"/><ellipse cx="225" cy="185" rx="57" ry="49" fill="#d4aa30" opacity="0.76"/><ellipse cx="263" cy="171" rx="56" ry="34" fill="#8aba52" opacity="0.84"/><ellipse cx="265" cy="185.8" rx="42" ry="16" fill="#3a6e22" opacity="0.4"/><g class="mini-roots"><line x1="265" y1="287" x2="262.78244242900166" y2="379.69228435116463" stroke="#7a6030" stroke-width="13.6" stroke-linecap="round" opacity="0.85"/><path d="M265 287 Q303 315 342 346" fill="none" stroke="#7a6030" stroke-width="7.8" stroke-linecap="round" opacity="0.75"/><path d="M265 287 Q289 318 327 351" fill="none" stroke="#7a6030" stroke-width="4.8" stroke-linecap="round" opacity="0.75"/><path d="M265 287 Q267 304 280 324" fill="none" stroke="#7a6030" stroke-width="4.6" stroke-linecap="round" opacity="0.75"/><path d="M265 287 Q273 306 277 327" fill="none" stroke="#7a6030" stroke-width="7.0" stroke-linecap="round" opacity="0.75"/><path d="M265 287 Q265 327 273 368" fill="none" stroke="#7a6030" stroke-width="10.0" stroke-linecap="round" opacity="0.75"/><path d="M265 287 Q264 334 258 384" fill="none" stroke="#7a6030" stroke-width="3.1" stroke-linecap="round" opacity="0.75"/><path d="M265 287 Q259 319 251 353" fill="none" stroke="#7a6030" stroke-width="5.3" stroke-linecap="round" opacity="0.75"/><path d="M265 287 Q248 326 224 368" fill="none" stroke="#7a6030" stroke-width="9.3" stroke-linecap="round" opacity="0.75"/><path d="M265 287 Q231 323 196 360" fill="none" stroke="#7a6030" stroke-width="5.2" stroke-linecap="round" opacity="0.75"/><path d="M265 287 Q234 311 187 337" fill="none" stroke="#7a6030" stroke-width="6.9" stroke-linecap="round" opacity="0.75"/></g></svg>