<svg xmlns="http://www.w3.org/2000/svg" viewBox="0 0 530 540"><path d="M253 289 Q255.4 246 261 155 L269 155 Q274.6 246 277 289 Z" fill="#5a4228" opacity="0.9"/><ellipse cx="289" cy="149" rx="68" ry="58" fill="#9ac45c" opacity="0.80"/><ellipse cx="267" cy="133" rx="59" ry="56" fill="#8aba52" opacity="0.83"/><ellipse cx="255" cy="106" rx="43" ry="26" fill="#c8b43a" opacity="0.62"/><ellipse cx="291" cy="150" rx="45" ry="40" fill="#4a7e2a" opacity="0.64"/><ellipse cx="265" cy="122.6" rx="28" ry="27" fill="#6a9e3e" opacity="0.4"/><g class="mini-roots"><line x1="265" y1="287" x2="262.4833236343615" y2="402.88284047966954" stroke="#7a6030" stroke-width="16.0" stroke-linecap="round" opacity="0.85"/><path d="M265 287 Q295 308 328 331" fill="none" stroke="#7a6030" stroke-width="8.6" stroke-linecap="round" opacity="0.75"/><path d="M265 287 Q284 303 309 321" fill="none" stroke="#7a6030" stroke-width="8.5" stroke-linecap="round" opacity="0.75"/><path d="M265 287 Q278 319 317 353" fill="none" stroke="#7a6030" stroke-width="9.2" stroke-linecap="round" opacity="0.75"/><path d="M265 287 Q290 346 312 407" fill="none" stroke="#7a6030" stroke-width="6.2" stroke-linecap="round" opacity="0.75"/><path d="M265 287 Q276 331 293 378" fill="none" stroke="#7a6030" stroke-width="3.4" stroke-linecap="round" opacity="0.75"/><path d="M265 287 Q261 322 264 359" fill="none" stroke="#7a6030" stroke-width="3.4" stroke-linecap="round" opacity="0.75"/><path d="M265 287 Q263 358 256 431" fill="none" stroke="#7a6030" stroke-width="8.5" stroke-linecap="round" opacity="0.75"/><path d="M265 287 Q253 352 223 419" fill="none" stroke="#7a6030" stroke-width="4.0" stroke-linecap="round" opacity="0.75"/><path d="M265 287 Q251 326 225 367" fill="none" stroke="#7a6030" stroke-width="6.1" stroke-linecap="round" opacity="0.75"/><path d="M265 287 Q239 324 204 363" fill="none" stroke="#7a6030" stroke-width="10.7" stroke-linecap="round" opacity="0.75"/><path d="M265 287 Q235 317 209 349" fill="none" stroke="#7a6030" stroke-width="5.8" stroke-linecap="round" opacity="0.75"/><path d="M265 287 Q242 313 196 341" fill="none" stroke="#7a6030" stroke-width="10.3" stroke-linecap="round" opacity="0.75"/></g></svg>