<svg xmlns="http://www.w3.org/2000/svg" viewBox="0 0 530 540"><path d="M255 289 Q257 253.5 261.5 180 L268.5 180 Q273 253.5 275 289 Z" fill="#5a4228" opacity="0.9"/><ellipse cx="273" cy="138" rx="55" ry="37" fill="#d4aa30" opacity="0.60"/><ellipse cx="267" cy="173" rx="94" ry="82" fill="#7aae48" opacity="0.66"/><ellipse cx="298" cy="176" rx="69" ry="64" fill="#6a9e3e" opacity="0.64"/><ellipse cx="236" cy="154" rx="55" ry="35" fill="#9ac45c" opacity="0.65"/><ellipse cx="265" cy="154.2" rx="42" ry="22" fill="#6a9e3e" opacity="0.4"/><g class="mini-roots"><line x1="265" y1="287" x2="268.95822942254983" y2="422.08001126771796" stroke="#7a6030" stroke-width="16.0" stroke-linecap="round" opacity="0.85"/><path d="M265 287 Q294 307 320 329" fill="none" stroke="#7a6030" stroke-width="9.5" stroke-linecap="round" opacity="0.75"/><path d="M265 287 Q305 329 353 373" fill="none" stroke="#7a6030" stroke-width="7.1" stroke-linecap="round" opacity="0.75"/><path d="M265 287 Q295 327 326 368" fill="none" stroke="#7a6030" stroke-width="5.0" stroke-linecap="round" opacity="0.75"/><path d="M265 287 Q283 334 310 384" fill="none" stroke="#7a6030" stroke-width="4.4" stroke-linecap="round" opacity="0.75"/><path d="M265 287 Q281 342 301 398" fill="none" stroke="#7a6030" stroke-width="7.7" stroke-linecap="round" opacity="0.75"/><path d="M265 287 Q275 328 267 371" fill="none" stroke="#7a6030" stroke-width="10.7" stroke-linecap="round" opacity="0.75"/><path d="M265 287 Q259 316 268 346" fill="none" stroke="#7a6030" stroke-width="8.3" stroke-linecap="round" opacity="0.75"/><path d="M265 287 Q264 327 253 369" fill="none" stroke="#7a6030" stroke-width="6.8" stroke-linecap="round" opacity="0.75"/><path d="M265 287 Q256 320 237 356" fill="none" stroke="#7a6030" stroke-width="7.1" stroke-linecap="round" opacity="0.75"/><path d="M265 287 Q231 351 168 417" fill="none" stroke="#7a6030" stroke-width="4.1" stroke-linecap="round" opacity="0.75"/><path d="M265 287 Q241 306 230 327" fill="none" stroke="#7a6030" stroke-width="7.3" stroke-linecap="round" opacity="0.75"/><path d="M265 287 Q252 301 227 318" fill="none" stroke="#7a6030" stroke-width="9.4" stroke-linecap="round" opacity="0.75"/></g></svg>