<svg xmlns="http://www.w3.org/2000/svg" viewBox="0 0 530 540"><path d="M257 289 Q258.6 261 262 205 L268 205 Q271.4 261 273 289 Z" fill="#5a4228" opacity="0.9"/><ellipse cx="268" cy="176" rx="58" ry="39" fill="#6a9e3e" opacity="0.75"/><ellipse cx="281" cy="190" rx="73" ry="66" fill="#d4aa30" opacity="0.66"/><ellipse cx="296" cy="183" rx="68" ry="63" fill="#6a9e3e" opacity="0.55"/><ellipse cx="239" cy="191" rx="74" ry="67" fill="#9ac45c" opacity="0.83"/><ellipse cx="265" cy="185.8" rx="42" ry="16" fill="#4a7e2a" opacity="0.4"/><g class="mini-roots"><line x1="265" y1="287" x2="264.0328054852005" y2="422.9436066420486" stroke="#7a6030" stroke-width="16.0" stroke-linecap="round" opacity="0.85"/><path d="M265 287 Q294 317 348 349" fill="none" stroke="#7a6030" stroke-width="8.2" stroke-linecap="round" opacity="0.75"/><path d="M265 287 Q303 335 357 385" fill="none" stroke="#7a6030" stroke-width="8.5" stroke-linecap="round" opacity="0.75"/><path d="M265 287 Q291 343 352 400" fill="none" stroke="#7a6030" stroke-width="9.7" stroke-linecap="round" opacity="0.75"/><path d="M265 287 Q286 330 308 374" fill="none" stroke="#7a6030" stroke-width="4.1" stroke-linecap="round" opacity="0.75"/><path d="M265 287 Q276 329 294 373" fill="none" stroke="#7a6030" stroke-width="10.2" stroke-linecap="round" opacity="0.75"/><path d="M265 287 Q266 364 283 443" fill="none" stroke="#7a6030" stroke-width="8.3" stroke-linecap="round" opacity="0.75"/><path d="M265 287 Q259 315 255 345" fill="none" stroke="#7a6030" stroke-width="8.1" stroke-linecap="round" opacity="0.75"/><path d="M265 287 Q243 361 216 437" fill="none" stroke="#7a6030" stroke-width="11.5" stroke-linecap="round" opacity="0.75"/><path d="M265 287 Q248 350 200 414" fill="none" stroke="#7a6030" stroke-width="3.1" stroke-linecap="round" opacity="0.75"/><path d="M265 287 Q245 335 193 385" fill="none" stroke="#7a6030" stroke-width="4.3" stroke-linecap="round" opacity="0.75"/><path d="M265 287 Q239 320 191 354" fill="none" stroke="#7a6030" stroke-width="7.4" stroke-linecap="round" opacity="0.75"/><path d="M265 287 Q226 321 174 358" fill="none" stroke="#7a6030" stroke-width="8.0" stroke-linecap="round" opacity="0.75"/></g></svg>