<svg xmlns="http://www.w3.org/2000/svg" viewBox="0 0 530 540"><path d="M259 289 Q260.2 268.5 262.5 230 L267.5 230 Q269.8 268.5 271 289 Z" fill="#5a4228" opacity="0.9"/><ellipse cx="290" cy="220" rx="52" ry="38" fill="#d4aa30" opacity="0.75"/><ellipse cx="247" cy="228" rx="57" ry="46" fill="#5a8e34" opacity="0.69"/><ellipse cx="264" cy="222" rx="67" ry="53" fill="#5a8e34" opacity="0.73"/><ellipse cx="245" cy="215" rx="60" ry="56" fill="#c8b43a" opacity="0.74"/><ellipse cx="265" cy="217.4" rx="28" ry="11" fill="#5a8e34" opacity="0.4"/><g class="mini-roots"><line x1="265" y1="287" x2="261.0062750391691" y2="406.8749353037565" stroke="#7a6030" stroke-width="16.0" stroke-linecap="round" opacity="0.85"/><path d="M265 287 Q280 305 312 325" fill="none" stroke="#7a6030" stroke-width="11.2" stroke-linecap="round" opacity="0.75"/><path d="M265 287 Q286 304 311 323" fill="none" stroke="#7a6030" stroke-width="5.4" stroke-linecap="round" opacity="0.75"/><path d="M265 287 Q274 308 295 332" fill="none" stroke="#7a6030" stroke-width="11.2" stroke-linecap="round" opacity="0.75"/><path d="M265 287 Q291 346 312 406" fill="none" stroke="#7a6030" stroke-width="9.7" stroke-linecap="round" opacity="0.75"/><path d="M265 287 Q287 356 308 427" fill="none" stroke="#7a6030" stroke-width="4.4" stroke-linecap="round" opacity="0.75"/><path d="M265 287 Q264 327 274 369" fill="none" stroke="#7a6030" stroke-width="7.4" stroke-linecap="round" opacity="0.75"/><path d="M265 287 Q256 359 255 433" fill="none" stroke="#7a6030" stroke-width="7.4" stroke-linecap="round" opacity="0.75"/><path d="M265 287 Q253 319 248 354" fill="none" stroke="#7a6030" stroke-width="8.3" stroke-linecap="round" opacity="0.75"/><path d="M265 287 Q260 312 250 340" fill="none" stroke="#7a6030" stroke-width="5.4" stroke-linecap="round" opacity="0.75"/><path d="M265 287 Q234 333 209 381" fill="none" stroke="#7a6030" stroke-width="6.1" stroke-linecap="round" opacity="0.75"/><path d="M265 287 Q230 339 155 393" fill="none" stroke="#7a6030" stroke-width="11.6" stroke-linecap="round" opacity="0.75"/><path d="M265 287 Q220 329 148 373" fill="none" stroke="#7a6030" stroke-width="5.0" stroke-linecap="round" opacity="0.75"/></g></svg>