<svg xmlns="http://www.w3.org/2000/svg" viewBox="0 0 530 540"><path d="M251 289 Q253.8 238.5 260.5 130 L269.5 130 Q276.2 238.5 279 289 Z" fill="#5a4228" opacity="0.9"/><ellipse cx="273" cy="85" rx="32" ry="28" fill="#4a7e2a" opacity="0.62"/><ellipse cx="272" cy="62" rx="27" ry="20" fill="#8aba52" opacity="0.68"/><ellipse cx="266" cy="105" rx="20" ry="16" fill="#d4aa30" opacity="0.84"/><ellipse cx="253" cy="81" rx="29" ry="24" fill="#c8b43a" opacity="0.78"/><ellipse cx="265" cy="91" rx="13" ry="33" fill="#7aae48" opacity="0.4"/><g class="mini-roots"><line x1="265" y1="287" x2="268.5378267055088" y2="400.98293728566864" stroke="#7a6030" stroke-width="16.0" stroke-linecap="round" opacity="0.85"/><path d="M265 287 Q275 300 312 315" fill="none" stroke="#7a6030" stroke-width="7.0" stroke-linecap="round" opacity="0.75"/><path d="M265 287 Q298 335 370 385" fill="none" stroke="#7a6030" stroke-width="6.7" stroke-linecap="round" opacity="0.75"/><path d="M265 287 Q281 313 307 341" fill="none" stroke="#7a6030" stroke-width="11.1" stroke-linecap="round" opacity="0.75"/><path d="M265 287 Q283 328 311 372" fill="none" stroke="#7a6030" stroke-width="3.8" stroke-linecap="round" opacity="0.75"/><path d="M265 287 Q283 353 293 421" fill="none" stroke="#7a6030" stroke-width="7.9" stroke-linecap="round" opacity="0.75"/><path d="M265 287 Q274 350 267 414" fill="none" stroke="#7a6030" stroke-width="11.4" stroke-linecap="round" opacity="0.75"/><path d="M265 287 Q264 342 255 399" fill="none" stroke="#7a6030" stroke-width="9.7" stroke-linecap="round" opacity="0.75"/><path d="M265 287 Q265 309 252 332" fill="none" stroke="#7a6030" stroke-width="4.3" stroke-linecap="round" opacity="0.75"/><path d="M265 287 Q246 347 211 409" fill="none" stroke="#7a6030" stroke-width="10.7" stroke-linecap="round" opacity="0.75"/><path d="M265 287 Q245 311 221 337" fill="none" stroke="#7a6030" stroke-width="4.4" stroke-linecap="round" opacity="0.75"/><path d="M265 287 Q249 304 228 324" fill="none" stroke="#7a6030" stroke-width="3.3" stroke-linecap="round" opacity="0.75"/><path d="M265 287 Q220 320 166 356" fill="none" stroke="#7a6030" stroke-width="7.5" stroke-linecap="round" opacity="0.75"/></g></svg>