<svg xmlns="http://www.w3.org/2000/svg" viewBox="0 0 530 540"><path d="M253 289 Q255.4 246 261 155 L269 155 Q274.6 246 277 289 Z" fill="#5a4228" opacity="0.9"/><ellipse cx="283" cy="118" rx="63" ry="51" fill="#4a7e2a" opacity="0.56"/><ellipse cx="286" cy="123" rx="102" ry="67" fill="#d4aa30" opacity="0.59"/><ellipse cx="277" cy="117" rx="102" ry="79" fill="#d4aa30" opacity="0.73"/><ellipse cx="265" cy="122.6" rx="42" ry="27" fill="#5a8e34" opacity="0.4"/><g class="mini-roots"><line x1="265" y1="287" x2="264.87455278815446" y2="412.02559929295705" stroke="#7a6030" stroke-width="16.0" stroke-linecap="round" opacity="0.85"/><path d="M265 287 Q316 330 391 376" fill="none" stroke="#7a6030" stroke-width="11.5" stroke-linecap="round" opacity="0.75"/><path d="M265 287 Q289 326 335 366" fill="none" stroke="#7a6030" stroke-width="6.3" stroke-linecap="round" opacity="0.75"/><path d="M265 287 Q292 333 324 381" fill="none" stroke="#7a6030" stroke-width="9.6" stroke-linecap="round" opacity="0.75"/><path d="M265 287 Q278 332 313 378" fill="none" stroke="#7a6030" stroke-width="4.6" stroke-linecap="round" opacity="0.75"/><path d="M265 287 Q273 326 287 367" fill="none" stroke="#7a6030" stroke-width="3.8" stroke-linecap="round" opacity="0.75"/><path d="M265 287 Q274 343 277 401" fill="none" stroke="#7a6030" stroke-width="10.9" stroke-linecap="round" opacity="0.75"/><path d="M265 287 Q259 331 261 377" fill="none" stroke="#7a6030" stroke-width="4.6" stroke-linecap="round" opacity="0.75"/><path d="M265 287 Q262 318 245 352" fill="none" stroke="#7a6030" stroke-width="4.8" stroke-linecap="round" opacity="0.75"/><path d="M265 287 Q260 309 246 333" fill="none" stroke="#7a6030" stroke-width="9.4" stroke-linecap="round" opacity="0.75"/><path d="M265 287 Q260 305 235 326" fill="none" stroke="#7a6030" stroke-width="3.9" stroke-linecap="round" opacity="0.75"/><path d="M265 287 Q231 327 187 369" fill="none" stroke="#7a6030" stroke-width="7.8" stroke-linecap="round" opacity="0.75"/><path d="M265 287 Q226 319 174 353" fill="none" stroke="#7a6030" stroke-width="5.0" stroke-linecap="round" opacity="0.75"/></g></svg>