<svg xmlns="http://www.w3.org/2000/svg" viewBox="0 0 530 540"><path d="M259 289 Q260.2 268.5 262.5 230 L267.5 230 Q269.8 268.5 271 289 Z" fill="#5a4228" opacity="0.9"/><ellipse cx="278" cy="217" rx="65" ry="54" fill="#8aba52" opacity="0.71"/><ellipse cx="299" cy="211" rx="81" ry="57" fill="#6a9e3e" opacity="0.59"/><ellipse cx="276" cy="224" rx="101" ry="78" fill="#d4aa30" opacity="0.64"/><ellipse cx="268" cy="224" rx="97" ry="83" fill="#d4aa30" opacity="0.60"/><ellipse cx="265" cy="217.4" rx="42" ry="11" fill="#4a7e2a" opacity="0.4"/><g class="mini-roots"><line x1="265" y1="287" x2="267.02384039295083" y2="409.9672245518152" stroke="#7a6030" stroke-width="16.0" stroke-linecap="round" opacity="0.85"/><path d="M265 287 Q300 310 338 335" fill="none" stroke="#7a6030" stroke-width="10.8" stroke-linecap="round" opacity="0.75"/><path d="M265 287 Q291 315 313 344" fill="none" stroke="#7a6030" stroke-width="9.2" stroke-linecap="round" opacity="0.75"/><path d="M265 287 Q275 310 299 335" fill="none" stroke="#7a6030" stroke-width="9.4" stroke-linecap="round" opacity="0.75"/><path d="M265 287 Q276 329 309 373" fill="none" stroke="#7a6030" stroke-width="6.7" stroke-linecap="round" opacity="0.75"/><path d="M265 287 Q267 329 286 372" fill="none" stroke="#7a6030" stroke-width="4.0" stroke-linecap="round" opacity="0.75"/><path d="M265 287 Q267 326 275 367" fill="none" stroke="#7a6030" stroke-width="3.3" stroke-linecap="round" opacity="0.75"/><path d="M265 287 Q265 328 255 371" fill="none" stroke="#7a6030" stroke-width="9.4" stroke-linecap="round" opacity="0.75"/><path d="M265 287 Q253 324 236 363" fill="none" stroke="#7a6030" stroke-width="5.8" stroke-linecap="round" opacity="0.75"/><path d="M265 287 Q243 355 193 425" fill="none" stroke="#7a6030" stroke-width="7.3" stroke-linecap="round" opacity="0.75"/><path d="M265 287 Q248 319 225 352" fill="none" stroke="#7a6030" stroke-width="6.6" stroke-linecap="round" opacity="0.75"/><path d="M265 287 Q215 341 148 397" fill="none" stroke="#7a6030" stroke-width="7.0" stroke-linecap="round" opacity="0.75"/><path d="M265 287 Q241 313 194 341" fill="none" stroke="#7a6030" stroke-width="10.4" stroke-linecap="round" opacity="0.75"/></g></svg>