<svg xmlns="http://www.w3.org/2000/svg" viewBox="0 0 530 540"><path d="M251 289 Q253.8 238.5 260.5 130 L269.5 130 Q276.2 238.5 279 289 Z" fill="#5a4228" opacity="0.9"/><ellipse cx="264" cy="81" rx="39" ry="27" fill="#c8b43a" opacity="0.74"/><ellipse cx="254" cy="121" rx="40" ry="31" fill="#b8c44a" opacity="0.74"/><ellipse cx="285" cy="88" rx="33" ry="21" fill="#6a9e3e" opacity="0.71"/><ellipse cx="253" cy="75" rx="37" ry="35" fill="#d4aa30" opacity="0.81"/><ellipse cx="285" cy="81" rx="27" ry="19" fill="#8aba52" opacity="0.66"/><ellipse cx="265" cy="91" rx="20" ry="33" fill="#3a6e22" opacity="0.4"/><g class="mini-roots"><line x1="265" y1="287" x2="268.49087186133994" y2="411.9326438526309" stroke="#7a6030" stroke-width="16.0" stroke-linecap="round" opacity="0.85"/><path d="M265 287 Q296 312 340 339" fill="none" stroke="#7a6030" stroke-width="10.0" stroke-linecap="round" opacity="0.75"/><path d="M265 287 Q295 333 354 380" fill="none" stroke="#7a6030" stroke-width="5.6" stroke-linecap="round" opacity="0.75"/><path d="M265 287 Q298 347 344 410" fill="none" stroke="#7a6030" stroke-width="4.5" stroke-linecap="round" opacity="0.75"/><path d="M265 287 Q285 333 317 381" fill="none" stroke="#7a6030" stroke-width="5.5" stroke-linecap="round" opacity="0.75"/><path d="M265 287 Q270 332 299 380" fill="none" stroke="#7a6030" stroke-width="11.5" stroke-linecap="round" opacity="0.75"/><path d="M265 287 Q264 335 269 386" fill="none" stroke="#7a6030" stroke-width="9.6" stroke-linecap="round" opacity="0.75"/><path d="M265 287 Q263 319 254 353" fill="none" stroke="#7a6030" stroke-width="8.8" stroke-linecap="round" opacity="0.75"/><path d="M265 287 Q257 340 240 396" fill="none" stroke="#7a6030" stroke-width="11.9" stroke-linecap="round" opacity="0.75"/><path d="M265 287 Q241 343 214 401" fill="none" stroke="#7a6030" stroke-width="9.8" stroke-linecap="round" opacity="0.75"/><path d="M265 287 Q244 322 224 359" fill="none" stroke="#7a6030" stroke-width="6.8" stroke-linecap="round" opacity="0.75"/><path d="M265 287 Q231 331 177 377" fill="none" stroke="#7a6030" stroke-width="5.3" stroke-linecap="round" opacity="0.75"/><path d="M265 287 Q218 324 159 363" fill="none" stroke="#7a6030" stroke-width="8.0" stroke-linecap="round" opacity="0.75"/></g></svg>