<svg xmlns="http://www.w3.org/2000/svg" viewBox="0 0 530 540"><path d="M255 289 Q257 253.5 261.5 180 L268.5 180 Q273 253.5 275 289 Z" fill="#5a4228" opacity="0.9"/><ellipse cx="276" cy="143" rx="45" ry="36" fill="#9ac45c" opacity="0.58"/><ellipse cx="253" cy="140" rx="45" ry="36" fill="#4a7e2a" opacity="0.81"/><ellipse cx="266" cy="147" rx="49" ry="33" fill="#d4aa30" opacity="0.58"/><ellipse cx="264" cy="135" rx="37" ry="35" fill="#8aba52" opacity="0.74"/><ellipse cx="279" cy="138" rx="43" ry="31" fill="#3a6e22" opacity="0.70"/><ellipse cx="265" cy="154.2" rx="20" ry="22" fill="#6a9e3e" opacity="0.4"/><g class="mini-roots"><line x1="265" y1="287" x2="262.6485043846297" y2="396.85398292534705" stroke="#7a6030" stroke-width="16.0" stroke-linecap="round" opacity="0.85"/><path d="M265 287 Q289 309 321 333" fill="none" stroke="#7a6030" stroke-width="10.3" stroke-linecap="round" opacity="0.75"/><path d="M265 287 Q293 320 337 356" fill="none" stroke="#7a6030" stroke-width="11.5" stroke-linecap="round" opacity="0.75"/><path d="M265 287 Q279 318 316 351" fill="none" stroke="#7a6030" stroke-width="7.8" stroke-linecap="round" opacity="0.75"/><path d="M265 287 Q281 341 321 397" fill="none" stroke="#7a6030" stroke-width="7.8" stroke-linecap="round" opacity="0.75"/><path d="M265 287 Q270 332 290 379" fill="none" stroke="#7a6030" stroke-width="7.2" stroke-linecap="round" opacity="0.75"/><path d="M265 287 Q270 354 275 424" fill="none" stroke="#7a6030" stroke-width="4.9" stroke-linecap="round" opacity="0.75"/><path d="M265 287 Q259 358 261 432" fill="none" stroke="#7a6030" stroke-width="8.1" stroke-linecap="round" opacity="0.75"/><path d="M265 287 Q261 320 249 354" fill="none" stroke="#7a6030" stroke-width="7.6" stroke-linecap="round" opacity="0.75"/><path d="M265 287 Q254 318 234 351" fill="none" stroke="#7a6030" stroke-width="7.0" stroke-linecap="round" opacity="0.75"/><path d="M265 287 Q232 332 200 380" fill="none" stroke="#7a6030" stroke-width="9.1" stroke-linecap="round" opacity="0.75"/><path d="M265 287 Q223 341 154 397" fill="none" stroke="#7a6030" stroke-width="8.0" stroke-linecap="round" opacity="0.75"/><path d="M265 287 Q245 302 228 319" fill="none" stroke="#7a6030" stroke-width="9.8" stroke-linecap="round" opacity="0.75"/></g></svg>