<svg xmlns="http://www.w3.org/2000/svg" viewBox="0 0 530 540"><path d="M255 289 Q257 253.5 261.5 180 L268.5 180 Q273 253.5 275 289 Z" fill="#5a4228" opacity="0.9"/><ellipse cx="292" cy="140" rx="62" ry="53" fill="#5a8e34" opacity="0.79"/><ellipse cx="235" cy="134" rx="82" ry="67" fill="#5a8e34" opacity="0.60"/><ellipse cx="261" cy="144" rx="55" ry="39" fill="#d4aa30" opacity="0.78"/><ellipse cx="299" cy="158" rx="58" ry="54" fill="#8aba52" opacity="0.62"/><ellipse cx="263" cy="173" rx="81" ry="49" fill="#9ac45c" opacity="0.72"/><ellipse cx="265" cy="154.2" rx="35" ry="22" fill="#7aae48" opacity="0.4"/><g class="mini-roots"><line x1="265" y1="287" x2="268.46696141709896" y2="421.4258226791517" stroke="#7a6030" stroke-width="16.0" stroke-linecap="round" opacity="0.85"/><path d="M265 287 Q287 304 309 323" fill="none" stroke="#7a6030" stroke-width="4.8" stroke-linecap="round" opacity="0.75"/><path d="M265 287 Q295 329 353 372" fill="none" stroke="#7a6030" stroke-width="5.1" stroke-linecap="round" opacity="0.75"/><path d="M265 287 Q288 323 312 361" fill="none" stroke="#7a6030" stroke-width="3.1" stroke-linecap="round" opacity="0.75"/><path d="M265 287 Q275 327 297 369" fill="none" stroke="#7a6030" stroke-width="5.4" stroke-linecap="round" opacity="0.75"/><path d="M265 287 Q275 355 306 424" fill="none" stroke="#7a6030" stroke-width="10.4" stroke-linecap="round" opacity="0.75"/><path d="M265 287 Q268 359 270 434" fill="none" stroke="#7a6030" stroke-width="4.8" stroke-linecap="round" opacity="0.75"/><path d="M265 287 Q267 326 264 366" fill="none" stroke="#7a6030" stroke-width="4.6" stroke-linecap="round" opacity="0.75"/><path d="M265 287 Q252 349 231 412" fill="none" stroke="#7a6030" stroke-width="8.1" stroke-linecap="round" opacity="0.75"/><path d="M265 287 Q242 334 221 383" fill="none" stroke="#7a6030" stroke-width="12.0" stroke-linecap="round" opacity="0.75"/><path d="M265 287 Q257 306 241 327" fill="none" stroke="#7a6030" stroke-width="3.4" stroke-linecap="round" opacity="0.75"/><path d="M265 287 Q228 327 175 369" fill="none" stroke="#7a6030" stroke-width="9.2" stroke-linecap="round" opacity="0.75"/><path d="M265 287 Q218 325 153 364" fill="none" stroke="#7a6030" stroke-width="9.1" stroke-linecap="round" opacity="0.75"/></g></svg>