<svg xmlns="http://www.w3.org/2000/svg" viewBox="0 0 530 540"><path d="M259 289 Q260.2 268.5 262.5 230 L267.5 230 Q269.8 268.5 271 289 Z" fill="#5a4228" opacity="0.9"/><ellipse cx="255" cy="221" rx="48" ry="44" fill="#5a8e34" opacity="0.64"/><ellipse cx="274" cy="208" rx="45" ry="33" fill="#3a6e22" opacity="0.63"/><ellipse cx="246" cy="227" rx="48" ry="47" fill="#b8c44a" opacity="0.57"/><ellipse cx="265" cy="217.4" rx="20" ry="11" fill="#7aae48" opacity="0.4"/><g class="mini-roots"><line x1="265" y1="287" x2="261.21876552338654" y2="402.98520334343664" stroke="#7a6030" stroke-width="16.0" stroke-linecap="round" opacity="0.85"/><path d="M265 287 Q300 319 359 353" fill="none" stroke="#7a6030" stroke-width="9.4" stroke-linecap="round" opacity="0.75"/><path d="M265 287 Q302 327 355 368" fill="none" stroke="#7a6030" stroke-width="10.9" stroke-linecap="round" opacity="0.75"/><path d="M265 287 Q292 327 317 369" fill="none" stroke="#7a6030" stroke-width="12.0" stroke-linecap="round" opacity="0.75"/><path d="M265 287 Q278 331 311 378" fill="none" stroke="#7a6030" stroke-width="5.2" stroke-linecap="round" opacity="0.75"/><path d="M265 287 Q279 326 294 367" fill="none" stroke="#7a6030" stroke-width="7.9" stroke-linecap="round" opacity="0.75"/><path d="M265 287 Q267 363 279 440" fill="none" stroke="#7a6030" stroke-width="5.4" stroke-linecap="round" opacity="0.75"/><path d="M265 287 Q266 332 250 378" fill="none" stroke="#7a6030" stroke-width="6.8" stroke-linecap="round" opacity="0.75"/><path d="M265 287 Q252 319 247 353" fill="none" stroke="#7a6030" stroke-width="3.6" stroke-linecap="round" opacity="0.75"/><path d="M265 287 Q246 338 225 392" fill="none" stroke="#7a6030" stroke-width="4.6" stroke-linecap="round" opacity="0.75"/><path d="M265 287 Q234 345 186 405" fill="none" stroke="#7a6030" stroke-width="6.0" stroke-linecap="round" opacity="0.75"/><path d="M265 287 Q254 303 222 321" fill="none" stroke="#7a6030" stroke-width="8.6" stroke-linecap="round" opacity="0.75"/><path d="M265 287 Q238 311 189 338" fill="none" stroke="#7a6030" stroke-width="7.8" stroke-linecap="round" opacity="0.75"/></g></svg>