<svg xmlns="http://www.w3.org/2000/svg" viewBox="0 0 530 540"><path d="M257 289 Q258.6 261 262 205 L268 205 Q271.4 261 273 289 Z" fill="#5a4228" opacity="0.9"/><ellipse cx="242" cy="199" rx="57" ry="51" fill="#5a8e34" opacity="0.71"/><ellipse cx="259" cy="187" rx="63" ry="62" fill="#9ac45c" opacity="0.62"/><ellipse cx="251" cy="174" rx="54" ry="34" fill="#c8b43a" opacity="0.82"/><ellipse cx="264" cy="186" rx="41" ry="36" fill="#4a7e2a" opacity="0.82"/><ellipse cx="265" cy="185.8" rx="28" ry="16" fill="#5a8e34" opacity="0.4"/><g class="mini-roots"><line x1="265" y1="287" x2="263.9973099469195" y2="393.89855321352303" stroke="#7a6030" stroke-width="16.0" stroke-linecap="round" opacity="0.85"/><path d="M265 287 Q322 331 392 377" fill="none" stroke="#7a6030" stroke-width="4.8" stroke-linecap="round" opacity="0.75"/><path d="M265 287 Q291 324 346 362" fill="none" stroke="#7a6030" stroke-width="6.1" stroke-linecap="round" opacity="0.75"/><path d="M265 287 Q284 322 325 359" fill="none" stroke="#7a6030" stroke-width="10.9" stroke-linecap="round" opacity="0.75"/><path d="M265 287 Q281 345 313 405" fill="none" stroke="#7a6030" stroke-width="3.3" stroke-linecap="round" opacity="0.75"/><path d="M265 287 Q278 356 300 427" fill="none" stroke="#7a6030" stroke-width="7.2" stroke-linecap="round" opacity="0.75"/><path d="M265 287 Q268 345 276 406" fill="none" stroke="#7a6030" stroke-width="11.4" stroke-linecap="round" opacity="0.75"/><path d="M265 287 Q266 316 265 347" fill="none" stroke="#7a6030" stroke-width="8.8" stroke-linecap="round" opacity="0.75"/><path d="M265 287 Q251 337 240 388" fill="none" stroke="#7a6030" stroke-width="11.6" stroke-linecap="round" opacity="0.75"/><path d="M265 287 Q254 318 243 351" fill="none" stroke="#7a6030" stroke-width="9.6" stroke-linecap="round" opacity="0.75"/><path d="M265 287 Q252 317 221 348" fill="none" stroke="#7a6030" stroke-width="8.5" stroke-linecap="round" opacity="0.75"/><path d="M265 287 Q238 321 191 356" fill="none" stroke="#7a6030" stroke-width="11.2" stroke-linecap="round" opacity="0.75"/><path d="M265 287 Q220 320 168 356" fill="none" stroke="#7a6030" stroke-width="7.4" stroke-linecap="round" opacity="0.75"/></g></svg>