<svg xmlns="http://www.w3.org/2000/svg" viewBox="0 0 530 540"><path d="M251 289 Q253.8 238.5 260.5 130 L269.5 130 Q276.2 238.5 279 289 Z" fill="#5a4228" opacity="0.9"/><ellipse cx="293" cy="104" rx="70" ry="68" fill="#7aae48" opacity="0.82"/><ellipse cx="304" cy="63" rx="58" ry="49" fill="#6a9e3e" opacity="0.82"/><ellipse cx="257" cy="110" rx="82" ry="51" fill="#9ac45c" opacity="0.83"/><ellipse cx="265" cy="91" rx="42" ry="33" fill="#7aae48" opacity="0.4"/><g class="mini-roots"><line x1="265" y1="287" x2="268.43776392910524" y2="419.5865786031757" stroke="#7a6030" stroke-width="16.0" stroke-linecap="round" opacity="0.85"/><path d="M265 287 Q309 326 384 367" fill="none" stroke="#7a6030" stroke-width="5.1" stroke-linecap="round" opacity="0.75"/><path d="M265 287 Q285 315 330 345" fill="none" stroke="#7a6030" stroke-width="9.7" stroke-linecap="round" opacity="0.75"/><path d="M265 287 Q278 306 297 328" fill="none" stroke="#7a6030" stroke-width="8.8" stroke-linecap="round" opacity="0.75"/><path d="M265 287 Q274 324 292 362" fill="none" stroke="#7a6030" stroke-width="7.2" stroke-linecap="round" opacity="0.75"/><path d="M265 287 Q284 358 304 432" fill="none" stroke="#7a6030" stroke-width="4.8" stroke-linecap="round" opacity="0.75"/><path d="M265 287 Q264 349 278 412" fill="none" stroke="#7a6030" stroke-width="5.1" stroke-linecap="round" opacity="0.75"/><path d="M265 287 Q263 364 261 443" fill="none" stroke="#7a6030" stroke-width="8.3" stroke-linecap="round" opacity="0.75"/><path d="M265 287 Q264 315 251 346" fill="none" stroke="#7a6030" stroke-width="6.7" stroke-linecap="round" opacity="0.75"/><path d="M265 287 Q248 316 246 348" fill="none" stroke="#7a6030" stroke-width="4.6" stroke-linecap="round" opacity="0.75"/><path d="M265 287 Q251 307 235 329" fill="none" stroke="#7a6030" stroke-width="4.8" stroke-linecap="round" opacity="0.75"/><path d="M265 287 Q238 323 187 361" fill="none" stroke="#7a6030" stroke-width="5.5" stroke-linecap="round" opacity="0.75"/><path d="M265 287 Q245 302 212 318" fill="none" stroke="#7a6030" stroke-width="10.4" stroke-linecap="round" opacity="0.75"/></g></svg>