<svg xmlns="http://www.w3.org/2000/svg" viewBox="0 0 530 540"><path d="M257 289 Q258.6 261 262 205 L268 205 Q271.4 261 273 289 Z" fill="#5a4228" opacity="0.9"/><ellipse cx="267" cy="185" rx="25" ry="19" fill="#9ac45c" opacity="0.65"/><ellipse cx="275" cy="190" rx="30" ry="19" fill="#b8c44a" opacity="0.80"/><ellipse cx="271" cy="185" rx="27" ry="20" fill="#d4aa30" opacity="0.83"/><ellipse cx="278" cy="174" rx="27" ry="26" fill="#d4aa30" opacity="0.84"/><ellipse cx="265" cy="185.8" rx="13" ry="16" fill="#7aae48" opacity="0.4"/><g class="mini-roots"><line x1="265" y1="287" x2="262.43527801774223" y2="418.087916443631" stroke="#7a6030" stroke-width="16.0" stroke-linecap="round" opacity="0.85"/><path d="M265 287 Q295 310 335 336" fill="none" stroke="#7a6030" stroke-width="6.9" stroke-linecap="round" opacity="0.75"/><path d="M265 287 Q303 328 351 371" fill="none" stroke="#7a6030" stroke-width="10.2" stroke-linecap="round" opacity="0.75"/><path d="M265 287 Q298 337 329 390" fill="none" stroke="#7a6030" stroke-width="3.1" stroke-linecap="round" opacity="0.75"/><path d="M265 287 Q282 335 310 384" fill="none" stroke="#7a6030" stroke-width="9.9" stroke-linecap="round" opacity="0.75"/><path d="M265 287 Q271 317 285 349" fill="none" stroke="#7a6030" stroke-width="6.6" stroke-linecap="round" opacity="0.75"/><path d="M265 287 Q273 323 277 361" fill="none" stroke="#7a6030" stroke-width="6.7" stroke-linecap="round" opacity="0.75"/><path d="M265 287 Q266 315 269 345" fill="none" stroke="#7a6030" stroke-width="9.4" stroke-linecap="round" opacity="0.75"/><path d="M265 287 Q249 360 228 435" fill="none" stroke="#7a6030" stroke-width="11.5" stroke-linecap="round" opacity="0.75"/><path d="M265 287 Q247 334 212 383" fill="none" stroke="#7a6030" stroke-width="7.8" stroke-linecap="round" opacity="0.75"/><path d="M265 287 Q236 342 183 400" fill="none" stroke="#7a6030" stroke-width="8.7" stroke-linecap="round" opacity="0.75"/><path d="M265 287 Q230 324 186 363" fill="none" stroke="#7a6030" stroke-width="10.6" stroke-linecap="round" opacity="0.75"/><path d="M265 287 Q222 318 164 352" fill="none" stroke="#7a6030" stroke-width="5.6" stroke-linecap="round" opacity="0.75"/></g></svg>