<svg xmlns="http://www.w3.org/2000/svg" viewBox="0 0 530 540"><path d="M255 289 Q257 253.5 261.5 180 L268.5 180 Q273 253.5 275 289 Z" fill="#5a4228" opacity="0.9"/><ellipse cx="248" cy="142" rx="62" ry="39" fill="#7aae48" opacity="0.67"/><ellipse cx="271" cy="137" rx="69" ry="53" fill="#3a6e22" opacity="0.84"/><ellipse cx="292" cy="155" rx="41" ry="36" fill="#7aae48" opacity="0.61"/><ellipse cx="283" cy="162" rx="56" ry="47" fill="#7aae48" opacity="0.59"/><ellipse cx="265" cy="154.2" rx="28" ry="22" fill="#4a7e2a" opacity="0.4"/><g class="mini-roots"><line x1="265" y1="287" x2="266.98834485466983" y2="428.92217112328956" stroke="#7a6030" stroke-width="16.0" stroke-linecap="round" opacity="0.85"/><path d="M265 287 Q313 324 382 364" fill="none" stroke="#7a6030" stroke-width="7.4" stroke-linecap="round" opacity="0.75"/><path d="M265 287 Q279 303 303 321" fill="none" stroke="#7a6030" stroke-width="6.7" stroke-linecap="round" opacity="0.75"/><path d="M265 287 Q293 335 336 386" fill="none" stroke="#7a6030" stroke-width="10.6" stroke-linecap="round" opacity="0.75"/><path d="M265 287 Q287 344 315 404" fill="none" stroke="#7a6030" stroke-width="5.9" stroke-linecap="round" opacity="0.75"/><path d="M265 287 Q284 356 312 426" fill="none" stroke="#7a6030" stroke-width="10.1" stroke-linecap="round" opacity="0.75"/><path d="M265 287 Q273 364 278 442" fill="none" stroke="#7a6030" stroke-width="6.5" stroke-linecap="round" opacity="0.75"/><path d="M265 287 Q257 329 265 373" fill="none" stroke="#7a6030" stroke-width="10.1" stroke-linecap="round" opacity="0.75"/><path d="M265 287 Q248 354 231 423" fill="none" stroke="#7a6030" stroke-width="5.8" stroke-linecap="round" opacity="0.75"/><path d="M265 287 Q249 323 236 362" fill="none" stroke="#7a6030" stroke-width="4.8" stroke-linecap="round" opacity="0.75"/><path d="M265 287 Q229 347 189 408" fill="none" stroke="#7a6030" stroke-width="10.8" stroke-linecap="round" opacity="0.75"/><path d="M265 287 Q214 342 149 399" fill="none" stroke="#7a6030" stroke-width="10.8" stroke-linecap="round" opacity="0.75"/><path d="M265 287 Q236 312 188 339" fill="none" stroke="#7a6030" stroke-width="9.8" stroke-linecap="round" opacity="0.75"/></g></svg>