<svg xmlns="http://www.w3.org/2000/svg" viewBox="0 0 530 540"><path d="M251 289 Q253.8 238.5 260.5 130 L269.5 130 Q276.2 238.5 279 289 Z" fill="#5a4228" opacity="0.9"/><ellipse cx="283" cy="104" rx="63" ry="44" fill="#7aae48" opacity="0.84"/><ellipse cx="255" cy="66" rx="54" ry="41" fill="#3a6e22" opacity="0.60"/><ellipse cx="268" cy="111" rx="56" ry="42" fill="#5a8e34" opacity="0.83"/><ellipse cx="272" cy="113" rx="64" ry="61" fill="#c8b43a" opacity="0.57"/><ellipse cx="265" cy="91" rx="28" ry="33" fill="#7aae48" opacity="0.4"/><g class="mini-roots"><line x1="265" y1="287" x2="267.4922887266112" y2="415.85922256990295" stroke="#7a6030" stroke-width="16.0" stroke-linecap="round" opacity="0.85"/><path d="M265 287 Q304 315 338 345" fill="none" stroke="#7a6030" stroke-width="6.0" stroke-linecap="round" opacity="0.75"/><path d="M265 287 Q296 324 332 362" fill="none" stroke="#7a6030" stroke-width="7.9" stroke-linecap="round" opacity="0.75"/><path d="M265 287 Q283 306 287 326" fill="none" stroke="#7a6030" stroke-width="9.5" stroke-linecap="round" opacity="0.75"/><path d="M265 287 Q285 346 330 408" fill="none" stroke="#7a6030" stroke-width="3.7" stroke-linecap="round" opacity="0.75"/><path d="M265 287 Q270 332 281 378" fill="none" stroke="#7a6030" stroke-width="9.5" stroke-linecap="round" opacity="0.75"/><path d="M265 287 Q276 360 271 434" fill="none" stroke="#7a6030" stroke-width="8.3" stroke-linecap="round" opacity="0.75"/><path d="M265 287 Q257 345 255 405" fill="none" stroke="#7a6030" stroke-width="7.1" stroke-linecap="round" opacity="0.75"/><path d="M265 287 Q255 335 232 384" fill="none" stroke="#7a6030" stroke-width="9.8" stroke-linecap="round" opacity="0.75"/><path d="M265 287 Q257 320 232 356" fill="none" stroke="#7a6030" stroke-width="10.9" stroke-linecap="round" opacity="0.75"/><path d="M265 287 Q236 340 193 396" fill="none" stroke="#7a6030" stroke-width="8.4" stroke-linecap="round" opacity="0.75"/><path d="M265 287 Q227 336 173 387" fill="none" stroke="#7a6030" stroke-width="6.2" stroke-linecap="round" opacity="0.75"/><path d="M265 287 Q227 321 156 357" fill="none" stroke="#7a6030" stroke-width="7.9" stroke-linecap="round" opacity="0.75"/></g></svg>