<svg xmlns="http://www.w3.org/2000/svg" viewBox="0 0 530 540"><path d="M257 289 Q258.6 261 262 205 L268 205 Q271.4 261 273 289 Z" fill="#5a4228" opacity="0.9"/><ellipse cx="284" cy="198" rx="55" ry="39" fill="#d4aa30" opacity="0.83"/><ellipse cx="289" cy="185" rx="75" ry="47" fill="#c8b43a" opacity="0.68"/><ellipse cx="278" cy="197" rx="71" ry="61" fill="#5a8e34" opacity="0.69"/><ellipse cx="275" cy="183" rx="82" ry="81" fill="#5a8e34" opacity="0.85"/><ellipse cx="269" cy="176" rx="65" ry="45" fill="#6a9e3e" opacity="0.59"/><ellipse cx="265" cy="185.8" rx="35" ry="16" fill="#7aae48" opacity="0.4"/><g class="mini-roots"><line x1="265" y1="287" x2="267.89727329411414" y2="398.0325092901627" stroke="#7a6030" stroke-width="16.0" stroke-linecap="round" opacity="0.85"/><path d="M265 287 Q293 309 337 334" fill="none" stroke="#7a6030" stroke-width="11.1" stroke-linecap="round" opacity="0.75"/><path d="M265 287 Q287 304 306 324" fill="none" stroke="#7a6030" stroke-width="4.1" stroke-linecap="round" opacity="0.75"/><path d="M265 287 Q281 318 306 352" fill="none" stroke="#7a6030" stroke-width="8.9" stroke-linecap="round" opacity="0.75"/><path d="M265 287 Q291 348 329 411" fill="none" stroke="#7a6030" stroke-width="10.7" stroke-linecap="round" opacity="0.75"/><path d="M265 287 Q273 358 303 430" fill="none" stroke="#7a6030" stroke-width="8.6" stroke-linecap="round" opacity="0.75"/><path d="M265 287 Q262 351 282 418" fill="none" stroke="#7a6030" stroke-width="9.5" stroke-linecap="round" opacity="0.75"/><path d="M265 287 Q260 324 262 363" fill="none" stroke="#7a6030" stroke-width="3.6" stroke-linecap="round" opacity="0.75"/><path d="M265 287 Q247 354 235 423" fill="none" stroke="#7a6030" stroke-width="10.3" stroke-linecap="round" opacity="0.75"/><path d="M265 287 Q252 310 232 335" fill="none" stroke="#7a6030" stroke-width="6.6" stroke-linecap="round" opacity="0.75"/><path d="M265 287 Q253 307 245 329" fill="none" stroke="#7a6030" stroke-width="7.4" stroke-linecap="round" opacity="0.75"/><path d="M265 287 Q229 333 164 382" fill="none" stroke="#7a6030" stroke-width="5.6" stroke-linecap="round" opacity="0.75"/><path d="M265 287 Q243 311 196 336" fill="none" stroke="#7a6030" stroke-width="3.2" stroke-linecap="round" opacity="0.75"/></g></svg>