<svg xmlns="http://www.w3.org/2000/svg" viewBox="0 0 530 540"><path d="M259 289 Q260.2 268.5 262.5 230 L267.5 230 Q269.8 268.5 271 289 Z" fill="#5a4228" opacity="0.9"/><ellipse cx="255" cy="216" rx="81" ry="52" fill="#6a9e3e" opacity="0.83"/><ellipse cx="256" cy="209" rx="63" ry="47" fill="#8aba52" opacity="0.65"/><ellipse cx="235" cy="218" rx="86" ry="86" fill="#6a9e3e" opacity="0.81"/><ellipse cx="279" cy="222" rx="68" ry="65" fill="#3a6e22" opacity="0.63"/><ellipse cx="256" cy="218" rx="82" ry="68" fill="#d4aa30" opacity="0.64"/><ellipse cx="265" cy="217.4" rx="35" ry="11" fill="#7aae48" opacity="0.4"/><g class="mini-roots"><line x1="265" y1="287" x2="262.6724148288706" y2="387.3608040988263" stroke="#7a6030" stroke-width="16.0" stroke-linecap="round" opacity="0.85"/><path d="M265 287 Q298 317 353 348" fill="none" stroke="#7a6030" stroke-width="6.6" stroke-linecap="round" opacity="0.75"/><path d="M265 287 Q293 324 338 363" fill="none" stroke="#7a6030" stroke-width="12.0" stroke-linecap="round" opacity="0.75"/><path d="M265 287 Q303 342 348 399" fill="none" stroke="#7a6030" stroke-width="9.3" stroke-linecap="round" opacity="0.75"/><path d="M265 287 Q292 347 321 409" fill="none" stroke="#7a6030" stroke-width="7.9" stroke-linecap="round" opacity="0.75"/><path d="M265 287 Q264 310 283 335" fill="none" stroke="#7a6030" stroke-width="8.3" stroke-linecap="round" opacity="0.75"/><path d="M265 287 Q266 330 274 376" fill="none" stroke="#7a6030" stroke-width="9.7" stroke-linecap="round" opacity="0.75"/><path d="M265 287 Q254 352 252 418" fill="none" stroke="#7a6030" stroke-width="3.3" stroke-linecap="round" opacity="0.75"/><path d="M265 287 Q252 311 258 338" fill="none" stroke="#7a6030" stroke-width="11.4" stroke-linecap="round" opacity="0.75"/><path d="M265 287 Q253 327 227 370" fill="none" stroke="#7a6030" stroke-width="4.8" stroke-linecap="round" opacity="0.75"/><path d="M265 287 Q235 348 184 411" fill="none" stroke="#7a6030" stroke-width="3.6" stroke-linecap="round" opacity="0.75"/><path d="M265 287 Q257 305 233 324" fill="none" stroke="#7a6030" stroke-width="4.0" stroke-linecap="round" opacity="0.75"/><path d="M265 287 Q245 301 214 318" fill="none" stroke="#7a6030" stroke-width="8.6" stroke-linecap="round" opacity="0.75"/></g></svg>