<svg xmlns="http://www.w3.org/2000/svg" viewBox="0 0 530 540"><path d="M253 289 Q255.4 246 261 155 L269 155 Q274.6 246 277 289 Z" fill="#5a4228" opacity="0.9"/><ellipse cx="269" cy="101" rx="29" ry="21" fill="#c8b43a" opacity="0.66"/><ellipse cx="266" cy="122" rx="25" ry="23" fill="#3a6e22" opacity="0.75"/><ellipse cx="273" cy="113" rx="27" ry="26" fill="#5a8e34" opacity="0.75"/><ellipse cx="271" cy="106" rx="21" ry="19" fill="#8aba52" opacity="0.71"/><ellipse cx="265" cy="122.6" rx="13" ry="27" fill="#7aae48" opacity="0.4"/><g class="mini-roots"><line x1="265" y1="287" x2="265.54679179775843" y2="413.95931937590206" stroke="#7a6030" stroke-width="16.0" stroke-linecap="round" opacity="0.85"/><path d="M265 287 Q284 307 322 329" fill="none" stroke="#7a6030" stroke-width="4.4" stroke-linecap="round" opacity="0.75"/><path d="M265 287 Q293 316 315 346" fill="none" stroke="#7a6030" stroke-width="6.1" stroke-linecap="round" opacity="0.75"/><path d="M265 287 Q297 346 340 406" fill="none" stroke="#7a6030" stroke-width="11.4" stroke-linecap="round" opacity="0.75"/><path d="M265 287 Q278 329 309 373" fill="none" stroke="#7a6030" stroke-width="10.2" stroke-linecap="round" opacity="0.75"/><path d="M265 287 Q277 353 301 422" fill="none" stroke="#7a6030" stroke-width="5.0" stroke-linecap="round" opacity="0.75"/><path d="M265 287 Q269 331 265 378" fill="none" stroke="#7a6030" stroke-width="7.4" stroke-linecap="round" opacity="0.75"/><path d="M265 287 Q258 329 254 373" fill="none" stroke="#7a6030" stroke-width="8.3" stroke-linecap="round" opacity="0.75"/><path d="M265 287 Q256 345 232 406" fill="none" stroke="#7a6030" stroke-width="10.1" stroke-linecap="round" opacity="0.75"/><path d="M265 287 Q237 342 218 398" fill="none" stroke="#7a6030" stroke-width="6.5" stroke-linecap="round" opacity="0.75"/><path d="M265 287 Q242 327 210 370" fill="none" stroke="#7a6030" stroke-width="11.0" stroke-linecap="round" opacity="0.75"/><path d="M265 287 Q241 323 192 361" fill="none" stroke="#7a6030" stroke-width="3.7" stroke-linecap="round" opacity="0.75"/><path d="M265 287 Q220 329 147 373" fill="none" stroke="#7a6030" stroke-width="5.1" stroke-linecap="round" opacity="0.75"/></g></svg>