<svg xmlns="http://www.w3.org/2000/svg" viewBox="0 0 530 540"><path d="M253 289 Q255.4 246 261 155 L269 155 Q274.6 246 277 289 Z" fill="#5a4228" opacity="0.9"/><ellipse cx="271" cy="147" rx="41" ry="27" fill="#7aae48" opacity="0.62"/><ellipse cx="285" cy="128" rx="41" ry="25" fill="#b8c44a" opacity="0.59"/><ellipse cx="276" cy="146" rx="33" ry="28" fill="#5a8e34" opacity="0.79"/><ellipse cx="265" cy="122.6" rx="20" ry="27" fill="#3a6e22" opacity="0.4"/><g class="mini-roots"><line x1="265" y1="287" x2="261.07996445152907" y2="424.4105122738567" stroke="#7a6030" stroke-width="16.0" stroke-linecap="round" opacity="0.85"/><path d="M265 287 Q323 332 392 379" fill="none" stroke="#7a6030" stroke-width="5.7" stroke-linecap="round" opacity="0.75"/><path d="M265 287 Q294 318 329 350" fill="none" stroke="#7a6030" stroke-width="5.8" stroke-linecap="round" opacity="0.75"/><path d="M265 287 Q272 308 303 331" fill="none" stroke="#7a6030" stroke-width="10.3" stroke-linecap="round" opacity="0.75"/><path d="M265 287 Q280 330 311 375" fill="none" stroke="#7a6030" stroke-width="7.7" stroke-linecap="round" opacity="0.75"/><path d="M265 287 Q276 354 305 423" fill="none" stroke="#7a6030" stroke-width="10.5" stroke-linecap="round" opacity="0.75"/><path d="M265 287 Q273 319 277 353" fill="none" stroke="#7a6030" stroke-width="4.6" stroke-linecap="round" opacity="0.75"/><path d="M265 287 Q267 313 259 342" fill="none" stroke="#7a6030" stroke-width="4.2" stroke-linecap="round" opacity="0.75"/><path d="M265 287 Q247 335 234 385" fill="none" stroke="#7a6030" stroke-width="5.3" stroke-linecap="round" opacity="0.75"/><path d="M265 287 Q240 341 205 397" fill="none" stroke="#7a6030" stroke-width="9.7" stroke-linecap="round" opacity="0.75"/><path d="M265 287 Q240 344 191 404" fill="none" stroke="#7a6030" stroke-width="7.2" stroke-linecap="round" opacity="0.75"/><path d="M265 287 Q242 315 217 344" fill="none" stroke="#7a6030" stroke-width="9.9" stroke-linecap="round" opacity="0.75"/><path d="M265 287 Q224 324 166 363" fill="none" stroke="#7a6030" stroke-width="10.6" stroke-linecap="round" opacity="0.75"/></g></svg>