<svg xmlns="http://www.w3.org/2000/svg" viewBox="0 0 530 540"><g transform="translate(255,288) rotate(131)"><path d="M0,0 Q5,5 0,13 Q-5,5 0,0 Z" fill="#8aba52" opacity="0.78"/><line x1="0" y1="0" x2="0" y2="13" stroke="rgba(60,90,30,0.3)" stroke-width="0.5"/></g><g transform="translate(246,279) rotate(77)"><path d="M0,0 Q7,7 0,18 Q-7,7 0,0 Z" fill="#4a7e2a" opacity="0.68"/><line x1="0" y1="0" x2="0" y2="18" stroke="rgba(60,90,30,0.3)" stroke-width="0.5"/></g><g transform="translate(269,283) rotate(237)"><path d="M0,0 Q3,3 0,9 Q-3,3 0,0 Z" fill="#6a9e3e" opacity="0.72"/><line x1="0" y1="0" x2="0" y2="9" stroke="rgba(60,90,30,0.3)" stroke-width="0.5"/></g><g transform="translate(268,284) rotate(58)"><path d="M0,0 Q3,3 0,9 Q-3,3 0,0 Z" fill="#3a6e22" opacity="0.64"/><line x1="0" y1="0" x2="0" y2="9" stroke="rgba(60,90,30,0.3)" stroke-width="0.5"/></g><g transform="translate(261,280) rotate(31)"><path d="M0,0 Q6,7 0,18 Q-6,7 0,0 Z" fill="#9ac45c" opacity="0.78"/><line x1="0" y1="0" x2="0" y2="18" stroke="rgba(60,90,30,0.3)" stroke-width="0.5"/></g><g transform="translate(250,279) rotate(348)"><path d="M0,0 Q7,8 0,19 Q-7,8 0,0 Z" fill="#3a6e22" opacity="0.80"/><line x1="0" y1="0" x2="0" y2="19" stroke="rgba(60,90,30,0.3)" stroke-width="0.5"/></g><g transform="translate(246,276) rotate(3)"><path d="M0,0 Q6,7 0,18 Q-6,7 0,0 Z" fill="#d4aa30" opacity="0.71"/><line x1="0" y1="0" x2="0" y2="18" stroke="rgba(60,90,30,0.3)" stroke-width="0.5"/></g><g transform="translate(272,278) rotate(52)"><path d="M0,0 Q5,6 0,14 Q-5,6 0,0 Z" fill="#7aae48" opacity="0.77"/><line x1="0" y1="0" x2="0" y2="14" stroke="rgba(60,90,30,0.3)" stroke-width="0.5"/></g><g transform="translate(267,283) rotate(211)"><path d="M0,0 Q5,5 0,13 Q-5,5 0,0 Z" fill="#d4aa30" opacity="0.62"/><line x1="0" y1="0" x2="0" y2="13" stroke="rgba(60,90,30,0.3)" stroke-width="0.5"/></g><g transform="translate(256,283) rotate(244)"><path d="M0,0 Q4,4 0,9 Q-4,4 0,0 Z" fill="#b8c44a" opacity="0.58"/><line x1="0" y1="0" x2="0" y2="9" stroke="rgba(60,90,30,0.3)" stroke-width="0.5"/></g><g transform="translate(274,278) rotate(25)"><path d="M0,0 Q2,3 0,8 Q-2,3 0,0 Z" fill="#c8b43a" opacity="0.58"/><line x1="0" y1="0" x2="0" y2="8" stroke="rgba(60,90,30,0.3)" stroke-width="0.5"/></g><g transform="translate(289,279) rotate(159)"><path d="M0,0 Q8,8 0,20 Q-8,8 0,0 Z" fill="#d4aa30" opacity="0.83"/><line x1="0" y1="0" x2="0" y2="20" stroke="rgba(60,90,30,0.3)" stroke-width="0.5"/></g><g transform="translate(255,279) rotate(227)"><path d="M0,0 Q5,6 0,14 Q-5,6 0,0 Z" fill="#b8c44a" opacity="0.63"/><line x1="0" y1="0" x2="0" y2="14" stroke="rgba(60,90,30,0.3)" stroke-width="0.5"/></g><g transform="translate(252,288) rotate(132)"><path d="M0,0 Q7,8 0,19 Q-7,8 0,0 Z" fill="#9ac45c" opacity="0.86"/><line x1="0" y1="0" x2="0" y2="19" stroke="rgba(60,90,30,0.3)" stroke-width="0.5"/></g><g transform="translate(245,276) rotate(299)"><path d="M0,0 Q5,6 0,16 Q-5,6 0,0 Z" fill="#5a8e34" opacity="0.55"/><line x1="0" y1="0" x2="0" y2="16" stroke="rgba(60,90,30,0.3)" stroke-width="0.5"/></g><g transform="translate(262,286) rotate(37)"><path d="M0,0 Q5,5 0,12 Q-5,5 0,0 Z" fill="#c8b43a" opacity="0.72"/><line x1="0" y1="0" x2="0" y2="12" stroke="rgba(60,90,30,0.3)" stroke-width="0.5"/></g><g transform="translate(263,282) rotate(140)"><path d="M0,0 Q8,8 0,21 Q-8,8 0,0 Z" fill="#d4aa30" opacity="0.83"/><line x1="0" y1="0" x2="0" y2="21" stroke="rgba(60,90,30,0.3)" stroke-width="0.5"/></g><g transform="translate(276,289) rotate(182)"><path d="M0,0 Q3,3 0,8 Q-3,3 0,0 Z" fill="#4a7e2a" opacity="0.56"/><line x1="0" y1="0" x2="0" y2="8" stroke="rgba(60,90,30,0.3)" stroke-width="0.5"/></g><g transform="translate(265,282) rotate(290)"><path d="M0,0 Q4,5 0,12 Q-4,5 0,0 Z" fill="#4a7e2a" opacity="0.66"/><line x1="0" y1="0" x2="0" y2="12" stroke="rgba(60,90,30,0.3)" stroke-width="0.5"/></g><g transform="translate(263,282) rotate(41)"><path d="M0,0 Q4,3 0,9 Q-4,3 0,0 Z" fill="#d4aa30" opacity="0.64"/><line x1="0" y1="0" x2="0" y2="9" stroke="rgba(60,90,30,0.3)" stroke-width="0.5"/></g></svg>