<svg xmlns="http://www.w3.org/2000/svg" viewBox="0 0 530 540"><path d="M255 289 Q257 253.5 261.5 180 L268.5 180 Q273 253.5 275 289 Z" fill="#5a4228" opacity="0.9"/><ellipse cx="264" cy="141" rx="23" ry="14" fill="#7aae48" opacity="0.69"/><ellipse cx="270" cy="136" rx="28" ry="23" fill="#6a9e3e" opacity="0.58"/><ellipse cx="277" cy="136" rx="33" ry="29" fill="#6a9e3e" opacity="0.74"/><ellipse cx="269" cy="174" rx="19" ry="12" fill="#b8c44a" opacity="0.77"/><ellipse cx="265" cy="154.2" rx="13" ry="22" fill="#7aae48" opacity="0.4"/><g class="mini-roots"><line x1="265" y1="287" x2="267.4442431099919" y2="383.0642985338645" stroke="#7a6030" stroke-width="16.0" stroke-linecap="round" opacity="0.85"/><path d="M265 287 Q304 317 346 349" fill="none" stroke="#7a6030" stroke-width="4.3" stroke-linecap="round" opacity="0.75"/><path d="M265 287 Q283 308 316 332" fill="none" stroke="#7a6030" stroke-width="9.6" stroke-linecap="round" opacity="0.75"/><path d="M265 287 Q289 324 318 363" fill="none" stroke="#7a6030" stroke-width="3.4" stroke-linecap="round" opacity="0.75"/><path d="M265 287 Q277 335 309 385" fill="none" stroke="#7a6030" stroke-width="7.4" stroke-linecap="round" opacity="0.75"/><path d="M265 287 Q265 317 273 349" fill="none" stroke="#7a6030" stroke-width="3.8" stroke-linecap="round" opacity="0.75"/><path d="M265 287 Q272 361 285 436" fill="none" stroke="#7a6030" stroke-width="11.7" stroke-linecap="round" opacity="0.75"/><path d="M265 287 Q256 358 259 430" fill="none" stroke="#7a6030" stroke-width="8.0" stroke-linecap="round" opacity="0.75"/><path d="M265 287 Q251 342 236 400" fill="none" stroke="#7a6030" stroke-width="8.2" stroke-linecap="round" opacity="0.75"/><path d="M265 287 Q253 329 219 372" fill="none" stroke="#7a6030" stroke-width="3.6" stroke-linecap="round" opacity="0.75"/><path d="M265 287 Q244 312 234 339" fill="none" stroke="#7a6030" stroke-width="6.3" stroke-linecap="round" opacity="0.75"/><path d="M265 287 Q254 303 229 321" fill="none" stroke="#7a6030" stroke-width="10.9" stroke-linecap="round" opacity="0.75"/><path d="M265 287 Q222 327 144 369" fill="none" stroke="#7a6030" stroke-width="3.3" stroke-linecap="round" opacity="0.75"/></g></svg>