<svg xmlns="http://www.w3.org/2000/svg" viewBox="0 0 530 540"><path d="M251 289 Q253.8 238.5 260.5 130 L269.5 130 Q276.2 238.5 279 289 Z" fill="#5a4228" opacity="0.9"/><ellipse cx="239" cy="107" rx="52" ry="46" fill="#b8c44a" opacity="0.73"/><ellipse cx="290" cy="72" rx="72" ry="51" fill="#c8b43a" opacity="0.84"/><ellipse cx="238" cy="62" rx="68" ry="64" fill="#c8b43a" opacity="0.67"/><ellipse cx="265" cy="91" rx="35" ry="33" fill="#5a8e34" opacity="0.4"/><g class="mini-roots"><line x1="265" y1="287" x2="262.20598408263453" y2="425.9445609510618" stroke="#7a6030" stroke-width="16.0" stroke-linecap="round" opacity="0.85"/><path d="M265 287 Q307 320 369 354" fill="none" stroke="#7a6030" stroke-width="9.8" stroke-linecap="round" opacity="0.75"/><path d="M265 287 Q299 334 356 383" fill="none" stroke="#7a6030" stroke-width="9.2" stroke-linecap="round" opacity="0.75"/><path d="M265 287 Q279 324 322 362" fill="none" stroke="#7a6030" stroke-width="11.0" stroke-linecap="round" opacity="0.75"/><path d="M265 287 Q278 339 317 393" fill="none" stroke="#7a6030" stroke-width="10.8" stroke-linecap="round" opacity="0.75"/><path d="M265 287 Q266 315 288 344" fill="none" stroke="#7a6030" stroke-width="5.3" stroke-linecap="round" opacity="0.75"/><path d="M265 287 Q275 356 268 428" fill="none" stroke="#7a6030" stroke-width="10.1" stroke-linecap="round" opacity="0.75"/><path d="M265 287 Q266 347 259 409" fill="none" stroke="#7a6030" stroke-width="9.3" stroke-linecap="round" opacity="0.75"/><path d="M265 287 Q245 351 226 417" fill="none" stroke="#7a6030" stroke-width="9.4" stroke-linecap="round" opacity="0.75"/><path d="M265 287 Q250 334 215 383" fill="none" stroke="#7a6030" stroke-width="4.8" stroke-linecap="round" opacity="0.75"/><path d="M265 287 Q239 326 215 367" fill="none" stroke="#7a6030" stroke-width="9.6" stroke-linecap="round" opacity="0.75"/><path d="M265 287 Q244 322 188 358" fill="none" stroke="#7a6030" stroke-width="8.2" stroke-linecap="round" opacity="0.75"/><path d="M265 287 Q240 301 216 317" fill="none" stroke="#7a6030" stroke-width="11.9" stroke-linecap="round" opacity="0.75"/></g></svg>