<svg xmlns="http://www.w3.org/2000/svg" viewBox="0 0 530 540"><path d="M257 289 Q258.6 261 262 205 L268 205 Q271.4 261 273 289 Z" fill="#5a4228" opacity="0.9"/><ellipse cx="260" cy="201" rx="26" ry="18" fill="#7aae48" opacity="0.59"/><ellipse cx="282" cy="190" rx="49" ry="46" fill="#7aae48" opacity="0.56"/><ellipse cx="277" cy="182" rx="38" ry="31" fill="#7aae48" opacity="0.66"/><ellipse cx="265" cy="185.8" rx="20" ry="16" fill="#4a7e2a" opacity="0.4"/><g class="mini-roots"><line x1="265" y1="287" x2="264.7819766643373" y2="410.54618265365536" stroke="#7a6030" stroke-width="16.0" stroke-linecap="round" opacity="0.85"/><path d="M265 287 Q294 314 352 344" fill="none" stroke="#7a6030" stroke-width="12.0" stroke-linecap="round" opacity="0.75"/><path d="M265 287 Q283 316 330 347" fill="none" stroke="#7a6030" stroke-width="5.3" stroke-linecap="round" opacity="0.75"/><path d="M265 287 Q303 347 353 408" fill="none" stroke="#7a6030" stroke-width="11.1" stroke-linecap="round" opacity="0.75"/><path d="M265 287 Q274 323 309 362" fill="none" stroke="#7a6030" stroke-width="7.9" stroke-linecap="round" opacity="0.75"/><path d="M265 287 Q275 359 311 432" fill="none" stroke="#7a6030" stroke-width="9.0" stroke-linecap="round" opacity="0.75"/><path d="M265 287 Q268 312 270 340" fill="none" stroke="#7a6030" stroke-width="8.6" stroke-linecap="round" opacity="0.75"/><path d="M265 287 Q255 365 251 444" fill="none" stroke="#7a6030" stroke-width="10.5" stroke-linecap="round" opacity="0.75"/><path d="M265 287 Q255 316 254 347" fill="none" stroke="#7a6030" stroke-width="5.5" stroke-linecap="round" opacity="0.75"/><path d="M265 287 Q249 346 205 406" fill="none" stroke="#7a6030" stroke-width="8.9" stroke-linecap="round" opacity="0.75"/><path d="M265 287 Q225 346 186 408" fill="none" stroke="#7a6030" stroke-width="7.0" stroke-linecap="round" opacity="0.75"/><path d="M265 287 Q230 339 164 393" fill="none" stroke="#7a6030" stroke-width="6.4" stroke-linecap="round" opacity="0.75"/><path d="M265 287 Q221 327 158 369" fill="none" stroke="#7a6030" stroke-width="4.2" stroke-linecap="round" opacity="0.75"/></g></svg>