<svg xmlns="http://www.w3.org/2000/svg" viewBox="0 0 530 540"><path d="M259 289 Q260.2 268.5 262.5 230 L267.5 230 Q269.8 268.5 271 289 Z" fill="#5a4228" opacity="0.9"/><ellipse cx="267" cy="222" rx="21" ry="15" fill="#8aba52" opacity="0.82"/><ellipse cx="258" cy="210" rx="31" ry="21" fill="#c8b43a" opacity="0.57"/><ellipse cx="267" cy="212" rx="30" ry="22" fill="#6a9e3e" opacity="0.70"/><ellipse cx="273" cy="219" rx="22" ry="16" fill="#8aba52" opacity="0.69"/><ellipse cx="258" cy="221" rx="29" ry="25" fill="#9ac45c" opacity="0.81"/><ellipse cx="265" cy="217.4" rx="13" ry="11" fill="#7aae48" opacity="0.4"/><g class="mini-roots"><line x1="265" y1="287" x2="262.7935347975202" y2="400.0127185820661" stroke="#7a6030" stroke-width="16.0" stroke-linecap="round" opacity="0.85"/><path d="M265 287 Q317 332 389 379" fill="none" stroke="#7a6030" stroke-width="8.1" stroke-linecap="round" opacity="0.75"/><path d="M265 287 Q293 313 328 341" fill="none" stroke="#7a6030" stroke-width="10.3" stroke-linecap="round" opacity="0.75"/><path d="M265 287 Q296 344 338 403" fill="none" stroke="#7a6030" stroke-width="9.7" stroke-linecap="round" opacity="0.75"/><path d="M265 287 Q266 307 294 329" fill="none" stroke="#7a6030" stroke-width="11.2" stroke-linecap="round" opacity="0.75"/><path d="M265 287 Q282 352 293 420" fill="none" stroke="#7a6030" stroke-width="11.1" stroke-linecap="round" opacity="0.75"/><path d="M265 287 Q269 343 279 402" fill="none" stroke="#7a6030" stroke-width="4.3" stroke-linecap="round" opacity="0.75"/><path d="M265 287 Q255 319 252 353" fill="none" stroke="#7a6030" stroke-width="7.7" stroke-linecap="round" opacity="0.75"/><path d="M265 287 Q253 311 252 337" fill="none" stroke="#7a6030" stroke-width="6.7" stroke-linecap="round" opacity="0.75"/><path d="M265 287 Q240 346 216 407" fill="none" stroke="#7a6030" stroke-width="11.2" stroke-linecap="round" opacity="0.75"/><path d="M265 287 Q235 334 192 383" fill="none" stroke="#7a6030" stroke-width="3.1" stroke-linecap="round" opacity="0.75"/><path d="M265 287 Q245 309 225 333" fill="none" stroke="#7a6030" stroke-width="6.8" stroke-linecap="round" opacity="0.75"/><path d="M265 287 Q234 313 194 342" fill="none" stroke="#7a6030" stroke-width="3.3" stroke-linecap="round" opacity="0.75"/></g></svg>