<svg xmlns="http://www.w3.org/2000/svg" viewBox="0 0 530 540"><g class="tree-roots"><line x1="265.0" y1="288.0" x2="265.1" y2="293.0" stroke="#a08858" stroke-width="1.7" stroke-linecap="round" opacity="0.48"/><line x1="265.0" y1="288.0" x2="260.0" y2="288.0" stroke="#a08858" stroke-width="1.7" stroke-linecap="round" opacity="0.48"/><line x1="265.1" y1="293.0" x2="264.5" y2="298.0" stroke="#a08858" stroke-width="1.6" stroke-linecap="round" opacity="0.47"/><line x1="260.0" y1="288.0" x2="255.6" y2="290.3" stroke="#a08858" stroke-width="1.6" stroke-linecap="round" opacity="0.47"/><line x1="265.1" y1="293.0" x2="270.1" y2="293.2" stroke="#a08858" stroke-width="1.6" stroke-linecap="round" opacity="0.47"/><line x1="265.0" y1="288.0" x2="270.0" y2="288.5" stroke="#a08858" stroke-width="1.6" stroke-linecap="round" opacity="0.47"/><line x1="264.5" y1="298.0" x2="264.8" y2="303.0" stroke="#a08858" stroke-width="1.5" stroke-linecap="round" opacity="0.46"/><line x1="255.6" y1="290.3" x2="251.6" y2="293.3" stroke="#a08858" stroke-width="1.5" stroke-linecap="round" opacity="0.46"/><line x1="270.1" y1="293.2" x2="274.7" y2="295.1" stroke="#a08858" stroke-width="1.5" stroke-linecap="round" opacity="0.46"/><line x1="264.5" y1="298.0" x2="259.6" y2="296.7" stroke="#a08858" stroke-width="1.5" stroke-linecap="round" opacity="0.46"/><line x1="270.0" y1="288.5" x2="275.0" y2="288.4" stroke="#a08858" stroke-width="1.5" stroke-linecap="round" opacity="0.46"/><line x1="264.8" y1="303.0" x2="265.3" y2="307.9" stroke="#a08858" stroke-width="1.4" stroke-linecap="round" opacity="0.45"/><line x1="275.0" y1="288.4" x2="279.9" y2="288.9" stroke="#a08858" stroke-width="1.4" stroke-linecap="round" opacity="0.45"/><line x1="274.7" y1="295.1" x2="279.1" y2="297.5" stroke="#a08858" stroke-width="1.4" stroke-linecap="round" opacity="0.45"/><line x1="251.6" y1="293.3" x2="247.3" y2="295.8" stroke="#a08858" stroke-width="1.4" stroke-linecap="round" opacity="0.45"/><line x1="264.8" y1="303.0" x2="266.8" y2="307.5" stroke="#a08858" stroke-width="1.4" stroke-linecap="round" opacity="0.45"/><line x1="259.6" y1="296.7" x2="256.2" y2="300.4" stroke="#a08858" stroke-width="1.4" stroke-linecap="round" opacity="0.45"/><line x1="265.3" y1="307.9" x2="265.4" y2="312.9" stroke="#a08858" stroke-width="1.4" stroke-linecap="round" opacity="0.45"/><line x1="279.9" y1="288.9" x2="284.9" y2="289.6" stroke="#a08858" stroke-width="1.4" stroke-linecap="round" opacity="0.45"/><line x1="279.1" y1="297.5" x2="283.2" y2="300.2" stroke="#a08858" stroke-width="1.4" stroke-linecap="round" opacity="0.45"/><line x1="247.3" y1="295.8" x2="242.6" y2="297.6" stroke="#a08858" stroke-width="1.4" stroke-linecap="round" opacity="0.45"/><line x1="256.2" y1="300.4" x2="253.7" y2="304.7" stroke="#a08858" stroke-width="1.4" stroke-linecap="round" opacity="0.45"/><line x1="266.8" y1="307.5" x2="271.8" y2="308.0" stroke="#a08858" stroke-width="1.4" stroke-linecap="round" opacity="0.45"/><line x1="265.3" y1="307.9" x2="260.4" y2="308.5" stroke="#a08858" stroke-width="1.3" stroke-linecap="round" opacity="0.44"/><line x1="265.4" y1="312.9" x2="265.3" y2="317.9" stroke="#a08858" stroke-width="1.3" stroke-linecap="round" opacity="0.44"/><line x1="284.9" y1="289.6" x2="289.8" y2="290.6" stroke="#a08858" stroke-width="1.3" stroke-linecap="round" opacity="0.44"/><line x1="283.2" y1="300.2" x2="286.9" y2="303.6" stroke="#a08858" stroke-width="1.3" stroke-linecap="round" opacity="0.44"/><line x1="242.6" y1="297.6" x2="238.0" y2="299.7" stroke="#a08858" stroke-width="1.3" stroke-linecap="round" opacity="0.44"/><line x1="253.7" y1="304.7" x2="250.4" y2="308.4" stroke="#a08858" stroke-width="1.3" stroke-linecap="round" opacity="0.44"/><line x1="271.8" y1="308.0" x2="275.7" y2="311.1" stroke="#a08858" stroke-width="1.3" stroke-linecap="round" opacity="0.44"/><line x1="265.4" y1="312.9" x2="260.6" y2="314.4" stroke="#a08858" stroke-width="1.3" stroke-linecap="round" opacity="0.44"/><line x1="238.0" y1="299.7" x2="233.4" y2="301.5" stroke="#a08858" stroke-width="1.3" stroke-linecap="round" opacity="0.44"/><line x1="242.6" y1="297.6" x2="240.5" y2="293.0" stroke="#a08858" stroke-width="1.3" stroke-linecap="round" opacity="0.44"/><line x1="283.2" y1="300.2" x2="286.7" y2="296.6" stroke="#a08858" stroke-width="1.3" stroke-linecap="round" opacity="0.44"/><line x1="265.3" y1="317.9" x2="266.7" y2="322.7" stroke="#a08858" stroke-width="1.2" stroke-linecap="round" opacity="0.43"/><line x1="260.4" y1="308.5" x2="256.5" y2="311.6" stroke="#a08858" stroke-width="1.2" stroke-linecap="round" opacity="0.43"/><line x1="289.8" y1="290.6" x2="294.7" y2="291.6" stroke="#a08858" stroke-width="1.2" stroke-linecap="round" opacity="0.43"/><line x1="286.9" y1="303.6" x2="290.7" y2="306.9" stroke="#a08858" stroke-width="1.2" stroke-linecap="round" opacity="0.43"/><line x1="250.4" y1="308.4" x2="246.7" y2="311.8" stroke="#a08858" stroke-width="1.2" stroke-linecap="round" opacity="0.43"/><line x1="275.7" y1="311.1" x2="278.5" y2="315.3" stroke="#a08858" stroke-width="1.2" stroke-linecap="round" opacity="0.43"/><line x1="260.6" y1="314.4" x2="257.6" y2="318.4" stroke="#a08858" stroke-width="1.2" stroke-linecap="round" opacity="0.43"/><line x1="233.4" y1="301.5" x2="228.6" y2="302.9" stroke="#a08858" stroke-width="1.2" stroke-linecap="round" opacity="0.43"/><line x1="286.7" y1="296.6" x2="291.4" y2="298.2" stroke="#a08858" stroke-width="1.2" stroke-linecap="round" opacity="0.43"/><line x1="238.0" y1="299.7" x2="235.5" y2="304.0" stroke="#a08858" stroke-width="1.2" stroke-linecap="round" opacity="0.43"/><line x1="240.5" y1="293.0" x2="236.1" y2="290.8" stroke="#a08858" stroke-width="1.2" stroke-linecap="round" opacity="0.43"/><line x1="256.5" y1="311.6" x2="253.4" y2="315.5" stroke="#a08858" stroke-width="1.1" stroke-linecap="round" opacity="0.42"/><line x1="266.7" y1="322.7" x2="269.7" y2="326.7" stroke="#a08858" stroke-width="1.1" stroke-linecap="round" opacity="0.42"/><line x1="294.7" y1="291.6" x2="299.6" y2="292.7" stroke="#a08858" stroke-width="1.1" stroke-linecap="round" opacity="0.42"/><line x1="290.7" y1="306.9" x2="294.5" y2="310.1" stroke="#a08858" stroke-width="1.1" stroke-linecap="round" opacity="0.42"/><line x1="246.7" y1="311.8" x2="242.0" y2="313.5" stroke="#a08858" stroke-width="1.1" stroke-linecap="round" opacity="0.42"/><line x1="278.5" y1="315.3" x2="282.3" y2="318.5" stroke="#a08858" stroke-width="1.1" stroke-linecap="round" opacity="0.42"/><line x1="257.6" y1="318.4" x2="255.4" y2="322.8" stroke="#a08858" stroke-width="1.1" stroke-linecap="round" opacity="0.42"/><line x1="266.7" y1="322.7" x2="262.9" y2="326.0" stroke="#a08858" stroke-width="1.1" stroke-linecap="round" opacity="0.42"/><line x1="294.5" y1="310.1" x2="299.3" y2="311.6" stroke="#a08858" stroke-width="1.1" stroke-linecap="round" opacity="0.42"/><line x1="228.6" y1="302.9" x2="223.7" y2="301.9" stroke="#a08858" stroke-width="1.1" stroke-linecap="round" opacity="0.42"/><line x1="235.5" y1="304.0" x2="236.2" y2="309.0" stroke="#a08858" stroke-width="1.1" stroke-linecap="round" opacity="0.42"/><line x1="236.1" y1="290.8" x2="231.1" y2="291.0" stroke="#a08858" stroke-width="1.1" stroke-linecap="round" opacity="0.42"/><line x1="291.4" y1="298.2" x2="296.2" y2="299.4" stroke="#a08858" stroke-width="1.1" stroke-linecap="round" opacity="0.42"/><line x1="265.3" y1="317.9" x2="270.3" y2="317.5" stroke="#a08858" stroke-width="1.1" stroke-linecap="round" opacity="0.41"/><line x1="253.4" y1="315.5" x2="250.5" y2="319.6" stroke="#a08858" stroke-width="1.1" stroke-linecap="round" opacity="0.41"/><line x1="269.7" y1="326.7" x2="274.6" y2="327.5" stroke="#a08858" stroke-width="1.1" stroke-linecap="round" opacity="0.41"/><line x1="242.6" y1="297.6" x2="244.6" y2="302.2" stroke="#a08858" stroke-width="1.1" stroke-linecap="round" opacity="0.41"/><line x1="286.9" y1="303.6" x2="286.6" y2="308.6" stroke="#a08858" stroke-width="1.1" stroke-linecap="round" opacity="0.41"/><line x1="299.6" y1="292.7" x2="304.4" y2="294.1" stroke="#a08858" stroke-width="1.1" stroke-linecap="round" opacity="0.41"/><line x1="242.0" y1="313.5" x2="237.9" y2="316.5" stroke="#a08858" stroke-width="1.1" stroke-linecap="round" opacity="0.41"/><line x1="282.3" y1="318.5" x2="286.3" y2="321.5" stroke="#a08858" stroke-width="1.1" stroke-linecap="round" opacity="0.41"/><line x1="255.4" y1="322.8" x2="254.1" y2="327.7" stroke="#a08858" stroke-width="1.1" stroke-linecap="round" opacity="0.41"/><line x1="250.5" y1="319.6" x2="246.5" y2="322.6" stroke="#a08858" stroke-width="1.1" stroke-linecap="round" opacity="0.41"/><line x1="262.9" y1="326.0" x2="259.7" y2="329.9" stroke="#a08858" stroke-width="1.1" stroke-linecap="round" opacity="0.41"/><line x1="290.7" y1="306.9" x2="294.7" y2="304.0" stroke="#a08858" stroke-width="1.1" stroke-linecap="round" opacity="0.41"/><line x1="223.7" y1="301.9" x2="221.5" y2="297.4" stroke="#a08858" stroke-width="1.1" stroke-linecap="round" opacity="0.41"/><line x1="286.3" y1="321.5" x2="291.3" y2="321.1" stroke="#a08858" stroke-width="1.1" stroke-linecap="round" opacity="0.41"/><line x1="236.2" y1="309.0" x2="231.7" y2="311.1" stroke="#a08858" stroke-width="1.1" stroke-linecap="round" opacity="0.41"/><line x1="231.1" y1="291.0" x2="226.1" y2="290.6" stroke="#a08858" stroke-width="1.1" stroke-linecap="round" opacity="0.41"/><line x1="294.5" y1="310.1" x2="293.1" y2="314.9" stroke="#a08858" stroke-width="1.1" stroke-linecap="round" opacity="0.41"/><line x1="304.4" y1="294.1" x2="308.9" y2="296.2" stroke="#a08858" stroke-width="1.1" stroke-linecap="round" opacity="0.41"/><line x1="299.3" y1="311.6" x2="303.7" y2="309.1" stroke="#a08858" stroke-width="1.1" stroke-linecap="round" opacity="0.41"/><line x1="296.2" y1="299.4" x2="300.6" y2="301.8" stroke="#a08858" stroke-width="1.1" stroke-linecap="round" opacity="0.41"/><line x1="251.6" y1="293.3" x2="248.5" y2="289.4" stroke="#a08858" stroke-width="1.0" stroke-linecap="round" opacity="0.40"/><line x1="279.1" y1="297.5" x2="276.4" y2="301.7" stroke="#a08858" stroke-width="1.0" stroke-linecap="round" opacity="0.40"/><line x1="247.3" y1="295.8" x2="251.0" y2="299.1" stroke="#a08858" stroke-width="1.0" stroke-linecap="round" opacity="0.40"/><line x1="250.4" y1="308.4" x2="248.4" y2="303.8" stroke="#a08858" stroke-width="1.0" stroke-linecap="round" opacity="0.40"/><line x1="270.3" y1="317.5" x2="274.2" y2="320.6" stroke="#a08858" stroke-width="1.0" stroke-linecap="round" opacity="0.40"/><line x1="274.6" y1="327.5" x2="279.6" y2="327.9" stroke="#a08858" stroke-width="1.0" stroke-linecap="round" opacity="0.40"/><line x1="233.4" y1="301.5" x2="231.9" y2="296.7" stroke="#a08858" stroke-width="1.0" stroke-linecap="round" opacity="0.40"/><line x1="286.6" y1="308.6" x2="283.0" y2="312.1" stroke="#a08858" stroke-width="1.0" stroke-linecap="round" opacity="0.40"/><line x1="244.6" y1="302.2" x2="242.7" y2="306.8" stroke="#a08858" stroke-width="1.0" stroke-linecap="round" opacity="0.40"/><line x1="238.0" y1="299.7" x2="234.5" y2="296.2" stroke="#a08858" stroke-width="1.0" stroke-linecap="round" opacity="0.40"/><line x1="278.5" y1="315.3" x2="282.2" y2="312.0" stroke="#a08858" stroke-width="1.0" stroke-linecap="round" opacity="0.40"/><line x1="237.9" y1="316.5" x2="233.6" y2="319.0" stroke="#a08858" stroke-width="1.0" stroke-linecap="round" opacity="0.40"/><line x1="246.5" y1="322.6" x2="242.6" y2="325.7" stroke="#a08858" stroke-width="1.0" stroke-linecap="round" opacity="0.40"/><line x1="254.1" y1="327.7" x2="249.3" y2="328.9" stroke="#a08858" stroke-width="1.0" stroke-linecap="round" opacity="0.40"/><line x1="250.5" y1="319.6" x2="246.1" y2="317.2" stroke="#a08858" stroke-width="1.0" stroke-linecap="round" opacity="0.40"/><line x1="228.6" y1="302.9" x2="227.3" y2="307.7" stroke="#a08858" stroke-width="1.0" stroke-linecap="round" opacity="0.40"/><line x1="294.7" y1="304.0" x2="299.7" y2="304.5" stroke="#a08858" stroke-width="1.0" stroke-linecap="round" opacity="0.40"/><line x1="259.7" y1="329.9" x2="264.6" y2="331.0" stroke="#a08858" stroke-width="1.0" stroke-linecap="round" opacity="0.40"/><line x1="286.6" y1="308.6" x2="282.2" y2="306.2" stroke="#a08858" stroke-width="1.0" stroke-linecap="round" opacity="0.40"/><line x1="221.5" y1="297.4" x2="220.4" y2="292.5" stroke="#a08858" stroke-width="1.0" stroke-linecap="round" opacity="0.40"/><line x1="286.3" y1="321.5" x2="291.0" y2="323.2" stroke="#a08858" stroke-width="1.0" stroke-linecap="round" opacity="0.40"/><line x1="226.1" y1="290.6" x2="221.2" y2="289.4" stroke="#a08858" stroke-width="1.0" stroke-linecap="round" opacity="0.40"/><line x1="231.7" y1="311.1" x2="228.2" y2="314.6" stroke="#a08858" stroke-width="1.0" stroke-linecap="round" opacity="0.40"/><line x1="308.9" y1="296.2" x2="310.6" y2="291.5" stroke="#a08858" stroke-width="1.0" stroke-linecap="round" opacity="0.40"/><line x1="303.7" y1="309.1" x2="306.7" y2="305.2" stroke="#a08858" stroke-width="1.0" stroke-linecap="round" opacity="0.40"/><line x1="293.1" y1="314.9" x2="297.0" y2="318.0" stroke="#a08858" stroke-width="1.0" stroke-linecap="round" opacity="0.40"/><line x1="300.6" y1="301.8" x2="305.6" y2="301.4" stroke="#a08858" stroke-width="1.0" stroke-linecap="round" opacity="0.40"/><line x1="291.3" y1="321.1" x2="289.6" y2="325.8" stroke="#a08858" stroke-width="1.0" stroke-linecap="round" opacity="0.40"/><line x1="304.4" y1="294.1" x2="306.6" y2="289.6" stroke="#a08858" stroke-width="1.0" stroke-linecap="round" opacity="0.40"/><line x1="286.3" y1="321.5" x2="287.0" y2="316.5" stroke="#a08858" stroke-width="1.0" stroke-linecap="round" opacity="0.40"/></g><g class="tree-canopy"><g class="tree-leaves"><circle cx="287.1" cy="249.9" r="6.6" fill="#3a6e22" opacity="0.58"/><circle cx="289.8" cy="250.6" r="2.7" fill="#4a7e2a" opacity="0.74"/><circle cx="239.7" cy="242.3" r="2.0" fill="#5a8e34" opacity="0.49"/><circle cx="248.9" cy="252.0" r="6.0" fill="#4a7e2a" opacity="0.64"/><circle cx="242.4" cy="248.5" r="3.8" fill="#9ac45c" opacity="0.52"/><circle cx="238.9" cy="246.1" r="1.6" fill="#8aba52" opacity="0.67"/><circle cx="244.8" cy="245.7" r="1.9" fill="#7aae48" opacity="0.71"/><circle cx="250.6" cy="242.2" r="3.6" fill="#3a6e22" opacity="0.65"/><circle cx="240.0" cy="246.0" r="3.8" fill="#d4aa30" opacity="0.66"/><circle cx="303.1" cy="237.5" r="6.5" fill="#c8b43a" opacity="0.30"/><circle cx="304.2" cy="245.9" r="3.0" fill="#9ac45c" opacity="0.42"/><circle cx="289.3" cy="259.3" r="6.4" fill="#3a6e22" opacity="0.67"/><circle cx="293.3" cy="252.3" r="3.6" fill="#b8c44a" opacity="0.53"/><circle cx="293.8" cy="238.5" r="3.3" fill="#6a9e3e" opacity="0.53"/><circle cx="241.7" cy="247.9" r="3.5" fill="#b8c44a" opacity="0.31"/><circle cx="240.8" cy="248.5" r="1.8" fill="#3a6e22" opacity="0.27"/><circle cx="294.0" cy="243.6" r="2.6" fill="#9ac45c" opacity="0.68"/><circle cx="290.4" cy="239.2" r="2.8" fill="#9ac45c" opacity="0.32"/><circle cx="288.4" cy="242.9" r="4.1" fill="#d4aa30" opacity="0.71"/><circle cx="284.2" cy="236.4" r="2.4" fill="#c8b43a" opacity="0.25"/><circle cx="286.7" cy="237.9" r="6.4" fill="#7aae48" opacity="0.63"/><circle cx="293.0" cy="238.1" r="6.0" fill="#c8b43a" opacity="0.46"/><circle cx="270.3" cy="228.2" r="4.0" fill="#8aba52" opacity="0.57"/><circle cx="266.0" cy="222.9" r="6.7" fill="#d4aa30" opacity="0.62"/><circle cx="269.8" cy="226.6" r="2.9" fill="#4a7e2a" opacity="0.56"/><circle cx="289.4" cy="227.6" r="7.0" fill="#5a8e34" opacity="0.60"/><circle cx="288.1" cy="227.4" r="7.2" fill="#6a9e3e" opacity="0.28"/><circle cx="239.0" cy="229.6" r="3.6" fill="#b8c44a" opacity="0.29"/><circle cx="249.1" cy="232.7" r="2.5" fill="#6a9e3e" opacity="0.79"/><circle cx="238.1" cy="232.9" r="5.2" fill="#3a6e22" opacity="0.72"/><circle cx="245.5" cy="218.6" r="1.8" fill="#9ac45c" opacity="0.39"/><circle cx="302.5" cy="250.0" r="3.4" fill="#6a9e3e" opacity="0.42"/><circle cx="297.8" cy="254.7" r="3.0" fill="#4a7e2a" opacity="0.71"/><circle cx="300.1" cy="248.9" r="2.0" fill="#7aae48" opacity="0.55"/><circle cx="298.3" cy="255.5" r="3.8" fill="#5a8e34" opacity="0.54"/><circle cx="300.0" cy="259.0" r="3.1" fill="#c8b43a" opacity="0.49"/><circle cx="296.9" cy="250.6" r="3.4" fill="#b8c44a" opacity="0.56"/><circle cx="281.4" cy="220.1" r="2.4" fill="#7aae48" opacity="0.63"/><circle cx="280.9" cy="229.1" r="4.4" fill="#8aba52" opacity="0.54"/><circle cx="273.4" cy="219.4" r="4.0" fill="#c8b43a" opacity="0.72"/><circle cx="278.5" cy="228.4" r="5.5" fill="#3a6e22" opacity="0.66"/><circle cx="228.9" cy="239.1" r="3.8" fill="#3a6e22" opacity="0.64"/><circle cx="234.5" cy="239.1" r="2.4" fill="#3a6e22" opacity="0.46"/><circle cx="235.2" cy="240.8" r="2.5" fill="#3a6e22" opacity="0.25"/><circle cx="230.7" cy="245.2" r="6.2" fill="#5a8e34" opacity="0.28"/><circle cx="239.3" cy="236.8" r="3.1" fill="#5a8e34" opacity="0.44"/><circle cx="235.6" cy="242.8" r="4.6" fill="#d4aa30" opacity="0.68"/><circle cx="279.3" cy="218.9" r="3.2" fill="#8aba52" opacity="0.70"/><circle cx="279.3" cy="221.2" r="2.0" fill="#5a8e34" opacity="0.49"/><circle cx="221.3" cy="233.1" r="2.4" fill="#7aae48" opacity="0.79"/><circle cx="230.8" cy="223.6" r="3.4" fill="#4a7e2a" opacity="0.44"/><circle cx="230.8" cy="225.3" r="3.1" fill="#8aba52" opacity="0.50"/><circle cx="306.3" cy="250.6" r="2.3" fill="#8aba52" opacity="0.69"/><circle cx="307.7" cy="252.3" r="2.0" fill="#4a7e2a" opacity="0.83"/><circle cx="312.1" cy="255.5" r="6.9" fill="#3a6e22" opacity="0.27"/><circle cx="304.7" cy="257.0" r="3.3" fill="#6a9e3e" opacity="0.77"/><circle cx="231.2" cy="236.0" r="3.5" fill="#5a8e34" opacity="0.35"/><circle cx="305.8" cy="248.0" r="3.2" fill="#6a9e3e" opacity="0.58"/><circle cx="307.4" cy="240.3" r="2.4" fill="#d4aa30" opacity="0.77"/><circle cx="300.6" cy="243.7" r="3.4" fill="#4a7e2a" opacity="0.74"/><circle cx="245.9" cy="209.1" r="3.4" fill="#3a6e22" opacity="0.51"/><circle cx="246.2" cy="207.0" r="2.0" fill="#6a9e3e" opacity="0.61"/><circle cx="250.6" cy="208.6" r="1.3" fill="#9ac45c" opacity="0.45"/><circle cx="297.9" cy="232.7" r="7.4" fill="#4a7e2a" opacity="0.53"/><circle cx="302.9" cy="232.5" r="4.0" fill="#b8c44a" opacity="0.77"/><circle cx="300.2" cy="232.8" r="1.6" fill="#c8b43a" opacity="0.37"/><circle cx="298.7" cy="231.2" r="1.6" fill="#6a9e3e" opacity="0.85"/><circle cx="296.9" cy="230.3" r="5.6" fill="#b8c44a" opacity="0.79"/><circle cx="301.1" cy="228.4" r="2.7" fill="#4a7e2a" opacity="0.81"/><circle cx="262.1" cy="208.6" r="4.0" fill="#6a9e3e" opacity="0.40"/><circle cx="264.0" cy="207.4" r="3.9" fill="#6a9e3e" opacity="0.72"/><circle cx="286.3" cy="221.9" r="3.9" fill="#b8c44a" opacity="0.39"/><circle cx="292.5" cy="220.2" r="2.7" fill="#7aae48" opacity="0.63"/><circle cx="264.2" cy="198.9" r="5.3" fill="#d4aa30" opacity="0.80"/><circle cx="230.9" cy="230.8" r="3.5" fill="#5a8e34" opacity="0.54"/><circle cx="237.1" cy="233.0" r="5.7" fill="#7aae48" opacity="0.65"/><circle cx="231.8" cy="226.0" r="2.7" fill="#4a7e2a" opacity="0.52"/><circle cx="226.5" cy="234.7" r="2.8" fill="#8aba52" opacity="0.74"/><circle cx="220.0" cy="239.2" r="1.5" fill="#9ac45c" opacity="0.46"/><circle cx="231.1" cy="241.3" r="2.9" fill="#6a9e3e" opacity="0.82"/><circle cx="223.9" cy="234.3" r="7.4" fill="#9ac45c" opacity="0.50"/><circle cx="289.8" cy="213.4" r="6.6" fill="#4a7e2a" opacity="0.62"/><circle cx="287.6" cy="209.4" r="5.1" fill="#6a9e3e" opacity="0.27"/><circle cx="282.7" cy="216.5" r="3.9" fill="#d4aa30" opacity="0.72"/><circle cx="280.8" cy="211.8" r="2.2" fill="#5a8e34" opacity="0.27"/><circle cx="291.7" cy="216.0" r="3.5" fill="#d4aa30" opacity="0.57"/><circle cx="291.5" cy="211.0" r="2.3" fill="#3a6e22" opacity="0.77"/><circle cx="280.2" cy="216.7" r="7.4" fill="#b8c44a" opacity="0.46"/><circle cx="231.9" cy="227.8" r="4.2" fill="#9ac45c" opacity="0.61"/><circle cx="234.4" cy="226.4" r="6.3" fill="#9ac45c" opacity="0.68"/><circle cx="240.3" cy="220.9" r="5.2" fill="#6a9e3e" opacity="0.27"/><circle cx="234.4" cy="223.4" r="3.0" fill="#9ac45c" opacity="0.67"/><circle cx="241.6" cy="222.6" r="1.2" fill="#b8c44a" opacity="0.70"/><circle cx="234.1" cy="230.9" r="2.6" fill="#c8b43a" opacity="0.50"/><circle cx="229.4" cy="222.8" r="1.8" fill="#5a8e34" opacity="0.39"/><circle cx="235.3" cy="220.5" r="1.7" fill="#4a7e2a" opacity="0.56"/><circle cx="226.7" cy="224.5" r="5.5" fill="#5a8e34" opacity="0.48"/><circle cx="230.1" cy="229.8" r="3.4" fill="#8aba52" opacity="0.59"/><circle cx="231.8" cy="229.8" r="2.8" fill="#d4aa30" opacity="0.65"/><circle cx="232.2" cy="222.6" r="1.6" fill="#4a7e2a" opacity="0.30"/><circle cx="222.4" cy="244.4" r="5.8" fill="#4a7e2a" opacity="0.67"/><circle cx="217.7" cy="239.2" r="7.3" fill="#3a6e22" opacity="0.67"/><circle cx="225.0" cy="240.5" r="2.0" fill="#7aae48" opacity="0.64"/><circle cx="228.2" cy="242.3" r="1.9" fill="#b8c44a" opacity="0.31"/><circle cx="223.5" cy="241.8" r="1.4" fill="#8aba52" opacity="0.73"/><circle cx="258.0" cy="208.2" r="3.0" fill="#9ac45c" opacity="0.35"/><circle cx="254.2" cy="202.8" r="2.6" fill="#4a7e2a" opacity="0.47"/><circle cx="248.5" cy="199.6" r="3.9" fill="#9ac45c" opacity="0.38"/><circle cx="246.2" cy="205.0" r="7.1" fill="#b8c44a" opacity="0.77"/><circle cx="285.9" cy="216.2" r="3.4" fill="#d4aa30" opacity="0.54"/><circle cx="283.3" cy="213.1" r="1.5" fill="#4a7e2a" opacity="0.68"/><circle cx="277.2" cy="214.8" r="3.6" fill="#8aba52" opacity="0.63"/><circle cx="282.1" cy="216.0" r="2.6" fill="#d4aa30" opacity="0.47"/><circle cx="278.7" cy="214.5" r="2.9" fill="#3a6e22" opacity="0.30"/><circle cx="264.3" cy="204.6" r="3.0" fill="#c8b43a" opacity="0.75"/><circle cx="259.6" cy="208.9" r="1.3" fill="#6a9e3e" opacity="0.30"/><circle cx="256.4" cy="204.5" r="3.4" fill="#3a6e22" opacity="0.84"/><circle cx="269.5" cy="203.7" r="3.8" fill="#b8c44a" opacity="0.60"/><circle cx="261.0" cy="205.3" r="1.5" fill="#b8c44a" opacity="0.69"/><circle cx="291.6" cy="224.8" r="3.3" fill="#c8b43a" opacity="0.56"/><circle cx="296.3" cy="220.2" r="1.6" fill="#4a7e2a" opacity="0.68"/><circle cx="298.7" cy="218.9" r="3.5" fill="#9ac45c" opacity="0.75"/><circle cx="225.0" cy="252.5" r="2.2" fill="#9ac45c" opacity="0.63"/><circle cx="219.5" cy="251.2" r="3.8" fill="#d4aa30" opacity="0.48"/><circle cx="221.6" cy="255.0" r="3.2" fill="#9ac45c" opacity="0.38"/><circle cx="229.7" cy="250.5" r="5.1" fill="#c8b43a" opacity="0.66"/><circle cx="228.3" cy="217.7" r="1.3" fill="#3a6e22" opacity="0.78"/><circle cx="225.2" cy="220.2" r="1.9" fill="#4a7e2a" opacity="0.40"/><circle cx="228.5" cy="219.4" r="2.0" fill="#8aba52" opacity="0.82"/><circle cx="231.6" cy="215.6" r="6.8" fill="#c8b43a" opacity="0.33"/><circle cx="235.7" cy="216.4" r="2.0" fill="#d4aa30" opacity="0.40"/><circle cx="285.6" cy="227.0" r="6.3" fill="#7aae48" opacity="0.57"/><circle cx="290.5" cy="226.2" r="1.4" fill="#7aae48" opacity="0.26"/><circle cx="288.9" cy="224.2" r="2.3" fill="#c8b43a" opacity="0.69"/><circle cx="286.3" cy="231.2" r="3.7" fill="#9ac45c" opacity="0.48"/><circle cx="289.8" cy="222.4" r="1.3" fill="#9ac45c" opacity="0.52"/><circle cx="291.8" cy="223.2" r="3.7" fill="#6a9e3e" opacity="0.63"/><circle cx="246.4" cy="199.9" r="2.7" fill="#6a9e3e" opacity="0.41"/><circle cx="251.3" cy="200.9" r="1.4" fill="#3a6e22" opacity="0.68"/><circle cx="243.9" cy="204.4" r="1.2" fill="#7aae48" opacity="0.62"/><circle cx="300.8" cy="221.3" r="1.6" fill="#6a9e3e" opacity="0.47"/><circle cx="301.0" cy="221.9" r="3.4" fill="#8aba52" opacity="0.52"/><circle cx="301.3" cy="217.1" r="2.6" fill="#b8c44a" opacity="0.43"/><circle cx="302.1" cy="221.5" r="1.6" fill="#3a6e22" opacity="0.50"/><circle cx="305.5" cy="217.3" r="4.4" fill="#c8b43a" opacity="0.25"/><circle cx="305.1" cy="216.1" r="3.4" fill="#5a8e34" opacity="0.44"/><circle cx="290.8" cy="212.5" r="3.7" fill="#6a9e3e" opacity="0.42"/><circle cx="290.2" cy="219.3" r="3.8" fill="#6a9e3e" opacity="0.49"/><circle cx="297.8" cy="219.7" r="5.5" fill="#9ac45c" opacity="0.60"/><circle cx="234.6" cy="214.0" r="4.3" fill="#7aae48" opacity="0.56"/><circle cx="235.4" cy="210.5" r="4.1" fill="#c8b43a" opacity="0.56"/><circle cx="244.4" cy="211.1" r="3.8" fill="#9ac45c" opacity="0.63"/><circle cx="272.5" cy="195.7" r="4.1" fill="#6a9e3e" opacity="0.62"/><circle cx="272.0" cy="190.2" r="3.1" fill="#4a7e2a" opacity="0.36"/><circle cx="271.3" cy="198.2" r="2.7" fill="#6a9e3e" opacity="0.48"/><circle cx="268.1" cy="195.6" r="5.7" fill="#b8c44a" opacity="0.48"/><circle cx="264.8" cy="196.9" r="4.1" fill="#5a8e34" opacity="0.25"/><circle cx="271.8" cy="192.0" r="2.4" fill="#d4aa30" opacity="0.82"/><circle cx="238.2" cy="207.1" r="1.8" fill="#b8c44a" opacity="0.53"/><circle cx="246.0" cy="207.1" r="7.1" fill="#6a9e3e" opacity="0.61"/><circle cx="243.5" cy="198.9" r="1.3" fill="#5a8e34" opacity="0.84"/><circle cx="245.7" cy="205.5" r="2.6" fill="#6a9e3e" opacity="0.64"/><circle cx="239.8" cy="204.5" r="3.3" fill="#6a9e3e" opacity="0.71"/><circle cx="239.9" cy="206.8" r="3.1" fill="#b8c44a" opacity="0.26"/><circle cx="234.9" cy="198.9" r="3.5" fill="#c8b43a" opacity="0.70"/><circle cx="252.5" cy="191.5" r="2.6" fill="#3a6e22" opacity="0.65"/><circle cx="249.6" cy="190.9" r="3.3" fill="#7aae48" opacity="0.85"/><circle cx="248.2" cy="191.0" r="4.0" fill="#4a7e2a" opacity="0.65"/><circle cx="245.5" cy="196.6" r="1.9" fill="#6a9e3e" opacity="0.80"/><circle cx="245.4" cy="195.4" r="5.6" fill="#8aba52" opacity="0.77"/><circle cx="265.6" cy="191.8" r="6.3" fill="#b8c44a" opacity="0.29"/><circle cx="270.7" cy="187.0" r="2.6" fill="#6a9e3e" opacity="0.26"/><circle cx="265.7" cy="196.1" r="5.1" fill="#6a9e3e" opacity="0.45"/><circle cx="292.5" cy="203.4" r="5.7" fill="#3a6e22" opacity="0.29"/><circle cx="293.3" cy="204.4" r="1.7" fill="#5a8e34" opacity="0.71"/><circle cx="292.7" cy="198.2" r="4.1" fill="#c8b43a" opacity="0.37"/><circle cx="294.8" cy="199.6" r="4.1" fill="#c8b43a" opacity="0.83"/><circle cx="286.2" cy="205.1" r="2.4" fill="#b8c44a" opacity="0.73"/><circle cx="270.1" cy="201.3" r="3.3" fill="#b8c44a" opacity="0.71"/><circle cx="274.9" cy="203.0" r="2.2" fill="#b8c44a" opacity="0.77"/><circle cx="275.5" cy="211.3" r="4.7" fill="#6a9e3e" opacity="0.80"/><circle cx="270.1" cy="202.8" r="2.4" fill="#7aae48" opacity="0.73"/><circle cx="270.8" cy="206.3" r="4.7" fill="#8aba52" opacity="0.81"/><circle cx="270.9" cy="210.2" r="3.3" fill="#d4aa30" opacity="0.47"/><circle cx="273.0" cy="209.5" r="5.7" fill="#8aba52" opacity="0.82"/><circle cx="269.1" cy="202.7" r="6.7" fill="#3a6e22" opacity="0.34"/><circle cx="271.3" cy="203.0" r="2.8" fill="#3a6e22" opacity="0.61"/><circle cx="277.6" cy="198.4" r="5.7" fill="#4a7e2a" opacity="0.33"/><circle cx="280.1" cy="200.9" r="5.4" fill="#d4aa30" opacity="0.54"/><circle cx="276.0" cy="205.4" r="3.6" fill="#9ac45c" opacity="0.72"/><circle cx="274.9" cy="205.8" r="2.3" fill="#7aae48" opacity="0.52"/><circle cx="279.1" cy="208.8" r="6.5" fill="#5a8e34" opacity="0.81"/><circle cx="282.6" cy="206.9" r="1.5" fill="#4a7e2a" opacity="0.31"/><circle cx="283.6" cy="207.1" r="3.6" fill="#9ac45c" opacity="0.49"/><circle cx="281.6" cy="202.8" r="3.4" fill="#3a6e22" opacity="0.60"/><circle cx="283.0" cy="204.9" r="3.7" fill="#8aba52" opacity="0.85"/><circle cx="288.6" cy="207.4" r="6.4" fill="#7aae48" opacity="0.52"/><circle cx="284.0" cy="207.1" r="5.8" fill="#4a7e2a" opacity="0.47"/><circle cx="277.7" cy="205.8" r="2.0" fill="#b8c44a" opacity="0.53"/><circle cx="252.1" cy="193.8" r="4.4" fill="#3a6e22" opacity="0.59"/><circle cx="257.2" cy="190.3" r="2.6" fill="#5a8e34" opacity="0.48"/><circle cx="260.5" cy="188.4" r="5.4" fill="#7aae48" opacity="0.28"/><circle cx="227.4" cy="216.3" r="2.2" fill="#3a6e22" opacity="0.75"/><circle cx="229.2" cy="207.3" r="3.4" fill="#8aba52" opacity="0.30"/><circle cx="232.3" cy="211.9" r="3.8" fill="#6a9e3e" opacity="0.28"/><circle cx="275.5" cy="190.9" r="1.4" fill="#5a8e34" opacity="0.46"/><circle cx="271.9" cy="191.8" r="2.6" fill="#8aba52" opacity="0.74"/><circle cx="274.8" cy="187.7" r="1.7" fill="#4a7e2a" opacity="0.84"/></g><line x1="265.0" y1="285.0" x2="265.0" y2="280.8" stroke="#5a4228" stroke-width="2.5" stroke-linecap="round" opacity="0.58"/><line x1="265.0" y1="280.8" x2="265.0" y2="276.6" stroke="#5a4228" stroke-width="2.4" stroke-linecap="round" opacity="0.57"/><line x1="265.0" y1="276.6" x2="265.0" y2="272.4" stroke="#5a4228" stroke-width="2.4" stroke-linecap="round" opacity="0.56"/><line x1="265.0" y1="272.4" x2="265.0" y2="268.2" stroke="#5a4228" stroke-width="2.3" stroke-linecap="round" opacity="0.55"/><line x1="265.0" y1="268.2" x2="265.0" y2="264.0" stroke="#5a4228" stroke-width="2.2" stroke-linecap="round" opacity="0.54"/><line x1="265.0" y1="264.0" x2="265.0" y2="259.8" stroke="#5a4228" stroke-width="2.1" stroke-linecap="round" opacity="0.54"/><line x1="265.0" y1="259.8" x2="265.0" y2="255.6" stroke="#5a4228" stroke-width="2.1" stroke-linecap="round" opacity="0.53"/><line x1="265.0" y1="255.6" x2="265.0" y2="251.4" stroke="#5a4228" stroke-width="2.0" stroke-linecap="round" opacity="0.52"/><line x1="265.0" y1="251.4" x2="264.7" y2="246.4" stroke="#5a4228" stroke-width="1.9" stroke-linecap="round" opacity="0.51"/><line x1="264.7" y1="246.4" x2="263.0" y2="241.7" stroke="#5a4228" stroke-width="1.8" stroke-linecap="round" opacity="0.50"/><line x1="263.0" y1="241.7" x2="262.1" y2="236.8" stroke="#5a4228" stroke-width="1.8" stroke-linecap="round" opacity="0.49"/><line x1="264.7" y1="246.4" x2="269.2" y2="244.2" stroke="#5a4228" stroke-width="1.8" stroke-linecap="round" opacity="0.49"/><line x1="265.0" y1="255.6" x2="270.0" y2="256.2" stroke="#5a4228" stroke-width="1.7" stroke-linecap="round" opacity="0.48"/><line x1="265.0" y1="251.4" x2="260.0" y2="251.0" stroke="#5a4228" stroke-width="1.7" stroke-linecap="round" opacity="0.48"/><line x1="265.0" y1="251.4" x2="269.5" y2="249.2" stroke="#5a4228" stroke-width="1.7" stroke-linecap="round" opacity="0.48"/><line x1="269.2" y1="244.2" x2="273.0" y2="241.0" stroke="#5a4228" stroke-width="1.7" stroke-linecap="round" opacity="0.48"/><line x1="262.1" y1="236.8" x2="266.3" y2="234.1" stroke="#5a4228" stroke-width="1.7" stroke-linecap="round" opacity="0.48"/><line x1="270.0" y1="256.2" x2="274.7" y2="254.5" stroke="#5a4228" stroke-width="1.6" stroke-linecap="round" opacity="0.47"/><line x1="265.0" y1="255.6" x2="260.0" y2="255.4" stroke="#5a4228" stroke-width="1.6" stroke-linecap="round" opacity="0.47"/><line x1="260.0" y1="251.0" x2="255.2" y2="249.5" stroke="#5a4228" stroke-width="1.6" stroke-linecap="round" opacity="0.47"/><line x1="262.1" y1="236.8" x2="260.7" y2="232.0" stroke="#5a4228" stroke-width="1.6" stroke-linecap="round" opacity="0.47"/><line x1="269.5" y1="249.2" x2="274.0" y2="247.1" stroke="#5a4228" stroke-width="1.6" stroke-linecap="round" opacity="0.47"/><line x1="273.0" y1="241.0" x2="275.9" y2="236.9" stroke="#5a4228" stroke-width="1.6" stroke-linecap="round" opacity="0.47"/><line x1="260.7" y1="232.0" x2="259.3" y2="227.2" stroke="#5a4228" stroke-width="1.6" stroke-linecap="round" opacity="0.47"/><line x1="266.3" y1="234.1" x2="269.9" y2="230.6" stroke="#5a4228" stroke-width="1.6" stroke-linecap="round" opacity="0.47"/><line x1="274.7" y1="254.5" x2="279.2" y2="252.4" stroke="#5a4228" stroke-width="1.5" stroke-linecap="round" opacity="0.46"/><line x1="260.0" y1="255.4" x2="255.0" y2="255.5" stroke="#5a4228" stroke-width="1.5" stroke-linecap="round" opacity="0.46"/><line x1="255.2" y1="249.5" x2="250.8" y2="247.3" stroke="#5a4228" stroke-width="1.5" stroke-linecap="round" opacity="0.46"/><line x1="263.0" y1="241.7" x2="258.0" y2="241.2" stroke="#5a4228" stroke-width="1.5" stroke-linecap="round" opacity="0.46"/><line x1="274.0" y1="247.1" x2="278.1" y2="244.3" stroke="#5a4228" stroke-width="1.5" stroke-linecap="round" opacity="0.46"/><line x1="259.3" y1="227.2" x2="257.9" y2="222.4" stroke="#5a4228" stroke-width="1.5" stroke-linecap="round" opacity="0.46"/><line x1="275.9" y1="236.9" x2="278.6" y2="232.7" stroke="#5a4228" stroke-width="1.5" stroke-linecap="round" opacity="0.46"/><line x1="260.7" y1="232.0" x2="255.7" y2="231.2" stroke="#5a4228" stroke-width="1.5" stroke-linecap="round" opacity="0.46"/><line x1="269.9" y1="230.6" x2="270.8" y2="225.7" stroke="#5a4228" stroke-width="1.5" stroke-linecap="round" opacity="0.46"/><line x1="279.2" y1="252.4" x2="283.8" y2="250.4" stroke="#5a4228" stroke-width="1.4" stroke-linecap="round" opacity="0.45"/><line x1="255.0" y1="255.5" x2="250.0" y2="255.1" stroke="#5a4228" stroke-width="1.4" stroke-linecap="round" opacity="0.45"/><line x1="258.0" y1="241.2" x2="253.8" y2="238.6" stroke="#5a4228" stroke-width="1.4" stroke-linecap="round" opacity="0.45"/><line x1="250.8" y1="247.3" x2="246.6" y2="244.5" stroke="#5a4228" stroke-width="1.4" stroke-linecap="round" opacity="0.45"/><line x1="278.1" y1="244.3" x2="281.6" y2="240.6" stroke="#5a4228" stroke-width="1.4" stroke-linecap="round" opacity="0.45"/><line x1="257.9" y1="222.4" x2="257.3" y2="217.4" stroke="#5a4228" stroke-width="1.4" stroke-linecap="round" opacity="0.45"/><line x1="278.6" y1="232.7" x2="281.9" y2="229.0" stroke="#5a4228" stroke-width="1.4" stroke-linecap="round" opacity="0.45"/><line x1="255.7" y1="231.2" x2="251.5" y2="228.4" stroke="#5a4228" stroke-width="1.4" stroke-linecap="round" opacity="0.45"/><line x1="270.8" y1="225.7" x2="272.4" y2="220.9" stroke="#5a4228" stroke-width="1.4" stroke-linecap="round" opacity="0.45"/><line x1="283.8" y1="250.4" x2="288.0" y2="247.7" stroke="#5a4228" stroke-width="1.4" stroke-linecap="round" opacity="0.45"/><line x1="250.0" y1="255.1" x2="245.1" y2="254.5" stroke="#5a4228" stroke-width="1.4" stroke-linecap="round" opacity="0.45"/><line x1="253.8" y1="238.6" x2="249.7" y2="235.7" stroke="#5a4228" stroke-width="1.4" stroke-linecap="round" opacity="0.45"/><line x1="246.6" y1="244.5" x2="242.7" y2="241.4" stroke="#5a4228" stroke-width="1.4" stroke-linecap="round" opacity="0.45"/><line x1="259.3" y1="227.2" x2="263.0" y2="223.7" stroke="#5a4228" stroke-width="1.4" stroke-linecap="round" opacity="0.45"/><line x1="281.6" y1="240.6" x2="285.5" y2="237.5" stroke="#5a4228" stroke-width="1.4" stroke-linecap="round" opacity="0.45"/><line x1="257.3" y1="217.4" x2="256.5" y2="212.5" stroke="#5a4228" stroke-width="1.4" stroke-linecap="round" opacity="0.45"/><line x1="281.9" y1="229.0" x2="284.6" y2="224.8" stroke="#5a4228" stroke-width="1.4" stroke-linecap="round" opacity="0.45"/><line x1="251.5" y1="228.4" x2="248.5" y2="224.5" stroke="#5a4228" stroke-width="1.4" stroke-linecap="round" opacity="0.45"/><line x1="272.4" y1="220.9" x2="274.6" y2="216.5" stroke="#5a4228" stroke-width="1.4" stroke-linecap="round" opacity="0.45"/><line x1="288.0" y1="247.7" x2="292.7" y2="245.9" stroke="#5a4228" stroke-width="1.3" stroke-linecap="round" opacity="0.44"/><line x1="245.1" y1="254.5" x2="240.2" y2="253.1" stroke="#5a4228" stroke-width="1.3" stroke-linecap="round" opacity="0.44"/><line x1="242.7" y1="241.4" x2="238.1" y2="239.3" stroke="#5a4228" stroke-width="1.3" stroke-linecap="round" opacity="0.44"/><line x1="249.7" y1="235.7" x2="246.3" y2="232.0" stroke="#5a4228" stroke-width="1.3" stroke-linecap="round" opacity="0.44"/><line x1="263.0" y1="223.7" x2="265.5" y2="219.5" stroke="#5a4228" stroke-width="1.3" stroke-linecap="round" opacity="0.44"/><line x1="285.5" y1="237.5" x2="290.5" y2="237.1" stroke="#5a4228" stroke-width="1.3" stroke-linecap="round" opacity="0.44"/><line x1="256.5" y1="212.5" x2="256.8" y2="207.5" stroke="#5a4228" stroke-width="1.3" stroke-linecap="round" opacity="0.44"/><line x1="284.6" y1="224.8" x2="287.5" y2="220.7" stroke="#5a4228" stroke-width="1.3" stroke-linecap="round" opacity="0.44"/><line x1="248.5" y1="224.5" x2="245.2" y2="220.7" stroke="#5a4228" stroke-width="1.3" stroke-linecap="round" opacity="0.44"/><line x1="257.3" y1="217.4" x2="252.4" y2="216.4" stroke="#5a4228" stroke-width="1.3" stroke-linecap="round" opacity="0.44"/><line x1="274.6" y1="216.5" x2="276.6" y2="211.9" stroke="#5a4228" stroke-width="1.3" stroke-linecap="round" opacity="0.44"/><line x1="283.8" y1="250.4" x2="285.1" y2="255.3" stroke="#5a4228" stroke-width="1.2" stroke-linecap="round" opacity="0.43"/><line x1="292.7" y1="245.9" x2="297.4" y2="244.4" stroke="#5a4228" stroke-width="1.2" stroke-linecap="round" opacity="0.43"/><line x1="240.2" y1="253.1" x2="235.3" y2="252.2" stroke="#5a4228" stroke-width="1.2" stroke-linecap="round" opacity="0.43"/><line x1="288.0" y1="247.7" x2="290.9" y2="251.7" stroke="#5a4228" stroke-width="1.2" stroke-linecap="round" opacity="0.43"/><line x1="246.3" y1="232.0" x2="242.5" y2="228.8" stroke="#5a4228" stroke-width="1.2" stroke-linecap="round" opacity="0.43"/><line x1="238.1" y1="239.3" x2="233.5" y2="237.4" stroke="#5a4228" stroke-width="1.2" stroke-linecap="round" opacity="0.43"/><line x1="265.5" y1="219.5" x2="266.2" y2="214.5" stroke="#5a4228" stroke-width="1.2" stroke-linecap="round" opacity="0.43"/><line x1="290.5" y1="237.1" x2="294.3" y2="233.9" stroke="#5a4228" stroke-width="1.2" stroke-linecap="round" opacity="0.43"/><line x1="256.8" y1="207.5" x2="256.6" y2="202.5" stroke="#5a4228" stroke-width="1.2" stroke-linecap="round" opacity="0.43"/><line x1="245.2" y1="220.7" x2="242.9" y2="216.2" stroke="#5a4228" stroke-width="1.2" stroke-linecap="round" opacity="0.43"/><line x1="287.5" y1="220.7" x2="290.6" y2="216.8" stroke="#5a4228" stroke-width="1.2" stroke-linecap="round" opacity="0.43"/><line x1="252.4" y1="216.4" x2="249.8" y2="212.2" stroke="#5a4228" stroke-width="1.2" stroke-linecap="round" opacity="0.43"/><line x1="276.6" y1="211.9" x2="278.9" y2="207.4" stroke="#5a4228" stroke-width="1.2" stroke-linecap="round" opacity="0.43"/><line x1="285.1" y1="255.3" x2="290.1" y2="255.4" stroke="#5a4228" stroke-width="1.1" stroke-linecap="round" opacity="0.42"/><line x1="297.4" y1="244.4" x2="302.2" y2="242.8" stroke="#5a4228" stroke-width="1.1" stroke-linecap="round" opacity="0.42"/><line x1="235.3" y1="252.2" x2="230.8" y2="250.1" stroke="#5a4228" stroke-width="1.1" stroke-linecap="round" opacity="0.42"/><line x1="290.9" y1="251.7" x2="295.8" y2="252.8" stroke="#5a4228" stroke-width="1.1" stroke-linecap="round" opacity="0.42"/><line x1="242.5" y1="228.8" x2="239.2" y2="225.0" stroke="#5a4228" stroke-width="1.1" stroke-linecap="round" opacity="0.42"/><line x1="233.5" y1="237.4" x2="229.3" y2="234.7" stroke="#5a4228" stroke-width="1.1" stroke-linecap="round" opacity="0.42"/><line x1="230.8" y1="250.1" x2="225.8" y2="249.7" stroke="#5a4228" stroke-width="1.1" stroke-linecap="round" opacity="0.42"/><line x1="246.3" y1="232.0" x2="242.5" y2="235.2" stroke="#5a4228" stroke-width="1.1" stroke-linecap="round" opacity="0.42"/><line x1="281.9" y1="229.0" x2="278.4" y2="225.5" stroke="#5a4228" stroke-width="1.1" stroke-linecap="round" opacity="0.42"/><line x1="266.2" y1="214.5" x2="268.0" y2="209.9" stroke="#5a4228" stroke-width="1.1" stroke-linecap="round" opacity="0.42"/><line x1="294.3" y1="233.9" x2="295.2" y2="229.0" stroke="#5a4228" stroke-width="1.1" stroke-linecap="round" opacity="0.42"/><line x1="242.9" y1="216.2" x2="239.0" y2="213.2" stroke="#5a4228" stroke-width="1.1" stroke-linecap="round" opacity="0.42"/><line x1="290.6" y1="216.8" x2="290.4" y2="211.8" stroke="#5a4228" stroke-width="1.1" stroke-linecap="round" opacity="0.42"/><line x1="256.6" y1="202.5" x2="258.3" y2="197.8" stroke="#5a4228" stroke-width="1.1" stroke-linecap="round" opacity="0.42"/><line x1="249.8" y1="212.2" x2="247.3" y2="207.8" stroke="#5a4228" stroke-width="1.1" stroke-linecap="round" opacity="0.42"/><line x1="278.9" y1="207.4" x2="279.7" y2="202.5" stroke="#5a4228" stroke-width="1.1" stroke-linecap="round" opacity="0.42"/><line x1="290.1" y1="255.4" x2="295.1" y2="256.1" stroke="#5a4228" stroke-width="1.1" stroke-linecap="round" opacity="0.41"/><line x1="242.7" y1="241.4" x2="239.7" y2="245.4" stroke="#5a4228" stroke-width="1.1" stroke-linecap="round" opacity="0.41"/><line x1="302.2" y1="242.8" x2="303.1" y2="237.9" stroke="#5a4228" stroke-width="1.1" stroke-linecap="round" opacity="0.41"/><line x1="295.8" y1="252.8" x2="300.7" y2="253.6" stroke="#5a4228" stroke-width="1.1" stroke-linecap="round" opacity="0.41"/><line x1="229.3" y1="234.7" x2="226.5" y2="230.5" stroke="#5a4228" stroke-width="1.1" stroke-linecap="round" opacity="0.41"/><line x1="239.2" y1="225.0" x2="235.3" y2="221.9" stroke="#5a4228" stroke-width="1.1" stroke-linecap="round" opacity="0.41"/><line x1="233.5" y1="237.4" x2="229.3" y2="240.1" stroke="#5a4228" stroke-width="1.1" stroke-linecap="round" opacity="0.41"/><line x1="225.8" y1="249.7" x2="220.8" y2="249.6" stroke="#5a4228" stroke-width="1.1" stroke-linecap="round" opacity="0.41"/><line x1="242.5" y1="235.2" x2="237.6" y2="234.2" stroke="#5a4228" stroke-width="1.1" stroke-linecap="round" opacity="0.41"/><line x1="278.4" y1="225.5" x2="280.1" y2="220.8" stroke="#5a4228" stroke-width="1.1" stroke-linecap="round" opacity="0.41"/><line x1="256.5" y1="212.5" x2="261.2" y2="210.8" stroke="#5a4228" stroke-width="1.1" stroke-linecap="round" opacity="0.41"/><line x1="284.6" y1="224.8" x2="287.3" y2="220.6" stroke="#5a4228" stroke-width="1.1" stroke-linecap="round" opacity="0.41"/><line x1="230.8" y1="250.1" x2="230.0" y2="255.0" stroke="#5a4228" stroke-width="1.1" stroke-linecap="round" opacity="0.41"/><line x1="268.0" y1="209.9" x2="269.0" y2="205.0" stroke="#5a4228" stroke-width="1.1" stroke-linecap="round" opacity="0.41"/><line x1="295.2" y1="229.0" x2="296.1" y2="224.1" stroke="#5a4228" stroke-width="1.1" stroke-linecap="round" opacity="0.41"/><line x1="269.0" y1="205.0" x2="270.4" y2="200.1" stroke="#5a4228" stroke-width="1.1" stroke-linecap="round" opacity="0.41"/><line x1="239.0" y1="213.2" x2="235.4" y2="209.7" stroke="#5a4228" stroke-width="1.1" stroke-linecap="round" opacity="0.41"/><line x1="290.4" y1="211.8" x2="289.0" y2="207.0" stroke="#5a4228" stroke-width="1.1" stroke-linecap="round" opacity="0.41"/><line x1="247.3" y1="207.8" x2="244.4" y2="203.7" stroke="#5a4228" stroke-width="1.1" stroke-linecap="round" opacity="0.41"/><line x1="258.3" y1="197.8" x2="260.1" y2="193.1" stroke="#5a4228" stroke-width="1.1" stroke-linecap="round" opacity="0.41"/><line x1="256.6" y1="202.5" x2="252.5" y2="199.7" stroke="#5a4228" stroke-width="1.1" stroke-linecap="round" opacity="0.41"/><line x1="279.7" y1="202.5" x2="279.6" y2="197.5" stroke="#5a4228" stroke-width="1.1" stroke-linecap="round" opacity="0.41"/><line x1="246.6" y1="244.5" x2="244.8" y2="249.1" stroke="#5a4228" stroke-width="1.0" stroke-linecap="round" opacity="0.40"/><line x1="292.7" y1="245.9" x2="289.8" y2="241.9" stroke="#5a4228" stroke-width="1.0" stroke-linecap="round" opacity="0.40"/><line x1="269.9" y1="230.6" x2="265.0" y2="229.4" stroke="#5a4228" stroke-width="1.0" stroke-linecap="round" opacity="0.40"/><line x1="295.1" y1="256.1" x2="300.0" y2="255.9" stroke="#5a4228" stroke-width="1.0" stroke-linecap="round" opacity="0.40"/><line x1="270.8" y1="225.7" x2="275.8" y2="225.7" stroke="#5a4228" stroke-width="1.0" stroke-linecap="round" opacity="0.40"/><line x1="239.7" y1="245.4" x2="235.0" y2="243.7" stroke="#5a4228" stroke-width="1.0" stroke-linecap="round" opacity="0.40"/><line x1="300.7" y1="253.6" x2="305.6" y2="254.5" stroke="#5a4228" stroke-width="1.0" stroke-linecap="round" opacity="0.40"/><line x1="302.2" y1="242.8" x2="306.0" y2="246.1" stroke="#5a4228" stroke-width="1.0" stroke-linecap="round" opacity="0.40"/><line x1="303.1" y1="237.9" x2="303.2" y2="232.9" stroke="#5a4228" stroke-width="1.0" stroke-linecap="round" opacity="0.40"/><line x1="237.6" y1="234.2" x2="233.8" y2="230.9" stroke="#5a4228" stroke-width="1.0" stroke-linecap="round" opacity="0.40"/><line x1="229.3" y1="240.1" x2="224.3" y2="239.4" stroke="#5a4228" stroke-width="1.0" stroke-linecap="round" opacity="0.40"/><line x1="287.3" y1="220.6" x2="285.0" y2="216.2" stroke="#5a4228" stroke-width="1.0" stroke-linecap="round" opacity="0.40"/><line x1="239.2" y1="225.0" x2="235.0" y2="227.6" stroke="#5a4228" stroke-width="1.0" stroke-linecap="round" opacity="0.40"/><line x1="226.5" y1="230.5" x2="230.8" y2="227.9" stroke="#5a4228" stroke-width="1.0" stroke-linecap="round" opacity="0.40"/><line x1="220.8" y1="249.6" x2="222.5" y2="244.9" stroke="#5a4228" stroke-width="1.0" stroke-linecap="round" opacity="0.40"/><line x1="256.8" y1="207.5" x2="252.0" y2="205.9" stroke="#5a4228" stroke-width="1.0" stroke-linecap="round" opacity="0.40"/><line x1="280.1" y1="220.8" x2="283.2" y2="216.9" stroke="#5a4228" stroke-width="1.0" stroke-linecap="round" opacity="0.40"/><line x1="261.2" y1="210.8" x2="262.8" y2="206.0" stroke="#5a4228" stroke-width="1.0" stroke-linecap="round" opacity="0.40"/><line x1="287.5" y1="220.7" x2="291.8" y2="223.3" stroke="#5a4228" stroke-width="1.0" stroke-linecap="round" opacity="0.40"/><line x1="230.0" y1="255.0" x2="225.0" y2="255.1" stroke="#5a4228" stroke-width="1.0" stroke-linecap="round" opacity="0.40"/><line x1="235.3" y1="221.9" x2="230.4" y2="221.2" stroke="#5a4228" stroke-width="1.0" stroke-linecap="round" opacity="0.40"/><line x1="284.6" y1="224.8" x2="288.5" y2="227.9" stroke="#5a4228" stroke-width="1.0" stroke-linecap="round" opacity="0.40"/><line x1="296.1" y1="224.1" x2="300.5" y2="221.6" stroke="#5a4228" stroke-width="1.0" stroke-linecap="round" opacity="0.40"/><line x1="290.6" y1="216.8" x2="295.6" y2="216.5" stroke="#5a4228" stroke-width="1.0" stroke-linecap="round" opacity="0.40"/><line x1="235.4" y1="209.7" x2="238.2" y2="213.9" stroke="#5a4228" stroke-width="1.0" stroke-linecap="round" opacity="0.40"/><line x1="270.4" y1="200.1" x2="270.9" y2="195.2" stroke="#5a4228" stroke-width="1.0" stroke-linecap="round" opacity="0.40"/><line x1="244.4" y1="203.7" x2="239.4" y2="203.9" stroke="#5a4228" stroke-width="1.0" stroke-linecap="round" opacity="0.40"/><line x1="252.5" y1="199.7" x2="249.0" y2="196.1" stroke="#5a4228" stroke-width="1.0" stroke-linecap="round" opacity="0.40"/><line x1="260.1" y1="193.1" x2="265.1" y2="193.0" stroke="#5a4228" stroke-width="1.0" stroke-linecap="round" opacity="0.40"/><line x1="289.0" y1="207.0" x2="287.9" y2="202.1" stroke="#5a4228" stroke-width="1.0" stroke-linecap="round" opacity="0.40"/><line x1="278.9" y1="207.4" x2="274.0" y2="208.7" stroke="#5a4228" stroke-width="1.0" stroke-linecap="round" opacity="0.40"/><line x1="269.0" y1="205.0" x2="274.0" y2="205.5" stroke="#5a4228" stroke-width="1.0" stroke-linecap="round" opacity="0.40"/><line x1="278.9" y1="207.4" x2="283.4" y2="209.6" stroke="#5a4228" stroke-width="1.0" stroke-linecap="round" opacity="0.40"/><line x1="260.1" y1="193.1" x2="255.1" y2="192.9" stroke="#5a4228" stroke-width="1.0" stroke-linecap="round" opacity="0.40"/><line x1="235.4" y1="209.7" x2="232.7" y2="213.9" stroke="#5a4228" stroke-width="1.0" stroke-linecap="round" opacity="0.40"/><line x1="279.6" y1="197.5" x2="277.5" y2="193.0" stroke="#5a4228" stroke-width="1.0" stroke-linecap="round" opacity="0.40"/><path d="M255.9 293 C258.63 287.4 257.3 285 258 285 C258.7 274.92 262.375 261.48 263.25 251.4 L266.75 251.4 C267.625 261.48 271.3 274.92 272 285 C272.7 285 271.37 287.4 274.1 293 Z" fill="#5a4228" opacity="0.92"/><path d="M263.95 285 C264.16 274.92 264.65 261.48 264.825 251.4 L265.175 251.4 C265.35 261.48 265.84 274.92 266.05 285 Z" fill="#a89060" opacity="0.15"/></g></svg>