<svg xmlns="http://www.w3.org/2000/svg" viewBox="0 0 530 540"><g class="tree-roots"><line x1="265.0" y1="288.0" x2="265.2" y2="293.0" stroke="#a08858" stroke-width="1.7" stroke-linecap="round" opacity="0.48"/><line x1="265.2" y1="293.0" x2="265.7" y2="298.0" stroke="#a08858" stroke-width="1.7" stroke-linecap="round" opacity="0.48"/><line x1="265.0" y1="288.0" x2="260.1" y2="289.0" stroke="#a08858" stroke-width="1.7" stroke-linecap="round" opacity="0.48"/><line x1="265.0" y1="288.0" x2="270.0" y2="288.1" stroke="#a08858" stroke-width="1.7" stroke-linecap="round" opacity="0.48"/><line x1="265.7" y1="298.0" x2="267.1" y2="302.8" stroke="#a08858" stroke-width="1.6" stroke-linecap="round" opacity="0.47"/><line x1="260.1" y1="289.0" x2="255.6" y2="291.1" stroke="#a08858" stroke-width="1.6" stroke-linecap="round" opacity="0.47"/><line x1="265.2" y1="293.0" x2="270.2" y2="292.6" stroke="#a08858" stroke-width="1.6" stroke-linecap="round" opacity="0.47"/><line x1="270.0" y1="288.1" x2="275.0" y2="287.8" stroke="#a08858" stroke-width="1.6" stroke-linecap="round" opacity="0.47"/><line x1="255.6" y1="291.1" x2="251.1" y2="293.3" stroke="#a08858" stroke-width="1.5" stroke-linecap="round" opacity="0.46"/><line x1="267.1" y1="302.8" x2="268.2" y2="307.6" stroke="#a08858" stroke-width="1.5" stroke-linecap="round" opacity="0.46"/><line x1="270.2" y1="292.6" x2="275.2" y2="292.9" stroke="#a08858" stroke-width="1.5" stroke-linecap="round" opacity="0.46"/><line x1="275.0" y1="287.8" x2="280.0" y2="287.8" stroke="#a08858" stroke-width="1.5" stroke-linecap="round" opacity="0.46"/><line x1="267.1" y1="302.8" x2="272.1" y2="302.3" stroke="#a08858" stroke-width="1.5" stroke-linecap="round" opacity="0.46"/><line x1="251.1" y1="293.3" x2="246.5" y2="295.3" stroke="#a08858" stroke-width="1.4" stroke-linecap="round" opacity="0.45"/><line x1="268.2" y1="307.6" x2="269.5" y2="312.5" stroke="#a08858" stroke-width="1.4" stroke-linecap="round" opacity="0.45"/><line x1="275.2" y1="292.9" x2="280.0" y2="294.4" stroke="#a08858" stroke-width="1.4" stroke-linecap="round" opacity="0.45"/><line x1="272.1" y1="302.3" x2="276.6" y2="304.6" stroke="#a08858" stroke-width="1.4" stroke-linecap="round" opacity="0.45"/><line x1="280.0" y1="287.8" x2="285.0" y2="288.2" stroke="#a08858" stroke-width="1.4" stroke-linecap="round" opacity="0.45"/><line x1="251.1" y1="293.3" x2="246.1" y2="293.5" stroke="#a08858" stroke-width="1.4" stroke-linecap="round" opacity="0.45"/><line x1="265.7" y1="298.0" x2="261.2" y2="300.2" stroke="#a08858" stroke-width="1.4" stroke-linecap="round" opacity="0.45"/><line x1="280.0" y1="294.4" x2="284.5" y2="296.5" stroke="#a08858" stroke-width="1.4" stroke-linecap="round" opacity="0.45"/><line x1="246.5" y1="295.3" x2="241.8" y2="296.9" stroke="#a08858" stroke-width="1.4" stroke-linecap="round" opacity="0.45"/><line x1="268.2" y1="307.6" x2="273.1" y2="308.4" stroke="#a08858" stroke-width="1.4" stroke-linecap="round" opacity="0.45"/><line x1="246.1" y1="293.5" x2="242.8" y2="289.7" stroke="#a08858" stroke-width="1.4" stroke-linecap="round" opacity="0.45"/><line x1="276.6" y1="304.6" x2="280.9" y2="307.2" stroke="#a08858" stroke-width="1.4" stroke-linecap="round" opacity="0.45"/><line x1="285.0" y1="288.2" x2="289.8" y2="289.4" stroke="#a08858" stroke-width="1.4" stroke-linecap="round" opacity="0.45"/><line x1="246.5" y1="295.3" x2="249.0" y2="299.6" stroke="#a08858" stroke-width="1.4" stroke-linecap="round" opacity="0.45"/><line x1="269.5" y1="312.5" x2="264.8" y2="314.2" stroke="#a08858" stroke-width="1.4" stroke-linecap="round" opacity="0.45"/><line x1="261.2" y1="300.2" x2="257.6" y2="303.7" stroke="#a08858" stroke-width="1.3" stroke-linecap="round" opacity="0.44"/><line x1="269.5" y1="312.5" x2="271.9" y2="316.8" stroke="#a08858" stroke-width="1.3" stroke-linecap="round" opacity="0.44"/><line x1="284.5" y1="296.5" x2="289.1" y2="298.5" stroke="#a08858" stroke-width="1.3" stroke-linecap="round" opacity="0.44"/><line x1="273.1" y1="308.4" x2="276.2" y2="312.3" stroke="#a08858" stroke-width="1.3" stroke-linecap="round" opacity="0.44"/><line x1="241.8" y1="296.9" x2="237.2" y2="299.0" stroke="#a08858" stroke-width="1.3" stroke-linecap="round" opacity="0.44"/><line x1="280.9" y1="307.2" x2="285.2" y2="309.7" stroke="#a08858" stroke-width="1.3" stroke-linecap="round" opacity="0.44"/><line x1="264.8" y1="314.2" x2="262.0" y2="318.4" stroke="#a08858" stroke-width="1.3" stroke-linecap="round" opacity="0.44"/><line x1="289.8" y1="289.4" x2="294.8" y2="290.0" stroke="#a08858" stroke-width="1.3" stroke-linecap="round" opacity="0.44"/><line x1="249.0" y1="299.6" x2="246.1" y2="303.7" stroke="#a08858" stroke-width="1.3" stroke-linecap="round" opacity="0.44"/><line x1="242.8" y1="289.7" x2="237.8" y2="289.2" stroke="#a08858" stroke-width="1.3" stroke-linecap="round" opacity="0.44"/><line x1="257.6" y1="303.7" x2="254.6" y2="307.7" stroke="#a08858" stroke-width="1.2" stroke-linecap="round" opacity="0.43"/><line x1="289.1" y1="298.5" x2="293.7" y2="300.5" stroke="#a08858" stroke-width="1.2" stroke-linecap="round" opacity="0.43"/><line x1="237.2" y1="299.0" x2="232.4" y2="300.5" stroke="#a08858" stroke-width="1.2" stroke-linecap="round" opacity="0.43"/><line x1="276.2" y1="312.3" x2="280.7" y2="314.4" stroke="#a08858" stroke-width="1.2" stroke-linecap="round" opacity="0.43"/><line x1="271.9" y1="316.8" x2="268.6" y2="320.5" stroke="#a08858" stroke-width="1.2" stroke-linecap="round" opacity="0.43"/><line x1="246.1" y1="303.7" x2="243.1" y2="307.7" stroke="#a08858" stroke-width="1.2" stroke-linecap="round" opacity="0.43"/><line x1="285.2" y1="309.7" x2="289.3" y2="312.6" stroke="#a08858" stroke-width="1.2" stroke-linecap="round" opacity="0.43"/><line x1="262.0" y1="318.4" x2="258.9" y2="322.3" stroke="#a08858" stroke-width="1.2" stroke-linecap="round" opacity="0.43"/><line x1="294.8" y1="290.0" x2="299.6" y2="291.3" stroke="#a08858" stroke-width="1.2" stroke-linecap="round" opacity="0.43"/><line x1="237.2" y1="299.0" x2="232.5" y2="300.5" stroke="#a08858" stroke-width="1.2" stroke-linecap="round" opacity="0.43"/><line x1="237.8" y1="289.2" x2="232.8" y2="289.2" stroke="#a08858" stroke-width="1.2" stroke-linecap="round" opacity="0.43"/><line x1="254.6" y1="307.7" x2="251.9" y2="311.9" stroke="#a08858" stroke-width="1.1" stroke-linecap="round" opacity="0.42"/><line x1="271.9" y1="316.8" x2="275.3" y2="320.5" stroke="#a08858" stroke-width="1.1" stroke-linecap="round" opacity="0.42"/><line x1="275.3" y1="320.5" x2="278.6" y2="324.3" stroke="#a08858" stroke-width="1.1" stroke-linecap="round" opacity="0.42"/><line x1="280.7" y1="314.4" x2="285.1" y2="316.9" stroke="#a08858" stroke-width="1.1" stroke-linecap="round" opacity="0.42"/><line x1="293.7" y1="300.5" x2="298.3" y2="302.4" stroke="#a08858" stroke-width="1.1" stroke-linecap="round" opacity="0.42"/><line x1="268.6" y1="320.5" x2="268.0" y2="325.5" stroke="#a08858" stroke-width="1.1" stroke-linecap="round" opacity="0.42"/><line x1="289.3" y1="312.6" x2="293.7" y2="314.9" stroke="#a08858" stroke-width="1.1" stroke-linecap="round" opacity="0.42"/><line x1="258.9" y1="322.3" x2="256.0" y2="326.3" stroke="#a08858" stroke-width="1.1" stroke-linecap="round" opacity="0.42"/><line x1="232.8" y1="289.2" x2="228.1" y2="290.7" stroke="#a08858" stroke-width="1.1" stroke-linecap="round" opacity="0.42"/><line x1="243.1" y1="307.7" x2="239.7" y2="311.4" stroke="#a08858" stroke-width="1.1" stroke-linecap="round" opacity="0.42"/><line x1="299.6" y1="291.3" x2="304.4" y2="292.7" stroke="#a08858" stroke-width="1.1" stroke-linecap="round" opacity="0.42"/><line x1="232.5" y1="300.5" x2="233.7" y2="305.4" stroke="#a08858" stroke-width="1.1" stroke-linecap="round" opacity="0.42"/><line x1="232.4" y1="300.5" x2="229.3" y2="296.6" stroke="#a08858" stroke-width="1.1" stroke-linecap="round" opacity="0.42"/><line x1="251.9" y1="311.9" x2="249.5" y2="316.3" stroke="#a08858" stroke-width="1.1" stroke-linecap="round" opacity="0.41"/><line x1="278.6" y1="324.3" x2="282.7" y2="327.1" stroke="#a08858" stroke-width="1.1" stroke-linecap="round" opacity="0.41"/><line x1="232.4" y1="300.5" x2="227.8" y2="302.2" stroke="#a08858" stroke-width="1.1" stroke-linecap="round" opacity="0.41"/><line x1="249.5" y1="316.3" x2="246.2" y2="320.1" stroke="#a08858" stroke-width="1.1" stroke-linecap="round" opacity="0.41"/><line x1="275.3" y1="320.5" x2="272.5" y2="324.7" stroke="#a08858" stroke-width="1.1" stroke-linecap="round" opacity="0.41"/><line x1="246.2" y1="320.1" x2="241.7" y2="322.3" stroke="#a08858" stroke-width="1.1" stroke-linecap="round" opacity="0.41"/><line x1="268.0" y1="325.5" x2="267.0" y2="330.4" stroke="#a08858" stroke-width="1.1" stroke-linecap="round" opacity="0.41"/><line x1="227.8" y1="302.2" x2="223.0" y2="303.7" stroke="#a08858" stroke-width="1.1" stroke-linecap="round" opacity="0.41"/><line x1="298.3" y1="302.4" x2="302.6" y2="304.9" stroke="#a08858" stroke-width="1.1" stroke-linecap="round" opacity="0.41"/><line x1="285.1" y1="316.9" x2="288.4" y2="320.6" stroke="#a08858" stroke-width="1.1" stroke-linecap="round" opacity="0.41"/><line x1="249.5" y1="316.3" x2="245.9" y2="319.8" stroke="#a08858" stroke-width="1.1" stroke-linecap="round" opacity="0.41"/><line x1="293.7" y1="314.9" x2="297.6" y2="318.0" stroke="#a08858" stroke-width="1.1" stroke-linecap="round" opacity="0.41"/><line x1="256.0" y1="326.3" x2="252.2" y2="329.6" stroke="#a08858" stroke-width="1.1" stroke-linecap="round" opacity="0.41"/><line x1="228.1" y1="290.7" x2="223.1" y2="290.8" stroke="#a08858" stroke-width="1.1" stroke-linecap="round" opacity="0.41"/><line x1="239.7" y1="311.4" x2="235.4" y2="314.0" stroke="#a08858" stroke-width="1.1" stroke-linecap="round" opacity="0.41"/><line x1="233.7" y1="305.4" x2="230.5" y2="309.3" stroke="#a08858" stroke-width="1.1" stroke-linecap="round" opacity="0.41"/><line x1="302.6" y1="304.9" x2="306.4" y2="308.2" stroke="#a08858" stroke-width="1.1" stroke-linecap="round" opacity="0.41"/><line x1="304.4" y1="292.7" x2="309.4" y2="293.3" stroke="#a08858" stroke-width="1.1" stroke-linecap="round" opacity="0.41"/><line x1="229.3" y1="296.6" x2="224.3" y2="296.0" stroke="#a08858" stroke-width="1.1" stroke-linecap="round" opacity="0.41"/><line x1="255.6" y1="291.1" x2="258.2" y2="295.4" stroke="#a08858" stroke-width="1.0" stroke-linecap="round" opacity="0.40"/><line x1="257.6" y1="303.7" x2="252.8" y2="302.4" stroke="#a08858" stroke-width="1.0" stroke-linecap="round" opacity="0.40"/><line x1="251.1" y1="293.3" x2="251.0" y2="298.3" stroke="#a08858" stroke-width="1.0" stroke-linecap="round" opacity="0.40"/><line x1="251.9" y1="311.9" x2="255.8" y2="315.0" stroke="#a08858" stroke-width="1.0" stroke-linecap="round" opacity="0.40"/><line x1="280.9" y1="307.2" x2="283.0" y2="302.7" stroke="#a08858" stroke-width="1.0" stroke-linecap="round" opacity="0.40"/><line x1="242.8" y1="289.7" x2="247.5" y2="288.1" stroke="#a08858" stroke-width="1.0" stroke-linecap="round" opacity="0.40"/><line x1="289.1" y1="298.5" x2="286.1" y2="302.5" stroke="#a08858" stroke-width="1.0" stroke-linecap="round" opacity="0.40"/><line x1="282.7" y1="327.1" x2="286.8" y2="324.3" stroke="#a08858" stroke-width="1.0" stroke-linecap="round" opacity="0.40"/><line x1="272.5" y1="324.7" x2="273.8" y2="329.5" stroke="#a08858" stroke-width="1.0" stroke-linecap="round" opacity="0.40"/><line x1="246.1" y1="303.7" x2="241.2" y2="302.7" stroke="#a08858" stroke-width="1.0" stroke-linecap="round" opacity="0.40"/><line x1="293.7" y1="300.5" x2="292.6" y2="305.4" stroke="#a08858" stroke-width="1.0" stroke-linecap="round" opacity="0.40"/><line x1="241.7" y1="322.3" x2="237.0" y2="320.6" stroke="#a08858" stroke-width="1.0" stroke-linecap="round" opacity="0.40"/><line x1="288.4" y1="320.6" x2="293.4" y2="321.1" stroke="#a08858" stroke-width="1.0" stroke-linecap="round" opacity="0.40"/><line x1="223.0" y1="303.7" x2="227.4" y2="306.0" stroke="#a08858" stroke-width="1.0" stroke-linecap="round" opacity="0.40"/><line x1="227.8" y1="302.2" x2="228.1" y2="307.2" stroke="#a08858" stroke-width="1.0" stroke-linecap="round" opacity="0.40"/><line x1="245.9" y1="319.8" x2="242.5" y2="316.2" stroke="#a08858" stroke-width="1.0" stroke-linecap="round" opacity="0.40"/><line x1="246.2" y1="320.1" x2="247.7" y2="324.8" stroke="#a08858" stroke-width="1.0" stroke-linecap="round" opacity="0.40"/><line x1="249.5" y1="316.3" x2="245.2" y2="318.9" stroke="#a08858" stroke-width="1.0" stroke-linecap="round" opacity="0.40"/><line x1="267.0" y1="330.4" x2="262.0" y2="330.7" stroke="#a08858" stroke-width="1.0" stroke-linecap="round" opacity="0.40"/><line x1="230.5" y1="309.3" x2="229.7" y2="314.2" stroke="#a08858" stroke-width="1.0" stroke-linecap="round" opacity="0.40"/><line x1="302.6" y1="304.9" x2="307.6" y2="304.7" stroke="#a08858" stroke-width="1.0" stroke-linecap="round" opacity="0.40"/><line x1="223.1" y1="290.8" x2="219.0" y2="293.7" stroke="#a08858" stroke-width="1.0" stroke-linecap="round" opacity="0.40"/><line x1="304.4" y1="292.7" x2="304.1" y2="297.7" stroke="#a08858" stroke-width="1.0" stroke-linecap="round" opacity="0.40"/><line x1="235.4" y1="314.0" x2="230.8" y2="316.0" stroke="#a08858" stroke-width="1.0" stroke-linecap="round" opacity="0.40"/><line x1="306.4" y1="308.2" x2="302.7" y2="304.8" stroke="#a08858" stroke-width="1.0" stroke-linecap="round" opacity="0.40"/><line x1="224.3" y1="296.0" x2="219.4" y2="296.4" stroke="#a08858" stroke-width="1.0" stroke-linecap="round" opacity="0.40"/><line x1="309.4" y1="293.3" x2="313.7" y2="295.8" stroke="#a08858" stroke-width="1.0" stroke-linecap="round" opacity="0.40"/><line x1="249.5" y1="316.3" x2="251.2" y2="321.0" stroke="#a08858" stroke-width="1.0" stroke-linecap="round" opacity="0.40"/><line x1="252.2" y1="329.6" x2="256.6" y2="332.0" stroke="#a08858" stroke-width="1.0" stroke-linecap="round" opacity="0.40"/><line x1="297.6" y1="318.0" x2="301.5" y2="314.9" stroke="#a08858" stroke-width="1.0" stroke-linecap="round" opacity="0.40"/><line x1="302.6" y1="304.9" x2="299.1" y2="308.4" stroke="#a08858" stroke-width="1.0" stroke-linecap="round" opacity="0.40"/><line x1="309.4" y1="293.3" x2="312.4" y2="289.3" stroke="#a08858" stroke-width="1.0" stroke-linecap="round" opacity="0.40"/></g></svg>