<svg xmlns="http://www.w3.org/2000/svg" viewBox="0 0 530 540"><g class="tree-roots"><line x1="265.0" y1="288.0" x2="265.0" y2="293.0" stroke="#a08858" stroke-width="2.5" stroke-linecap="round" opacity="0.58"/><line x1="265.0" y1="293.0" x2="265.2" y2="298.0" stroke="#a08858" stroke-width="2.4" stroke-linecap="round" opacity="0.57"/><line x1="265.0" y1="293.0" x2="260.1" y2="292.5" stroke="#a08858" stroke-width="2.4" stroke-linecap="round" opacity="0.57"/><line x1="265.2" y1="298.0" x2="270.2" y2="297.9" stroke="#a08858" stroke-width="2.4" stroke-linecap="round" opacity="0.56"/><line x1="265.0" y1="288.0" x2="268.3" y2="291.7" stroke="#a08858" stroke-width="2.4" stroke-linecap="round" opacity="0.56"/><line x1="260.1" y1="292.5" x2="255.3" y2="293.8" stroke="#a08858" stroke-width="2.4" stroke-linecap="round" opacity="0.56"/><line x1="264.9" y1="303.0" x2="260.0" y2="302.4" stroke="#a08858" stroke-width="2.4" stroke-linecap="round" opacity="0.56"/><line x1="265.2" y1="298.0" x2="264.9" y2="303.0" stroke="#a08858" stroke-width="2.3" stroke-linecap="round" opacity="0.55"/><line x1="270.2" y1="297.9" x2="275.0" y2="299.2" stroke="#a08858" stroke-width="2.3" stroke-linecap="round" opacity="0.55"/><line x1="268.3" y1="291.7" x2="273.3" y2="290.8" stroke="#a08858" stroke-width="2.3" stroke-linecap="round" opacity="0.55"/><line x1="255.3" y1="293.8" x2="250.3" y2="294.6" stroke="#a08858" stroke-width="2.3" stroke-linecap="round" opacity="0.55"/><line x1="260.0" y1="302.4" x2="255.3" y2="304.2" stroke="#a08858" stroke-width="2.3" stroke-linecap="round" opacity="0.55"/><line x1="264.9" y1="303.0" x2="264.0" y2="307.9" stroke="#a08858" stroke-width="2.2" stroke-linecap="round" opacity="0.54"/><line x1="264.0" y1="307.9" x2="261.4" y2="312.2" stroke="#a08858" stroke-width="2.2" stroke-linecap="round" opacity="0.54"/><line x1="275.0" y1="299.2" x2="279.8" y2="300.6" stroke="#a08858" stroke-width="2.2" stroke-linecap="round" opacity="0.54"/><line x1="273.3" y1="290.8" x2="278.3" y2="290.9" stroke="#a08858" stroke-width="2.2" stroke-linecap="round" opacity="0.54"/><line x1="250.3" y1="294.6" x2="245.4" y2="295.6" stroke="#a08858" stroke-width="2.2" stroke-linecap="round" opacity="0.54"/><line x1="255.3" y1="304.2" x2="250.6" y2="305.9" stroke="#a08858" stroke-width="2.2" stroke-linecap="round" opacity="0.54"/><line x1="261.4" y1="312.2" x2="258.8" y2="316.5" stroke="#a08858" stroke-width="2.1" stroke-linecap="round" opacity="0.54"/><line x1="264.0" y1="307.9" x2="268.6" y2="309.8" stroke="#a08858" stroke-width="2.1" stroke-linecap="round" opacity="0.54"/><line x1="279.8" y1="300.6" x2="284.5" y2="302.2" stroke="#a08858" stroke-width="2.1" stroke-linecap="round" opacity="0.54"/><line x1="278.3" y1="290.9" x2="283.3" y2="290.9" stroke="#a08858" stroke-width="2.1" stroke-linecap="round" opacity="0.54"/><line x1="250.6" y1="305.9" x2="245.9" y2="307.7" stroke="#a08858" stroke-width="2.1" stroke-linecap="round" opacity="0.54"/><line x1="245.4" y1="295.6" x2="240.5" y2="296.5" stroke="#a08858" stroke-width="2.1" stroke-linecap="round" opacity="0.54"/><line x1="258.8" y1="316.5" x2="255.2" y2="319.9" stroke="#a08858" stroke-width="2.1" stroke-linecap="round" opacity="0.53"/><line x1="268.6" y1="309.8" x2="272.3" y2="313.2" stroke="#a08858" stroke-width="2.1" stroke-linecap="round" opacity="0.53"/><line x1="283.3" y1="290.9" x2="288.2" y2="291.8" stroke="#a08858" stroke-width="2.1" stroke-linecap="round" opacity="0.53"/><line x1="284.5" y1="302.2" x2="289.4" y2="303.1" stroke="#a08858" stroke-width="2.1" stroke-linecap="round" opacity="0.53"/><line x1="245.9" y1="307.7" x2="241.1" y2="309.1" stroke="#a08858" stroke-width="2.1" stroke-linecap="round" opacity="0.53"/><line x1="240.5" y1="296.5" x2="235.5" y2="296.9" stroke="#a08858" stroke-width="2.1" stroke-linecap="round" opacity="0.53"/><line x1="272.3" y1="313.2" x2="275.1" y2="317.3" stroke="#a08858" stroke-width="2.0" stroke-linecap="round" opacity="0.52"/><line x1="255.2" y1="319.9" x2="251.4" y2="323.2" stroke="#a08858" stroke-width="2.0" stroke-linecap="round" opacity="0.52"/><line x1="288.2" y1="291.8" x2="293.1" y2="292.5" stroke="#a08858" stroke-width="2.0" stroke-linecap="round" opacity="0.52"/><line x1="289.4" y1="303.1" x2="294.1" y2="304.9" stroke="#a08858" stroke-width="2.0" stroke-linecap="round" opacity="0.52"/><line x1="235.5" y1="296.9" x2="230.6" y2="297.6" stroke="#a08858" stroke-width="2.0" stroke-linecap="round" opacity="0.52"/><line x1="241.1" y1="309.1" x2="237.0" y2="311.9" stroke="#a08858" stroke-width="2.0" stroke-linecap="round" opacity="0.52"/><line x1="275.1" y1="317.3" x2="277.8" y2="321.5" stroke="#a08858" stroke-width="1.9" stroke-linecap="round" opacity="0.51"/><line x1="277.8" y1="321.5" x2="280.1" y2="326.0" stroke="#a08858" stroke-width="1.9" stroke-linecap="round" opacity="0.51"/><line x1="294.1" y1="304.9" x2="299.0" y2="305.9" stroke="#a08858" stroke-width="1.9" stroke-linecap="round" opacity="0.51"/><line x1="293.1" y1="292.5" x2="298.0" y2="293.5" stroke="#a08858" stroke-width="1.9" stroke-linecap="round" opacity="0.51"/><line x1="251.4" y1="323.2" x2="247.0" y2="325.5" stroke="#a08858" stroke-width="1.9" stroke-linecap="round" opacity="0.51"/><line x1="230.6" y1="297.6" x2="225.6" y2="298.3" stroke="#a08858" stroke-width="1.9" stroke-linecap="round" opacity="0.51"/><line x1="237.0" y1="311.9" x2="232.4" y2="314.0" stroke="#a08858" stroke-width="1.9" stroke-linecap="round" opacity="0.51"/><line x1="294.1" y1="304.9" x2="293.6" y2="309.8" stroke="#a08858" stroke-width="1.9" stroke-linecap="round" opacity="0.51"/><line x1="251.4" y1="323.2" x2="248.6" y2="327.3" stroke="#a08858" stroke-width="1.8" stroke-linecap="round" opacity="0.50"/><line x1="280.1" y1="326.0" x2="283.2" y2="329.9" stroke="#a08858" stroke-width="1.8" stroke-linecap="round" opacity="0.50"/><line x1="299.0" y1="305.9" x2="303.4" y2="308.1" stroke="#a08858" stroke-width="1.8" stroke-linecap="round" opacity="0.50"/><line x1="298.0" y1="293.5" x2="302.9" y2="294.4" stroke="#a08858" stroke-width="1.8" stroke-linecap="round" opacity="0.50"/><line x1="247.0" y1="325.5" x2="242.9" y2="322.7" stroke="#a08858" stroke-width="1.8" stroke-linecap="round" opacity="0.50"/><line x1="277.8" y1="321.5" x2="273.1" y2="323.2" stroke="#a08858" stroke-width="1.8" stroke-linecap="round" opacity="0.50"/><line x1="225.6" y1="298.3" x2="220.7" y2="299.3" stroke="#a08858" stroke-width="1.8" stroke-linecap="round" opacity="0.50"/><line x1="232.4" y1="314.0" x2="227.9" y2="316.2" stroke="#a08858" stroke-width="1.8" stroke-linecap="round" opacity="0.50"/><line x1="293.6" y1="309.8" x2="296.2" y2="314.1" stroke="#a08858" stroke-width="1.8" stroke-linecap="round" opacity="0.50"/><line x1="248.6" y1="327.3" x2="246.1" y2="331.6" stroke="#a08858" stroke-width="1.8" stroke-linecap="round" opacity="0.49"/><line x1="248.6" y1="327.3" x2="252.2" y2="330.7" stroke="#a08858" stroke-width="1.8" stroke-linecap="round" opacity="0.49"/><line x1="283.2" y1="329.9" x2="286.0" y2="334.0" stroke="#a08858" stroke-width="1.8" stroke-linecap="round" opacity="0.49"/><line x1="303.4" y1="308.1" x2="307.7" y2="310.7" stroke="#a08858" stroke-width="1.8" stroke-linecap="round" opacity="0.49"/><line x1="302.9" y1="294.4" x2="307.8" y2="295.6" stroke="#a08858" stroke-width="1.8" stroke-linecap="round" opacity="0.49"/><line x1="242.9" y1="322.7" x2="238.0" y2="323.7" stroke="#a08858" stroke-width="1.8" stroke-linecap="round" opacity="0.49"/><line x1="273.1" y1="323.2" x2="273.0" y2="328.2" stroke="#a08858" stroke-width="1.8" stroke-linecap="round" opacity="0.49"/><line x1="220.7" y1="299.3" x2="215.7" y2="299.8" stroke="#a08858" stroke-width="1.8" stroke-linecap="round" opacity="0.49"/><line x1="227.9" y1="316.2" x2="223.8" y2="319.0" stroke="#a08858" stroke-width="1.8" stroke-linecap="round" opacity="0.49"/><line x1="296.2" y1="314.1" x2="298.9" y2="318.3" stroke="#a08858" stroke-width="1.8" stroke-linecap="round" opacity="0.49"/><line x1="246.1" y1="331.6" x2="243.1" y2="335.7" stroke="#a08858" stroke-width="1.7" stroke-linecap="round" opacity="0.48"/><line x1="252.2" y1="330.7" x2="254.3" y2="335.2" stroke="#a08858" stroke-width="1.7" stroke-linecap="round" opacity="0.48"/><line x1="307.7" y1="310.7" x2="312.1" y2="313.2" stroke="#a08858" stroke-width="1.7" stroke-linecap="round" opacity="0.48"/><line x1="286.0" y1="334.0" x2="289.0" y2="338.0" stroke="#a08858" stroke-width="1.7" stroke-linecap="round" opacity="0.48"/><line x1="307.8" y1="295.6" x2="312.8" y2="295.9" stroke="#a08858" stroke-width="1.7" stroke-linecap="round" opacity="0.48"/><line x1="273.0" y1="328.2" x2="273.5" y2="333.2" stroke="#a08858" stroke-width="1.7" stroke-linecap="round" opacity="0.48"/><line x1="238.0" y1="323.7" x2="234.5" y2="327.3" stroke="#a08858" stroke-width="1.7" stroke-linecap="round" opacity="0.48"/><line x1="215.7" y1="299.8" x2="210.8" y2="299.6" stroke="#a08858" stroke-width="1.7" stroke-linecap="round" opacity="0.48"/><line x1="223.8" y1="319.0" x2="219.2" y2="321.0" stroke="#a08858" stroke-width="1.7" stroke-linecap="round" opacity="0.48"/><line x1="298.9" y1="318.3" x2="301.8" y2="322.4" stroke="#a08858" stroke-width="1.7" stroke-linecap="round" opacity="0.48"/><line x1="243.1" y1="335.7" x2="240.5" y2="339.9" stroke="#a08858" stroke-width="1.6" stroke-linecap="round" opacity="0.47"/><line x1="254.3" y1="335.2" x2="256.2" y2="339.8" stroke="#a08858" stroke-width="1.6" stroke-linecap="round" opacity="0.47"/><line x1="289.0" y1="338.0" x2="292.7" y2="341.4" stroke="#a08858" stroke-width="1.6" stroke-linecap="round" opacity="0.47"/><line x1="312.1" y1="313.2" x2="316.4" y2="315.7" stroke="#a08858" stroke-width="1.6" stroke-linecap="round" opacity="0.47"/><line x1="312.8" y1="295.9" x2="317.8" y2="296.5" stroke="#a08858" stroke-width="1.6" stroke-linecap="round" opacity="0.47"/><line x1="234.5" y1="327.3" x2="230.5" y2="330.3" stroke="#a08858" stroke-width="1.6" stroke-linecap="round" opacity="0.47"/><line x1="273.5" y1="333.2" x2="274.2" y2="338.1" stroke="#a08858" stroke-width="1.6" stroke-linecap="round" opacity="0.47"/><line x1="210.8" y1="299.6" x2="205.8" y2="299.9" stroke="#a08858" stroke-width="1.6" stroke-linecap="round" opacity="0.47"/><line x1="219.2" y1="321.0" x2="214.4" y2="322.5" stroke="#a08858" stroke-width="1.6" stroke-linecap="round" opacity="0.47"/><line x1="301.8" y1="322.4" x2="305.0" y2="326.2" stroke="#a08858" stroke-width="1.6" stroke-linecap="round" opacity="0.47"/><line x1="289.0" y1="338.0" x2="286.1" y2="342.0" stroke="#a08858" stroke-width="1.6" stroke-linecap="round" opacity="0.47"/><line x1="289.4" y1="303.1" x2="287.1" y2="307.5" stroke="#a08858" stroke-width="1.5" stroke-linecap="round" opacity="0.46"/><line x1="240.5" y1="339.9" x2="238.0" y2="344.2" stroke="#a08858" stroke-width="1.5" stroke-linecap="round" opacity="0.46"/><line x1="256.2" y1="339.8" x2="257.8" y2="344.6" stroke="#a08858" stroke-width="1.5" stroke-linecap="round" opacity="0.46"/><line x1="292.7" y1="341.4" x2="296.0" y2="345.2" stroke="#a08858" stroke-width="1.5" stroke-linecap="round" opacity="0.46"/><line x1="316.4" y1="315.7" x2="320.8" y2="318.1" stroke="#a08858" stroke-width="1.5" stroke-linecap="round" opacity="0.46"/><line x1="274.2" y1="338.1" x2="274.9" y2="343.1" stroke="#a08858" stroke-width="1.5" stroke-linecap="round" opacity="0.46"/><line x1="317.8" y1="296.5" x2="322.7" y2="297.0" stroke="#a08858" stroke-width="1.5" stroke-linecap="round" opacity="0.46"/><line x1="230.5" y1="330.3" x2="226.4" y2="333.2" stroke="#a08858" stroke-width="1.5" stroke-linecap="round" opacity="0.46"/><line x1="205.8" y1="299.9" x2="200.8" y2="300.7" stroke="#a08858" stroke-width="1.5" stroke-linecap="round" opacity="0.46"/><line x1="214.4" y1="322.5" x2="210.0" y2="324.8" stroke="#a08858" stroke-width="1.5" stroke-linecap="round" opacity="0.46"/><line x1="305.0" y1="326.2" x2="308.6" y2="329.7" stroke="#a08858" stroke-width="1.5" stroke-linecap="round" opacity="0.46"/><line x1="316.4" y1="315.7" x2="320.3" y2="312.6" stroke="#a08858" stroke-width="1.5" stroke-linecap="round" opacity="0.46"/><line x1="286.1" y1="342.0" x2="285.9" y2="347.0" stroke="#a08858" stroke-width="1.5" stroke-linecap="round" opacity="0.46"/><line x1="287.1" y1="307.5" x2="289.9" y2="311.6" stroke="#a08858" stroke-width="1.4" stroke-linecap="round" opacity="0.45"/><line x1="238.0" y1="344.2" x2="234.6" y2="347.9" stroke="#a08858" stroke-width="1.4" stroke-linecap="round" opacity="0.45"/><line x1="220.7" y1="299.3" x2="220.8" y2="304.3" stroke="#a08858" stroke-width="1.4" stroke-linecap="round" opacity="0.45"/><line x1="240.5" y1="339.9" x2="237.5" y2="343.9" stroke="#a08858" stroke-width="1.4" stroke-linecap="round" opacity="0.45"/><line x1="257.8" y1="344.6" x2="258.0" y2="349.6" stroke="#a08858" stroke-width="1.4" stroke-linecap="round" opacity="0.45"/><line x1="238.0" y1="344.2" x2="241.9" y2="347.4" stroke="#a08858" stroke-width="1.4" stroke-linecap="round" opacity="0.45"/><line x1="322.7" y1="297.0" x2="327.7" y2="297.0" stroke="#a08858" stroke-width="1.4" stroke-linecap="round" opacity="0.45"/><line x1="296.0" y1="345.2" x2="298.9" y2="349.3" stroke="#a08858" stroke-width="1.4" stroke-linecap="round" opacity="0.45"/><line x1="274.9" y1="343.1" x2="275.5" y2="348.0" stroke="#a08858" stroke-width="1.4" stroke-linecap="round" opacity="0.45"/><line x1="320.8" y1="318.1" x2="325.4" y2="320.1" stroke="#a08858" stroke-width="1.4" stroke-linecap="round" opacity="0.45"/><line x1="226.4" y1="333.2" x2="222.3" y2="336.0" stroke="#a08858" stroke-width="1.4" stroke-linecap="round" opacity="0.45"/><line x1="210.0" y1="324.8" x2="205.5" y2="327.0" stroke="#a08858" stroke-width="1.4" stroke-linecap="round" opacity="0.45"/><line x1="200.8" y1="300.7" x2="195.9" y2="301.4" stroke="#a08858" stroke-width="1.4" stroke-linecap="round" opacity="0.45"/><line x1="285.9" y1="347.0" x2="286.0" y2="352.0" stroke="#a08858" stroke-width="1.4" stroke-linecap="round" opacity="0.45"/><line x1="308.6" y1="329.7" x2="312.2" y2="333.2" stroke="#a08858" stroke-width="1.4" stroke-linecap="round" opacity="0.45"/><line x1="320.3" y1="312.6" x2="325.2" y2="311.7" stroke="#a08858" stroke-width="1.4" stroke-linecap="round" opacity="0.45"/><line x1="289.9" y1="311.6" x2="291.8" y2="316.3" stroke="#a08858" stroke-width="1.4" stroke-linecap="round" opacity="0.45"/><line x1="234.6" y1="347.9" x2="231.4" y2="351.7" stroke="#a08858" stroke-width="1.4" stroke-linecap="round" opacity="0.45"/><line x1="237.5" y1="343.9" x2="233.1" y2="341.6" stroke="#a08858" stroke-width="1.4" stroke-linecap="round" opacity="0.45"/><line x1="220.8" y1="304.3" x2="219.2" y2="309.0" stroke="#a08858" stroke-width="1.4" stroke-linecap="round" opacity="0.45"/><line x1="258.0" y1="349.6" x2="258.8" y2="354.5" stroke="#a08858" stroke-width="1.4" stroke-linecap="round" opacity="0.45"/><line x1="241.9" y1="347.4" x2="243.1" y2="352.2" stroke="#a08858" stroke-width="1.4" stroke-linecap="round" opacity="0.45"/><line x1="327.7" y1="297.0" x2="332.7" y2="297.4" stroke="#a08858" stroke-width="1.4" stroke-linecap="round" opacity="0.45"/><line x1="275.5" y1="348.0" x2="274.9" y2="353.0" stroke="#a08858" stroke-width="1.4" stroke-linecap="round" opacity="0.45"/><line x1="298.9" y1="349.3" x2="302.5" y2="352.7" stroke="#a08858" stroke-width="1.4" stroke-linecap="round" opacity="0.45"/><line x1="325.4" y1="320.1" x2="330.1" y2="321.6" stroke="#a08858" stroke-width="1.4" stroke-linecap="round" opacity="0.45"/><line x1="222.3" y1="336.0" x2="217.9" y2="338.4" stroke="#a08858" stroke-width="1.4" stroke-linecap="round" opacity="0.45"/><line x1="205.5" y1="327.0" x2="200.9" y2="328.8" stroke="#a08858" stroke-width="1.4" stroke-linecap="round" opacity="0.45"/><line x1="195.9" y1="301.4" x2="191.0" y2="302.4" stroke="#a08858" stroke-width="1.4" stroke-linecap="round" opacity="0.45"/><line x1="286.0" y1="352.0" x2="286.3" y2="357.0" stroke="#a08858" stroke-width="1.4" stroke-linecap="round" opacity="0.45"/><line x1="312.2" y1="333.2" x2="316.0" y2="336.3" stroke="#a08858" stroke-width="1.4" stroke-linecap="round" opacity="0.45"/><line x1="325.2" y1="311.7" x2="330.1" y2="310.9" stroke="#a08858" stroke-width="1.4" stroke-linecap="round" opacity="0.45"/><line x1="210.0" y1="324.8" x2="205.1" y2="323.9" stroke="#a08858" stroke-width="1.4" stroke-linecap="round" opacity="0.45"/><line x1="291.8" y1="316.3" x2="294.0" y2="320.8" stroke="#a08858" stroke-width="1.3" stroke-linecap="round" opacity="0.44"/><line x1="219.2" y1="309.0" x2="216.3" y2="313.1" stroke="#a08858" stroke-width="1.3" stroke-linecap="round" opacity="0.44"/><line x1="233.1" y1="341.6" x2="228.3" y2="340.3" stroke="#a08858" stroke-width="1.3" stroke-linecap="round" opacity="0.44"/><line x1="258.8" y1="354.5" x2="258.5" y2="359.5" stroke="#a08858" stroke-width="1.3" stroke-linecap="round" opacity="0.44"/><line x1="243.1" y1="352.2" x2="244.5" y2="357.0" stroke="#a08858" stroke-width="1.3" stroke-linecap="round" opacity="0.44"/><line x1="231.4" y1="351.7" x2="235.1" y2="355.1" stroke="#a08858" stroke-width="1.3" stroke-linecap="round" opacity="0.44"/><line x1="332.7" y1="297.4" x2="337.7" y2="298.2" stroke="#a08858" stroke-width="1.3" stroke-linecap="round" opacity="0.44"/><line x1="274.9" y1="353.0" x2="276.0" y2="357.9" stroke="#a08858" stroke-width="1.3" stroke-linecap="round" opacity="0.44"/><line x1="330.1" y1="321.6" x2="334.7" y2="323.6" stroke="#a08858" stroke-width="1.3" stroke-linecap="round" opacity="0.44"/><line x1="302.5" y1="352.7" x2="306.3" y2="355.9" stroke="#a08858" stroke-width="1.3" stroke-linecap="round" opacity="0.44"/><line x1="217.9" y1="338.4" x2="213.7" y2="341.1" stroke="#a08858" stroke-width="1.3" stroke-linecap="round" opacity="0.44"/><line x1="337.7" y1="298.2" x2="342.6" y2="297.5" stroke="#a08858" stroke-width="1.3" stroke-linecap="round" opacity="0.44"/><line x1="200.9" y1="328.8" x2="196.4" y2="331.0" stroke="#a08858" stroke-width="1.3" stroke-linecap="round" opacity="0.44"/><line x1="191.0" y1="302.4" x2="186.0" y2="302.3" stroke="#a08858" stroke-width="1.3" stroke-linecap="round" opacity="0.44"/><line x1="286.3" y1="357.0" x2="287.1" y2="361.9" stroke="#a08858" stroke-width="1.3" stroke-linecap="round" opacity="0.44"/><line x1="316.0" y1="336.3" x2="319.1" y2="340.3" stroke="#a08858" stroke-width="1.3" stroke-linecap="round" opacity="0.44"/><line x1="330.1" y1="310.9" x2="335.1" y2="310.4" stroke="#a08858" stroke-width="1.3" stroke-linecap="round" opacity="0.44"/><line x1="334.7" y1="323.6" x2="339.1" y2="326.0" stroke="#a08858" stroke-width="1.3" stroke-linecap="round" opacity="0.44"/><line x1="306.3" y1="355.9" x2="310.4" y2="358.8" stroke="#a08858" stroke-width="1.3" stroke-linecap="round" opacity="0.44"/><line x1="205.1" y1="323.9" x2="201.0" y2="321.1" stroke="#a08858" stroke-width="1.3" stroke-linecap="round" opacity="0.44"/><line x1="294.0" y1="320.8" x2="295.6" y2="325.5" stroke="#a08858" stroke-width="1.2" stroke-linecap="round" opacity="0.43"/><line x1="231.4" y1="351.7" x2="227.9" y2="355.3" stroke="#a08858" stroke-width="1.2" stroke-linecap="round" opacity="0.43"/><line x1="228.3" y1="340.3" x2="225.9" y2="344.7" stroke="#a08858" stroke-width="1.2" stroke-linecap="round" opacity="0.43"/><line x1="216.3" y1="313.1" x2="211.5" y2="314.5" stroke="#a08858" stroke-width="1.2" stroke-linecap="round" opacity="0.43"/><line x1="258.5" y1="359.5" x2="257.8" y2="364.4" stroke="#a08858" stroke-width="1.2" stroke-linecap="round" opacity="0.43"/><line x1="235.1" y1="355.1" x2="235.5" y2="360.1" stroke="#a08858" stroke-width="1.2" stroke-linecap="round" opacity="0.43"/><line x1="244.5" y1="357.0" x2="245.1" y2="362.0" stroke="#a08858" stroke-width="1.2" stroke-linecap="round" opacity="0.43"/><line x1="276.0" y1="357.9" x2="275.0" y2="362.8" stroke="#a08858" stroke-width="1.2" stroke-linecap="round" opacity="0.43"/><line x1="213.7" y1="341.1" x2="209.8" y2="344.2" stroke="#a08858" stroke-width="1.2" stroke-linecap="round" opacity="0.43"/><line x1="302.5" y1="352.7" x2="307.3" y2="351.5" stroke="#a08858" stroke-width="1.2" stroke-linecap="round" opacity="0.43"/><line x1="195.9" y1="301.4" x2="194.6" y2="296.6" stroke="#a08858" stroke-width="1.2" stroke-linecap="round" opacity="0.43"/><line x1="342.6" y1="297.5" x2="347.5" y2="296.6" stroke="#a08858" stroke-width="1.2" stroke-linecap="round" opacity="0.43"/><line x1="196.4" y1="331.0" x2="192.1" y2="333.6" stroke="#a08858" stroke-width="1.2" stroke-linecap="round" opacity="0.43"/><line x1="191.0" y1="302.4" x2="190.6" y2="307.3" stroke="#a08858" stroke-width="1.2" stroke-linecap="round" opacity="0.43"/><line x1="335.1" y1="310.4" x2="339.7" y2="312.3" stroke="#a08858" stroke-width="1.2" stroke-linecap="round" opacity="0.43"/><line x1="319.1" y1="340.3" x2="323.4" y2="342.9" stroke="#a08858" stroke-width="1.2" stroke-linecap="round" opacity="0.43"/><line x1="310.4" y1="358.8" x2="315.0" y2="360.7" stroke="#a08858" stroke-width="1.2" stroke-linecap="round" opacity="0.43"/><line x1="339.1" y1="326.0" x2="343.3" y2="328.7" stroke="#a08858" stroke-width="1.2" stroke-linecap="round" opacity="0.43"/><line x1="337.7" y1="298.2" x2="338.7" y2="293.3" stroke="#a08858" stroke-width="1.2" stroke-linecap="round" opacity="0.43"/><line x1="287.1" y1="361.9" x2="288.6" y2="366.7" stroke="#a08858" stroke-width="1.2" stroke-linecap="round" opacity="0.43"/><line x1="306.3" y1="355.9" x2="302.8" y2="359.4" stroke="#a08858" stroke-width="1.2" stroke-linecap="round" opacity="0.43"/><line x1="201.0" y1="321.1" x2="196.2" y2="319.6" stroke="#a08858" stroke-width="1.2" stroke-linecap="round" opacity="0.43"/><line x1="334.7" y1="323.6" x2="337.1" y2="319.2" stroke="#a08858" stroke-width="1.2" stroke-linecap="round" opacity="0.43"/><line x1="186.0" y1="302.3" x2="183.6" y2="297.8" stroke="#a08858" stroke-width="1.2" stroke-linecap="round" opacity="0.43"/><line x1="295.6" y1="325.5" x2="297.9" y2="329.9" stroke="#a08858" stroke-width="1.1" stroke-linecap="round" opacity="0.42"/><line x1="227.9" y1="355.3" x2="224.4" y2="358.9" stroke="#a08858" stroke-width="1.1" stroke-linecap="round" opacity="0.42"/><line x1="205.8" y1="299.9" x2="207.3" y2="295.1" stroke="#a08858" stroke-width="1.1" stroke-linecap="round" opacity="0.42"/><line x1="225.9" y1="344.7" x2="221.5" y2="347.1" stroke="#a08858" stroke-width="1.1" stroke-linecap="round" opacity="0.42"/><line x1="211.5" y1="314.5" x2="206.5" y2="315.1" stroke="#a08858" stroke-width="1.1" stroke-linecap="round" opacity="0.42"/><line x1="235.5" y1="360.1" x2="234.9" y2="365.0" stroke="#a08858" stroke-width="1.1" stroke-linecap="round" opacity="0.42"/><line x1="245.1" y1="362.0" x2="245.6" y2="367.0" stroke="#a08858" stroke-width="1.1" stroke-linecap="round" opacity="0.42"/><line x1="257.8" y1="364.4" x2="257.2" y2="369.4" stroke="#a08858" stroke-width="1.1" stroke-linecap="round" opacity="0.42"/><line x1="194.6" y1="296.6" x2="190.3" y2="293.9" stroke="#a08858" stroke-width="1.1" stroke-linecap="round" opacity="0.42"/><line x1="275.0" y1="362.8" x2="273.1" y2="367.4" stroke="#a08858" stroke-width="1.1" stroke-linecap="round" opacity="0.42"/><line x1="209.8" y1="344.2" x2="205.1" y2="346.0" stroke="#a08858" stroke-width="1.1" stroke-linecap="round" opacity="0.42"/><line x1="307.3" y1="351.5" x2="311.6" y2="348.9" stroke="#a08858" stroke-width="1.1" stroke-linecap="round" opacity="0.42"/><line x1="347.5" y1="296.6" x2="352.5" y2="295.8" stroke="#a08858" stroke-width="1.1" stroke-linecap="round" opacity="0.42"/><line x1="192.1" y1="333.6" x2="187.1" y2="334.3" stroke="#a08858" stroke-width="1.1" stroke-linecap="round" opacity="0.42"/><line x1="181.1" y1="303.3" x2="178.3" y2="307.4" stroke="#a08858" stroke-width="1.1" stroke-linecap="round" opacity="0.42"/><line x1="339.7" y1="312.3" x2="344.7" y2="312.5" stroke="#a08858" stroke-width="1.1" stroke-linecap="round" opacity="0.42"/><line x1="323.4" y1="342.9" x2="328.3" y2="344.0" stroke="#a08858" stroke-width="1.1" stroke-linecap="round" opacity="0.42"/><line x1="190.6" y1="307.3" x2="187.3" y2="311.2" stroke="#a08858" stroke-width="1.1" stroke-linecap="round" opacity="0.42"/><line x1="302.8" y1="359.4" x2="303.8" y2="364.3" stroke="#a08858" stroke-width="1.1" stroke-linecap="round" opacity="0.42"/><line x1="343.3" y1="328.7" x2="346.8" y2="332.3" stroke="#a08858" stroke-width="1.1" stroke-linecap="round" opacity="0.42"/><line x1="288.6" y1="366.7" x2="290.0" y2="371.5" stroke="#a08858" stroke-width="1.1" stroke-linecap="round" opacity="0.42"/><line x1="315.0" y1="360.7" x2="319.4" y2="358.2" stroke="#a08858" stroke-width="1.1" stroke-linecap="round" opacity="0.42"/><line x1="342.6" y1="297.5" x2="344.3" y2="302.3" stroke="#a08858" stroke-width="1.1" stroke-linecap="round" opacity="0.42"/><line x1="196.2" y1="319.6" x2="191.3" y2="318.8" stroke="#a08858" stroke-width="1.1" stroke-linecap="round" opacity="0.42"/><line x1="337.1" y1="319.2" x2="342.1" y2="319.6" stroke="#a08858" stroke-width="1.1" stroke-linecap="round" opacity="0.42"/><line x1="338.7" y1="293.3" x2="342.8" y2="290.5" stroke="#a08858" stroke-width="1.1" stroke-linecap="round" opacity="0.42"/><line x1="183.6" y1="297.8" x2="179.5" y2="295.0" stroke="#a08858" stroke-width="1.1" stroke-linecap="round" opacity="0.42"/><line x1="275.1" y1="317.3" x2="278.9" y2="320.5" stroke="#a08858" stroke-width="1.1" stroke-linecap="round" opacity="0.41"/><line x1="232.4" y1="314.0" x2="230.2" y2="309.6" stroke="#a08858" stroke-width="1.1" stroke-linecap="round" opacity="0.41"/><line x1="307.7" y1="310.7" x2="311.7" y2="307.6" stroke="#a08858" stroke-width="1.1" stroke-linecap="round" opacity="0.41"/><line x1="286.0" y1="334.0" x2="290.0" y2="337.0" stroke="#a08858" stroke-width="1.1" stroke-linecap="round" opacity="0.41"/><line x1="297.9" y1="329.9" x2="300.8" y2="334.0" stroke="#a08858" stroke-width="1.1" stroke-linecap="round" opacity="0.41"/><line x1="234.6" y1="347.9" x2="230.8" y2="351.2" stroke="#a08858" stroke-width="1.1" stroke-linecap="round" opacity="0.41"/><line x1="274.9" y1="343.1" x2="273.0" y2="347.7" stroke="#a08858" stroke-width="1.1" stroke-linecap="round" opacity="0.41"/><line x1="214.4" y1="322.5" x2="215.9" y2="327.3" stroke="#a08858" stroke-width="1.1" stroke-linecap="round" opacity="0.41"/><line x1="224.4" y1="358.9" x2="219.5" y2="359.9" stroke="#a08858" stroke-width="1.1" stroke-linecap="round" opacity="0.41"/><line x1="258.8" y1="354.5" x2="253.8" y2="353.9" stroke="#a08858" stroke-width="1.1" stroke-linecap="round" opacity="0.41"/><line x1="200.8" y1="300.7" x2="196.0" y2="301.8" stroke="#a08858" stroke-width="1.1" stroke-linecap="round" opacity="0.41"/><line x1="207.3" y1="295.1" x2="204.1" y2="291.3" stroke="#a08858" stroke-width="1.1" stroke-linecap="round" opacity="0.41"/><line x1="258.5" y1="359.5" x2="253.5" y2="359.9" stroke="#a08858" stroke-width="1.1" stroke-linecap="round" opacity="0.41"/><line x1="219.5" y1="359.9" x2="214.6" y2="358.8" stroke="#a08858" stroke-width="1.1" stroke-linecap="round" opacity="0.41"/><line x1="221.5" y1="347.1" x2="217.2" y2="349.6" stroke="#a08858" stroke-width="1.1" stroke-linecap="round" opacity="0.41"/><line x1="286.0" y1="352.0" x2="290.8" y2="353.3" stroke="#a08858" stroke-width="1.1" stroke-linecap="round" opacity="0.41"/><line x1="206.5" y1="315.1" x2="201.8" y2="313.7" stroke="#a08858" stroke-width="1.1" stroke-linecap="round" opacity="0.41"/><line x1="312.2" y1="333.2" x2="315.4" y2="329.3" stroke="#a08858" stroke-width="1.1" stroke-linecap="round" opacity="0.41"/><line x1="186.0" y1="302.3" x2="181.1" y2="303.3" stroke="#a08858" stroke-width="1.1" stroke-linecap="round" opacity="0.41"/><line x1="245.6" y1="367.0" x2="244.5" y2="371.8" stroke="#a08858" stroke-width="1.1" stroke-linecap="round" opacity="0.41"/><line x1="257.2" y1="369.4" x2="257.0" y2="374.4" stroke="#a08858" stroke-width="1.1" stroke-linecap="round" opacity="0.41"/><line x1="234.9" y1="365.0" x2="234.8" y2="370.0" stroke="#a08858" stroke-width="1.1" stroke-linecap="round" opacity="0.41"/><line x1="200.9" y1="328.8" x2="202.0" y2="333.7" stroke="#a08858" stroke-width="1.1" stroke-linecap="round" opacity="0.41"/><line x1="190.3" y1="293.9" x2="186.1" y2="291.3" stroke="#a08858" stroke-width="1.1" stroke-linecap="round" opacity="0.41"/><line x1="205.1" y1="346.0" x2="200.4" y2="347.7" stroke="#a08858" stroke-width="1.1" stroke-linecap="round" opacity="0.41"/><line x1="273.1" y1="367.4" x2="275.0" y2="372.0" stroke="#a08858" stroke-width="1.1" stroke-linecap="round" opacity="0.41"/><line x1="310.4" y1="358.8" x2="309.9" y2="363.7" stroke="#a08858" stroke-width="1.1" stroke-linecap="round" opacity="0.41"/><line x1="311.6" y1="348.9" x2="315.5" y2="352.1" stroke="#a08858" stroke-width="1.1" stroke-linecap="round" opacity="0.41"/><line x1="352.5" y1="295.8" x2="357.3" y2="294.4" stroke="#a08858" stroke-width="1.1" stroke-linecap="round" opacity="0.41"/><line x1="187.1" y1="334.3" x2="186.0" y2="329.4" stroke="#a08858" stroke-width="1.1" stroke-linecap="round" opacity="0.41"/><line x1="344.7" y1="312.5" x2="349.5" y2="311.2" stroke="#a08858" stroke-width="1.1" stroke-linecap="round" opacity="0.41"/><line x1="346.8" y1="332.3" x2="343.3" y2="335.9" stroke="#a08858" stroke-width="1.1" stroke-linecap="round" opacity="0.41"/><line x1="191.3" y1="318.8" x2="186.7" y2="320.7" stroke="#a08858" stroke-width="1.1" stroke-linecap="round" opacity="0.41"/><line x1="328.3" y1="344.0" x2="333.3" y2="344.0" stroke="#a08858" stroke-width="1.1" stroke-linecap="round" opacity="0.41"/><line x1="303.8" y1="364.3" x2="302.8" y2="369.2" stroke="#a08858" stroke-width="1.1" stroke-linecap="round" opacity="0.41"/><line x1="290.0" y1="371.5" x2="290.7" y2="376.5" stroke="#a08858" stroke-width="1.1" stroke-linecap="round" opacity="0.41"/><line x1="344.3" y1="302.3" x2="347.8" y2="305.9" stroke="#a08858" stroke-width="1.1" stroke-linecap="round" opacity="0.41"/><line x1="187.3" y1="311.2" x2="183.3" y2="314.1" stroke="#a08858" stroke-width="1.1" stroke-linecap="round" opacity="0.41"/><line x1="319.4" y1="358.2" x2="323.9" y2="356.1" stroke="#a08858" stroke-width="1.1" stroke-linecap="round" opacity="0.41"/><line x1="178.3" y1="307.4" x2="173.5" y2="308.9" stroke="#a08858" stroke-width="1.1" stroke-linecap="round" opacity="0.41"/><line x1="342.1" y1="319.6" x2="347.0" y2="320.7" stroke="#a08858" stroke-width="1.1" stroke-linecap="round" opacity="0.41"/><line x1="181.1" y1="303.3" x2="176.9" y2="306.0" stroke="#a08858" stroke-width="1.1" stroke-linecap="round" opacity="0.41"/><line x1="275.0" y1="372.0" x2="280.0" y2="372.8" stroke="#a08858" stroke-width="1.1" stroke-linecap="round" opacity="0.41"/><line x1="342.8" y1="290.5" x2="347.6" y2="289.0" stroke="#a08858" stroke-width="1.1" stroke-linecap="round" opacity="0.41"/><line x1="179.5" y1="295.0" x2="175.0" y2="292.8" stroke="#a08858" stroke-width="1.1" stroke-linecap="round" opacity="0.41"/><line x1="279.8" y1="300.6" x2="278.4" y2="305.4" stroke="#a08858" stroke-width="1.0" stroke-linecap="round" opacity="0.40"/><line x1="245.4" y1="295.6" x2="244.7" y2="290.6" stroke="#a08858" stroke-width="1.0" stroke-linecap="round" opacity="0.40"/><line x1="255.2" y1="319.9" x2="251.8" y2="316.2" stroke="#a08858" stroke-width="1.0" stroke-linecap="round" opacity="0.40"/><line x1="272.3" y1="313.2" x2="277.0" y2="311.6" stroke="#a08858" stroke-width="1.0" stroke-linecap="round" opacity="0.40"/><line x1="240.5" y1="296.5" x2="238.4" y2="291.9" stroke="#a08858" stroke-width="1.0" stroke-linecap="round" opacity="0.40"/><line x1="288.2" y1="291.8" x2="289.0" y2="296.7" stroke="#a08858" stroke-width="1.0" stroke-linecap="round" opacity="0.40"/><line x1="245.4" y1="295.6" x2="247.4" y2="300.2" stroke="#a08858" stroke-width="1.0" stroke-linecap="round" opacity="0.40"/><line x1="235.5" y1="296.9" x2="235.6" y2="301.9" stroke="#a08858" stroke-width="1.0" stroke-linecap="round" opacity="0.40"/><line x1="241.1" y1="309.1" x2="242.5" y2="304.3" stroke="#a08858" stroke-width="1.0" stroke-linecap="round" opacity="0.40"/><line x1="251.4" y1="323.2" x2="255.5" y2="326.0" stroke="#a08858" stroke-width="1.0" stroke-linecap="round" opacity="0.40"/><line x1="275.1" y1="317.3" x2="271.9" y2="321.1" stroke="#a08858" stroke-width="1.0" stroke-linecap="round" opacity="0.40"/><line x1="278.9" y1="320.5" x2="283.0" y2="317.7" stroke="#a08858" stroke-width="1.0" stroke-linecap="round" opacity="0.40"/><line x1="298.0" y1="293.5" x2="297.7" y2="298.5" stroke="#a08858" stroke-width="1.0" stroke-linecap="round" opacity="0.40"/><line x1="299.0" y1="305.9" x2="299.8" y2="301.0" stroke="#a08858" stroke-width="1.0" stroke-linecap="round" opacity="0.40"/><line x1="237.0" y1="311.9" x2="237.0" y2="316.9" stroke="#a08858" stroke-width="1.0" stroke-linecap="round" opacity="0.40"/><line x1="225.6" y1="298.3" x2="230.2" y2="300.3" stroke="#a08858" stroke-width="1.0" stroke-linecap="round" opacity="0.40"/><line x1="283.2" y1="329.9" x2="286.1" y2="325.8" stroke="#a08858" stroke-width="1.0" stroke-linecap="round" opacity="0.40"/><line x1="243.1" y1="335.7" x2="239.2" y2="332.5" stroke="#a08858" stroke-width="1.0" stroke-linecap="round" opacity="0.40"/><line x1="225.6" y1="298.3" x2="225.5" y2="293.3" stroke="#a08858" stroke-width="1.0" stroke-linecap="round" opacity="0.40"/><line x1="227.9" y1="316.2" x2="230.5" y2="320.4" stroke="#a08858" stroke-width="1.0" stroke-linecap="round" opacity="0.40"/><line x1="230.2" y1="309.6" x2="226.0" y2="306.8" stroke="#a08858" stroke-width="1.0" stroke-linecap="round" opacity="0.40"/><line x1="312.8" y1="295.9" x2="315.3" y2="291.6" stroke="#a08858" stroke-width="1.0" stroke-linecap="round" opacity="0.40"/><line x1="215.7" y1="299.8" x2="215.1" y2="294.8" stroke="#a08858" stroke-width="1.0" stroke-linecap="round" opacity="0.40"/><line x1="298.9" y1="318.3" x2="302.7" y2="315.1" stroke="#a08858" stroke-width="1.0" stroke-linecap="round" opacity="0.40"/><line x1="240.5" y1="339.9" x2="237.4" y2="343.8" stroke="#a08858" stroke-width="1.0" stroke-linecap="round" opacity="0.40"/><line x1="311.7" y1="307.6" x2="313.6" y2="303.0" stroke="#a08858" stroke-width="1.0" stroke-linecap="round" opacity="0.40"/><line x1="256.2" y1="339.8" x2="260.1" y2="336.7" stroke="#a08858" stroke-width="1.0" stroke-linecap="round" opacity="0.40"/><line x1="286.0" y1="334.0" x2="283.3" y2="338.2" stroke="#a08858" stroke-width="1.0" stroke-linecap="round" opacity="0.40"/><line x1="290.0" y1="337.0" x2="291.7" y2="332.3" stroke="#a08858" stroke-width="1.0" stroke-linecap="round" opacity="0.40"/><line x1="312.1" y1="313.2" x2="310.5" y2="317.9" stroke="#a08858" stroke-width="1.0" stroke-linecap="round" opacity="0.40"/><line x1="311.7" y1="307.6" x2="316.7" y2="307.9" stroke="#a08858" stroke-width="1.0" stroke-linecap="round" opacity="0.40"/><line x1="317.8" y1="296.5" x2="319.8" y2="301.0" stroke="#a08858" stroke-width="1.0" stroke-linecap="round" opacity="0.40"/><line x1="219.2" y1="321.0" x2="218.5" y2="316.0" stroke="#a08858" stroke-width="1.0" stroke-linecap="round" opacity="0.40"/><line x1="300.8" y1="334.0" x2="302.3" y2="338.7" stroke="#a08858" stroke-width="1.0" stroke-linecap="round" opacity="0.40"/><line x1="296.0" y1="345.2" x2="300.2" y2="342.6" stroke="#a08858" stroke-width="1.0" stroke-linecap="round" opacity="0.40"/><line x1="234.6" y1="347.9" x2="236.7" y2="352.4" stroke="#a08858" stroke-width="1.0" stroke-linecap="round" opacity="0.40"/><line x1="320.8" y1="318.1" x2="317.4" y2="321.8" stroke="#a08858" stroke-width="1.0" stroke-linecap="round" opacity="0.40"/><line x1="230.8" y1="351.2" x2="228.7" y2="346.6" stroke="#a08858" stroke-width="1.0" stroke-linecap="round" opacity="0.40"/><line x1="322.7" y1="297.0" x2="324.2" y2="292.2" stroke="#a08858" stroke-width="1.0" stroke-linecap="round" opacity="0.40"/><line x1="273.0" y1="347.7" x2="268.8" y2="350.4" stroke="#a08858" stroke-width="1.0" stroke-linecap="round" opacity="0.40"/><line x1="222.3" y1="336.0" x2="219.4" y2="331.9" stroke="#a08858" stroke-width="1.0" stroke-linecap="round" opacity="0.40"/><line x1="205.8" y1="299.9" x2="207.8" y2="304.4" stroke="#a08858" stroke-width="1.0" stroke-linecap="round" opacity="0.40"/><line x1="243.1" y1="352.2" x2="247.7" y2="350.2" stroke="#a08858" stroke-width="1.0" stroke-linecap="round" opacity="0.40"/><line x1="227.9" y1="355.3" x2="223.8" y2="352.5" stroke="#a08858" stroke-width="1.0" stroke-linecap="round" opacity="0.40"/><line x1="274.9" y1="343.1" x2="271.1" y2="346.3" stroke="#a08858" stroke-width="1.0" stroke-linecap="round" opacity="0.40"/><line x1="325.4" y1="320.1" x2="323.9" y2="324.9" stroke="#a08858" stroke-width="1.0" stroke-linecap="round" opacity="0.40"/><line x1="215.9" y1="327.3" x2="213.2" y2="331.5" stroke="#a08858" stroke-width="1.0" stroke-linecap="round" opacity="0.40"/><line x1="204.1" y1="291.3" x2="199.1" y2="290.6" stroke="#a08858" stroke-width="1.0" stroke-linecap="round" opacity="0.40"/><line x1="196.0" y1="301.8" x2="198.3" y2="306.2" stroke="#a08858" stroke-width="1.0" stroke-linecap="round" opacity="0.40"/><line x1="200.8" y1="300.7" x2="196.9" y2="303.8" stroke="#a08858" stroke-width="1.0" stroke-linecap="round" opacity="0.40"/><line x1="332.7" y1="297.4" x2="331.7" y2="302.3" stroke="#a08858" stroke-width="1.0" stroke-linecap="round" opacity="0.40"/><line x1="210.0" y1="324.8" x2="209.4" y2="319.9" stroke="#a08858" stroke-width="1.0" stroke-linecap="round" opacity="0.40"/><line x1="253.8" y1="353.9" x2="251.8" y2="358.5" stroke="#a08858" stroke-width="1.0" stroke-linecap="round" opacity="0.40"/><line x1="274.9" y1="343.1" x2="279.9" y2="343.3" stroke="#a08858" stroke-width="1.0" stroke-linecap="round" opacity="0.40"/><line x1="201.8" y1="313.7" x2="196.9" y2="314.6" stroke="#a08858" stroke-width="1.0" stroke-linecap="round" opacity="0.40"/><line x1="290.8" y1="353.3" x2="292.5" y2="358.0" stroke="#a08858" stroke-width="1.0" stroke-linecap="round" opacity="0.40"/><line x1="316.0" y1="336.3" x2="313.1" y2="340.4" stroke="#a08858" stroke-width="1.0" stroke-linecap="round" opacity="0.40"/><line x1="245.1" y1="362.0" x2="249.9" y2="363.4" stroke="#a08858" stroke-width="1.0" stroke-linecap="round" opacity="0.40"/><line x1="214.6" y1="358.8" x2="209.9" y2="357.1" stroke="#a08858" stroke-width="1.0" stroke-linecap="round" opacity="0.40"/><line x1="219.5" y1="359.9" x2="219.7" y2="364.9" stroke="#a08858" stroke-width="1.0" stroke-linecap="round" opacity="0.40"/><line x1="253.5" y1="359.9" x2="252.5" y2="364.8" stroke="#a08858" stroke-width="1.0" stroke-linecap="round" opacity="0.40"/><line x1="217.2" y1="349.6" x2="213.7" y2="353.2" stroke="#a08858" stroke-width="1.0" stroke-linecap="round" opacity="0.40"/><line x1="315.4" y1="329.3" x2="319.7" y2="331.8" stroke="#a08858" stroke-width="1.0" stroke-linecap="round" opacity="0.40"/><line x1="276.0" y1="357.9" x2="280.9" y2="358.7" stroke="#a08858" stroke-width="1.0" stroke-linecap="round" opacity="0.40"/><line x1="302.5" y1="352.7" x2="299.8" y2="357.0" stroke="#a08858" stroke-width="1.0" stroke-linecap="round" opacity="0.40"/><line x1="235.5" y1="360.1" x2="230.8" y2="361.6" stroke="#a08858" stroke-width="1.0" stroke-linecap="round" opacity="0.40"/><line x1="202.0" y1="333.7" x2="202.5" y2="338.7" stroke="#a08858" stroke-width="1.0" stroke-linecap="round" opacity="0.40"/><line x1="244.5" y1="371.8" x2="245.2" y2="376.8" stroke="#a08858" stroke-width="1.0" stroke-linecap="round" opacity="0.40"/><line x1="257.0" y1="374.4" x2="262.0" y2="374.1" stroke="#a08858" stroke-width="1.0" stroke-linecap="round" opacity="0.40"/><line x1="234.8" y1="370.0" x2="237.1" y2="374.4" stroke="#a08858" stroke-width="1.0" stroke-linecap="round" opacity="0.40"/><line x1="275.0" y1="362.8" x2="270.0" y2="362.9" stroke="#a08858" stroke-width="1.0" stroke-linecap="round" opacity="0.40"/><line x1="339.1" y1="326.0" x2="335.4" y2="322.6" stroke="#a08858" stroke-width="1.0" stroke-linecap="round" opacity="0.40"/><line x1="192.1" y1="333.6" x2="192.5" y2="338.5" stroke="#a08858" stroke-width="1.0" stroke-linecap="round" opacity="0.40"/><line x1="309.9" y1="363.7" x2="307.6" y2="368.2" stroke="#a08858" stroke-width="1.0" stroke-linecap="round" opacity="0.40"/><line x1="200.4" y1="347.7" x2="195.5" y2="348.5" stroke="#a08858" stroke-width="1.0" stroke-linecap="round" opacity="0.40"/><line x1="186.1" y1="291.3" x2="181.3" y2="289.9" stroke="#a08858" stroke-width="1.0" stroke-linecap="round" opacity="0.40"/><line x1="315.5" y1="352.1" x2="319.9" y2="349.8" stroke="#a08858" stroke-width="1.0" stroke-linecap="round" opacity="0.40"/><line x1="343.3" y1="328.7" x2="347.8" y2="326.4" stroke="#a08858" stroke-width="1.0" stroke-linecap="round" opacity="0.40"/><line x1="315.0" y1="360.7" x2="318.2" y2="364.6" stroke="#a08858" stroke-width="1.0" stroke-linecap="round" opacity="0.40"/><line x1="339.1" y1="326.0" x2="335.7" y2="329.7" stroke="#a08858" stroke-width="1.0" stroke-linecap="round" opacity="0.40"/><line x1="288.6" y1="366.7" x2="283.7" y2="367.8" stroke="#a08858" stroke-width="1.0" stroke-linecap="round" opacity="0.40"/><line x1="347.8" y1="305.9" x2="352.7" y2="305.4" stroke="#a08858" stroke-width="1.0" stroke-linecap="round" opacity="0.40"/><line x1="186.7" y1="320.7" x2="181.9" y2="322.2" stroke="#a08858" stroke-width="1.0" stroke-linecap="round" opacity="0.40"/><line x1="323.9" y1="356.1" x2="328.3" y2="353.7" stroke="#a08858" stroke-width="1.0" stroke-linecap="round" opacity="0.40"/><line x1="357.3" y1="294.4" x2="359.9" y2="298.7" stroke="#a08858" stroke-width="1.0" stroke-linecap="round" opacity="0.40"/><line x1="186.0" y1="329.4" x2="182.3" y2="326.0" stroke="#a08858" stroke-width="1.0" stroke-linecap="round" opacity="0.40"/><line x1="343.3" y1="335.9" x2="341.5" y2="340.6" stroke="#a08858" stroke-width="1.0" stroke-linecap="round" opacity="0.40"/><line x1="280.0" y1="372.8" x2="282.8" y2="376.9" stroke="#a08858" stroke-width="1.0" stroke-linecap="round" opacity="0.40"/><line x1="333.3" y1="344.0" x2="337.2" y2="347.1" stroke="#a08858" stroke-width="1.0" stroke-linecap="round" opacity="0.40"/><line x1="183.3" y1="314.1" x2="179.6" y2="317.4" stroke="#a08858" stroke-width="1.0" stroke-linecap="round" opacity="0.40"/><line x1="173.5" y1="308.9" x2="171.6" y2="304.3" stroke="#a08858" stroke-width="1.0" stroke-linecap="round" opacity="0.40"/><line x1="349.5" y1="311.2" x2="354.2" y2="309.5" stroke="#a08858" stroke-width="1.0" stroke-linecap="round" opacity="0.40"/><line x1="347.6" y1="289.0" x2="352.6" y2="289.3" stroke="#a08858" stroke-width="1.0" stroke-linecap="round" opacity="0.40"/><line x1="176.9" y1="306.0" x2="174.6" y2="301.5" stroke="#a08858" stroke-width="1.0" stroke-linecap="round" opacity="0.40"/><line x1="181.1" y1="303.3" x2="184.5" y2="306.9" stroke="#a08858" stroke-width="1.0" stroke-linecap="round" opacity="0.40"/><line x1="290.7" y1="376.5" x2="295.1" y2="374.1" stroke="#a08858" stroke-width="1.0" stroke-linecap="round" opacity="0.40"/><line x1="347.0" y1="320.7" x2="352.0" y2="320.5" stroke="#a08858" stroke-width="1.0" stroke-linecap="round" opacity="0.40"/><line x1="302.8" y1="369.2" x2="299.3" y2="372.7" stroke="#a08858" stroke-width="1.0" stroke-linecap="round" opacity="0.40"/><line x1="328.3" y1="344.0" x2="328.4" y2="339.0" stroke="#a08858" stroke-width="1.0" stroke-linecap="round" opacity="0.40"/><line x1="275.0" y1="372.0" x2="271.7" y2="375.8" stroke="#a08858" stroke-width="1.0" stroke-linecap="round" opacity="0.40"/><line x1="175.0" y1="292.8" x2="170.5" y2="290.6" stroke="#a08858" stroke-width="1.0" stroke-linecap="round" opacity="0.40"/><line x1="333.3" y1="344.0" x2="331.6" y2="348.7" stroke="#a08858" stroke-width="1.0" stroke-linecap="round" opacity="0.40"/></g></svg>